<?xml version="1.0" encoding="UTF-8" standalone="no"?>
<!DOCTYPE svg PUBLIC "-//W3C//DTD SVG 1.1//EN"
 "http://www.w3.org/Graphics/SVG/1.1/DTD/svg11.dtd">
<!-- Generated by graphviz version 2.34.0 (20130907.0228)
 -->
<!-- Title: bender Pages: 1 -->
<svg width="614pt" height="932pt"
 viewBox="0.00 0.00 614.00 932.00" xmlns="http://www.w3.org/2000/svg" xmlns:xlink="http://www.w3.org/1999/xlink">
<g id="graph0" class="graph" transform="scale(1 1) rotate(0) translate(4 928)">
<title>bender</title>
<polygon fill="white" stroke="white" points="-4,4 -4,-928 610,-928 610,4 -4,4"/>
<!-- t -->
<g id="node1" class="node"><title>t</title>
<polygon fill="none" stroke="black" points="180,-36 162,-9 198,-9 180,-36"/>
</g>
<!-- w4 -->
<g id="node2" class="node"><title>w4</title>
<polygon fill="none" stroke="black" points="136,-118 114,-118 114,-96 136,-96 136,-118"/>
<text text-anchor="middle" x="125" y="-104.474" font-family="Avenir Next" font-size="14.00">4</text>
</g>
<!-- w4&#45;&gt;t -->
<g id="edge19" class="edge"><title>w4&#45;&gt;t</title>
<path fill="none" stroke="black" d="M127.88,-95.8716C131.258,-84.9724 137.527,-67.4005 146.26,-54 151.444,-46.0452 158.588,-38.3228 164.968,-32.1647"/>
<polygon fill="black" stroke="black" points="167.441,-34.6453 172.435,-25.3014 162.704,-29.4915 167.441,-34.6453"/>
<text text-anchor="middle" x="156.87" y="-63.4744" font-family="Avenir Next" font-size="14.00"> 19</text>
</g>
<!-- label -->
<g id="node3" class="node"><title>label</title>
<ellipse fill="none" stroke="black" cx="80" cy="-200" rx="71.4669" ry="21.7689"/>
<text text-anchor="middle" x="80" y="-197.474" font-family="Avenir Next" font-size="14.00">label (Button)</text>
</g>
<!-- label&#45;&gt;w4 -->
<g id="edge18" class="edge"><title>label&#45;&gt;w4</title>
<path fill="none" stroke="black" d="M90.437,-177.894C97.947,-162.707 108.003,-142.372 115.331,-127.553"/>
<polygon fill="black" stroke="black" points="118.608,-128.821 119.904,-118.306 112.333,-125.719 118.608,-128.821"/>
<text text-anchor="middle" x="120.87" y="-145.474" font-family="Avenir Next" font-size="14.00"> 18</text>
</g>
<!-- w5 -->
<g id="node4" class="node"><title>w5</title>
<polygon fill="none" stroke="black" points="468,-814 446,-814 446,-792 468,-792 468,-814"/>
<text text-anchor="middle" x="457" y="-800.474" font-family="Avenir Next" font-size="14.00">5</text>
</g>
<!-- down -->
<g id="node6" class="node"><title>down</title>
<ellipse fill="none" stroke="black" cx="404" cy="-707" rx="75.3376" ry="21.7689"/>
<text text-anchor="middle" x="404" y="-704.474" font-family="Avenir Next" font-size="14.00">down (Button)</text>
</g>
<!-- w5&#45;&gt;down -->
<g id="edge13" class="edge"><title>w5&#45;&gt;down</title>
<path fill="none" stroke="black" d="M453.46,-791.696C449.585,-780.955 442.863,-763.796 435,-750 432.549,-745.699 429.732,-741.321 426.817,-737.095"/>
<polygon fill="black" stroke="black" points="429.464,-734.781 420.783,-728.707 423.782,-738.869 429.464,-734.781"/>
<text text-anchor="middle" x="456.87" y="-759.474" font-family="Avenir Next" font-size="14.00"> 13</text>
</g>
<!-- mousedown -->
<g id="node5" class="node"><title>mousedown</title>
<polygon fill="none" stroke="black" points="570.108,-893.641 547.706,-914.014 457,-923.081 366.294,-914.014 343.892,-893.641 406.662,-877.304 507.338,-877.304 570.108,-893.641"/>
<text text-anchor="middle" x="457" y="-896.474" font-family="Avenir Next" font-size="14.00">mousedown (frame)</text>
</g>
<!-- mousedown&#45;&gt;w5 -->
<g id="edge10" class="edge"><title>mousedown&#45;&gt;w5</title>
<path fill="none" stroke="black" d="M457,-877.138C457,-861.47 457,-840.118 457,-824.53"/>
<polygon fill="black" stroke="black" points="460.5,-824.362 457,-814.362 453.5,-824.362 460.5,-824.362"/>
<text text-anchor="middle" x="466.87" y="-841.474" font-family="Avenir Next" font-size="14.00"> 10</text>
</g>
<!-- w7 -->
<g id="node10" class="node"><title>w7</title>
<polygon fill="none" stroke="black" points="378,-118 356,-118 356,-96 378,-96 378,-118"/>
<text text-anchor="middle" x="367" y="-104.474" font-family="Avenir Next" font-size="14.00">7</text>
</g>
<!-- down&#45;&gt;w7 -->
<g id="edge16" class="edge"><title>down&#45;&gt;w7</title>
<path fill="none" stroke="black" d="M404,-684.892C404,-663.121 404,-628.188 404,-598 404,-598 404,-598 404,-199 404,-172.523 390.392,-144.692 379.682,-126.887"/>
<polygon fill="black" stroke="black" points="382.432,-124.687 374.134,-118.099 376.512,-128.423 382.432,-124.687"/>
<text text-anchor="middle" x="413.87" y="-405.474" font-family="Avenir Next" font-size="14.00"> 16</text>
</g>
<!-- w6 -->
<g id="node7" class="node"><title>w6</title>
<polygon fill="none" stroke="black" points="238,-814 216,-814 216,-792 238,-792 238,-814"/>
<text text-anchor="middle" x="227" y="-800.474" font-family="Avenir Next" font-size="14.00">6</text>
</g>
<!-- w6&#45;&gt;down -->
<g id="edge14" class="edge"><title>w6&#45;&gt;down</title>
<path fill="none" stroke="black" d="M238.072,-796.12C261.995,-783.415 319.622,-752.811 360.219,-731.251"/>
<polygon fill="black" stroke="black" points="361.926,-734.307 369.116,-726.526 358.643,-728.125 361.926,-734.307"/>
<text text-anchor="middle" x="330.87" y="-759.474" font-family="Avenir Next" font-size="14.00"> 14</text>
</g>
<!-- pushed -->
<g id="node9" class="node"><title>pushed</title>
<polygon fill="none" stroke="black" points="311.194,-701.641 292.736,-722.014 218,-731.081 143.264,-722.014 124.806,-701.641 176.525,-685.304 259.475,-685.304 311.194,-701.641"/>
<text text-anchor="middle" x="218" y="-704.474" font-family="Avenir Next" font-size="14.00">pushed (Button)</text>
</g>
<!-- w6&#45;&gt;pushed -->
<g id="edge2" class="edge"><title>w6&#45;&gt;pushed</title>
<path fill="none" stroke="black" d="M226.037,-791.94C224.884,-779.904 222.896,-759.137 221.186,-741.272"/>
<polygon fill="black" stroke="black" points="224.656,-740.797 220.219,-731.176 217.688,-741.464 224.656,-740.797"/>
<text text-anchor="middle" x="230.81" y="-759.474" font-family="Avenir Next" font-size="14.00"> 2</text>
</g>
<!-- mouseup -->
<g id="node8" class="node"><title>mouseup</title>
<polygon fill="none" stroke="black" points="325.21,-893.641 305.758,-914.014 227,-923.081 148.242,-914.014 128.79,-893.641 183.293,-877.304 270.707,-877.304 325.21,-893.641"/>
<text text-anchor="middle" x="227" y="-896.474" font-family="Avenir Next" font-size="14.00">mouseup (frame)</text>
</g>
<!-- mouseup&#45;&gt;w6 -->
<g id="edge1" class="edge"><title>mouseup&#45;&gt;w6</title>
<path fill="none" stroke="black" d="M227,-877.138C227,-861.47 227,-840.118 227,-824.53"/>
<polygon fill="black" stroke="black" points="230.5,-824.362 227,-814.362 223.5,-824.362 230.5,-824.362"/>
<text text-anchor="middle" x="232.81" y="-841.474" font-family="Avenir Next" font-size="14.00"> 1</text>
</g>
<!-- ppushed -->
<g id="node13" class="node"><title>ppushed</title>
<polygon fill="none" stroke="black" points="357.345,-591.641 341.432,-612.014 277,-621.081 212.568,-612.014 196.655,-591.641 241.243,-575.304 312.757,-575.304 357.345,-591.641"/>
<text text-anchor="middle" x="277" y="-594.474" font-family="Avenir Next" font-size="14.00">pushed (Plus)</text>
</g>
<!-- pushed&#45;&gt;ppushed -->
<g id="edge4" class="edge"><title>pushed&#45;&gt;ppushed</title>
<path fill="none" stroke="#f94179" d="M229.376,-685.177C238.158,-669.1 250.44,-646.617 260.332,-628.511"/>
<polygon fill="#f94179" stroke="#f94179" points="263.533,-629.953 265.255,-619.499 257.389,-626.597 263.533,-629.953"/>
<text text-anchor="middle" x="258.81" y="-649.474" font-family="Avenir Next" font-size="14.00"> 4</text>
</g>
<!-- mpushed -->
<g id="node16" class="node"><title>mpushed</title>
<polygon fill="none" stroke="black" points="178.431,-591.641 160.718,-612.014 89,-621.081 17.2817,-612.014 -0.431263,-591.641 49.1993,-575.304 128.801,-575.304 178.431,-591.641"/>
<text text-anchor="middle" x="89" y="-594.474" font-family="Avenir Next" font-size="14.00">pushed (Minus)</text>
</g>
<!-- pushed&#45;&gt;mpushed -->
<g id="edge3" class="edge"><title>pushed&#45;&gt;mpushed</title>
<path fill="none" stroke="#f94179" d="M193.128,-685.177C172.653,-668.035 143.479,-643.611 121.218,-624.974"/>
<polygon fill="#f94179" stroke="#f94179" points="123.273,-622.129 113.359,-618.393 118.779,-627.496 123.273,-622.129"/>
<text text-anchor="middle" x="171.81" y="-649.474" font-family="Avenir Next" font-size="14.00"> 3</text>
</g>
<!-- w7&#45;&gt;t -->
<g id="edge20" class="edge"><title>w7&#45;&gt;t</title>
<path fill="none" stroke="black" d="M355.862,-100.818C324.814,-86.3734 237.052,-45.543 198.524,-27.6182"/>
<polygon fill="black" stroke="black" points="199.594,-24.2558 189.051,-23.2109 196.641,-30.6025 199.594,-24.2558"/>
<text text-anchor="middle" x="316.87" y="-63.4744" font-family="Avenir Next" font-size="14.00"> 20</text>
</g>
<!-- enabled -->
<g id="node11" class="node"><title>enabled</title>
<ellipse fill="none" stroke="black" cx="519" cy="-304" rx="87.3051" ry="21.7689"/>
<text text-anchor="middle" x="519" y="-301.474" font-family="Avenir Next" font-size="14.00">enabled (Button)</text>
</g>
<!-- enabled&#45;&gt;w7 -->
<g id="edge17" class="edge"><title>enabled&#45;&gt;w7</title>
<path fill="none" stroke="black" d="M510.678,-282.154C496.192,-248.014 463.486,-179.622 418,-136 409.252,-127.61 397.499,-120.934 387.481,-116.207"/>
<polygon fill="black" stroke="black" points="388.779,-112.955 378.216,-112.14 385.965,-119.365 388.779,-112.955"/>
<text text-anchor="middle" x="490.87" y="-197.474" font-family="Avenir Next" font-size="14.00"> 17</text>
</g>
<!-- menabled -->
<g id="node18" class="node"><title>menabled</title>
<ellipse fill="none" stroke="black" cx="292" cy="-200" rx="84.014" ry="21.7689"/>
<text text-anchor="middle" x="292" y="-197.474" font-family="Avenir Next" font-size="14.00">enabled (Minus)</text>
</g>
<!-- enabled&#45;&gt;menabled -->
<g id="edge12" class="edge"><title>enabled&#45;&gt;menabled</title>
<path fill="none" stroke="#f94179" d="M478.155,-284.647C439.905,-267.459 382.662,-241.738 341.761,-223.36"/>
<polygon fill="#f94179" stroke="#f94179" points="343.073,-220.112 332.517,-219.206 340.204,-226.497 343.073,-220.112"/>
<text text-anchor="middle" x="435.87" y="-249.474" font-family="Avenir Next" font-size="14.00"> 12</text>
</g>
<!-- w1 -->
<g id="node12" class="node"><title>w1</title>
<polygon fill="none" stroke="black" points="259,-512 237,-512 237,-490 259,-490 259,-512"/>
<text text-anchor="middle" x="248" y="-498.474" font-family="Avenir Next" font-size="14.00">1</text>
</g>
<!-- n -->
<g id="node14" class="node"><title>n</title>
<ellipse fill="none" stroke="black" cx="183" cy="-408" rx="49.2362" ry="21.7689"/>
<text text-anchor="middle" x="183" y="-405.474" font-family="Avenir Next" font-size="14.00">n (Panel)</text>
</g>
<!-- w1&#45;&gt;n -->
<g id="edge7" class="edge"><title>w1&#45;&gt;n</title>
<path fill="none" stroke="black" d="M240.796,-489.914C231.819,-477.347 216.106,-455.348 203.327,-437.458"/>
<polygon fill="black" stroke="black" points="205.993,-435.168 197.332,-429.065 200.297,-439.237 205.993,-435.168"/>
<text text-anchor="middle" x="232.81" y="-457.474" font-family="Avenir Next" font-size="14.00"> 7</text>
</g>
<!-- ppushed&#45;&gt;w1 -->
<g id="edge6" class="edge"><title>ppushed&#45;&gt;w1</title>
<path fill="none" stroke="black" d="M270.564,-575.138C265.683,-559.318 259.015,-537.703 254.194,-522.078"/>
<polygon fill="black" stroke="black" points="257.489,-520.886 251.197,-512.362 250.801,-522.95 257.489,-520.886"/>
<text text-anchor="middle" x="269.81" y="-539.474" font-family="Avenir Next" font-size="14.00"> 6</text>
</g>
<!-- w3 -->
<g id="node17" class="node"><title>w3</title>
<polygon fill="none" stroke="black" points="194,-315 172,-315 172,-293 194,-293 194,-315"/>
<text text-anchor="middle" x="183" y="-301.474" font-family="Avenir Next" font-size="14.00">3</text>
</g>
<!-- n&#45;&gt;w3 -->
<g id="edge9" class="edge"><title>n&#45;&gt;w3</title>
<path fill="none" stroke="black" d="M183,-385.866C183,-368.155 183,-343.024 183,-325.495"/>
<polygon fill="black" stroke="black" points="186.5,-325.228 183,-315.228 179.5,-325.228 186.5,-325.228"/>
<text text-anchor="middle" x="188.81" y="-353.474" font-family="Avenir Next" font-size="14.00"> 9</text>
</g>
<!-- w2 -->
<g id="node15" class="node"><title>w2</title>
<polygon fill="none" stroke="black" points="138,-512 116,-512 116,-490 138,-490 138,-512"/>
<text text-anchor="middle" x="127" y="-498.474" font-family="Avenir Next" font-size="14.00">2</text>
</g>
<!-- w2&#45;&gt;n -->
<g id="edge8" class="edge"><title>w2&#45;&gt;n</title>
<path fill="none" stroke="black" d="M133.207,-489.914C140.821,-477.54 154.063,-456.022 164.978,-438.286"/>
<polygon fill="black" stroke="black" points="168.171,-439.775 170.431,-429.424 162.21,-436.106 168.171,-439.775"/>
<text text-anchor="middle" x="164.81" y="-457.474" font-family="Avenir Next" font-size="14.00"> 8</text>
</g>
<!-- mpushed&#45;&gt;w2 -->
<g id="edge5" class="edge"><title>mpushed&#45;&gt;w2</title>
<path fill="none" stroke="black" d="M97.4334,-575.138C103.829,-559.318 112.567,-537.703 118.883,-522.078"/>
<polygon fill="black" stroke="black" points="122.308,-522.945 122.811,-512.362 115.818,-520.322 122.308,-522.945"/>
<text text-anchor="middle" x="120.81" y="-539.474" font-family="Avenir Next" font-size="14.00"> 5</text>
</g>
<!-- w3&#45;&gt;t -->
<g id="edge21" class="edge"><title>w3&#45;&gt;t</title>
<path fill="none" stroke="black" d="M182.893,-292.892C182.474,-253.183 180.93,-107.071 180.286,-46.0528"/>
<polygon fill="black" stroke="black" points="183.785,-45.986 180.18,-36.0236 176.786,-46.06 183.785,-45.986"/>
<text text-anchor="middle" x="191.87" y="-145.474" font-family="Avenir Next" font-size="14.00"> 21</text>
</g>
<!-- w3&#45;&gt;menabled -->
<g id="edge11" class="edge"><title>w3&#45;&gt;menabled</title>
<path fill="none" stroke="black" d="M193.85,-292.847C209.815,-277.907 240.202,-249.471 262.955,-228.179"/>
<polygon fill="black" stroke="black" points="265.437,-230.651 270.347,-221.262 260.654,-225.54 265.437,-230.651"/>
<text text-anchor="middle" x="257.87" y="-249.474" font-family="Avenir Next" font-size="14.00"> 11</text>
</g>
<!-- menabled&#45;&gt;w7 -->
<g id="edge15" class="edge"><title>menabled&#45;&gt;w7</title>
<path fill="none" stroke="#f8ca00" d="M309.019,-178.351C321.88,-162.745 339.379,-141.514 351.779,-126.468"/>
<polygon fill="#f8ca00" stroke="#f8ca00" points="354.758,-128.357 358.417,-118.414 349.356,-123.905 354.758,-128.357"/>
<text text-anchor="middle" x="352.87" y="-145.474" font-family="Avenir Next" font-size="14.00"> 15</text>
</g>
<!-- init_n -->
<g id="node19" class="node"><title>init_n</title>
<ellipse fill="#ff6a4d" stroke="#ff6a4d" cx="183" cy="-501" rx="1.8" ry="1.8"/>
</g>
<!-- init_n&#45;&gt;n -->
<g id="edge22" class="edge"><title>init_n&#45;&gt;n</title>
<path fill="none" stroke="#ff6a4d" d="M183,-498.978C183,-493.161 183,-463.65 183,-439.988"/>
<polygon fill="#ff6a4d" stroke="#ff6a4d" points="186.5,-439.963 183,-429.963 179.5,-439.963 186.5,-439.963"/>
<text text-anchor="middle" x="194.69" y="-457.474" font-family="Avenir Next" font-size="14.00"> 8.5</text>
</g>
<!-- init_enabled -->
<g id="node20" class="node"><title>init_enabled</title>
<ellipse fill="#ff6a4d" stroke="#ff6a4d" cx="519" cy="-408" rx="1.8" ry="1.8"/>
</g>
<!-- init_enabled&#45;&gt;enabled -->
<g id="edge23" class="edge"><title>init_enabled&#45;&gt;enabled</title>
<path fill="none" stroke="#ff6a4d" d="M519,-405.854C519,-399.053 519,-363.356 519,-336.344"/>
<polygon fill="#ff6a4d" stroke="#ff6a4d" points="522.5,-336.134 519,-326.134 515.5,-336.135 522.5,-336.134"/>
<text text-anchor="middle" x="534.75" y="-353.474" font-family="Avenir Next" font-size="14.00"> 11.5</text>
</g>
<!-- init_down -->
<g id="node21" class="node"><title>init_down</title>
<ellipse fill="#ff6a4d" stroke="#ff6a4d" cx="402" cy="-803" rx="1.8" ry="1.8"/>
</g>
<!-- init_down&#45;&gt;down -->
<g id="edge24" class="edge"><title>init_down&#45;&gt;down</title>
<path fill="none" stroke="#ff6a4d" d="M402.022,-800.944C402.152,-794.873 402.812,-763.817 403.335,-739.252"/>
<polygon fill="#ff6a4d" stroke="#ff6a4d" points="406.835,-739.285 403.549,-729.213 399.837,-739.136 406.835,-739.285"/>
<text text-anchor="middle" x="419.75" y="-759.474" font-family="Avenir Next" font-size="14.00"> 14.5</text>
</g>
<!-- init_label -->
<g id="node22" class="node"><title>init_label</title>
<ellipse fill="#ff6a4d" stroke="#ff6a4d" cx="80" cy="-304" rx="1.8" ry="1.8"/>
</g>
<!-- init_label&#45;&gt;label -->
<g id="edge25" class="edge"><title>init_label&#45;&gt;label</title>
<path fill="none" stroke="#ff6a4d" d="M80,-301.854C80,-295.053 80,-259.356 80,-232.344"/>
<polygon fill="#ff6a4d" stroke="#ff6a4d" points="83.5001,-232.134 80,-222.134 76.5001,-232.135 83.5001,-232.134"/>
<text text-anchor="middle" x="95.75" y="-249.474" font-family="Avenir Next" font-size="14.00"> 17.5</text>
</g>
</g>
</svg>
