<?xml version="1.0" encoding="UTF-8" standalone="no"?>
<!DOCTYPE svg PUBLIC "-//W3C//DTD SVG 1.1//EN"
 "http://www.w3.org/Graphics/SVG/1.1/DTD/svg11.dtd">
<!-- Generated by graphviz version 2.34.0 (20130907.0228)
 -->
<!-- Title: bender Pages: 1 -->
<svg width="985pt" height="1028pt"
 viewBox="0.00 0.00 985.00 1028.00" xmlns="http://www.w3.org/2000/svg" xmlns:xlink="http://www.w3.org/1999/xlink">
<g id="graph0" class="graph" transform="scale(1 1) rotate(0) translate(4 1024)">
<title>bender</title>
<polygon fill="white" stroke="white" points="-4,4 -4,-1024 981,-1024 981,4 -4,4"/>
<!-- v0 -->
<g id="node1" class="node"><title>v0</title>
<polygon fill="none" stroke="black" points="490,-36 463,-9 517,-9 490,-36"/>
</g>
<!-- v1 -->
<g id="node2" class="node"><title>v1</title>
<polygon fill="none" stroke="#ff6a4d" points="421,-443 399,-443 399,-421 421,-421 421,-443"/>
</g>
<!-- v2 -->
<g id="node3" class="node"><title>v2</title>
<ellipse fill="none" stroke="black" cx="233" cy="-328" rx="71.4669" ry="21.7689"/>
<text text-anchor="middle" x="233" y="-325.474" font-family="Avenir Next" font-size="14.00">label (Button)</text>
</g>
<!-- v1&#45;&gt;v2 -->
<g id="edge13" class="edge"><title>v1&#45;&gt;v2</title>
<path fill="none" stroke="#ff6a4d" stroke-dasharray="5,2" d="M398.928,-424.619C374.512,-410.55 314.991,-376.249 274.295,-352.797"/>
<polygon fill="#ff6a4d" stroke="#ff6a4d" points="275.82,-349.636 265.408,-347.676 272.325,-355.701 275.82,-349.636"/>
<text text-anchor="middle" x="347.87" y="-377.474" font-family="Avenir Next" font-size="14.00"> 13</text>
</g>
<!-- v3 -->
<g id="node4" class="node"><title>v3</title>
<ellipse fill="none" stroke="black" cx="410" cy="-328" rx="87.3051" ry="21.7689"/>
<text text-anchor="middle" x="410" y="-325.474" font-family="Avenir Next" font-size="14.00">enabled (Button)</text>
</g>
<!-- v1&#45;&gt;v3 -->
<g id="edge11" class="edge"><title>v1&#45;&gt;v3</title>
<path fill="none" stroke="#ff6a4d" stroke-dasharray="5,2" d="M410,-420.847C410,-406.858 410,-381.037 410,-360.327"/>
<polygon fill="#ff6a4d" stroke="#ff6a4d" points="413.5,-360.053 410,-350.053 406.5,-360.053 413.5,-360.053"/>
<text text-anchor="middle" x="419.87" y="-377.474" font-family="Avenir Next" font-size="14.00"> 11</text>
</g>
<!-- v4 -->
<g id="node5" class="node"><title>v4</title>
<ellipse fill="none" stroke="black" cx="590" cy="-328" rx="75.3376" ry="21.7689"/>
<text text-anchor="middle" x="590" y="-325.474" font-family="Avenir Next" font-size="14.00">down (Button)</text>
</g>
<!-- v1&#45;&gt;v4 -->
<g id="edge18" class="edge"><title>v1&#45;&gt;v4</title>
<path fill="none" stroke="#ff6a4d" stroke-dasharray="5,2" d="M421.289,-423.714C440.097,-411.667 479.151,-387.035 513.26,-368 523.052,-362.536 533.696,-356.924 543.852,-351.721"/>
<polygon fill="#ff6a4d" stroke="#ff6a4d" points="545.671,-354.723 553.002,-347.074 542.502,-348.482 545.671,-354.723"/>
<text text-anchor="middle" x="523.87" y="-377.474" font-family="Avenir Next" font-size="14.00"> 18</text>
</g>
<!-- v5 -->
<g id="node6" class="node"><title>v5</title>
<polygon fill="none" stroke="black" points="288,-140 266,-140 266,-118 288,-118 288,-140"/>
<text text-anchor="middle" x="277" y="-126.474" font-family="Avenir Next" font-size="14.00">4</text>
</g>
<!-- v2&#45;&gt;v5 -->
<g id="edge28" class="edge"><title>v2&#45;&gt;v5</title>
<path fill="none" stroke="#000000" stroke-dasharray="5,2" d="M250.777,-306.664C263.051,-291.201 278.32,-268.77 285,-246 294.566,-213.392 288.092,-173.509 282.537,-150.019"/>
<polygon fill="#000000" stroke="#000000" points="285.892,-149.014 280.034,-140.186 279.109,-150.74 285.892,-149.014"/>
<text text-anchor="middle" x="299.87" y="-220.474" font-family="Avenir Next" font-size="14.00"> 28</text>
</g>
<!-- v13 -->
<g id="node14" class="node"><title>v13</title>
<ellipse fill="none" stroke="black" cx="60" cy="-223" rx="60.0345" ry="21.7689"/>
<text text-anchor="middle" x="60" y="-220.474" font-family="Avenir Next" font-size="14.00">label (Plus)</text>
</g>
<!-- v2&#45;&gt;v13 -->
<g id="edge22" class="edge"><title>v2&#45;&gt;v13</title>
<path fill="none" stroke="#f94179" stroke-dasharray="5,2" d="M212.361,-306.956C197.767,-293.547 177.266,-276.193 157,-264 143.172,-255.68 127.297,-248.328 112.449,-242.271"/>
<polygon fill="#f94179" stroke="#f94179" points="113.458,-238.906 102.872,-238.48 110.882,-245.415 113.458,-238.906"/>
<text text-anchor="middle" x="199.87" y="-273.474" font-family="Avenir Next" font-size="14.00"> 22</text>
</g>
<!-- v15 -->
<g id="node16" class="node"><title>v15</title>
<ellipse fill="none" stroke="black" cx="207" cy="-223" rx="69.1754" ry="21.7689"/>
<text text-anchor="middle" x="207" y="-220.474" font-family="Avenir Next" font-size="14.00">label (Minus)</text>
</g>
<!-- v2&#45;&gt;v15 -->
<g id="edge20" class="edge"><title>v2&#45;&gt;v15</title>
<path fill="none" stroke="#f94179" stroke-dasharray="5,2" d="M227.739,-306.156C224.028,-291.455 218.994,-271.514 214.815,-254.959"/>
<polygon fill="#f94179" stroke="#f94179" points="218.184,-254.005 212.343,-245.166 211.397,-255.719 218.184,-254.005"/>
<text text-anchor="middle" x="233.87" y="-273.474" font-family="Avenir Next" font-size="14.00"> 20</text>
</g>
<!-- v11 -->
<g id="node12" class="node"><title>v11</title>
<polygon fill="none" stroke="black" points="501,-140 479,-140 479,-118 501,-118 501,-140"/>
<text text-anchor="middle" x="490" y="-126.474" font-family="Avenir Next" font-size="14.00">7</text>
</g>
<!-- v3&#45;&gt;v11 -->
<g id="edge25" class="edge"><title>v3&#45;&gt;v11</title>
<path fill="none" stroke="#000000" stroke-dasharray="5,2" d="M395.59,-306.007C379.547,-279.791 358.224,-234.226 377.26,-200 396.834,-164.806 442.239,-145.038 469.074,-136.038"/>
<polygon fill="#000000" stroke="#000000" points="470.19,-139.356 478.676,-133.012 468.086,-132.68 470.19,-139.356"/>
<text text-anchor="middle" x="387.87" y="-220.474" font-family="Avenir Next" font-size="14.00"> 25</text>
</g>
<!-- v23 -->
<g id="node24" class="node"><title>v23</title>
<ellipse fill="none" stroke="black" cx="490" cy="-223" rx="84.014" ry="21.7689"/>
<text text-anchor="middle" x="490" y="-220.474" font-family="Avenir Next" font-size="14.00">enabled (Minus)</text>
</g>
<!-- v3&#45;&gt;v23 -->
<g id="edge15" class="edge"><title>v3&#45;&gt;v23</title>
<path fill="none" stroke="#f94179" stroke-dasharray="5,2" d="M426.189,-306.156C438.117,-290.799 454.486,-269.724 467.659,-252.765"/>
<polygon fill="#f94179" stroke="#f94179" points="470.465,-254.857 473.835,-244.813 464.937,-250.563 470.465,-254.857"/>
<text text-anchor="middle" x="467.87" y="-273.474" font-family="Avenir Next" font-size="14.00"> 15</text>
</g>
<!-- v4&#45;&gt;v11 -->
<g id="edge24" class="edge"><title>v4&#45;&gt;v11</title>
<path fill="none" stroke="#000000" d="M596.816,-306.001C606.665,-271.283 620.284,-201.443 587,-158 569.411,-135.043 534.199,-130.047 511.389,-129.396"/>
<polygon fill="#000000" stroke="#000000" points="511.329,-125.896 501.319,-129.366 511.308,-132.896 511.329,-125.896"/>
<text text-anchor="middle" x="653.758" y="-231.949" font-family="Avenir Next" font-size="14.00"> 24 Plus, false;</text>
<text text-anchor="middle" x="653.758" y="-209" font-family="Avenir Next" font-size="14.00"> Minus, false</text>
</g>
<!-- v5&#45;&gt;v0 -->
<g id="edge29" class="edge"><title>v5&#45;&gt;v0</title>
<path fill="none" stroke="#000000" stroke-dasharray="5,2" d="M288.152,-122.293C322.292,-104.823 425.726,-51.8916 469.78,-29.3471"/>
<polygon fill="#000000" stroke="#000000" points="471.394,-32.4532 478.702,-24.7819 468.205,-26.2217 471.394,-32.4532"/>
<text text-anchor="middle" x="431.87" y="-74.4744" font-family="Avenir Next" font-size="14.00"> 29</text>
</g>
<!-- v6 -->
<g id="node7" class="node"><title>v6</title>
<polygon fill="none" stroke="black" points="511,-443 489,-443 489,-421 511,-421 511,-443"/>
<text text-anchor="middle" x="500" y="-429.474" font-family="Avenir Next" font-size="14.00">5</text>
</g>
<!-- v6&#45;&gt;v4 -->
<g id="edge16" class="edge"><title>v6&#45;&gt;v4</title>
<path fill="none" stroke="#000000" stroke-dasharray="5,2" d="M508.959,-420.847C521.969,-406.102 546.579,-378.211 565.28,-357.016"/>
<polygon fill="#000000" stroke="#000000" points="568.13,-359.077 572.121,-349.262 562.881,-354.445 568.13,-359.077"/>
<text text-anchor="middle" x="563.87" y="-377.474" font-family="Avenir Next" font-size="14.00"> 16</text>
</g>
<!-- v7 -->
<g id="node8" class="node"><title>v7</title>
<polygon fill="none" stroke="black" points="562.108,-533.641 539.706,-554.014 449,-563.081 358.294,-554.014 335.892,-533.641 398.662,-517.304 499.338,-517.304 562.108,-533.641"/>
<text text-anchor="middle" x="449" y="-536.474" font-family="Avenir Next" font-size="14.00">mousedown (frame)</text>
</g>
<!-- v7&#45;&gt;v6 -->
<g id="edge12" class="edge"><title>v7&#45;&gt;v6</title>
<path fill="none" stroke="#000000" stroke-dasharray="5,2" d="M459.076,-517.255C468.236,-498.395 481.651,-470.778 490.596,-452.362"/>
<polygon fill="#000000" stroke="#000000" points="493.829,-453.716 495.05,-443.192 487.532,-450.658 493.829,-453.716"/>
<text text-anchor="middle" x="490.87" y="-481.474" font-family="Avenir Next" font-size="14.00"> 12</text>
</g>
<!-- v8 -->
<g id="node9" class="node"><title>v8</title>
<polygon fill="none" stroke="black" points="617,-888 595,-888 595,-866 617,-866 617,-888"/>
<text text-anchor="middle" x="606" y="-874.474" font-family="Avenir Next" font-size="14.00">6</text>
</g>
<!-- v8&#45;&gt;v4 -->
<g id="edge17" class="edge"><title>v8&#45;&gt;v4</title>
<path fill="none" stroke="#000000" d="M603.14,-865.941C598.537,-848.844 590,-812.956 590,-782 590,-782 590,-782 590,-431 590,-407.283 590,-380.465 590,-360.281"/>
<polygon fill="#000000" stroke="#000000" points="593.5,-360.098 590,-350.098 586.5,-360.098 593.5,-360.098"/>
<text text-anchor="middle" x="634.758" y="-613.949" font-family="Avenir Next" font-size="14.00"> 17 Plus, false;</text>
<text text-anchor="middle" x="634.758" y="-591" font-family="Avenir Next" font-size="14.00"> Minus, false</text>
</g>
<!-- v10 -->
<g id="node11" class="node"><title>v10</title>
<polygon fill="none" stroke="black" points="804.194,-775.641 785.736,-796.014 711,-805.081 636.264,-796.014 617.806,-775.641 669.525,-759.304 752.475,-759.304 804.194,-775.641"/>
<text text-anchor="middle" x="711" y="-778.474" font-family="Avenir Next" font-size="14.00">pushed (Button)</text>
</g>
<!-- v8&#45;&gt;v10 -->
<g id="edge2" class="edge"><title>v8&#45;&gt;v10</title>
<path fill="none" stroke="#000000" d="M617.237,-865.94C632.22,-852.526 659.318,-828.268 680.542,-809.267"/>
<polygon fill="#000000" stroke="#000000" points="682.947,-811.812 688.063,-802.534 678.278,-806.597 682.947,-811.812"/>
<text text-anchor="middle" x="729.543" y="-833.474" font-family="Avenir Next" font-size="14.00"> 2 Plus, pushed event</text>
</g>
<!-- v9 -->
<g id="node10" class="node"><title>v9</title>
<polygon fill="none" stroke="black" points="726.496,-989.641 702.631,-1010.01 606,-1019.08 509.369,-1010.01 485.504,-989.641 552.374,-973.304 659.626,-973.304 726.496,-989.641"/>
<text text-anchor="middle" x="606" y="-992.474" font-family="Avenir Next" font-size="14.00">mouseup (document)</text>
</g>
<!-- v9&#45;&gt;v8 -->
<g id="edge1" class="edge"><title>v9&#45;&gt;v8</title>
<path fill="none" stroke="#000000" d="M606,-973.262C606,-952.05 606,-919.307 606,-898.267"/>
<polygon fill="#000000" stroke="#000000" points="609.5,-898.193 606,-888.193 602.5,-898.193 609.5,-898.193"/>
<text text-anchor="middle" x="716.992" y="-937.949" font-family="Avenir Next" font-size="14.00"> 1 document/Plus, mouseup event;</text>
<text text-anchor="middle" x="716.992" y="-915" font-family="Avenir Next" font-size="14.00"> document/Minus, mouseup event</text>
</g>
<!-- v19 -->
<g id="node20" class="node"><title>v19</title>
<polygon fill="none" stroke="black" points="780.345,-665.641 764.432,-686.014 700,-695.081 635.568,-686.014 619.655,-665.641 664.243,-649.304 735.757,-649.304 780.345,-665.641"/>
<text text-anchor="middle" x="700" y="-668.474" font-family="Avenir Next" font-size="14.00">pushed (Plus)</text>
</g>
<!-- v10&#45;&gt;v19 -->
<g id="edge4" class="edge"><title>v10&#45;&gt;v19</title>
<path fill="none" stroke="#f94179" d="M708.879,-759.177C707.328,-743.948 705.192,-722.973 703.403,-705.413"/>
<polygon fill="#f94179" stroke="#f94179" points="706.838,-704.597 702.343,-695.003 699.874,-705.306 706.838,-704.597"/>
<text text-anchor="middle" x="774.543" y="-723.474" font-family="Avenir Next" font-size="14.00"> 4 Plus, pushed event</text>
</g>
<!-- v21 -->
<g id="node22" class="node"><title>v21</title>
<polygon fill="none" stroke="black" points="977.431,-665.641 959.718,-686.014 888,-695.081 816.282,-686.014 798.569,-665.641 848.199,-649.304 927.801,-649.304 977.431,-665.641"/>
<text text-anchor="middle" x="888" y="-668.474" font-family="Avenir Next" font-size="14.00">pushed (Minus)</text>
</g>
<!-- v10&#45;&gt;v21 -->
<g id="edge3" class="edge"><title>v10&#45;&gt;v21</title>
<path fill="none" stroke="#f94179" stroke-dasharray="5,2" d="M781.002,-768.161C803.371,-761.897 827.184,-752.388 846,-738 857.778,-728.993 867.149,-715.665 874.024,-703.34"/>
<polygon fill="#f94179" stroke="#f94179" points="877.27,-704.683 878.793,-694.198 871.064,-701.446 877.27,-704.683"/>
<text text-anchor="middle" x="873.81" y="-723.474" font-family="Avenir Next" font-size="14.00"> 3</text>
</g>
<!-- v11&#45;&gt;v0 -->
<g id="edge30" class="edge"><title>v11&#45;&gt;v0</title>
<path fill="none" stroke="#000000" d="M490,-117.941C490,-101.835 490,-69.7065 490,-46.4205"/>
<polygon fill="#000000" stroke="#000000" points="493.5,-46.1211 490,-36.1212 486.5,-46.1212 493.5,-46.1211"/>
<text text-anchor="middle" x="567.987" y="-85.9488" font-family="Avenir Next" font-size="14.00"> 30 frame/Plus, &quot;button&quot;;</text>
<text text-anchor="middle" x="567.987" y="-63" font-family="Avenir Next" font-size="14.00">frame/Minus &quot;button&quot;</text>
</g>
<!-- v12 -->
<g id="node13" class="node"><title>v12</title>
<polygon fill="none" stroke="#ff6a4d" points="71,-339 49,-339 49,-317 71,-317 71,-339"/>
</g>
<!-- v12&#45;&gt;v13 -->
<g id="edge21" class="edge"><title>v12&#45;&gt;v13</title>
<path fill="none" stroke="#ff6a4d" stroke-dasharray="5,2" d="M60,-316.747C60,-302.557 60,-276.308 60,-255.347"/>
<polygon fill="#ff6a4d" stroke="#ff6a4d" points="63.5001,-255.26 60,-245.26 56.5001,-255.26 63.5001,-255.26"/>
<text text-anchor="middle" x="69.87" y="-273.474" font-family="Avenir Next" font-size="14.00"> 21</text>
</g>
<!-- v13&#45;&gt;v5 -->
<g id="edge26" class="edge"><title>v13&#45;&gt;v5</title>
<path fill="none" stroke="#f8ca00" stroke-dasharray="5,2" d="M98.2957,-205.764C144.364,-186.233 220.024,-154.156 256.316,-138.769"/>
<polygon fill="#f8ca00" stroke="#f8ca00" points="258.006,-141.854 265.847,-134.729 255.274,-135.41 258.006,-141.854"/>
<text text-anchor="middle" x="216.87" y="-167.474" font-family="Avenir Next" font-size="14.00"> 26</text>
</g>
<!-- v14 -->
<g id="node15" class="node"><title>v14</title>
<polygon fill="none" stroke="#ff6a4d" points="143,-339 121,-339 121,-317 143,-317 143,-339"/>
</g>
<!-- v14&#45;&gt;v15 -->
<g id="edge19" class="edge"><title>v14&#45;&gt;v15</title>
<path fill="none" stroke="#ff6a4d" stroke-dasharray="5,2" d="M130.118,-316.709C128.262,-303.426 127.008,-280.112 137.26,-264 141.838,-256.806 148.202,-250.767 155.24,-245.742"/>
<polygon fill="#ff6a4d" stroke="#ff6a4d" points="157.208,-248.638 163.745,-240.301 153.435,-242.742 157.208,-248.638"/>
<text text-anchor="middle" x="147.87" y="-273.474" font-family="Avenir Next" font-size="14.00"> 19</text>
</g>
<!-- v15&#45;&gt;v5 -->
<g id="edge27" class="edge"><title>v15&#45;&gt;v5</title>
<path fill="none" stroke="#f8ca00" stroke-dasharray="5,2" d="M222.535,-201.582C234.657,-185.651 251.345,-163.718 263.044,-148.342"/>
<polygon fill="#f8ca00" stroke="#f8ca00" points="266.014,-150.22 269.283,-140.142 260.443,-145.981 266.014,-150.22"/>
<text text-anchor="middle" x="264.87" y="-167.474" font-family="Avenir Next" font-size="14.00"> 27</text>
</g>
<!-- v16 -->
<g id="node17" class="node"><title>v16</title>
<polygon fill="none" stroke="#ff6a4d" points="801,-550 779,-550 779,-528 801,-528 801,-550"/>
</g>
<!-- v17 -->
<g id="node18" class="node"><title>v17</title>
<ellipse fill="none" stroke="black" cx="774" cy="-432" rx="49.2362" ry="21.7689"/>
<text text-anchor="middle" x="774" y="-429.474" font-family="Avenir Next" font-size="14.00">n (Panel)</text>
</g>
<!-- v16&#45;&gt;v17 -->
<g id="edge9" class="edge"><title>v16&#45;&gt;v17</title>
<path fill="none" stroke="#ff6a4d" stroke-dasharray="5,2" d="M788.466,-527.932C786.248,-513.375 782.049,-485.819 778.744,-464.131"/>
<polygon fill="#ff6a4d" stroke="#ff6a4d" points="782.172,-463.396 777.206,-454.037 775.252,-464.45 782.172,-463.396"/>
<text text-anchor="middle" x="789.81" y="-481.474" font-family="Avenir Next" font-size="14.00"> 9</text>
</g>
<!-- v22 -->
<g id="node23" class="node"><title>v22</title>
<polygon fill="none" stroke="black" points="763,-339 741,-339 741,-317 763,-317 763,-339"/>
<text text-anchor="middle" x="752" y="-325.474" font-family="Avenir Next" font-size="14.00">3</text>
</g>
<!-- v17&#45;&gt;v22 -->
<g id="edge10" class="edge"><title>v17&#45;&gt;v22</title>
<path fill="none" stroke="#000000" d="M769.442,-409.866C765.622,-392.155 760.201,-367.024 756.421,-349.495"/>
<polygon fill="#000000" stroke="#000000" points="759.736,-348.265 754.206,-339.228 752.893,-349.741 759.736,-348.265"/>
<text text-anchor="middle" x="801.253" y="-377.474" font-family="Avenir Next" font-size="14.00"> 10 Panel, 3</text>
</g>
<!-- v18 -->
<g id="node19" class="node"><title>v18</title>
<polygon fill="none" stroke="black" points="714,-550 692,-550 692,-528 714,-528 714,-550"/>
<text text-anchor="middle" x="703" y="-536.474" font-family="Avenir Next" font-size="14.00">1</text>
</g>
<!-- v18&#45;&gt;v17 -->
<g id="edge7" class="edge"><title>v18&#45;&gt;v17</title>
<path fill="none" stroke="#000000" d="M701.984,-527.704C701.146,-513.886 701.536,-489.105 712.614,-472 717.301,-464.764 723.854,-458.613 730.946,-453.484"/>
<polygon fill="#000000" stroke="#000000" points="732.986,-456.332 739.437,-447.928 729.153,-450.474 732.986,-456.332"/>
<text text-anchor="middle" x="745.193" y="-481.474" font-family="Avenir Next" font-size="14.00"> 7 Panel, 3</text>
</g>
<!-- v19&#45;&gt;v18 -->
<g id="edge6" class="edge"><title>v19&#45;&gt;v18</title>
<path fill="none" stroke="#000000" d="M700.482,-649.113C701.045,-624.701 701.971,-584.57 702.53,-560.378"/>
<polygon fill="#000000" stroke="#000000" points="706.033,-560.287 702.764,-550.209 699.035,-560.126 706.033,-560.287"/>
<text text-anchor="middle" x="770.543" y="-602.474" font-family="Avenir Next" font-size="14.00"> 6 Plus, pushed event</text>
</g>
<!-- v20 -->
<g id="node21" class="node"><title>v20</title>
<polygon fill="none" stroke="black" points="863,-550 841,-550 841,-528 863,-528 863,-550"/>
<text text-anchor="middle" x="852" y="-536.474" font-family="Avenir Next" font-size="14.00">2</text>
</g>
<!-- v20&#45;&gt;v17 -->
<g id="edge8" class="edge"><title>v20&#45;&gt;v17</title>
<path fill="none" stroke="#000000" stroke-dasharray="5,2" d="M844.521,-527.932C833.228,-512.73 811.404,-483.351 795.01,-461.283"/>
<polygon fill="#000000" stroke="#000000" points="797.799,-459.168 789.026,-453.228 792.18,-463.342 797.799,-459.168"/>
<text text-anchor="middle" x="825.81" y="-481.474" font-family="Avenir Next" font-size="14.00"> 8</text>
</g>
<!-- v21&#45;&gt;v20 -->
<g id="edge5" class="edge"><title>v21&#45;&gt;v20</title>
<path fill="none" stroke="#000000" stroke-dasharray="5,2" d="M882.216,-649.113C875.425,-624.59 864.242,-584.206 857.552,-560.051"/>
<polygon fill="#000000" stroke="#000000" points="860.869,-558.913 854.827,-550.209 854.123,-560.781 860.869,-558.913"/>
<text text-anchor="middle" x="882.81" y="-602.474" font-family="Avenir Next" font-size="14.00"> 5</text>
</g>
<!-- v22&#45;&gt;v0 -->
<g id="edge31" class="edge"><title>v22&#45;&gt;v0</title>
<path fill="none" stroke="#000000" d="M751.564,-316.825C749.241,-276.333 734.912,-125.384 649,-54 628.937,-37.3293 555.149,-26.5033 515.538,-21.76"/>
<polygon fill="#000000" stroke="#000000" points="515.908,-18.2796 505.572,-20.609 515.105,-25.2333 515.908,-18.2796"/>
<text text-anchor="middle" x="789.608" y="-167.474" font-family="Avenir Next" font-size="14.00"> 31 text&#45;n/Panel, &quot;3&quot;</text>
</g>
<!-- v22&#45;&gt;v23 -->
<g id="edge14" class="edge"><title>v22&#45;&gt;v23</title>
<path fill="none" stroke="#000000" d="M740.901,-323.185C721.262,-316.391 679.147,-301.629 644.032,-288 609.563,-274.622 571.16,-258.668 541.323,-246.036"/>
<polygon fill="#000000" stroke="#000000" points="542.525,-242.744 531.952,-242.059 539.79,-249.188 542.525,-242.744"/>
<text text-anchor="middle" x="691.984" y="-273.474" font-family="Avenir Next" font-size="14.00"> 14 Minus, true</text>
</g>
<!-- v23&#45;&gt;v11 -->
<g id="edge23" class="edge"><title>v23&#45;&gt;v11</title>
<path fill="none" stroke="#f8ca00" d="M490,-200.662C490,-185.604 490,-165.539 490,-150.639"/>
<polygon fill="#f8ca00" stroke="#f8ca00" points="493.5,-150.419 490,-140.419 486.5,-150.419 493.5,-150.419"/>
<text text-anchor="middle" x="536.984" y="-167.474" font-family="Avenir Next" font-size="14.00"> 23 Minus, true</text>
</g>
</g>
</svg>
