<?xml version="1.0" encoding="UTF-8" standalone="no"?>
<!DOCTYPE svg PUBLIC "-//W3C//DTD SVG 1.1//EN"
 "http://www.w3.org/Graphics/SVG/1.1/DTD/svg11.dtd">
<!-- Generated by graphviz version 2.34.0 (20130907.0228)
 -->
<!-- Title: bender Pages: 1 -->
<svg width="489pt" height="836pt"
 viewBox="0.00 0.00 489.02 836.00" xmlns="http://www.w3.org/2000/svg" xmlns:xlink="http://www.w3.org/1999/xlink">
<g id="graph0" class="graph" transform="scale(1 1) rotate(0) translate(4 832)">
<title>bender</title>
<polygon fill="white" stroke="white" points="-4,4 -4,-832 485.022,-832 485.022,4 -4,4"/>
<!-- t -->
<g id="node1" class="node"><title>t</title>
<polygon fill="none" stroke="black" points="110.022,-36 92.0221,-9 128.022,-9 110.022,-36"/>
</g>
<!-- n -->
<g id="node2" class="node"><title>n</title>
<ellipse fill="none" stroke="black" cx="94.0221" cy="-468" rx="49.2362" ry="21.7689"/>
<text text-anchor="middle" x="94.0221" y="-465.474" font-family="Avenir Next" font-size="14.00">n (Panel)</text>
</g>
<!-- w3 -->
<g id="node3" class="node"><title>w3</title>
<polygon fill="none" stroke="black" points="61.0221,-372 39.0221,-372 39.0221,-350 61.0221,-350 61.0221,-372"/>
<text text-anchor="middle" x="50.0221" y="-358.474" font-family="Avenir Next" font-size="14.00">3</text>
</g>
<!-- n&#45;&gt;w3 -->
<g id="edge5" class="edge"><title>n&#45;&gt;w3</title>
<path fill="none" stroke="black" d="M85.3292,-446.255C77.4625,-427.483 65.9599,-400.033 58.2431,-381.618"/>
<polygon fill="black" stroke="black" points="61.3859,-380.062 54.2929,-372.192 54.9298,-382.767 61.3859,-380.062"/>
<text text-anchor="middle" x="87.8921" y="-413.474" font-family="Avenir Next" font-size="14.00"> 10</text>
</g>
<!-- w3&#45;&gt;t -->
<g id="edge16" class="edge"><title>w3&#45;&gt;t</title>
<path fill="none" stroke="black" d="M44.5294,-349.947C27.8382,-318.012 -19.4353,-216.369 9.28214,-138 26.2944,-91.5742 70.3186,-50.8148 94.1455,-31.2721"/>
<polygon fill="black" stroke="black" points="96.5563,-33.8262 102.19,-24.8535 92.1905,-28.3545 96.5563,-33.8262"/>
<text text-anchor="middle" x="19.8921" y="-157.474" font-family="Avenir Next" font-size="14.00"> 31</text>
</g>
<!-- enabled -->
<g id="node4" class="node"><title>enabled</title>
<ellipse fill="none" stroke="black" cx="200.022" cy="-238" rx="79.2326" ry="38.2232"/>
<text text-anchor="middle" x="200.022" y="-246.949" font-family="Avenir Next" font-size="14.00">enabled</text>
<text text-anchor="middle" x="200.022" y="-224" font-family="Avenir Next" font-size="14.00">(Button, Minus)</text>
</g>
<!-- w3&#45;&gt;enabled -->
<g id="edge9" class="edge"><title>w3&#45;&gt;enabled</title>
<path fill="none" stroke="black" d="M47.0107,-349.983C43.4719,-336.041 39.465,-310.628 51.2821,-294 66.2067,-272.999 90.0947,-260.003 114.399,-251.965"/>
<polygon fill="black" stroke="black" points="115.532,-255.279 124.08,-249.019 113.494,-248.582 115.532,-255.279"/>
<text text-anchor="middle" x="61.8921" y="-303.474" font-family="Avenir Next" font-size="14.00"> 14</text>
</g>
<!-- w7 -->
<g id="node11" class="node"><title>w7</title>
<polygon fill="none" stroke="black" points="216.022,-119 194.022,-119 194.022,-97 216.022,-97 216.022,-119"/>
<text text-anchor="middle" x="205.022" y="-105.474" font-family="Avenir Next" font-size="14.00">7</text>
</g>
<!-- enabled&#45;&gt;w7 -->
<g id="edge13" class="edge"><title>enabled&#45;&gt;w7</title>
<path fill="none" stroke="black" d="M201.482,-199.633C202.379,-176.671 203.493,-148.141 204.229,-129.294"/>
<polygon fill="black" stroke="black" points="207.731,-129.318 204.624,-119.189 200.736,-129.044 207.731,-129.318"/>
<text text-anchor="middle" x="213.892" y="-157.474" font-family="Avenir Next" font-size="14.00"> 25</text>
</g>
<!-- label -->
<g id="node5" class="node"><title>label</title>
<ellipse fill="none" stroke="black" cx="110.022" cy="-160" rx="71.4669" ry="21.7689"/>
<text text-anchor="middle" x="110.022" y="-157.474" font-family="Avenir Next" font-size="14.00">label (Button)</text>
</g>
<!-- label&#45;&gt;t -->
<g id="edge14" class="edge"><title>label&#45;&gt;t</title>
<path fill="none" stroke="black" d="M110.022,-138.041C110.022,-113.637 110.022,-73.2529 110.022,-46.3871"/>
<polygon fill="black" stroke="black" points="113.522,-46.1295 110.022,-36.1295 106.522,-46.1296 113.522,-46.1295"/>
<text text-anchor="middle" x="119.892" y="-105.474" font-family="Avenir Next" font-size="14.00"> 29</text>
</g>
<!-- mousedown -->
<g id="node6" class="node"><title>mousedown</title>
<polygon fill="none" stroke="black" points="378.13,-355.641 355.728,-376.014 265.022,-385.081 174.317,-376.014 151.914,-355.641 214.684,-339.304 315.36,-339.304 378.13,-355.641"/>
<text text-anchor="middle" x="265.022" y="-358.474" font-family="Avenir Next" font-size="14.00">mousedown (frame)</text>
</g>
<!-- down -->
<g id="node7" class="node"><title>down</title>
<ellipse fill="none" stroke="black" cx="372.022" cy="-238" rx="75.3376" ry="21.7689"/>
<text text-anchor="middle" x="372.022" y="-235.474" font-family="Avenir Next" font-size="14.00">down (Button)</text>
</g>
<!-- mousedown&#45;&gt;down -->
<g id="edge7" class="edge"><title>mousedown&#45;&gt;down</title>
<path fill="none" stroke="black" d="M283.416,-339.199C300.978,-319.34 327.574,-289.263 347.047,-267.243"/>
<polygon fill="black" stroke="black" points="349.866,-269.339 353.868,-259.529 344.622,-264.702 349.866,-269.339"/>
<text text-anchor="middle" x="331.892" y="-303.474" font-family="Avenir Next" font-size="14.00"> 12</text>
</g>
<!-- down&#45;&gt;w7 -->
<g id="edge12" class="edge"><title>down&#45;&gt;w7</title>
<path fill="none" stroke="black" d="M346.294,-217.281C312.652,-191.495 254.468,-146.898 224.344,-123.809"/>
<polygon fill="black" stroke="black" points="226.36,-120.945 216.294,-117.639 222.102,-126.501 226.36,-120.945"/>
<text text-anchor="middle" x="308.892" y="-157.474" font-family="Avenir Next" font-size="14.00"> 24</text>
</g>
<!-- mouseup -->
<g id="node8" class="node"><title>mouseup</title>
<polygon fill="none" stroke="black" points="481.518,-797.641 457.653,-818.014 361.022,-827.081 264.392,-818.014 240.526,-797.641 307.396,-781.304 414.648,-781.304 481.518,-797.641"/>
<text text-anchor="middle" x="361.022" y="-800.474" font-family="Avenir Next" font-size="14.00">mouseup (document)</text>
</g>
<!-- w6 -->
<g id="node9" class="node"><title>w6</title>
<polygon fill="none" stroke="black" points="372.022,-718 350.022,-718 350.022,-696 372.022,-696 372.022,-718"/>
<text text-anchor="middle" x="361.022" y="-704.474" font-family="Avenir Next" font-size="14.00">6</text>
</g>
<!-- mouseup&#45;&gt;w6 -->
<g id="edge1" class="edge"><title>mouseup&#45;&gt;w6</title>
<path fill="none" stroke="black" d="M361.022,-781.138C361.022,-765.47 361.022,-744.118 361.022,-728.53"/>
<polygon fill="black" stroke="black" points="364.522,-728.362 361.022,-718.362 357.522,-728.362 364.522,-728.362"/>
<text text-anchor="middle" x="366.832" y="-745.474" font-family="Avenir Next" font-size="14.00"> 1</text>
</g>
<!-- w6&#45;&gt;down -->
<g id="edge10" class="edge"><title>w6&#45;&gt;down</title>
<path fill="none" stroke="black" d="M368.252,-695.746C380.973,-676.67 406.022,-634.024 406.022,-594 406.022,-594 406.022,-594 406.022,-360 406.022,-328.164 394.979,-293.315 385.48,-269.227"/>
<polygon fill="black" stroke="black" points="388.698,-267.851 381.674,-259.919 382.219,-270.5 388.698,-267.851"/>
<text text-anchor="middle" x="415.892" y="-465.474" font-family="Avenir Next" font-size="14.00"> 17</text>
</g>
<!-- pushed -->
<g id="node10" class="node"><title>pushed</title>
<polygon fill="none" stroke="black" points="368.322,-583.631 345.882,-619.25 255.022,-635.102 164.163,-619.25 141.722,-583.631 204.599,-555.067 305.445,-555.067 368.322,-583.631"/>
<text text-anchor="middle" x="255.022" y="-601.949" font-family="Avenir Next" font-size="14.00">pushed</text>
<text text-anchor="middle" x="255.022" y="-579" font-family="Avenir Next" font-size="14.00">(Button, Plus, Minus)</text>
</g>
<!-- w6&#45;&gt;pushed -->
<g id="edge2" class="edge"><title>w6&#45;&gt;pushed</title>
<path fill="none" stroke="black" d="M351.24,-695.664C338.586,-682.294 315.763,-658.179 295.52,-636.79"/>
<polygon fill="black" stroke="black" points="297.904,-634.218 288.488,-629.361 292.82,-639.029 297.904,-634.218"/>
<text text-anchor="middle" x="338.832" y="-663.474" font-family="Avenir Next" font-size="14.00"> 2</text>
</g>
<!-- pushed&#45;&gt;n -->
<g id="edge3" class="edge"><title>pushed&#45;&gt;n</title>
<path fill="none" stroke="black" d="M206.28,-554.762C180.232,-534.862 148.902,-510.927 125.966,-493.405"/>
<polygon fill="black" stroke="black" points="127.993,-490.548 117.922,-487.259 123.743,-496.111 127.993,-490.548"/>
<text text-anchor="middle" x="180.832" y="-517.474" font-family="Avenir Next" font-size="14.00"> 8</text>
</g>
<!-- w7&#45;&gt;t -->
<g id="edge15" class="edge"><title>w7&#45;&gt;t</title>
<path fill="none" stroke="black" d="M194.124,-96.9053C176.973,-81.0174 143.666,-50.1644 124.515,-32.425"/>
<polygon fill="black" stroke="black" points="126.756,-29.7301 117.041,-25.5021 121.999,-34.8654 126.756,-29.7301"/>
<text text-anchor="middle" x="181.892" y="-63.4744" font-family="Avenir Next" font-size="14.00"> 30</text>
</g>
<!-- init_button -->
<g id="node12" class="node"><title>init_button</title>
<polygon fill="none" stroke="#ff6a4d" points="134.022,-372 112.022,-372 112.022,-350 134.022,-350 134.022,-372"/>
</g>
<!-- init_button&#45;&gt;enabled -->
<g id="edge6" class="edge"><title>init_button&#45;&gt;enabled</title>
<path fill="none" stroke="#ff6a4d" d="M129.587,-349.684C138.916,-335.024 156.575,-307.274 171.877,-283.228"/>
<polygon fill="#ff6a4d" stroke="#ff6a4d" points="174.972,-284.884 177.388,-274.568 169.066,-281.126 174.972,-284.884"/>
<text text-anchor="middle" x="173.892" y="-303.474" font-family="Avenir Next" font-size="14.00" fill="#ff6a4d"> 11</text>
</g>
<!-- init_button&#45;&gt;label -->
<g id="edge8" class="edge"><title>init_button&#45;&gt;label</title>
<path fill="none" stroke="#ff6a4d" d="M121.333,-349.952C118.775,-334.233 114.007,-302.842 112.022,-276 109.938,-247.806 109.547,-215.624 109.614,-192.488"/>
<polygon fill="#ff6a4d" stroke="#ff6a4d" points="113.116,-192.249 109.676,-182.228 106.116,-192.207 113.116,-192.249"/>
<text text-anchor="middle" x="126.892" y="-303.474" font-family="Avenir Next" font-size="14.00" fill="#ff6a4d"> 13</text>
</g>
<!-- init_button&#45;&gt;down -->
<g id="edge11" class="edge"><title>init_button&#45;&gt;down</title>
<path fill="none" stroke="#ff6a4d" d="M129.87,-349.653C133.364,-344.994 137.946,-339.718 143.022,-336 160.067,-323.515 167.49,-326.056 187.022,-318 231.965,-299.463 243.33,-295.133 288.022,-276 299.353,-271.149 311.504,-265.852 322.946,-260.822"/>
<polygon fill="#ff6a4d" stroke="#ff6a4d" points="324.618,-263.91 332.357,-256.674 321.795,-257.504 324.618,-263.91"/>
<text text-anchor="middle" x="254.892" y="-303.474" font-family="Avenir Next" font-size="14.00" fill="#ff6a4d"> 18</text>
</g>
<!-- init_panel -->
<g id="node13" class="node"><title>init_panel</title>
<polygon fill="none" stroke="#ff6a4d" points="105.022,-604 83.0221,-604 83.0221,-582 105.022,-582 105.022,-604"/>
</g>
<!-- init_panel&#45;&gt;n -->
<g id="edge4" class="edge"><title>init_panel&#45;&gt;n</title>
<path fill="none" stroke="#ff6a4d" d="M94.0221,-581.934C94.0221,-564.308 94.0221,-527.173 94.0221,-500.288"/>
<polygon fill="#ff6a4d" stroke="#ff6a4d" points="97.5222,-500.193 94.0221,-490.193 90.5222,-500.193 97.5222,-500.193"/>
<text text-anchor="middle" x="99.8321" y="-517.474" font-family="Avenir Next" font-size="14.00" fill="#ff6a4d"> 9</text>
</g>
</g>
</svg>
