<?xml version="1.0" encoding="UTF-8" standalone="no"?>
<!DOCTYPE svg PUBLIC "-//W3C//DTD SVG 1.1//EN"
 "http://www.w3.org/Graphics/SVG/1.1/DTD/svg11.dtd">
<!-- Generated by graphviz version 2.34.0 (20130907.0228)
 -->
<!-- Title: bender Pages: 1 -->
<svg width="964pt" height="960pt"
 viewBox="0.00 0.00 964.00 960.00" xmlns="http://www.w3.org/2000/svg" xmlns:xlink="http://www.w3.org/1999/xlink">
<g id="graph0" class="graph" transform="scale(1 1) rotate(0) translate(4 956)">
<title>bender</title>
<polygon fill="white" stroke="white" points="-4,4 -4,-956 960,-956 960,4 -4,4"/>
<!-- v0 -->
<g id="node1" class="node"><title>v0</title>
<polygon fill="none" stroke="black" points="490,-36 463,-9 517,-9 490,-36"/>
</g>
<!-- v1 -->
<g id="node2" class="node"><title>v1</title>
<polygon fill="none" stroke="#ff6a4d" points="402,-419 380,-419 380,-397 402,-397 402,-419"/>
</g>
<!-- v2 -->
<g id="node3" class="node"><title>v2</title>
<ellipse fill="none" stroke="black" cx="214" cy="-304" rx="71.4669" ry="21.7689"/>
<text text-anchor="middle" x="214" y="-301.474" font-family="Avenir Next" font-size="14.00">label (Button)</text>
</g>
<!-- v1&#45;&gt;v2 -->
<g id="edge13" class="edge"><title>v1&#45;&gt;v2</title>
<path fill="none" stroke="#ff6a4d" d="M379.928,-400.619C355.512,-386.55 295.991,-352.249 255.295,-328.797"/>
<polygon fill="#ff6a4d" stroke="#ff6a4d" points="256.82,-325.636 246.408,-323.676 253.325,-331.701 256.82,-325.636"/>
<text text-anchor="middle" x="328.87" y="-353.474" font-family="Avenir Next" font-size="14.00"> 13</text>
</g>
<!-- v3 -->
<g id="node4" class="node"><title>v3</title>
<ellipse fill="none" stroke="black" cx="391" cy="-304" rx="87.3051" ry="21.7689"/>
<text text-anchor="middle" x="391" y="-301.474" font-family="Avenir Next" font-size="14.00">enabled (Button)</text>
</g>
<!-- v1&#45;&gt;v3 -->
<g id="edge11" class="edge"><title>v1&#45;&gt;v3</title>
<path fill="none" stroke="#ff6a4d" d="M391,-396.847C391,-382.858 391,-357.037 391,-336.327"/>
<polygon fill="#ff6a4d" stroke="#ff6a4d" points="394.5,-336.053 391,-326.053 387.5,-336.053 394.5,-336.053"/>
<text text-anchor="middle" x="400.87" y="-353.474" font-family="Avenir Next" font-size="14.00"> 11</text>
</g>
<!-- v4 -->
<g id="node5" class="node"><title>v4</title>
<ellipse fill="none" stroke="black" cx="571" cy="-304" rx="75.3376" ry="21.7689"/>
<text text-anchor="middle" x="571" y="-301.474" font-family="Avenir Next" font-size="14.00">down (Button)</text>
</g>
<!-- v1&#45;&gt;v4 -->
<g id="edge18" class="edge"><title>v1&#45;&gt;v4</title>
<path fill="none" stroke="#ff6a4d" d="M402.289,-399.714C421.097,-387.667 460.151,-363.035 494.26,-344 504.052,-338.536 514.696,-332.924 524.852,-327.721"/>
<polygon fill="#ff6a4d" stroke="#ff6a4d" points="526.671,-330.723 534.002,-323.074 523.502,-324.482 526.671,-330.723"/>
<text text-anchor="middle" x="504.87" y="-353.474" font-family="Avenir Next" font-size="14.00"> 18</text>
</g>
<!-- v5 -->
<g id="node6" class="node"><title>v5</title>
<polygon fill="none" stroke="black" points="288,-118 266,-118 266,-96 288,-96 288,-118"/>
<text text-anchor="middle" x="277" y="-104.474" font-family="Avenir Next" font-size="14.00">4</text>
</g>
<!-- v2&#45;&gt;v5 -->
<g id="edge28" class="edge"><title>v2&#45;&gt;v5</title>
<path fill="none" stroke="#000000" d="M238.844,-283.272C255.411,-268.431 275.781,-246.503 285,-222 296.761,-190.74 289.595,-151.297 283.309,-127.95"/>
<polygon fill="#000000" stroke="#000000" points="286.617,-126.792 280.467,-118.166 279.895,-128.745 286.617,-126.792"/>
<text text-anchor="middle" x="301.87" y="-197.474" font-family="Avenir Next" font-size="14.00"> 28</text>
</g>
<!-- v13 -->
<g id="node14" class="node"><title>v13</title>
<ellipse fill="none" stroke="black" cx="60" cy="-200" rx="60.0345" ry="21.7689"/>
<text text-anchor="middle" x="60" y="-197.474" font-family="Avenir Next" font-size="14.00">label (Plus)</text>
</g>
<!-- v2&#45;&gt;v13 -->
<g id="edge22" class="edge"><title>v2&#45;&gt;v13</title>
<path fill="none" stroke="#f94179" d="M192.774,-282.786C178.319,-269.637 158.362,-252.647 139,-240 128.895,-233.4 117.515,-227.163 106.604,-221.693"/>
<polygon fill="#f94179" stroke="#f94179" points="108.11,-218.533 97.5884,-217.287 105.036,-224.822 108.11,-218.533"/>
<text text-anchor="middle" x="179.87" y="-249.474" font-family="Avenir Next" font-size="14.00"> 22</text>
</g>
<!-- v15 -->
<g id="node16" class="node"><title>v15</title>
<ellipse fill="none" stroke="black" cx="207" cy="-200" rx="69.1754" ry="21.7689"/>
<text text-anchor="middle" x="207" y="-197.474" font-family="Avenir Next" font-size="14.00">label (Minus)</text>
</g>
<!-- v2&#45;&gt;v15 -->
<g id="edge20" class="edge"><title>v2&#45;&gt;v15</title>
<path fill="none" stroke="#f94179" d="M212.55,-281.866C211.564,-267.505 210.244,-248.268 209.138,-232.159"/>
<polygon fill="#f94179" stroke="#f94179" points="212.625,-231.844 208.449,-222.107 205.642,-232.324 212.625,-231.844"/>
<text text-anchor="middle" x="221.87" y="-249.474" font-family="Avenir Next" font-size="14.00"> 20</text>
</g>
<!-- v11 -->
<g id="node12" class="node"><title>v11</title>
<polygon fill="none" stroke="black" points="501,-118 479,-118 479,-96 501,-96 501,-118"/>
<text text-anchor="middle" x="490" y="-104.474" font-family="Avenir Next" font-size="14.00">7</text>
</g>
<!-- v3&#45;&gt;v11 -->
<g id="edge25" class="edge"><title>v3&#45;&gt;v11</title>
<path fill="none" stroke="#000000" d="M381.637,-282.057C371.484,-255.963 359.008,-210.817 377.26,-178 396.834,-142.806 442.239,-123.038 469.074,-114.038"/>
<polygon fill="#000000" stroke="#000000" points="470.19,-117.356 478.676,-111.012 468.086,-110.68 470.19,-117.356"/>
<text text-anchor="middle" x="387.87" y="-197.474" font-family="Avenir Next" font-size="14.00"> 25</text>
</g>
<!-- v23 -->
<g id="node24" class="node"><title>v23</title>
<ellipse fill="none" stroke="black" cx="490" cy="-200" rx="84.014" ry="21.7689"/>
<text text-anchor="middle" x="490" y="-197.474" font-family="Avenir Next" font-size="14.00">enabled (Minus)</text>
</g>
<!-- v3&#45;&gt;v23 -->
<g id="edge15" class="edge"><title>v3&#45;&gt;v23</title>
<path fill="none" stroke="#f94179" d="M411.034,-282.359C425.929,-267.013 446.42,-245.9 462.796,-229.028"/>
<polygon fill="#f94179" stroke="#f94179" points="465.542,-231.224 469.996,-221.611 460.519,-226.349 465.542,-231.224"/>
<text text-anchor="middle" x="459.87" y="-249.474" font-family="Avenir Next" font-size="14.00"> 15</text>
</g>
<!-- v4&#45;&gt;v11 -->
<g id="edge24" class="edge"><title>v4&#45;&gt;v11</title>
<path fill="none" stroke="#000000" d="M579.595,-281.842C588.698,-255.925 599.643,-211.359 583,-178 567.978,-147.892 533.157,-127.338 510.645,-116.645"/>
<polygon fill="#000000" stroke="#000000" points="511.838,-113.344 501.283,-112.428 508.963,-119.726 511.838,-113.344"/>
<text text-anchor="middle" x="601.87" y="-197.474" font-family="Avenir Next" font-size="14.00"> 24</text>
</g>
<!-- v5&#45;&gt;v0 -->
<g id="edge29" class="edge"><title>v5&#45;&gt;v0</title>
<path fill="none" stroke="#000000" d="M288.152,-101.445C321.982,-87.6272 423.853,-46.0178 468.566,-27.7548"/>
<polygon fill="#000000" stroke="#000000" points="469.981,-30.9576 477.915,-23.9361 467.334,-24.4773 469.981,-30.9576"/>
<text text-anchor="middle" x="412.87" y="-63.4744" font-family="Avenir Next" font-size="14.00"> 29</text>
</g>
<!-- v6 -->
<g id="node7" class="node"><title>v6</title>
<polygon fill="none" stroke="black" points="492,-419 470,-419 470,-397 492,-397 492,-419"/>
<text text-anchor="middle" x="481" y="-405.474" font-family="Avenir Next" font-size="14.00">5</text>
</g>
<!-- v6&#45;&gt;v4 -->
<g id="edge16" class="edge"><title>v6&#45;&gt;v4</title>
<path fill="none" stroke="#000000" d="M489.959,-396.847C502.969,-382.102 527.579,-354.211 546.28,-333.016"/>
<polygon fill="#000000" stroke="#000000" points="549.13,-335.077 553.121,-325.262 543.881,-330.445 549.13,-335.077"/>
<text text-anchor="middle" x="544.87" y="-353.474" font-family="Avenir Next" font-size="14.00"> 16</text>
</g>
<!-- v7 -->
<g id="node8" class="node"><title>v7</title>
<polygon fill="none" stroke="black" points="543.108,-509.641 520.706,-530.014 430,-539.081 339.294,-530.014 316.892,-509.641 379.662,-493.304 480.338,-493.304 543.108,-509.641"/>
<text text-anchor="middle" x="430" y="-512.474" font-family="Avenir Next" font-size="14.00">mousedown (frame)</text>
</g>
<!-- v7&#45;&gt;v6 -->
<g id="edge12" class="edge"><title>v7&#45;&gt;v6</title>
<path fill="none" stroke="#000000" d="M440.076,-493.255C449.236,-474.395 462.651,-446.778 471.596,-428.362"/>
<polygon fill="#000000" stroke="#000000" points="474.829,-429.716 476.05,-419.192 468.532,-426.658 474.829,-429.716"/>
<text text-anchor="middle" x="471.87" y="-457.474" font-family="Avenir Next" font-size="14.00"> 12</text>
</g>
<!-- v8 -->
<g id="node9" class="node"><title>v8</title>
<polygon fill="none" stroke="black" points="598,-842 576,-842 576,-820 598,-820 598,-842"/>
<text text-anchor="middle" x="587" y="-828.474" font-family="Avenir Next" font-size="14.00">6</text>
</g>
<!-- v8&#45;&gt;v4 -->
<g id="edge17" class="edge"><title>v8&#45;&gt;v4</title>
<path fill="none" stroke="#000000" d="M584.14,-819.941C579.537,-802.844 571,-766.956 571,-736 571,-736 571,-736 571,-407 571,-383.283 571,-356.465 571,-336.281"/>
<polygon fill="#000000" stroke="#000000" points="574.5,-336.098 571,-326.098 567.5,-336.098 574.5,-336.098"/>
<text text-anchor="middle" x="580.87" y="-567.474" font-family="Avenir Next" font-size="14.00"> 17</text>
</g>
<!-- v10 -->
<g id="node11" class="node"><title>v10</title>
<polygon fill="none" stroke="black" points="785.194,-729.641 766.736,-750.014 692,-759.081 617.264,-750.014 598.806,-729.641 650.525,-713.304 733.475,-713.304 785.194,-729.641"/>
<text text-anchor="middle" x="692" y="-732.474" font-family="Avenir Next" font-size="14.00">pushed (Button)</text>
</g>
<!-- v8&#45;&gt;v10 -->
<g id="edge2" class="edge"><title>v8&#45;&gt;v10</title>
<path fill="none" stroke="#000000" d="M598.237,-819.94C613.22,-806.526 640.318,-782.268 661.542,-763.267"/>
<polygon fill="#000000" stroke="#000000" points="663.947,-765.812 669.063,-756.534 659.278,-760.597 663.947,-765.812"/>
<text text-anchor="middle" x="647.81" y="-787.474" font-family="Avenir Next" font-size="14.00"> 2</text>
</g>
<!-- v9 -->
<g id="node10" class="node"><title>v9</title>
<polygon fill="none" stroke="black" points="707.496,-921.641 683.631,-942.014 587,-951.081 490.369,-942.014 466.504,-921.641 533.374,-905.304 640.626,-905.304 707.496,-921.641"/>
<text text-anchor="middle" x="587" y="-924.474" font-family="Avenir Next" font-size="14.00">mouseup (document)</text>
</g>
<!-- v9&#45;&gt;v8 -->
<g id="edge1" class="edge"><title>v9&#45;&gt;v8</title>
<path fill="none" stroke="#000000" d="M587,-905.138C587,-889.47 587,-868.118 587,-852.53"/>
<polygon fill="#000000" stroke="#000000" points="590.5,-852.362 587,-842.362 583.5,-852.362 590.5,-852.362"/>
<text text-anchor="middle" x="592.81" y="-869.474" font-family="Avenir Next" font-size="14.00"> 1</text>
</g>
<!-- v19 -->
<g id="node20" class="node"><title>v19</title>
<polygon fill="none" stroke="black" points="759.345,-619.641 743.432,-640.014 679,-649.081 614.568,-640.014 598.655,-619.641 643.243,-603.304 714.757,-603.304 759.345,-619.641"/>
<text text-anchor="middle" x="679" y="-622.474" font-family="Avenir Next" font-size="14.00">pushed (Plus)</text>
</g>
<!-- v10&#45;&gt;v19 -->
<g id="edge4" class="edge"><title>v10&#45;&gt;v19</title>
<path fill="none" stroke="#f94179" d="M689.493,-713.177C687.66,-697.948 685.136,-676.973 683.022,-659.413"/>
<polygon fill="#f94179" stroke="#f94179" points="686.439,-658.513 681.769,-649.003 679.489,-659.35 686.439,-658.513"/>
<text text-anchor="middle" x="691.81" y="-677.474" font-family="Avenir Next" font-size="14.00"> 4</text>
</g>
<!-- v21 -->
<g id="node22" class="node"><title>v21</title>
<polygon fill="none" stroke="black" points="956.431,-619.641 938.718,-640.014 867,-649.081 795.282,-640.014 777.569,-619.641 827.199,-603.304 906.801,-603.304 956.431,-619.641"/>
<text text-anchor="middle" x="867" y="-622.474" font-family="Avenir Next" font-size="14.00">pushed (Minus)</text>
</g>
<!-- v10&#45;&gt;v21 -->
<g id="edge3" class="edge"><title>v10&#45;&gt;v21</title>
<path fill="none" stroke="#f94179" d="M725.742,-713.177C754.669,-695.324 796.396,-669.573 826.999,-650.686"/>
<polygon fill="#f94179" stroke="#f94179" points="829.042,-653.539 835.714,-645.308 825.365,-647.582 829.042,-653.539"/>
<text text-anchor="middle" x="800.81" y="-677.474" font-family="Avenir Next" font-size="14.00"> 3</text>
</g>
<!-- v11&#45;&gt;v0 -->
<g id="edge30" class="edge"><title>v11&#45;&gt;v0</title>
<path fill="none" stroke="#000000" d="M490,-95.6783C490,-83.6415 490,-63.2602 490,-46.535"/>
<polygon fill="#000000" stroke="#000000" points="493.5,-46.1965 490,-36.1965 486.5,-46.1966 493.5,-46.1965"/>
<text text-anchor="middle" x="499.87" y="-63.4744" font-family="Avenir Next" font-size="14.00"> 30</text>
</g>
<!-- v12 -->
<g id="node13" class="node"><title>v12</title>
<polygon fill="none" stroke="#ff6a4d" points="71,-315 49,-315 49,-293 71,-293 71,-315"/>
</g>
<!-- v12&#45;&gt;v13 -->
<g id="edge21" class="edge"><title>v12&#45;&gt;v13</title>
<path fill="none" stroke="#ff6a4d" d="M60,-292.847C60,-278.858 60,-253.037 60,-232.327"/>
<polygon fill="#ff6a4d" stroke="#ff6a4d" points="63.5001,-232.053 60,-222.053 56.5001,-232.053 63.5001,-232.053"/>
<text text-anchor="middle" x="69.87" y="-249.474" font-family="Avenir Next" font-size="14.00"> 21</text>
</g>
<!-- v13&#45;&gt;v5 -->
<g id="edge26" class="edge"><title>v13&#45;&gt;v5</title>
<path fill="none" stroke="#f8ca00" d="M98.2957,-182.941C144.364,-163.622 220.024,-131.893 256.316,-116.674"/>
<polygon fill="#f8ca00" stroke="#f8ca00" points="257.978,-119.772 265.847,-112.677 255.271,-113.317 257.978,-119.772"/>
<text text-anchor="middle" x="216.87" y="-145.474" font-family="Avenir Next" font-size="14.00"> 26</text>
</g>
<!-- v14 -->
<g id="node15" class="node"><title>v14</title>
<polygon fill="none" stroke="#ff6a4d" points="124,-315 102,-315 102,-293 124,-293 124,-315"/>
</g>
<!-- v14&#45;&gt;v15 -->
<g id="edge19" class="edge"><title>v14&#45;&gt;v15</title>
<path fill="none" stroke="#ff6a4d" d="M111.132,-292.982C109.219,-279.577 107.929,-255.679 119.26,-240 125.764,-231.001 134.823,-224.044 144.668,-218.676"/>
<polygon fill="#ff6a4d" stroke="#ff6a4d" points="146.427,-221.712 153.879,-214.181 143.357,-215.422 146.427,-221.712"/>
<text text-anchor="middle" x="129.87" y="-249.474" font-family="Avenir Next" font-size="14.00"> 19</text>
</g>
<!-- v15&#45;&gt;v5 -->
<g id="edge27" class="edge"><title>v15&#45;&gt;v5</title>
<path fill="none" stroke="#f8ca00" d="M222.884,-178.351C234.888,-162.745 251.22,-141.514 262.794,-126.468"/>
<polygon fill="#f8ca00" stroke="#f8ca00" points="265.666,-128.474 268.989,-118.414 260.118,-124.206 265.666,-128.474"/>
<text text-anchor="middle" x="264.87" y="-145.474" font-family="Avenir Next" font-size="14.00"> 27</text>
</g>
<!-- v16 -->
<g id="node17" class="node"><title>v16</title>
<polygon fill="none" stroke="#ff6a4d" points="730,-526 708,-526 708,-504 730,-504 730,-526"/>
</g>
<!-- v17 -->
<g id="node18" class="node"><title>v17</title>
<ellipse fill="none" stroke="black" cx="709" cy="-408" rx="49.2362" ry="21.7689"/>
<text text-anchor="middle" x="709" y="-405.474" font-family="Avenir Next" font-size="14.00">n (Panel)</text>
</g>
<!-- v16&#45;&gt;v17 -->
<g id="edge9" class="edge"><title>v16&#45;&gt;v17</title>
<path fill="none" stroke="#ff6a4d" d="M718.041,-503.932C716.655,-489.375 714.03,-461.819 711.965,-440.131"/>
<polygon fill="#ff6a4d" stroke="#ff6a4d" points="715.436,-439.66 711.004,-430.037 708.467,-440.324 715.436,-439.66"/>
<text text-anchor="middle" x="719.81" y="-457.474" font-family="Avenir Next" font-size="14.00"> 9</text>
</g>
<!-- v22 -->
<g id="node23" class="node"><title>v22</title>
<polygon fill="none" stroke="black" points="689,-315 667,-315 667,-293 689,-293 689,-315"/>
<text text-anchor="middle" x="678" y="-301.474" font-family="Avenir Next" font-size="14.00">3</text>
</g>
<!-- v17&#45;&gt;v22 -->
<g id="edge10" class="edge"><title>v17&#45;&gt;v22</title>
<path fill="none" stroke="#000000" d="M702.577,-385.866C697.143,-367.986 689.411,-342.545 684.077,-324.996"/>
<polygon fill="#000000" stroke="#000000" points="687.365,-323.778 681.109,-315.228 680.668,-325.814 687.365,-323.778"/>
<text text-anchor="middle" x="705.87" y="-353.474" font-family="Avenir Next" font-size="14.00"> 10</text>
</g>
<!-- v18 -->
<g id="node19" class="node"><title>v18</title>
<polygon fill="none" stroke="black" points="690,-526 668,-526 668,-504 690,-504 690,-526"/>
<text text-anchor="middle" x="679" y="-512.474" font-family="Avenir Next" font-size="14.00">1</text>
</g>
<!-- v18&#45;&gt;v17 -->
<g id="edge7" class="edge"><title>v18&#45;&gt;v17</title>
<path fill="none" stroke="#000000" d="M681.534,-503.662C684.771,-490.628 690.646,-467.557 696.38,-448 697.187,-445.247 698.053,-442.394 698.939,-439.541"/>
<polygon fill="#000000" stroke="#000000" points="702.283,-440.574 701.974,-429.984 695.612,-438.455 702.283,-440.574"/>
<text text-anchor="middle" x="701.81" y="-457.474" font-family="Avenir Next" font-size="14.00"> 7</text>
</g>
<!-- v19&#45;&gt;v18 -->
<g id="edge6" class="edge"><title>v19&#45;&gt;v18</title>
<path fill="none" stroke="#000000" d="M679,-603.177C679,-583.808 679,-555.142 679,-536.032"/>
<polygon fill="#000000" stroke="#000000" points="682.5,-536.027 679,-526.027 675.5,-536.027 682.5,-536.027"/>
<text text-anchor="middle" x="684.81" y="-567.474" font-family="Avenir Next" font-size="14.00"> 6</text>
</g>
<!-- v20 -->
<g id="node21" class="node"><title>v20</title>
<polygon fill="none" stroke="black" points="797,-526 775,-526 775,-504 797,-504 797,-526"/>
<text text-anchor="middle" x="786" y="-512.474" font-family="Avenir Next" font-size="14.00">2</text>
</g>
<!-- v20&#45;&gt;v17 -->
<g id="edge8" class="edge"><title>v20&#45;&gt;v17</title>
<path fill="none" stroke="#000000" d="M778.617,-503.932C767.518,-488.797 746.114,-459.61 729.955,-437.575"/>
<polygon fill="#000000" stroke="#000000" points="732.57,-435.222 723.834,-429.228 726.925,-439.361 732.57,-435.222"/>
<text text-anchor="middle" x="759.81" y="-457.474" font-family="Avenir Next" font-size="14.00"> 8</text>
</g>
<!-- v21&#45;&gt;v20 -->
<g id="edge5" class="edge"><title>v21&#45;&gt;v20</title>
<path fill="none" stroke="#000000" d="M851.382,-603.177C836.381,-583.174 813.943,-553.257 799.641,-534.188"/>
<polygon fill="#000000" stroke="#000000" points="802.32,-531.927 793.52,-526.027 796.72,-536.127 802.32,-531.927"/>
<text text-anchor="middle" x="838.81" y="-567.474" font-family="Avenir Next" font-size="14.00"> 5</text>
</g>
<!-- v22&#45;&gt;v0 -->
<g id="edge31" class="edge"><title>v22&#45;&gt;v0</title>
<path fill="none" stroke="#000000" d="M673.255,-292.674C667.456,-280.138 657.267,-258.391 648,-240 633.953,-212.124 632.046,-204.15 615,-178 579.377,-123.352 529.626,-64.2831 505.014,-35.9906"/>
<polygon fill="#000000" stroke="#000000" points="507.447,-33.4558 498.226,-28.2372 502.18,-38.0667 507.447,-33.4558"/>
<text text-anchor="middle" x="612.87" y="-145.474" font-family="Avenir Next" font-size="14.00"> 31</text>
</g>
<!-- v22&#45;&gt;v23 -->
<g id="edge14" class="edge"><title>v22&#45;&gt;v23</title>
<path fill="none" stroke="#000000" d="M668.218,-292.931C664.314,-289.226 659.647,-285.167 655,-282 620.078,-258.203 577.133,-237.351 543.81,-222.765"/>
<polygon fill="#000000" stroke="#000000" points="544.808,-219.384 534.24,-218.632 542.033,-225.81 544.808,-219.384"/>
<text text-anchor="middle" x="634.87" y="-249.474" font-family="Avenir Next" font-size="14.00"> 14</text>
</g>
<!-- v23&#45;&gt;v11 -->
<g id="edge23" class="edge"><title>v23&#45;&gt;v11</title>
<path fill="none" stroke="#f8ca00" d="M490,-177.894C490,-162.999 490,-143.153 490,-128.414"/>
<polygon fill="#f8ca00" stroke="#f8ca00" points="493.5,-128.306 490,-118.306 486.5,-128.306 493.5,-128.306"/>
<text text-anchor="middle" x="499.87" y="-145.474" font-family="Avenir Next" font-size="14.00"> 23</text>
</g>
</g>
</svg>
