<?xml version="1.0" encoding="UTF-8" standalone="no"?>
<!DOCTYPE svg PUBLIC "-//W3C//DTD SVG 1.1//EN"
 "http://www.w3.org/Graphics/SVG/1.1/DTD/svg11.dtd">
<!-- Generated by graphviz version 2.34.0 (20130907.0228)
 -->
<!-- Title: bender Pages: 1 -->
<svg width="337pt" height="202pt"
 viewBox="0.00 0.00 337.00 202.00" xmlns="http://www.w3.org/2000/svg" xmlns:xlink="http://www.w3.org/1999/xlink">
<g id="graph0" class="graph" transform="scale(1 1) rotate(0) translate(4 198)">
<title>bender</title>
<polygon fill="white" stroke="white" points="-4,4 -4,-198 333,-198 333,4 -4,4"/>
<!-- mouseup -->
<g id="node1" class="node"><title>mouseup</title>
<polygon fill="none" stroke="black" points="275.21,-163.641 255.758,-184.014 177,-193.081 98.2419,-184.014 78.7903,-163.641 133.293,-147.304 220.707,-147.304 275.21,-163.641"/>
<text text-anchor="middle" x="177" y="-166.474" font-family="Avenir Next" font-size="14.00">mouseup (frame)</text>
</g>
<!-- w6 -->
<g id="node5" class="node"><title>w6</title>
<polygon fill="none" stroke="black" points="188,-108 166,-108 166,-86 188,-86 188,-108"/>
<text text-anchor="middle" x="177" y="-94.4744" font-family="Avenir Next" font-size="14.00">6</text>
</g>
<!-- mouseup&#45;&gt;w6 -->
<g id="edge1" class="edge"><title>mouseup&#45;&gt;w6</title>
<path fill="none" stroke="black" d="M177,-146.998C177,-137.836 177,-127.142 177,-118.087"/>
<polygon fill="black" stroke="black" points="180.5,-118.067 177,-108.067 173.5,-118.067 180.5,-118.067"/>
</g>
<!-- down -->
<g id="node2" class="node"><title>down</title>
<ellipse fill="none" stroke="black" cx="75" cy="-25" rx="75.3376" ry="21.7689"/>
<text text-anchor="middle" x="75" y="-22.4744" font-family="Avenir Next" font-size="14.00">down (Button)</text>
</g>
<!-- init_down -->
<g id="node3" class="node"><title>init_down</title>
<ellipse fill="#ff6a4d" stroke="#ff6a4d" cx="75" cy="-97" rx="1.8" ry="1.8"/>
</g>
<!-- init_down&#45;&gt;down -->
<g id="edge4" class="edge"><title>init_down&#45;&gt;down</title>
<path fill="none" stroke="#ff6a4d" d="M75,-95.0105C75,-90.7574 75,-73.5122 75,-57.3265"/>
<polygon fill="#ff6a4d" stroke="#ff6a4d" points="78.5001,-56.9904 75,-46.9904 71.5001,-56.9905 78.5001,-56.9904"/>
</g>
<!-- pushed -->
<g id="node4" class="node"><title>pushed</title>
<polygon fill="none" stroke="black" points="327.269,-19.6415 311.569,-40.0142 248,-49.0809 184.431,-40.0142 168.731,-19.6415 212.722,-3.30383 283.278,-3.30383 327.269,-19.6415"/>
<text text-anchor="middle" x="248" y="-22.4744" font-family="Avenir Next" font-size="14.00">push (Button)</text>
</g>
<!-- w6&#45;&gt;down -->
<g id="edge2" class="edge"><title>w6&#45;&gt;down</title>
<path fill="none" stroke="black" d="M165.694,-88.2413C152.74,-79.3511 130.844,-64.3242 111.812,-51.2629"/>
<polygon fill="black" stroke="black" points="113.537,-48.2018 103.311,-45.4292 109.576,-53.9734 113.537,-48.2018"/>
</g>
<!-- w6&#45;&gt;pushed -->
<g id="edge3" class="edge"><title>w6&#45;&gt;pushed</title>
<path fill="none" stroke="black" d="M187.173,-85.9707C195.728,-77.5357 208.379,-65.0632 219.93,-53.6742"/>
<polygon fill="black" stroke="black" points="222.645,-55.9129 227.309,-46.3998 217.73,-50.9282 222.645,-55.9129"/>
</g>
<!-- t -->
<g id="node6" class="node"><title>t</title>
<polygon fill="none" stroke="black" points="311,-187 293,-160 329,-160 311,-187"/>
</g>
</g>
</svg>
