<?xml version="1.0" encoding="UTF-8" standalone="no"?>
<!DOCTYPE svg PUBLIC "-//W3C//DTD SVG 1.1//EN"
 "http://www.w3.org/Graphics/SVG/1.1/DTD/svg11.dtd">
<!-- Generated by graphviz version 2.34.0 (20130907.0228)
 -->
<!-- Title: bender Pages: 1 -->
<svg width="527pt" height="332pt"
 viewBox="0.00 0.00 527.00 332.00" xmlns="http://www.w3.org/2000/svg" xmlns:xlink="http://www.w3.org/1999/xlink">
<g id="graph0" class="graph" transform="scale(1 1) rotate(0) translate(4 328)">
<title>bender</title>
<polygon fill="white" stroke="white" points="-4,4 -4,-328 523,-328 523,4 -4,4"/>
<!-- mouseup -->
<g id="node1" class="node"><title>mouseup</title>
<polygon fill="none" stroke="black" points="248.21,-293.641 228.758,-314.014 150,-323.081 71.2419,-314.014 51.7903,-293.641 106.293,-277.304 193.707,-277.304 248.21,-293.641"/>
<text text-anchor="middle" x="150" y="-296.474" font-family="Avenir Next" font-size="14.00">mouseup (frame)</text>
</g>
<!-- w6 -->
<g id="node5" class="node"><title>w6</title>
<polygon fill="none" stroke="black" points="161,-238 139,-238 139,-216 161,-216 161,-238"/>
<text text-anchor="middle" x="150" y="-224.474" font-family="Avenir Next" font-size="14.00">6</text>
</g>
<!-- mouseup&#45;&gt;w6 -->
<g id="edge1" class="edge"><title>mouseup&#45;&gt;w6</title>
<path fill="none" stroke="black" d="M150,-276.998C150,-267.836 150,-257.142 150,-248.087"/>
<polygon fill="black" stroke="black" points="153.5,-248.067 150,-238.067 146.5,-248.067 153.5,-248.067"/>
</g>
<!-- down -->
<g id="node2" class="node"><title>down</title>
<ellipse fill="none" stroke="black" cx="252" cy="-155" rx="75.3376" ry="21.7689"/>
<text text-anchor="middle" x="252" y="-152.474" font-family="Avenir Next" font-size="14.00">down (Button)</text>
</g>
<!-- w7 -->
<g id="node6" class="node"><title>w7</title>
<polygon fill="none" stroke="black" points="353,-94 331,-94 331,-72 353,-72 353,-94"/>
<text text-anchor="middle" x="342" y="-80.4744" font-family="Avenir Next" font-size="14.00">7</text>
</g>
<!-- down&#45;&gt;w7 -->
<g id="edge5" class="edge"><title>down&#45;&gt;w7</title>
<path fill="none" stroke="black" d="M277.55,-134.128C291.874,-122.987 309.453,-109.314 322.632,-99.0639"/>
<polygon fill="black" stroke="black" points="324.834,-101.785 330.579,-92.8833 320.536,-96.26 324.834,-101.785"/>
</g>
<!-- enabled -->
<g id="node3" class="node"><title>enabled</title>
<ellipse fill="none" stroke="black" cx="432" cy="-155" rx="87.3051" ry="21.7689"/>
<text text-anchor="middle" x="432" y="-152.474" font-family="Avenir Next" font-size="14.00">enabled (Button)</text>
</g>
<!-- enabled&#45;&gt;w7 -->
<g id="edge4" class="edge"><title>enabled&#45;&gt;w7</title>
<path fill="none" stroke="black" d="M405.968,-133.753C391.796,-122.73 374.55,-109.317 361.538,-99.1964"/>
<polygon fill="black" stroke="black" points="363.338,-96.1625 353.296,-92.7858 359.041,-101.688 363.338,-96.1625"/>
</g>
<!-- pushed -->
<g id="node4" class="node"><title>pushed</title>
<polygon fill="none" stroke="black" points="158.269,-149.641 142.569,-170.014 79,-179.081 15.431,-170.014 -0.269209,-149.641 43.7219,-133.304 114.278,-133.304 158.269,-149.641"/>
<text text-anchor="middle" x="79" y="-152.474" font-family="Avenir Next" font-size="14.00">push (Button)</text>
</g>
<!-- w6&#45;&gt;down -->
<g id="edge2" class="edge"><title>w6&#45;&gt;down</title>
<path fill="none" stroke="black" d="M161.306,-218.241C174.26,-209.351 196.156,-194.324 215.188,-181.263"/>
<polygon fill="black" stroke="black" points="217.424,-183.973 223.689,-175.429 213.463,-178.202 217.424,-183.973"/>
</g>
<!-- w6&#45;&gt;pushed -->
<g id="edge3" class="edge"><title>w6&#45;&gt;pushed</title>
<path fill="none" stroke="black" d="M139.827,-215.971C131.272,-207.536 118.621,-195.063 107.07,-183.674"/>
<polygon fill="black" stroke="black" points="109.27,-180.928 99.6912,-176.4 104.355,-185.913 109.27,-180.928"/>
</g>
<!-- t -->
<g id="node7" class="node"><title>t</title>
<polygon fill="none" stroke="black" points="342,-36 324,-9 360,-9 342,-36"/>
</g>
<!-- w7&#45;&gt;t -->
<g id="edge6" class="edge"><title>w7&#45;&gt;t</title>
<path fill="none" stroke="black" d="M342,-71.878C342,-64.978 342,-55.4869 342,-46.4483"/>
<polygon fill="black" stroke="black" points="345.5,-46.228 342,-36.228 338.5,-46.2281 345.5,-46.228"/>
</g>
<!-- init_down -->
<g id="node8" class="node"><title>init_down</title>
<ellipse fill="#ff6a4d" stroke="#ff6a4d" cx="252" cy="-227" rx="1.8" ry="1.8"/>
</g>
<!-- init_down&#45;&gt;down -->
<g id="edge7" class="edge"><title>init_down&#45;&gt;down</title>
<path fill="none" stroke="#ff6a4d" d="M252,-225.01C252,-220.757 252,-203.512 252,-187.327"/>
<polygon fill="#ff6a4d" stroke="#ff6a4d" points="255.5,-186.99 252,-176.99 248.5,-186.99 255.5,-186.99"/>
</g>
<!-- init_enabled -->
<g id="node9" class="node"><title>init_enabled</title>
<ellipse fill="#ff6a4d" stroke="#ff6a4d" cx="432" cy="-227" rx="1.8" ry="1.8"/>
</g>
<!-- init_enabled&#45;&gt;enabled -->
<g id="edge8" class="edge"><title>init_enabled&#45;&gt;enabled</title>
<path fill="none" stroke="#ff6a4d" d="M432,-225.01C432,-220.757 432,-203.512 432,-187.327"/>
<polygon fill="#ff6a4d" stroke="#ff6a4d" points="435.5,-186.99 432,-176.99 428.5,-186.99 435.5,-186.99"/>
</g>
</g>
</svg>
