<?xml version="1.0" encoding="UTF-8" standalone="no"?>
<!DOCTYPE svg PUBLIC "-//W3C//DTD SVG 1.1//EN"
 "http://www.w3.org/Graphics/SVG/1.1/DTD/svg11.dtd">
<!-- Generated by graphviz version 2.34.0 (20130907.0228)
 -->
<!-- Title: bender Pages: 1 -->
<svg width="622pt" height="954pt"
 viewBox="0.00 0.00 622.00 954.00" xmlns="http://www.w3.org/2000/svg" xmlns:xlink="http://www.w3.org/1999/xlink">
<g id="graph0" class="graph" transform="scale(1 1) rotate(0) translate(4 950)">
<title>bender</title>
<polygon fill="white" stroke="white" points="-4,4 -4,-950 618,-950 618,4 -4,4"/>
<!-- t -->
<g id="node1" class="node"><title>t</title>
<polygon fill="none" stroke="black" points="217,-36 199,-9 235,-9 217,-36"/>
</g>
<!-- w4 -->
<g id="node2" class="node"><title>w4</title>
<polygon fill="none" stroke="black" points="108,-140 86,-140 86,-118 108,-118 108,-140"/>
<text text-anchor="middle" x="97" y="-126.474" font-family="Avenir Next" font-size="14.00">4</text>
</g>
<!-- w4&#45;&gt;t -->
<g id="edge19" class="edge"><title>w4&#45;&gt;t</title>
<path fill="none" stroke="black" stroke-dasharray="5,2" d="M108.074,-117.941C129.769,-98.2346 177.871,-54.5423 202.239,-32.4081"/>
<polygon fill="black" stroke="black" points="204.737,-34.8672 209.786,-25.5527 200.031,-29.6856 204.737,-34.8672"/>
<text text-anchor="middle" x="188.87" y="-74.4744" font-family="Avenir Next" font-size="14.00"> 19</text>
</g>
<!-- label -->
<g id="node3" class="node"><title>label</title>
<ellipse fill="none" stroke="black" cx="71" cy="-222" rx="71.4669" ry="21.7689"/>
<text text-anchor="middle" x="71" y="-219.474" font-family="Avenir Next" font-size="14.00">label (Button)</text>
</g>
<!-- label&#45;&gt;w4 -->
<g id="edge18" class="edge"><title>label&#45;&gt;w4</title>
<path fill="none" stroke="black" stroke-dasharray="5,2" d="M77.0303,-199.894C81.3277,-184.853 87.0677,-164.763 91.2908,-149.982"/>
<polygon fill="black" stroke="black" points="94.6735,-150.883 94.0554,-140.306 87.9428,-148.96 94.6735,-150.883"/>
<text text-anchor="middle" x="98.87" y="-167.474" font-family="Avenir Next" font-size="14.00"> 18</text>
</g>
<!-- w5 -->
<g id="node4" class="node"><title>w5</title>
<polygon fill="none" stroke="black" points="166,-836 144,-836 144,-814 166,-814 166,-836"/>
<text text-anchor="middle" x="155" y="-822.474" font-family="Avenir Next" font-size="14.00">5</text>
</g>
<!-- down -->
<g id="node6" class="node"><title>down</title>
<ellipse fill="none" stroke="black" cx="171" cy="-729" rx="75.3376" ry="21.7689"/>
<text text-anchor="middle" x="171" y="-726.474" font-family="Avenir Next" font-size="14.00">down (Button)</text>
</g>
<!-- w5&#45;&gt;down -->
<g id="edge13" class="edge"><title>w5&#45;&gt;down</title>
<path fill="none" stroke="black" stroke-dasharray="5,2" d="M156.712,-813.94C158.852,-801.371 162.612,-779.279 165.738,-760.914"/>
<polygon fill="black" stroke="black" points="169.214,-761.351 167.442,-750.905 162.313,-760.176 169.214,-761.351"/>
<text text-anchor="middle" x="173.87" y="-781.474" font-family="Avenir Next" font-size="14.00"> 13</text>
</g>
<!-- mousedown -->
<g id="node5" class="node"><title>mousedown</title>
<polygon fill="none" stroke="black" points="247.108,-915.641 224.706,-936.014 134,-945.081 43.2945,-936.014 20.8921,-915.641 83.6622,-899.304 184.338,-899.304 247.108,-915.641"/>
<text text-anchor="middle" x="134" y="-918.474" font-family="Avenir Next" font-size="14.00">mousedown (frame)</text>
</g>
<!-- mousedown&#45;&gt;w5 -->
<g id="edge10" class="edge"><title>mousedown&#45;&gt;w5</title>
<path fill="none" stroke="black" stroke-dasharray="5,2" d="M138.661,-899.138C142.161,-883.47 146.931,-862.118 150.413,-846.53"/>
<polygon fill="black" stroke="black" points="153.92,-846.885 152.685,-836.362 147.089,-845.359 153.92,-846.885"/>
<text text-anchor="middle" x="158.87" y="-863.474" font-family="Avenir Next" font-size="14.00"> 10</text>
</g>
<!-- w7 -->
<g id="node10" class="node"><title>w7</title>
<polygon fill="none" stroke="black" points="228,-140 206,-140 206,-118 228,-118 228,-140"/>
<text text-anchor="middle" x="217" y="-126.474" font-family="Avenir Next" font-size="14.00">7</text>
</g>
<!-- down&#45;&gt;w7 -->
<g id="edge16" class="edge"><title>down&#45;&gt;w7</title>
<path fill="none" stroke="black" d="M171,-706.892C171,-685.121 171,-650.188 171,-620 171,-620 171,-620 171,-221 171,-193.413 188.046,-165.692 201.384,-148.222"/>
<polygon fill="black" stroke="black" points="204.39,-150.068 207.912,-140.076 198.927,-145.691 204.39,-150.068"/>
<text text-anchor="middle" x="213.658" y="-427.474" font-family="Avenir Next" font-size="14.00"> 16 Plus, false</text>
</g>
<!-- w6 -->
<g id="node7" class="node"><title>w6</title>
<polygon fill="none" stroke="black" points="371,-836 349,-836 349,-814 371,-814 371,-836"/>
<text text-anchor="middle" x="360" y="-822.474" font-family="Avenir Next" font-size="14.00">6</text>
</g>
<!-- w6&#45;&gt;down -->
<g id="edge14" class="edge"><title>w6&#45;&gt;down</title>
<path fill="none" stroke="black" d="M348.904,-821.586C331.638,-817.598 297.535,-808.782 270.684,-796 247.444,-784.937 223.329,-769.105 204.639,-755.72"/>
<polygon fill="black" stroke="black" points="206.602,-752.82 196.456,-749.769 202.485,-758.481 206.602,-752.82"/>
<text text-anchor="middle" x="313.658" y="-781.474" font-family="Avenir Next" font-size="14.00"> 14 Plus, false</text>
</g>
<!-- pushed -->
<g id="node9" class="node"><title>pushed</title>
<polygon fill="none" stroke="black" points="453.194,-723.641 434.736,-744.014 360,-753.081 285.264,-744.014 266.806,-723.641 318.525,-707.304 401.475,-707.304 453.194,-723.641"/>
<text text-anchor="middle" x="360" y="-726.474" font-family="Avenir Next" font-size="14.00">pushed (Button)</text>
</g>
<!-- w6&#45;&gt;pushed -->
<g id="edge2" class="edge"><title>w6&#45;&gt;pushed</title>
<path fill="none" stroke="black" d="M360,-813.94C360,-801.904 360,-781.137 360,-763.272"/>
<polygon fill="black" stroke="black" points="363.5,-763.176 360,-753.176 356.5,-763.176 363.5,-763.176"/>
<text text-anchor="middle" x="427.543" y="-781.474" font-family="Avenir Next" font-size="14.00"> 2 Plus, pushed event</text>
</g>
<!-- mouseup -->
<g id="node8" class="node"><title>mouseup</title>
<polygon fill="none" stroke="black" points="461.21,-915.641 441.758,-936.014 363,-945.081 284.242,-936.014 264.79,-915.641 319.293,-899.304 406.707,-899.304 461.21,-915.641"/>
<text text-anchor="middle" x="363" y="-918.474" font-family="Avenir Next" font-size="14.00">mouseup (frame)</text>
</g>
<!-- mouseup&#45;&gt;w6 -->
<g id="edge1" class="edge"><title>mouseup&#45;&gt;w6</title>
<path fill="none" stroke="black" d="M362.334,-899.138C361.834,-883.47 361.153,-862.118 360.655,-846.53"/>
<polygon fill="black" stroke="black" points="364.148,-846.246 360.331,-836.362 357.152,-846.469 364.148,-846.246"/>
<text text-anchor="middle" x="456.542" y="-863.474" font-family="Avenir Next" font-size="14.00"> 1 frame/Plus, mouseup event</text>
</g>
<!-- ppushed -->
<g id="node13" class="node"><title>ppushed</title>
<polygon fill="none" stroke="black" points="417.345,-613.641 401.432,-634.014 337,-643.081 272.568,-634.014 256.655,-613.641 301.243,-597.304 372.757,-597.304 417.345,-613.641"/>
<text text-anchor="middle" x="337" y="-616.474" font-family="Avenir Next" font-size="14.00">pushed (Plus)</text>
</g>
<!-- pushed&#45;&gt;ppushed -->
<g id="edge4" class="edge"><title>pushed&#45;&gt;ppushed</title>
<path fill="none" stroke="#f94179" d="M355.565,-707.177C352.27,-691.702 347.711,-670.293 343.935,-652.564"/>
<polygon fill="#f94179" stroke="#f94179" points="347.324,-651.676 341.818,-642.624 340.478,-653.134 347.324,-651.676"/>
<text text-anchor="middle" x="418.543" y="-671.474" font-family="Avenir Next" font-size="14.00"> 4 Plus, pushed event</text>
</g>
<!-- mpushed -->
<g id="node16" class="node"><title>mpushed</title>
<polygon fill="none" stroke="black" points="614.431,-613.641 596.718,-634.014 525,-643.081 453.282,-634.014 435.569,-613.641 485.199,-597.304 564.801,-597.304 614.431,-613.641"/>
<text text-anchor="middle" x="525" y="-616.474" font-family="Avenir Next" font-size="14.00">pushed (Minus)</text>
</g>
<!-- pushed&#45;&gt;mpushed -->
<g id="edge3" class="edge"><title>pushed&#45;&gt;mpushed</title>
<path fill="none" stroke="#f94179" stroke-dasharray="5,2" d="M429.767,-716.04C450.852,-709.794 472.917,-700.326 490,-686 500.665,-677.057 508.538,-664.014 514.087,-651.88"/>
<polygon fill="#f94179" stroke="#f94179" points="517.407,-653.014 518.048,-642.439 510.952,-650.306 517.407,-653.014"/>
<text text-anchor="middle" x="514.81" y="-671.474" font-family="Avenir Next" font-size="14.00"> 3</text>
</g>
<!-- w7&#45;&gt;t -->
<g id="edge20" class="edge"><title>w7&#45;&gt;t</title>
<path fill="none" stroke="black" d="M217,-117.941C217,-101.835 217,-69.7065 217,-46.4205"/>
<polygon fill="black" stroke="black" points="220.5,-46.1211 217,-36.1212 213.5,-46.1212 220.5,-46.1211"/>
<text text-anchor="middle" x="273.763" y="-85.9488" font-family="Avenir Next" font-size="14.00"> 20 frame/Plus, &quot;&quot;;</text>
<text text-anchor="middle" x="273.763" y="-63" font-family="Avenir Next" font-size="14.00"> frame/Minus, &quot;&quot;</text>
</g>
<!-- enabled -->
<g id="node11" class="node"><title>enabled</title>
<ellipse fill="none" stroke="black" cx="291" cy="-326" rx="87.3051" ry="21.7689"/>
<text text-anchor="middle" x="291" y="-323.474" font-family="Avenir Next" font-size="14.00">enabled (Button)</text>
</g>
<!-- enabled&#45;&gt;w7 -->
<g id="edge17" class="edge"><title>enabled&#45;&gt;w7</title>
<path fill="none" stroke="black" stroke-dasharray="5,2" d="M268.893,-304.609C254.044,-289.456 235.554,-267.427 226.26,-244 213.989,-213.069 213.816,-173.784 215.159,-150.336"/>
<polygon fill="black" stroke="black" points="218.662,-150.43 215.895,-140.203 211.68,-149.923 218.662,-150.43"/>
<text text-anchor="middle" x="236.87" y="-219.474" font-family="Avenir Next" font-size="14.00"> 17</text>
</g>
<!-- menabled -->
<g id="node18" class="node"><title>menabled</title>
<ellipse fill="none" stroke="black" cx="339" cy="-222" rx="84.014" ry="21.7689"/>
<text text-anchor="middle" x="339" y="-219.474" font-family="Avenir Next" font-size="14.00">enabled (Minus)</text>
</g>
<!-- enabled&#45;&gt;menabled -->
<g id="edge12" class="edge"><title>enabled&#45;&gt;menabled</title>
<path fill="none" stroke="#f94179" stroke-dasharray="5,2" d="M289.914,-303.847C290.094,-291.112 291.844,-274.917 298.26,-262 300.274,-257.944 302.891,-254.081 305.826,-250.473"/>
<polygon fill="#f94179" stroke="#f94179" points="308.486,-252.75 312.65,-243.007 303.32,-248.027 308.486,-252.75"/>
<text text-anchor="middle" x="308.87" y="-271.474" font-family="Avenir Next" font-size="14.00"> 12</text>
</g>
<!-- w1 -->
<g id="node12" class="node"><title>w1</title>
<polygon fill="none" stroke="black" points="373,-534 351,-534 351,-512 373,-512 373,-534"/>
<text text-anchor="middle" x="362" y="-520.474" font-family="Avenir Next" font-size="14.00">1</text>
</g>
<!-- n -->
<g id="node14" class="node"><title>n</title>
<ellipse fill="none" stroke="black" cx="422" cy="-430" rx="49.2362" ry="21.7689"/>
<text text-anchor="middle" x="422" y="-427.474" font-family="Avenir Next" font-size="14.00">n (Panel)</text>
</g>
<!-- w1&#45;&gt;n -->
<g id="edge7" class="edge"><title>w1&#45;&gt;n</title>
<path fill="none" stroke="black" d="M361.534,-511.658C361.507,-500.577 362.861,-482.85 370.614,-470 374.19,-464.073 379.035,-458.734 384.328,-454.045"/>
<polygon fill="black" stroke="black" points="386.695,-456.634 392.307,-447.648 382.316,-451.172 386.695,-456.634"/>
<text text-anchor="middle" x="403.193" y="-479.474" font-family="Avenir Next" font-size="14.00"> 7 Panel, 3</text>
</g>
<!-- ppushed&#45;&gt;w1 -->
<g id="edge6" class="edge"><title>ppushed&#45;&gt;w1</title>
<path fill="none" stroke="black" d="M342.548,-597.138C346.756,-581.318 352.505,-559.703 356.66,-544.078"/>
<polygon fill="black" stroke="black" points="360.056,-544.926 359.244,-534.362 353.291,-543.127 360.056,-544.926"/>
<text text-anchor="middle" x="421.543" y="-561.474" font-family="Avenir Next" font-size="14.00"> 6 Plus, pushed event</text>
</g>
<!-- w3 -->
<g id="node17" class="node"><title>w3</title>
<polygon fill="none" stroke="black" points="433,-337 411,-337 411,-315 433,-315 433,-337"/>
<text text-anchor="middle" x="422" y="-323.474" font-family="Avenir Next" font-size="14.00">3</text>
</g>
<!-- n&#45;&gt;w3 -->
<g id="edge9" class="edge"><title>n&#45;&gt;w3</title>
<path fill="none" stroke="black" d="M422,-407.866C422,-390.155 422,-365.024 422,-347.495"/>
<polygon fill="black" stroke="black" points="425.5,-347.228 422,-337.228 418.5,-347.228 425.5,-347.228"/>
<text text-anchor="middle" x="454.193" y="-375.474" font-family="Avenir Next" font-size="14.00"> 9 Panel, 3</text>
</g>
<!-- w2 -->
<g id="node15" class="node"><title>w2</title>
<polygon fill="none" stroke="black" points="502,-534 480,-534 480,-512 502,-512 502,-534"/>
<text text-anchor="middle" x="491" y="-520.474" font-family="Avenir Next" font-size="14.00">2</text>
</g>
<!-- w2&#45;&gt;n -->
<g id="edge8" class="edge"><title>w2&#45;&gt;n</title>
<path fill="none" stroke="black" stroke-dasharray="5,2" d="M483.352,-511.914C473.824,-499.347 457.143,-477.348 443.578,-459.458"/>
<polygon fill="black" stroke="black" points="446.045,-456.919 437.214,-451.065 440.467,-461.148 446.045,-456.919"/>
<text text-anchor="middle" x="474.81" y="-479.474" font-family="Avenir Next" font-size="14.00"> 8</text>
</g>
<!-- mpushed&#45;&gt;w2 -->
<g id="edge5" class="edge"><title>mpushed&#45;&gt;w2</title>
<path fill="none" stroke="black" stroke-dasharray="5,2" d="M517.454,-597.138C511.732,-581.318 503.914,-559.703 498.262,-544.078"/>
<polygon fill="black" stroke="black" points="501.441,-542.576 494.748,-534.362 494.858,-544.957 501.441,-542.576"/>
<text text-anchor="middle" x="515.81" y="-561.474" font-family="Avenir Next" font-size="14.00"> 5</text>
</g>
<!-- w3&#45;&gt;t -->
<g id="edge21" class="edge"><title>w3&#45;&gt;t</title>
<path fill="none" stroke="black" d="M427.156,-314.712C430.71,-307.02 435.119,-296.128 437,-286 440.874,-265.136 434.516,-207.21 432,-200 406.246,-126.214 396.91,-100.368 334,-54 305.139,-32.7285 263.356,-24.2873 238.315,-21.0077"/>
<polygon fill="black" stroke="black" points="238.428,-17.4978 228.094,-19.8365 237.631,-24.4523 238.428,-17.4978"/>
<text text-anchor="middle" x="488.608" y="-167.474" font-family="Avenir Next" font-size="14.00"> 21 text&#45;n/Panel, &quot;3&quot;</text>
</g>
<!-- w3&#45;&gt;menabled -->
<g id="edge11" class="edge"><title>w3&#45;&gt;menabled</title>
<path fill="none" stroke="black" d="M410.896,-317.745C404.133,-313.478 395.236,-308.127 387,-304 368.122,-294.541 355.354,-303.148 343.032,-286 336.489,-276.894 334.532,-265.005 334.54,-254.012"/>
<polygon fill="black" stroke="black" points="338.043,-254.033 335.064,-243.866 331.053,-253.672 338.043,-254.033"/>
<text text-anchor="middle" x="390.984" y="-271.474" font-family="Avenir Next" font-size="14.00"> 11 Minus, true</text>
</g>
<!-- menabled&#45;&gt;w7 -->
<g id="edge15" class="edge"><title>menabled&#45;&gt;w7</title>
<path fill="none" stroke="#f8ca00" d="M312.227,-201.03C289.253,-183.894 256.703,-159.614 236.23,-144.344"/>
<polygon fill="#f8ca00" stroke="#f8ca00" points="238.113,-141.382 228.005,-138.208 233.928,-146.993 238.113,-141.382"/>
<text text-anchor="middle" x="332.984" y="-167.474" font-family="Avenir Next" font-size="14.00"> 15 Minus, true</text>
</g>
</g>
</svg>
