<?xml version="1.0" encoding="UTF-8" standalone="no"?>
<!DOCTYPE svg PUBLIC "-//W3C//DTD SVG 1.1//EN"
 "http://www.w3.org/Graphics/SVG/1.1/DTD/svg11.dtd">
<!-- Generated by graphviz version 2.34.0 (20130907.0228)
 -->
<!-- Title: bender Pages: 1 -->
<svg width="528pt" height="440pt"
 viewBox="0.00 0.00 528.00 440.00" xmlns="http://www.w3.org/2000/svg" xmlns:xlink="http://www.w3.org/1999/xlink">
<g id="graph0" class="graph" transform="scale(1 1) rotate(0) translate(4 436)">
<title>bender</title>
<polygon fill="white" stroke="white" points="-4,4 -4,-436 524,-436 524,4 -4,4"/>
<!-- mouseup -->
<g id="node1" class="node"><title>mouseup</title>
<polygon fill="none" stroke="black" points="467.21,-401.641 447.758,-422.014 369,-431.081 290.242,-422.014 270.79,-401.641 325.293,-385.304 412.707,-385.304 467.21,-401.641"/>
<text text-anchor="middle" x="369" y="-404.474" font-family="Avenir Next" font-size="14.00">mouseup (frame)</text>
</g>
<!-- w6 -->
<g id="node5" class="node"><title>w6</title>
<polygon fill="none" stroke="black" points="380,-346 358,-346 358,-324 380,-324 380,-346"/>
<text text-anchor="middle" x="369" y="-332.474" font-family="Avenir Next" font-size="14.00">6</text>
</g>
<!-- mouseup&#45;&gt;w6 -->
<g id="edge1" class="edge"><title>mouseup&#45;&gt;w6</title>
<path fill="none" stroke="black" d="M369,-384.998C369,-375.836 369,-365.142 369,-356.087"/>
<polygon fill="black" stroke="black" points="372.5,-356.067 369,-346.067 365.5,-356.067 372.5,-356.067"/>
</g>
<!-- down -->
<g id="node2" class="node"><title>down</title>
<ellipse fill="none" stroke="black" cx="267" cy="-263" rx="75.3376" ry="21.7689"/>
<text text-anchor="middle" x="267" y="-260.474" font-family="Avenir Next" font-size="14.00">down (Button)</text>
</g>
<!-- w7 -->
<g id="node6" class="node"><title>w7</title>
<polygon fill="none" stroke="black" points="188,-188 166,-188 166,-166 188,-166 188,-188"/>
<text text-anchor="middle" x="177" y="-174.474" font-family="Avenir Next" font-size="14.00">7</text>
</g>
<!-- down&#45;&gt;w7 -->
<g id="edge4" class="edge"><title>down&#45;&gt;w7</title>
<path fill="none" stroke="black" d="M245.214,-241.666C229.938,-227.409 209.749,-208.566 195.305,-195.085"/>
<polygon fill="black" stroke="black" points="197.639,-192.475 187.94,-188.211 192.863,-197.593 197.639,-192.475"/>
</g>
<!-- enabled -->
<g id="node3" class="node"><title>enabled</title>
<ellipse fill="none" stroke="black" cx="87" cy="-263" rx="87.3051" ry="21.7689"/>
<text text-anchor="middle" x="87" y="-260.474" font-family="Avenir Next" font-size="14.00">enabled (Button)</text>
</g>
<!-- enabled&#45;&gt;w7 -->
<g id="edge5" class="edge"><title>enabled&#45;&gt;w7</title>
<path fill="none" stroke="black" d="M108.786,-241.666C124.062,-227.409 144.251,-208.566 158.695,-195.085"/>
<polygon fill="black" stroke="black" points="161.137,-197.593 166.06,-188.211 156.361,-192.475 161.137,-197.593"/>
</g>
<!-- pushed -->
<g id="node4" class="node"><title>pushed</title>
<polygon fill="none" stroke="black" points="519.269,-257.641 503.569,-278.014 440,-287.081 376.431,-278.014 360.731,-257.641 404.722,-241.304 475.278,-241.304 519.269,-257.641"/>
<text text-anchor="middle" x="440" y="-260.474" font-family="Avenir Next" font-size="14.00">push (Button)</text>
</g>
<!-- ppushed -->
<g id="node8" class="node"><title>ppushed</title>
<polygon fill="none" stroke="black" points="520.345,-171.641 504.432,-192.014 440,-201.081 375.568,-192.014 359.655,-171.641 404.243,-155.304 475.757,-155.304 520.345,-171.641"/>
<text text-anchor="middle" x="440" y="-174.474" font-family="Avenir Next" font-size="14.00">pushed (Plus)</text>
</g>
<!-- pushed&#45;&gt;ppushed -->
<g id="edge9" class="edge"><title>pushed&#45;&gt;ppushed</title>
<path fill="none" stroke="#f94179" d="M440,-241.236C440,-232.221 440,-221.436 440,-211.346"/>
<polygon fill="#f94179" stroke="#f94179" points="443.5,-211.188 440,-201.188 436.5,-211.188 443.5,-211.188"/>
</g>
<!-- w6&#45;&gt;down -->
<g id="edge2" class="edge"><title>w6&#45;&gt;down</title>
<path fill="none" stroke="black" d="M357.694,-326.241C344.74,-317.351 322.844,-302.324 303.812,-289.263"/>
<polygon fill="black" stroke="black" points="305.537,-286.202 295.311,-283.429 301.576,-291.973 305.537,-286.202"/>
</g>
<!-- w6&#45;&gt;pushed -->
<g id="edge3" class="edge"><title>w6&#45;&gt;pushed</title>
<path fill="none" stroke="black" d="M379.173,-323.971C387.728,-315.536 400.379,-303.063 411.93,-291.674"/>
<polygon fill="black" stroke="black" points="414.645,-293.913 419.309,-284.4 409.73,-288.928 414.645,-293.913"/>
</g>
<!-- t -->
<g id="node7" class="node"><title>t</title>
<polygon fill="none" stroke="black" points="177,-116 159,-89 195,-89 177,-116"/>
</g>
<!-- w7&#45;&gt;t -->
<g id="edge6" class="edge"><title>w7&#45;&gt;t</title>
<path fill="none" stroke="black" d="M177,-165.934C177,-155.863 177,-139.929 177,-126.134"/>
<polygon fill="black" stroke="black" points="180.5,-126.134 177,-116.134 173.5,-126.134 180.5,-126.134"/>
</g>
<!-- w1 -->
<g id="node9" class="node"><title>w1</title>
<polygon fill="none" stroke="black" points="451,-109 429,-109 429,-87 451,-87 451,-109"/>
<text text-anchor="middle" x="440" y="-95.4744" font-family="Avenir Next" font-size="14.00">1</text>
</g>
<!-- ppushed&#45;&gt;w1 -->
<g id="edge7" class="edge"><title>ppushed&#45;&gt;w1</title>
<path fill="none" stroke="black" d="M440,-154.959C440,-143.987 440,-130.615 440,-119.695"/>
<polygon fill="black" stroke="black" points="443.5,-119.405 440,-109.405 436.5,-119.405 443.5,-119.405"/>
</g>
<!-- n -->
<g id="node10" class="node"><title>n</title>
<ellipse fill="none" stroke="black" cx="455" cy="-22" rx="49.2362" ry="21.7689"/>
<text text-anchor="middle" x="455" y="-19.4744" font-family="Avenir Next" font-size="14.00">n (Panel)</text>
</g>
<!-- w1&#45;&gt;n -->
<g id="edge8" class="edge"><title>w1&#45;&gt;n</title>
<path fill="none" stroke="black" d="M442.086,-86.7106C443.817,-78.1717 446.371,-65.5686 448.753,-53.8208"/>
<polygon fill="black" stroke="black" points="452.219,-54.3369 450.775,-43.8409 445.359,-52.9462 452.219,-54.3369"/>
</g>
<!-- init_down -->
<g id="node11" class="node"><title>init_down</title>
<ellipse fill="#ff6a4d" stroke="#ff6a4d" cx="267" cy="-335" rx="1.8" ry="1.8"/>
</g>
<!-- init_down&#45;&gt;down -->
<g id="edge10" class="edge"><title>init_down&#45;&gt;down</title>
<path fill="none" stroke="#ff6a4d" d="M267,-333.01C267,-328.757 267,-311.512 267,-295.327"/>
<polygon fill="#ff6a4d" stroke="#ff6a4d" points="270.5,-294.99 267,-284.99 263.5,-294.99 270.5,-294.99"/>
</g>
<!-- init_enabled -->
<g id="node12" class="node"><title>init_enabled</title>
<ellipse fill="#ff6a4d" stroke="#ff6a4d" cx="87" cy="-335" rx="1.8" ry="1.8"/>
</g>
<!-- init_enabled&#45;&gt;enabled -->
<g id="edge11" class="edge"><title>init_enabled&#45;&gt;enabled</title>
<path fill="none" stroke="#ff6a4d" d="M87,-333.01C87,-328.757 87,-311.512 87,-295.327"/>
<polygon fill="#ff6a4d" stroke="#ff6a4d" points="90.5001,-294.99 87,-284.99 83.5001,-294.99 90.5001,-294.99"/>
</g>
<!-- init_n -->
<g id="node13" class="node"><title>init_n</title>
<ellipse fill="#ff6a4d" stroke="#ff6a4d" cx="471" cy="-98" rx="1.8" ry="1.8"/>
</g>
<!-- init_n&#45;&gt;n -->
<g id="edge12" class="edge"><title>init_n&#45;&gt;n</title>
<path fill="none" stroke="#ff6a4d" d="M470.82,-96.1689C469.898,-91.9016 465.585,-71.9544 461.695,-53.9639"/>
<polygon fill="#ff6a4d" stroke="#ff6a4d" points="465.077,-53.0419 459.542,-44.0075 458.235,-54.5213 465.077,-53.0419"/>
</g>
</g>
</svg>
