<?xml version="1.0" encoding="UTF-8" standalone="no"?>
<!DOCTYPE svg PUBLIC "-//W3C//DTD SVG 1.1//EN"
 "http://www.w3.org/Graphics/SVG/1.1/DTD/svg11.dtd">
<!-- Generated by graphviz version 2.34.0 (20130907.0228)
 -->
<!-- Title: bender Pages: 1 -->
<svg width="282pt" height="422pt"
 viewBox="0.00 0.00 281.64 422.00" xmlns="http://www.w3.org/2000/svg" xmlns:xlink="http://www.w3.org/1999/xlink">
<g id="graph0" class="graph" transform="scale(1 1) rotate(0) translate(4 418)">
<title>bender</title>
<polygon fill="white" stroke="white" points="-4,4 -4,-418 277.639,-418 277.639,4 -4,4"/>
<!-- t -->
<g id="node1" class="node"><title>t</title>
<polygon fill="none" stroke="black" points="56.6391,-36 38.6391,-9 74.6391,-9 56.6391,-36"/>
</g>
<!-- w0 -->
<g id="node2" class="node"><title>w0</title>
<polygon fill="none" stroke="black" points="107.639,-403 85.6391,-403 85.6391,-381 107.639,-381 107.639,-403"/>
<text text-anchor="middle" x="96.6391" y="-389.474" font-family="Avenir Next" font-size="14.00">0</text>
</g>
<!-- PB1 -->
<g id="node6" class="node"><title>PB1</title>
<ellipse fill="none" stroke="black" cx="96.6391" cy="-312" rx="31.1536" ry="21.7689"/>
<text text-anchor="middle" x="96.6391" y="-309.474" font-family="Avenir Next" font-size="14.00">P (B)</text>
</g>
<!-- w0&#45;&gt;PB1 -->
<g id="edge1" class="edge"><title>w0&#45;&gt;PB1</title>
<path fill="none" stroke="black" d="M96.6391,-380.803C96.6391,-371.484 96.6391,-357.207 96.6391,-344.154"/>
<polygon fill="black" stroke="black" points="100.139,-344.066 96.6391,-334.066 93.1392,-344.066 100.139,-344.066"/>
</g>
<!-- w1 -->
<g id="node3" class="node"><title>w1</title>
<polygon fill="none" stroke="black" points="88.6391,-243 66.6391,-243 66.6391,-221 88.6391,-221 88.6391,-243"/>
<text text-anchor="middle" x="77.6391" y="-229.474" font-family="Avenir Next" font-size="14.00">1</text>
</g>
<!-- PB2 -->
<g id="node7" class="node"><title>PB2</title>
<ellipse fill="none" stroke="black" cx="56.6391" cy="-152" rx="32.3958" ry="21.7689"/>
<text text-anchor="middle" x="56.6391" y="-149.474" font-family="Avenir Next" font-size="14.00">P (C)</text>
</g>
<!-- w1&#45;&gt;PB2 -->
<g id="edge3" class="edge"><title>w1&#45;&gt;PB2</title>
<path fill="none" stroke="black" d="M74.8937,-220.803C72.3422,-211.326 68.4103,-196.722 64.8482,-183.491"/>
<polygon fill="black" stroke="black" points="68.2048,-182.495 62.2253,-173.749 61.4455,-184.315 68.2048,-182.495"/>
</g>
<!-- w2 -->
<g id="node4" class="node"><title>w2</title>
<polygon fill="none" stroke="black" points="67.6391,-94 45.6391,-94 45.6391,-72 67.6391,-72 67.6391,-94"/>
<text text-anchor="middle" x="56.6391" y="-80.4744" font-family="Avenir Next" font-size="14.00">2</text>
</g>
<!-- w2&#45;&gt;t -->
<g id="edge5" class="edge"><title>w2&#45;&gt;t</title>
<path fill="none" stroke="black" d="M56.6391,-71.878C56.6391,-64.978 56.6391,-55.4869 56.6391,-46.4483"/>
<polygon fill="black" stroke="black" points="60.1392,-46.228 56.6391,-36.228 53.1392,-46.2281 60.1392,-46.228"/>
</g>
<!-- PA -->
<g id="node5" class="node"><title>PA</title>
<ellipse fill="none" stroke="black" cx="35.6391" cy="-392" rx="32.1004" ry="21.7689"/>
<text text-anchor="middle" x="35.6391" y="-389.474" font-family="Avenir Next" font-size="14.00">P (A)</text>
</g>
<!-- PA&#45;&gt;w2 -->
<g id="edge4" class="edge"><title>PA&#45;&gt;w2</title>
<path fill="none" stroke="black" d="M28.1143,-370.488C12.7616,-325.271 -18.0728,-214.342 14.6391,-130 19.3695,-117.803 29.0075,-106.862 37.8588,-98.7133"/>
<polygon fill="black" stroke="black" points="40.2996,-101.231 45.603,-92.0586 35.7374,-95.9214 40.2996,-101.231"/>
</g>
<!-- PA&#45;&gt;PB1 -->
<g id="edge6" class="edge"><title>PA&#45;&gt;PB1</title>
<path fill="none" stroke="#f94179" d="M50.4055,-372.118C58.1043,-362.274 67.6449,-350.075 76.0562,-339.319"/>
<polygon fill="#f94179" stroke="#f94179" points="78.8158,-341.472 82.2191,-331.439 73.3017,-337.16 78.8158,-341.472"/>
</g>
<!-- PA&#45;&gt;PB2 -->
<g id="edge7" class="edge"><title>PA&#45;&gt;PB2</title>
<path fill="none" stroke="#f94179" d="M37.5027,-369.879C41.2154,-327.802 49.5502,-233.34 53.8918,-184.135"/>
<polygon fill="#f94179" stroke="#f94179" points="57.3871,-184.343 54.7796,-174.074 50.4142,-183.727 57.3871,-184.343"/>
</g>
<!-- PB1&#45;&gt;w1 -->
<g id="edge2" class="edge"><title>PB1&#45;&gt;w1</title>
<path fill="none" stroke="black" d="M91.5474,-290.097C88.7485,-278.607 85.2937,-264.424 82.5275,-253.068"/>
<polygon fill="black" stroke="black" points="85.8976,-252.115 80.1303,-243.227 79.0965,-253.771 85.8976,-252.115"/>
</g>
<!-- PB1&#45;&gt;w2 -->
<g id="edge8" class="edge"><title>PB1&#45;&gt;w2</title>
<path fill="none" stroke="#f8ca00" d="M101.434,-290.332C108.437,-255.799 118.503,-184.766 97.6391,-130 93.0902,-118.06 83.8614,-107.248 75.3097,-99.1111"/>
<polygon fill="#f8ca00" stroke="#f8ca00" points="77.5991,-96.4633 67.8001,-92.4345 72.9479,-101.695 77.5991,-96.4633"/>
</g>
<!-- PB2&#45;&gt;w2 -->
<g id="edge9" class="edge"><title>PB2&#45;&gt;w2</title>
<path fill="none" stroke="#f8ca00" d="M56.6391,-129.801C56.6391,-121.577 56.6391,-112.206 56.6391,-104.091"/>
<polygon fill="#f8ca00" stroke="#f8ca00" points="60.1392,-104.031 56.6391,-94.0306 53.1392,-104.031 60.1392,-104.031"/>
</g>
<!-- t_ -->
<g id="node8" class="node"><title>t_</title>
<polygon fill="none" stroke="black" points="200.639,-36 182.639,-9 218.639,-9 200.639,-36"/>
</g>
<!-- w0_ -->
<g id="node9" class="node"><title>w0_</title>
<polygon fill="none" stroke="black" points="211.639,-403 189.639,-403 189.639,-381 211.639,-381 211.639,-403"/>
<text text-anchor="middle" x="200.639" y="-389.474" font-family="Avenir Next" font-size="14.00">0</text>
</g>
<!-- PA_ -->
<g id="node10" class="node"><title>PA_</title>
<ellipse fill="none" stroke="black" cx="200.639" cy="-232" rx="54.9913" ry="21.7689"/>
<text text-anchor="middle" x="200.639" y="-229.474" font-family="Avenir Next" font-size="14.00">P (A, B, C)</text>
</g>
<!-- w0_&#45;&gt;PA_ -->
<g id="edge10" class="edge"><title>w0_&#45;&gt;PA_</title>
<path fill="none" stroke="black" d="M200.639,-380.633C200.639,-357.426 200.639,-300.511 200.639,-264.513"/>
<polygon fill="black" stroke="black" points="204.139,-264.073 200.639,-254.073 197.139,-264.073 204.139,-264.073"/>
</g>
<!-- PA_&#45;&gt;t_ -->
<g id="edge11" class="edge"><title>PA_&#45;&gt;t_</title>
<path fill="none" stroke="black" d="M200.639,-209.898C200.639,-171.263 200.639,-89.2049 200.639,-46.3505"/>
<polygon fill="black" stroke="black" points="204.139,-46.1049 200.639,-36.1049 197.139,-46.105 204.139,-46.1049"/>
</g>
<!-- PA_&#45;&gt;PA_ -->
<g id="edge12" class="edge"><title>PA_&#45;&gt;PA_</title>
<path fill="none" stroke="black" d="M241.546,-246.845C258.876,-247.964 273.639,-243.016 273.639,-232 273.639,-223.222 264.264,-218.297 251.686,-217.224"/>
<polygon fill="black" stroke="black" points="251.569,-213.723 241.546,-217.155 251.522,-220.723 251.569,-213.723"/>
</g>
</g>
</svg>
