<?xml version="1.0" encoding="UTF-8" standalone="no"?>
<!DOCTYPE svg PUBLIC "-//W3C//DTD SVG 1.1//EN"
 "http://www.w3.org/Graphics/SVG/1.1/DTD/svg11.dtd">
<!-- Generated by graphviz version 2.34.0 (20130907.0228)
 -->
<!-- Title: bender Pages: 1 -->
<svg width="528pt" height="332pt"
 viewBox="0.00 0.00 528.00 332.00" xmlns="http://www.w3.org/2000/svg" xmlns:xlink="http://www.w3.org/1999/xlink">
<g id="graph0" class="graph" transform="scale(1 1) rotate(0) translate(4 328)">
<title>bender</title>
<polygon fill="white" stroke="white" points="-4,4 -4,-328 524,-328 524,4 -4,4"/>
<!-- mouseup -->
<g id="node1" class="node"><title>mouseup</title>
<polygon fill="none" stroke="black" points="281.496,-293.641 257.631,-314.014 161,-323.081 64.3695,-314.014 40.5037,-293.641 107.374,-277.304 214.626,-277.304 281.496,-293.641"/>
<text text-anchor="middle" x="161" y="-296.474" font-family="Avenir Next" font-size="14.00">mouseup (document)</text>
</g>
<!-- w6 -->
<g id="node5" class="node"><title>w6</title>
<polygon fill="none" stroke="black" points="172,-238 150,-238 150,-216 172,-216 172,-238"/>
<text text-anchor="middle" x="161" y="-224.474" font-family="Avenir Next" font-size="14.00">6</text>
</g>
<!-- mouseup&#45;&gt;w6 -->
<g id="edge1" class="edge"><title>mouseup&#45;&gt;w6</title>
<path fill="none" stroke="black" d="M161,-276.998C161,-267.836 161,-257.142 161,-248.087"/>
<polygon fill="black" stroke="black" points="164.5,-248.067 161,-238.067 157.5,-248.067 164.5,-248.067"/>
</g>
<!-- down -->
<g id="node2" class="node"><title>down</title>
<ellipse fill="none" stroke="black" cx="75" cy="-155" rx="75.3376" ry="21.7689"/>
<text text-anchor="middle" x="75" y="-152.474" font-family="Avenir Next" font-size="14.00">down (Button)</text>
</g>
<!-- w7 -->
<g id="node6" class="node"><title>w7</title>
<polygon fill="none" stroke="black" points="265,-94 243,-94 243,-72 265,-72 265,-94"/>
<text text-anchor="middle" x="254" y="-80.4744" font-family="Avenir Next" font-size="14.00">7</text>
</g>
<!-- down&#45;&gt;w7 -->
<g id="edge5" class="edge"><title>down&#45;&gt;w7</title>
<path fill="none" stroke="black" d="M118.331,-137.055C154.846,-122.775 205.481,-102.974 233.421,-92.0475"/>
<polygon fill="black" stroke="black" points="234.904,-95.2261 242.942,-88.3243 232.354,-88.7068 234.904,-95.2261"/>
</g>
<!-- enabled -->
<g id="node3" class="node"><title>enabled</title>
<ellipse fill="none" stroke="black" cx="433" cy="-155" rx="87.3051" ry="21.7689"/>
<text text-anchor="middle" x="433" y="-152.474" font-family="Avenir Next" font-size="14.00">enabled (Button)</text>
</g>
<!-- enabled&#45;&gt;w7 -->
<g id="edge4" class="edge"><title>enabled&#45;&gt;w7</title>
<path fill="none" stroke="black" d="M387.368,-136.155C350.996,-121.931 301.784,-102.686 274.451,-91.9976"/>
<polygon fill="black" stroke="black" points="275.707,-88.7307 265.119,-88.3482 273.158,-95.25 275.707,-88.7307"/>
</g>
<!-- pushed -->
<g id="node4" class="node"><title>pushed</title>
<polygon fill="none" stroke="black" points="327.269,-149.641 311.569,-170.014 248,-179.081 184.431,-170.014 168.731,-149.641 212.722,-133.304 283.278,-133.304 327.269,-149.641"/>
<text text-anchor="middle" x="248" y="-152.474" font-family="Avenir Next" font-size="14.00">push (Button)</text>
</g>
<!-- w6&#45;&gt;down -->
<g id="edge2" class="edge"><title>w6&#45;&gt;down</title>
<path fill="none" stroke="black" d="M149.757,-216.849C139.001,-208.093 122.254,-194.462 107.335,-182.319"/>
<polygon fill="black" stroke="black" points="109.25,-179.365 99.285,-175.767 104.831,-184.794 109.25,-179.365"/>
</g>
<!-- w6&#45;&gt;pushed -->
<g id="edge3" class="edge"><title>w6&#45;&gt;pushed</title>
<path fill="none" stroke="black" d="M172.019,-217.134C182.999,-208.3 200.394,-194.304 215.771,-181.932"/>
<polygon fill="black" stroke="black" points="217.986,-184.642 223.583,-175.646 213.598,-179.188 217.986,-184.642"/>
</g>
<!-- t -->
<g id="node7" class="node"><title>t</title>
<polygon fill="none" stroke="black" points="254,-36 236,-9 272,-9 254,-36"/>
</g>
<!-- w7&#45;&gt;t -->
<g id="edge6" class="edge"><title>w7&#45;&gt;t</title>
<path fill="none" stroke="black" d="M254,-71.878C254,-64.978 254,-55.4869 254,-46.4483"/>
<polygon fill="black" stroke="black" points="257.5,-46.228 254,-36.228 250.5,-46.2281 257.5,-46.228"/>
</g>
</g>
</svg>
