<?xml version="1.0" encoding="UTF-8" standalone="no"?>
<!DOCTYPE svg PUBLIC "-//W3C//DTD SVG 1.1//EN"
 "http://www.w3.org/Graphics/SVG/1.1/DTD/svg11.dtd">
<!-- Generated by graphviz version 2.34.0 (20130907.0228)
 -->
<!-- Title: panel Pages: 1 -->
<svg width="1255pt" height="612pt"
 viewBox="0.00 0.00 1255.00 612.00" xmlns="http://www.w3.org/2000/svg" xmlns:xlink="http://www.w3.org/1999/xlink">
<g id="graph0" class="graph" transform="scale(1 1) rotate(0) translate(4 608)">
<title>panel</title>
<polygon fill="white" stroke="white" points="-4,4 -4,-608 1251,-608 1251,4 -4,4"/>
<g id="clust1" class="cluster"><title>cluster_panel</title>
<polygon fill="none" stroke="white" points="8,-16 8,-596 838,-596 838,-16 8,-16"/>
</g>
<g id="clust5" class="cluster"><title>cluster_minus_stack</title>
<polygon fill="none" stroke="#f94179" points="691,-232 691,-360 807,-360 807,-232 691,-232"/>
</g>
<g id="clust4" class="cluster"><title>cluster_plus_stack</title>
<polygon fill="none" stroke="#f94179" points="566,-232 566,-360 682,-360 682,-232 566,-232"/>
</g>
<g id="clust3" class="cluster"><title>cluster_panel_stack</title>
<polygon fill="none" stroke="#f94179" points="579,-464 579,-516 687,-516 687,-464 579,-464"/>
</g>
<g id="clust6" class="cluster"><title>cluster_button</title>
<polygon fill="none" stroke="white" points="846,-8 846,-364 1239,-364 1239,-8 846,-8"/>
</g>
<g id="clust7" class="cluster"><title>cluster_unrendered</title>
<polygon fill="none" stroke="gray" points="854,-16 854,-284 1231,-284 1231,-16 854,-16"/>
</g>
<!-- Panel -->
<g id="node1" class="node"><title>Panel</title>
<ellipse fill="none" stroke="black" cx="706" cy="-566" rx="35.4841" ry="21.7689"/>
<text text-anchor="middle" x="706" y="-563.474" font-family="Avenir Next" font-size="14.00">Panel</text>
</g>
<!-- vpanel -->
<g id="node2" class="node"><title>vpanel</title>
<polygon fill="none" stroke="black" points="678.332,-508 587.668,-508 587.668,-472 678.332,-472 678.332,-508"/>
<text text-anchor="middle" x="633" y="-487.474" font-family="Avenir Next" font-size="14.00">view (Panel)</text>
</g>
<!-- Panel&#45;&gt;vpanel -->
<g id="edge1" class="edge"><title>Panel&#45;&gt;vpanel</title>
<path fill="none" stroke="#4dbce9" d="M687.955,-546.708C678.578,-537.202 666.995,-525.461 656.885,-515.213"/>
<polygon fill="#4dbce9" stroke="#4dbce9" points="659.351,-512.728 649.836,-508.067 654.368,-517.644 659.351,-512.728"/>
</g>
<!-- Plus -->
<g id="node3" class="node"><title>Plus</title>
<ellipse fill="none" stroke="black" cx="706" cy="-414" rx="29.5446" ry="21.7689"/>
<text text-anchor="middle" x="706" y="-411.474" font-family="Avenir Next" font-size="14.00">Plus</text>
</g>
<!-- Panel&#45;&gt;Plus -->
<g id="edge2" class="edge"><title>Panel&#45;&gt;Plus</title>
<path fill="none" stroke="black" d="M706,-543.827C706,-518.366 706,-475.412 706,-446.163"/>
<polygon fill="black" stroke="black" points="709.5,-446.065 706,-436.065 702.5,-446.066 709.5,-446.065"/>
</g>
<!-- Minus -->
<g id="node4" class="node"><title>Minus</title>
<ellipse fill="none" stroke="black" cx="792" cy="-414" rx="38.1875" ry="21.7689"/>
<text text-anchor="middle" x="792" y="-411.474" font-family="Avenir Next" font-size="14.00">Minus</text>
</g>
<!-- Panel&#45;&gt;Minus -->
<g id="edge3" class="edge"><title>Panel&#45;&gt;Minus</title>
<path fill="none" stroke="black" d="M717.42,-545.081C732.263,-519.193 758.292,-473.792 775.339,-444.06"/>
<polygon fill="black" stroke="black" points="778.595,-445.417 780.533,-435.001 772.522,-441.936 778.595,-445.417"/>
</g>
<!-- div1 -->
<g id="node9" class="node"><title>div1</title>
<polygon fill="none" stroke="#5eb26b" points="657.455,-432 590.545,-432 590.545,-396 657.455,-396 657.455,-432"/>
<text text-anchor="middle" x="624" y="-411.474" font-family="Avenir Next" font-size="14.00">html:div</text>
</g>
<!-- vpanel&#45;&gt;div1 -->
<g id="edge4" class="edge"><title>vpanel&#45;&gt;div1</title>
<path fill="none" stroke="black" d="M630.913,-471.837C629.845,-463.058 628.52,-452.163 627.316,-442.267"/>
<polygon fill="black" stroke="black" points="630.758,-441.574 626.076,-432.07 623.809,-442.419 630.758,-441.574"/>
</g>
<!-- vplus -->
<g id="node5" class="node"><title>vplus</title>
<polygon fill="none" stroke="black" points="665.013,-352 582.987,-352 582.987,-316 665.013,-316 665.013,-352"/>
<text text-anchor="middle" x="624" y="-331.474" font-family="Avenir Next" font-size="14.00">view (Plus)</text>
</g>
<!-- Plus&#45;&gt;vplus -->
<g id="edge8" class="edge"><title>Plus&#45;&gt;vplus</title>
<path fill="none" stroke="#4dbce9" d="M688.207,-396.075C676.895,-385.315 662.069,-371.212 649.513,-359.269"/>
<polygon fill="#4dbce9" stroke="#4dbce9" points="651.699,-356.517 642.041,-352.161 646.875,-361.589 651.699,-356.517"/>
</g>
<!-- Button -->
<g id="node23" class="node"><title>Button</title>
<ellipse fill="none" stroke="black" cx="895" cy="-334" rx="40.9801" ry="21.7689"/>
<text text-anchor="middle" x="895" y="-331.474" font-family="Avenir Next" font-size="14.00">Button</text>
</g>
<!-- Plus&#45;&gt;Button -->
<g id="edge25" class="edge"><title>Plus&#45;&gt;Button</title>
<path fill="none" stroke="#f94179" d="M728.845,-400.056C734.087,-397.266 739.684,-394.429 745,-392 780.059,-375.983 821.037,-360.629 851.296,-349.901"/>
<polygon fill="#f94179" stroke="#f94179" points="852.849,-353.064 861.122,-346.445 850.527,-346.461 852.849,-353.064"/>
</g>
<!-- vminus -->
<g id="node7" class="node"><title>vminus</title>
<polygon fill="none" stroke="black" points="796.304,-352 701.696,-352 701.696,-316 796.304,-316 796.304,-352"/>
<text text-anchor="middle" x="749" y="-331.474" font-family="Avenir Next" font-size="14.00">view (Minus)</text>
</g>
<!-- Minus&#45;&gt;vminus -->
<g id="edge9" class="edge"><title>Minus&#45;&gt;vminus</title>
<path fill="none" stroke="#4dbce9" d="M780.926,-392.913C775.592,-383.237 769.128,-371.51 763.415,-361.147"/>
<polygon fill="#4dbce9" stroke="#4dbce9" points="766.326,-359.179 758.433,-352.111 760.196,-362.559 766.326,-359.179"/>
</g>
<!-- Minus&#45;&gt;Button -->
<g id="edge24" class="edge"><title>Minus&#45;&gt;Button</title>
<path fill="none" stroke="#f94179" d="M814.349,-396.075C828.86,-385.087 847.974,-370.612 863.952,-358.512"/>
<polygon fill="#f94179" stroke="#f94179" points="866.122,-361.259 871.981,-352.432 861.896,-355.679 866.122,-361.259"/>
</g>
<!-- vbutton_ -->
<g id="node6" class="node"><title>vbutton_</title>
<polygon fill="none" stroke="black" points="673.338,-276 574.662,-276 574.662,-240 673.338,-240 673.338,-276"/>
<text text-anchor="middle" x="624" y="-255.474" font-family="Avenir Next" font-size="14.00">view (Button)</text>
</g>
<!-- vplus&#45;&gt;vbutton_ -->
<g id="edge10" class="edge"><title>vplus&#45;&gt;vbutton_</title>
<path fill="none" stroke="#f94179" d="M624,-315.837C624,-303.882 624,-288.004 624,-276.07"/>
</g>
<!-- frame_ -->
<g id="node10" class="node"><title>frame_</title>
<polygon fill="none" stroke="#5eb26b" points="410.4,-204 263.6,-204 263.6,-168 410.4,-168 410.4,-204"/>
<text text-anchor="middle" x="337" y="-183.474" font-family="Avenir Next" font-size="14.00">html:div (frame/Plus)</text>
</g>
<!-- vbutton_&#45;&gt;frame_ -->
<g id="edge11" class="edge"><title>vbutton_&#45;&gt;frame_</title>
<path fill="none" stroke="black" d="M574.663,-244.967C531.315,-234.394 467.444,-218.815 416.828,-206.47"/>
<polygon fill="black" stroke="black" points="417.437,-203.016 406.892,-204.047 415.778,-209.817 417.437,-203.016"/>
</g>
<!-- vbutton__ -->
<g id="node8" class="node"><title>vbutton__</title>
<polygon fill="none" stroke="black" points="798.338,-276 699.662,-276 699.662,-240 798.338,-240 798.338,-276"/>
<text text-anchor="middle" x="749" y="-255.474" font-family="Avenir Next" font-size="14.00">view (Button)</text>
</g>
<!-- vminus&#45;&gt;vbutton__ -->
<g id="edge17" class="edge"><title>vminus&#45;&gt;vbutton__</title>
<path fill="none" stroke="#f94179" d="M749,-315.837C749,-303.882 749,-288.004 749,-276.07"/>
</g>
<!-- frame__ -->
<g id="node16" class="node"><title>frame__</title>
<polygon fill="none" stroke="#5eb26b" points="829.192,-204 668.808,-204 668.808,-168 829.192,-168 829.192,-204"/>
<text text-anchor="middle" x="749" y="-183.474" font-family="Avenir Next" font-size="14.00">html:div (frame/Minus)</text>
</g>
<!-- vbutton__&#45;&gt;frame__ -->
<g id="edge18" class="edge"><title>vbutton__&#45;&gt;frame__</title>
<path fill="none" stroke="black" d="M749,-239.697C749,-231.983 749,-222.712 749,-214.112"/>
<polygon fill="black" stroke="black" points="752.5,-214.104 749,-204.104 745.5,-214.104 752.5,-214.104"/>
</g>
<!-- div1&#45;&gt;vplus -->
<g id="edge7" class="edge"><title>div1&#45;&gt;vplus</title>
<path fill="none" stroke="black" d="M624,-395.689C624,-385.894 624,-373.422 624,-362.335"/>
<polygon fill="black" stroke="black" points="627.5,-362.262 624,-352.262 620.5,-362.262 627.5,-362.262"/>
</g>
<!-- div1&#45;&gt;vminus -->
<g id="edge6" class="edge"><title>div1&#45;&gt;vminus</title>
<path fill="none" stroke="black" d="M651.432,-395.883C669.505,-384.605 693.363,-369.717 712.963,-357.487"/>
<polygon fill="black" stroke="black" points="715.001,-360.341 721.632,-352.078 711.296,-354.402 715.001,-360.341"/>
</g>
<!-- textn -->
<g id="node22" class="node"><title>textn</title>
<polygon fill="none" stroke="#5eb26b" points="557.454,-352 430.546,-352 430.546,-316 557.454,-316 557.454,-352"/>
<text text-anchor="middle" x="494" y="-331.474" font-family="Avenir Next" font-size="14.00">text (text&#45;n/Panel)</text>
</g>
<!-- div1&#45;&gt;textn -->
<g id="edge5" class="edge"><title>div1&#45;&gt;textn</title>
<path fill="none" stroke="black" d="M595.471,-395.883C576.59,-384.554 551.639,-369.583 531.204,-357.322"/>
<polygon fill="black" stroke="black" points="532.838,-354.221 522.463,-352.078 529.237,-360.224 532.838,-354.221"/>
</g>
<!-- attr_ -->
<g id="node11" class="node"><title>attr_</title>
<polygon fill="none" stroke="black" points="249.314,-132 136.686,-132 136.686,-96 249.314,-96 249.314,-132"/>
<text text-anchor="middle" x="193" y="-111.474" font-family="Avenir Next" font-size="14.00">attribute (class)</text>
</g>
<!-- frame_&#45;&gt;attr_ -->
<g id="edge12" class="edge"><title>frame_&#45;&gt;attr_</title>
<path fill="none" stroke="black" d="M301.774,-167.876C282.423,-158.469 258.227,-146.708 237.573,-136.667"/>
<polygon fill="black" stroke="black" points="238.886,-133.414 228.362,-132.19 235.825,-139.71 238.886,-133.414"/>
</g>
<!-- content_ -->
<g id="node14" class="node"><title>content_</title>
<polygon fill="none" stroke="black" points="369.031,-132 304.969,-132 304.969,-96 369.031,-96 369.031,-132"/>
<text text-anchor="middle" x="337" y="-111.474" font-family="Avenir Next" font-size="14.00">content</text>
</g>
<!-- frame_&#45;&gt;content_ -->
<g id="edge15" class="edge"><title>frame_&#45;&gt;content_</title>
<path fill="none" stroke="black" d="M337,-167.697C337,-159.983 337,-150.712 337,-142.112"/>
<polygon fill="black" stroke="black" points="340.5,-142.104 337,-132.104 333.5,-142.104 340.5,-142.104"/>
</g>
<!-- textbutton_ -->
<g id="node12" class="node"><title>textbutton_</title>
<polygon fill="none" stroke="black" points="120.071,-60 15.9293,-60 15.9293,-24 120.071,-24 120.071,-60"/>
<text text-anchor="middle" x="68" y="-39.4744" font-family="Avenir Next" font-size="14.00">text (“button”)</text>
</g>
<!-- attr_&#45;&gt;textbutton_ -->
<g id="edge13" class="edge"><title>attr_&#45;&gt;textbutton_</title>
<path fill="none" stroke="black" d="M162.422,-95.8761C145.926,-86.6388 125.376,-75.1308 107.664,-65.2116"/>
<polygon fill="black" stroke="black" points="109.131,-62.0221 98.696,-60.1898 105.711,-68.1296 109.131,-62.0221"/>
</g>
<!-- textclass_ -->
<g id="node13" class="node"><title>textclass_</title>
<polygon fill="none" stroke="black" points="247.476,-60 138.524,-60 138.524,-24 247.476,-24 247.476,-60"/>
<text text-anchor="middle" x="193" y="-39.4744" font-family="Avenir Next" font-size="14.00">text (text&#45;class)</text>
</g>
<!-- attr_&#45;&gt;textclass_ -->
<g id="edge14" class="edge"><title>attr_&#45;&gt;textclass_</title>
<path fill="none" stroke="black" d="M193,-95.6966C193,-87.9827 193,-78.7125 193,-70.1124"/>
<polygon fill="black" stroke="black" points="196.5,-70.1043 193,-60.1043 189.5,-70.1044 196.5,-70.1043"/>
</g>
<!-- textlabel_ -->
<g id="node15" class="node"><title>textlabel_</title>
<polygon fill="none" stroke="#5eb26b" points="408.126,-60 265.874,-60 265.874,-24 408.126,-24 408.126,-60"/>
<text text-anchor="middle" x="337" y="-39.4744" font-family="Avenir Next" font-size="14.00">text (text&#45;label/Plus)</text>
</g>
<!-- content_&#45;&gt;textlabel_ -->
<g id="edge16" class="edge"><title>content_&#45;&gt;textlabel_</title>
<path fill="none" stroke="black" d="M337,-95.6966C337,-87.9827 337,-78.7125 337,-70.1124"/>
<polygon fill="black" stroke="black" points="340.5,-70.1043 337,-60.1043 333.5,-70.1044 340.5,-70.1043"/>
</g>
<!-- attr__ -->
<g id="node17" class="node"><title>attr__</title>
<polygon fill="none" stroke="black" points="659.314,-132 546.686,-132 546.686,-96 659.314,-96 659.314,-132"/>
<text text-anchor="middle" x="603" y="-111.474" font-family="Avenir Next" font-size="14.00">attribute (class)</text>
</g>
<!-- frame__&#45;&gt;attr__ -->
<g id="edge19" class="edge"><title>frame__&#45;&gt;attr__</title>
<path fill="none" stroke="black" d="M713.284,-167.876C693.503,-158.392 668.728,-146.513 647.674,-136.419"/>
<polygon fill="black" stroke="black" points="649.13,-133.236 638.6,-132.068 646.104,-139.548 649.13,-133.236"/>
</g>
<!-- content__ -->
<g id="node20" class="node"><title>content__</title>
<polygon fill="none" stroke="black" points="783.031,-132 718.969,-132 718.969,-96 783.031,-96 783.031,-132"/>
<text text-anchor="middle" x="751" y="-111.474" font-family="Avenir Next" font-size="14.00">content</text>
</g>
<!-- frame__&#45;&gt;content__ -->
<g id="edge22" class="edge"><title>frame__&#45;&gt;content__</title>
<path fill="none" stroke="black" d="M749.494,-167.697C749.715,-159.983 749.98,-150.712 750.225,-142.112"/>
<polygon fill="black" stroke="black" points="753.724,-142.2 750.511,-132.104 746.727,-142 753.724,-142.2"/>
</g>
<!-- textbutton__ -->
<g id="node18" class="node"><title>textbutton__</title>
<polygon fill="none" stroke="black" points="530.071,-60 425.929,-60 425.929,-24 530.071,-24 530.071,-60"/>
<text text-anchor="middle" x="478" y="-39.4744" font-family="Avenir Next" font-size="14.00">text (“button”)</text>
</g>
<!-- attr__&#45;&gt;textbutton__ -->
<g id="edge20" class="edge"><title>attr__&#45;&gt;textbutton__</title>
<path fill="none" stroke="black" d="M572.422,-95.8761C555.926,-86.6388 535.376,-75.1308 517.664,-65.2116"/>
<polygon fill="black" stroke="black" points="519.131,-62.0221 508.696,-60.1898 515.711,-68.1296 519.131,-62.0221"/>
</g>
<!-- textclass__ -->
<g id="node19" class="node"><title>textclass__</title>
<polygon fill="none" stroke="black" points="657.476,-60 548.524,-60 548.524,-24 657.476,-24 657.476,-60"/>
<text text-anchor="middle" x="603" y="-39.4744" font-family="Avenir Next" font-size="14.00">text (text&#45;class)</text>
</g>
<!-- attr__&#45;&gt;textclass__ -->
<g id="edge21" class="edge"><title>attr__&#45;&gt;textclass__</title>
<path fill="none" stroke="black" d="M603,-95.6966C603,-87.9827 603,-78.7125 603,-70.1124"/>
<polygon fill="black" stroke="black" points="606.5,-70.1043 603,-60.1043 599.5,-70.1044 606.5,-70.1043"/>
</g>
<!-- textlabel__ -->
<g id="node21" class="node"><title>textlabel__</title>
<polygon fill="none" stroke="#5eb26b" points="829.92,-60 676.08,-60 676.08,-24 829.92,-24 829.92,-60"/>
<text text-anchor="middle" x="753" y="-39.4744" font-family="Avenir Next" font-size="14.00">text (text&#45;label/Minus)</text>
</g>
<!-- content__&#45;&gt;textlabel__ -->
<g id="edge23" class="edge"><title>content__&#45;&gt;textlabel__</title>
<path fill="none" stroke="black" d="M751.494,-95.6966C751.715,-87.9827 751.98,-78.7125 752.225,-70.1124"/>
<polygon fill="black" stroke="black" points="755.724,-70.2002 752.511,-60.1043 748.727,-70.0003 755.724,-70.2002"/>
</g>
<!-- vbutton -->
<g id="node24" class="node"><title>vbutton</title>
<polygon fill="none" stroke="black" points="965.338,-276 866.662,-276 866.662,-240 965.338,-240 965.338,-276"/>
<text text-anchor="middle" x="916" y="-255.474" font-family="Avenir Next" font-size="14.00">view (Button)</text>
</g>
<!-- Button&#45;&gt;vbutton -->
<g id="edge26" class="edge"><title>Button&#45;&gt;vbutton</title>
<path fill="none" stroke="#4dbce9" d="M900.962,-311.993C903.237,-303.973 905.866,-294.712 908.282,-286.197"/>
<polygon fill="#4dbce9" stroke="#4dbce9" points="911.723,-286.89 911.086,-276.315 904.989,-284.979 911.723,-286.89"/>
</g>
<!-- frame -->
<g id="node25" class="node"><title>frame</title>
<polygon fill="none" stroke="black" points="978.017,-204 861.983,-204 861.983,-168 978.017,-168 978.017,-204"/>
<text text-anchor="middle" x="920" y="-183.474" font-family="Avenir Next" font-size="14.00">html:div (frame)</text>
</g>
<!-- vbutton&#45;&gt;frame -->
<g id="edge27" class="edge"><title>vbutton&#45;&gt;frame</title>
<path fill="none" stroke="black" d="M916.989,-239.697C917.43,-231.983 917.959,-222.712 918.451,-214.112"/>
<polygon fill="black" stroke="black" points="921.946,-214.288 919.023,-204.104 914.958,-213.888 921.946,-214.288"/>
</g>
<!-- content -->
<g id="node26" class="node"><title>content</title>
<polygon fill="none" stroke="black" points="950.031,-132 885.969,-132 885.969,-96 950.031,-96 950.031,-132"/>
<text text-anchor="middle" x="918" y="-111.474" font-family="Avenir Next" font-size="14.00">content</text>
</g>
<!-- frame&#45;&gt;content -->
<g id="edge31" class="edge"><title>frame&#45;&gt;content</title>
<path fill="none" stroke="black" d="M919.506,-167.697C919.285,-159.983 919.02,-150.712 918.775,-142.112"/>
<polygon fill="black" stroke="black" points="922.273,-142 918.489,-132.104 915.276,-142.2 922.273,-142"/>
</g>
<!-- attr -->
<g id="node27" class="node"><title>attr</title>
<polygon fill="none" stroke="black" points="1099.31,-132 986.686,-132 986.686,-96 1099.31,-96 1099.31,-132"/>
<text text-anchor="middle" x="1043" y="-111.474" font-family="Avenir Next" font-size="14.00">attribute (class)</text>
</g>
<!-- frame&#45;&gt;attr -->
<g id="edge28" class="edge"><title>frame&#45;&gt;attr</title>
<path fill="none" stroke="black" d="M950.089,-167.876C966.32,-158.639 986.542,-147.131 1003.97,-137.212"/>
<polygon fill="black" stroke="black" points="1005.84,-140.178 1012.8,-132.19 1002.37,-134.094 1005.84,-140.178"/>
</g>
<!-- textlabel -->
<g id="node30" class="node"><title>textlabel</title>
<polygon fill="none" stroke="black" points="972.243,-60 861.757,-60 861.757,-24 972.243,-24 972.243,-60"/>
<text text-anchor="middle" x="917" y="-39.4744" font-family="Avenir Next" font-size="14.00">text (text&#45;label)</text>
</g>
<!-- content&#45;&gt;textlabel -->
<g id="edge32" class="edge"><title>content&#45;&gt;textlabel</title>
<path fill="none" stroke="black" d="M917.753,-95.6966C917.643,-87.9827 917.51,-78.7125 917.387,-70.1124"/>
<polygon fill="black" stroke="black" points="920.887,-70.0533 917.244,-60.1043 913.888,-70.1533 920.887,-70.0533"/>
</g>
<!-- textbutton -->
<g id="node28" class="node"><title>textbutton</title>
<polygon fill="none" stroke="black" points="1095.07,-60 990.929,-60 990.929,-24 1095.07,-24 1095.07,-60"/>
<text text-anchor="middle" x="1043" y="-39.4744" font-family="Avenir Next" font-size="14.00">text (“button”)</text>
</g>
<!-- attr&#45;&gt;textbutton -->
<g id="edge30" class="edge"><title>attr&#45;&gt;textbutton</title>
<path fill="none" stroke="black" d="M1043,-95.6966C1043,-87.9827 1043,-78.7125 1043,-70.1124"/>
<polygon fill="black" stroke="black" points="1046.5,-70.1043 1043,-60.1043 1039.5,-70.1044 1046.5,-70.1043"/>
</g>
<!-- textclass -->
<g id="node29" class="node"><title>textclass</title>
<polygon fill="none" stroke="black" points="1222.48,-60 1113.52,-60 1113.52,-24 1222.48,-24 1222.48,-60"/>
<text text-anchor="middle" x="1168" y="-39.4744" font-family="Avenir Next" font-size="14.00">text (text&#45;class)</text>
</g>
<!-- attr&#45;&gt;textclass -->
<g id="edge29" class="edge"><title>attr&#45;&gt;textclass</title>
<path fill="none" stroke="black" d="M1073.58,-95.8761C1090.07,-86.6388 1110.62,-75.1308 1128.34,-65.2116"/>
<polygon fill="black" stroke="black" points="1130.29,-68.1296 1137.3,-60.1898 1126.87,-62.0221 1130.29,-68.1296"/>
</g>
</g>
</svg>
