<?xml version="1.0" encoding="UTF-8" standalone="no"?>
<!DOCTYPE svg PUBLIC "-//W3C//DTD SVG 1.1//EN"
 "http://www.w3.org/Graphics/SVG/1.1/DTD/svg11.dtd">
<!-- Generated by graphviz version 2.34.0 (20130907.0228)
 -->
<!-- Title: panel Pages: 1 -->
<svg width="727pt" height="460pt"
 viewBox="0.00 0.00 727.00 460.00" xmlns="http://www.w3.org/2000/svg" xmlns:xlink="http://www.w3.org/1999/xlink">
<g id="graph0" class="graph" transform="scale(1 1) rotate(0) translate(4 456)">
<title>panel</title>
<polygon fill="white" stroke="white" points="-4,4 -4,-456 723,-456 723,4 -4,4"/>
<g id="clust1" class="cluster"><title>cluster_panel</title>
<polygon fill="none" stroke="black" points="8,-152 8,-444 326,-444 326,-152 8,-152"/>
</g>
<g id="clust3" class="cluster"><title>cluster_button</title>
<polygon fill="none" stroke="black" points="334,-8 334,-364 711,-364 711,-8 334,-8"/>
</g>
<!-- Panel -->
<g id="node1" class="node"><title>Panel</title>
<ellipse fill="none" stroke="black" cx="194" cy="-414" rx="35.4841" ry="21.7689"/>
<text text-anchor="middle" x="194" y="-411.474" font-family="Avenir Next" font-size="14.00">Panel</text>
</g>
<!-- vpanel -->
<g id="node2" class="node"><title>vpanel</title>
<polygon fill="none" stroke="black" points="165.332,-352 74.6678,-352 74.6678,-316 165.332,-316 165.332,-352"/>
<text text-anchor="middle" x="120" y="-331.474" font-family="Avenir Next" font-size="14.00">view (Panel)</text>
</g>
<!-- Panel&#45;&gt;vpanel -->
<g id="edge1" class="edge"><title>Panel&#45;&gt;vpanel</title>
<path fill="none" stroke="#4dbce9" d="M176.463,-394.515C166.531,-384.047 153.984,-370.821 143.241,-359.498"/>
<polygon fill="#4dbce9" stroke="#4dbce9" points="145.569,-356.865 136.147,-352.02 140.49,-361.683 145.569,-356.865"/>
</g>
<!-- Plus -->
<g id="node3" class="node"><title>Plus</title>
<ellipse fill="none" stroke="black" cx="194" cy="-254" rx="29.5446" ry="21.7689"/>
<text text-anchor="middle" x="194" y="-251.474" font-family="Avenir Next" font-size="14.00">Plus</text>
</g>
<!-- Panel&#45;&gt;Plus -->
<g id="edge2" class="edge"><title>Panel&#45;&gt;Plus</title>
<path fill="none" stroke="black" d="M194,-392.019C194,-364.986 194,-317.754 194,-286.427"/>
<polygon fill="black" stroke="black" points="197.5,-286.068 194,-276.068 190.5,-286.068 197.5,-286.068"/>
</g>
<!-- Minus -->
<g id="node4" class="node"><title>Minus</title>
<ellipse fill="none" stroke="black" cx="280" cy="-254" rx="38.1875" ry="21.7689"/>
<text text-anchor="middle" x="280" y="-251.474" font-family="Avenir Next" font-size="14.00">Minus</text>
</g>
<!-- Panel&#45;&gt;Minus -->
<g id="edge3" class="edge"><title>Panel&#45;&gt;Minus</title>
<path fill="none" stroke="black" d="M204.892,-392.989C219.866,-365.479 246.909,-315.795 264.132,-284.152"/>
<polygon fill="black" stroke="black" points="267.218,-285.804 268.925,-275.347 261.07,-282.457 267.218,-285.804"/>
</g>
<!-- div1 -->
<g id="node5" class="node"><title>div1</title>
<polygon fill="none" stroke="black" points="145.455,-272 78.5445,-272 78.5445,-236 145.455,-236 145.455,-272"/>
<text text-anchor="middle" x="112" y="-251.474" font-family="Avenir Next" font-size="14.00">html:div</text>
</g>
<!-- vpanel&#45;&gt;div1 -->
<g id="edge4" class="edge"><title>vpanel&#45;&gt;div1</title>
<path fill="none" stroke="black" d="M118.225,-315.689C117.22,-305.894 115.941,-293.422 114.804,-282.335"/>
<polygon fill="black" stroke="black" points="118.273,-281.853 113.77,-272.262 111.309,-282.567 118.273,-281.853"/>
</g>
<!-- vplus -->
<g id="node7" class="node"><title>vplus</title>
<polygon fill="none" stroke="black" points="204.013,-196 121.987,-196 121.987,-160 204.013,-160 204.013,-196"/>
<text text-anchor="middle" x="163" y="-175.474" font-family="Avenir Next" font-size="14.00">view (Plus)</text>
</g>
<!-- Plus&#45;&gt;vplus -->
<g id="edge8" class="edge"><title>Plus&#45;&gt;vplus</title>
<path fill="none" stroke="#4dbce9" d="M185.529,-232.779C182.001,-224.357 177.856,-214.463 174.09,-205.474"/>
<polygon fill="#4dbce9" stroke="#4dbce9" points="177.292,-204.057 170.2,-196.186 170.835,-206.762 177.292,-204.057"/>
</g>
<!-- vminus -->
<g id="node6" class="node"><title>vminus</title>
<polygon fill="none" stroke="black" points="317.304,-196 222.696,-196 222.696,-160 317.304,-160 317.304,-196"/>
<text text-anchor="middle" x="270" y="-175.474" font-family="Avenir Next" font-size="14.00">view (Minus)</text>
</g>
<!-- Minus&#45;&gt;vminus -->
<g id="edge9" class="edge"><title>Minus&#45;&gt;vminus</title>
<path fill="none" stroke="#4dbce9" d="M277.161,-231.993C276.089,-224.061 274.853,-214.915 273.713,-206.478"/>
<polygon fill="#4dbce9" stroke="#4dbce9" points="277.148,-205.756 272.34,-196.315 270.211,-206.693 277.148,-205.756"/>
</g>
<!-- div1&#45;&gt;vminus -->
<g id="edge6" class="edge"><title>div1&#45;&gt;vminus</title>
<path fill="none" stroke="black" d="M145.767,-236.421C148.884,-234.917 151.998,-233.425 155,-232 177.304,-221.416 202.169,-209.919 223.057,-200.346"/>
<polygon fill="black" stroke="black" points="224.714,-203.437 232.351,-196.094 221.801,-197.072 224.714,-203.437"/>
</g>
<!-- div1&#45;&gt;vplus -->
<g id="edge7" class="edge"><title>div1&#45;&gt;vplus</title>
<path fill="none" stroke="black" d="M123.829,-235.837C130.265,-226.497 138.352,-214.763 145.504,-204.386"/>
<polygon fill="black" stroke="black" points="148.443,-206.29 151.236,-196.07 142.679,-202.318 148.443,-206.29"/>
</g>
<!-- textn -->
<g id="node8" class="node"><title>textn</title>
<polygon fill="none" stroke="black" points="103.252,-196 16.7483,-196 16.7483,-160 103.252,-160 103.252,-196"/>
<text text-anchor="middle" x="60" y="-175.474" font-family="Avenir Next" font-size="14.00">text (text&#45;n)</text>
</g>
<!-- div1&#45;&gt;textn -->
<g id="edge5" class="edge"><title>div1&#45;&gt;textn</title>
<path fill="none" stroke="black" d="M99.9395,-235.837C93.3764,-226.497 85.1309,-214.763 77.8386,-204.386"/>
<polygon fill="black" stroke="black" points="80.6083,-202.24 71.9951,-196.07 74.881,-206.264 80.6083,-202.24"/>
</g>
<!-- Button -->
<g id="node9" class="node"><title>Button</title>
<ellipse fill="none" stroke="black" cx="383" cy="-334" rx="40.9801" ry="21.7689"/>
<text text-anchor="middle" x="383" y="-331.474" font-family="Avenir Next" font-size="14.00">Button</text>
</g>
<!-- Button&#45;&gt;Plus -->
<g id="edge18" class="edge"><title>Button&#45;&gt;Plus</title>
<path fill="none" stroke="#f94179" d="M341.349,-316.398C337.516,-314.9 333.689,-313.415 330,-312 287.066,-295.53 274.9,-294.946 233,-276 227.675,-273.592 222.074,-270.763 216.831,-267.975"/>
<polygon fill="#f94179" stroke="#f94179" points="340.225,-319.716 350.812,-320.116 342.785,-313.201 340.225,-319.716"/>
</g>
<!-- Button&#45;&gt;Minus -->
<g id="edge17" class="edge"><title>Button&#45;&gt;Minus</title>
<path fill="none" stroke="#f94179" d="M352.116,-309.612C336.138,-297.512 316.99,-283.012 302.441,-271.994"/>
<polygon fill="#f94179" stroke="#f94179" points="350.056,-312.442 360.141,-315.689 354.282,-306.862 350.056,-312.442"/>
</g>
<!-- vbutton -->
<g id="node10" class="node"><title>vbutton</title>
<polygon fill="none" stroke="black" points="445.338,-272 346.662,-272 346.662,-236 445.338,-236 445.338,-272"/>
<text text-anchor="middle" x="396" y="-251.474" font-family="Avenir Next" font-size="14.00">view (Button)</text>
</g>
<!-- Button&#45;&gt;vbutton -->
<g id="edge10" class="edge"><title>Button&#45;&gt;vbutton</title>
<path fill="none" stroke="#4dbce9" d="M386.484,-312.097C388.019,-302.885 389.843,-291.941 391.482,-282.111"/>
<polygon fill="#4dbce9" stroke="#4dbce9" points="394.972,-282.456 393.164,-272.017 388.067,-281.305 394.972,-282.456"/>
</g>
<!-- frame -->
<g id="node11" class="node"><title>frame</title>
<polygon fill="none" stroke="black" points="458.017,-196 341.983,-196 341.983,-160 458.017,-160 458.017,-196"/>
<text text-anchor="middle" x="400" y="-175.474" font-family="Avenir Next" font-size="14.00">html:div (frame)</text>
</g>
<!-- vbutton&#45;&gt;frame -->
<g id="edge11" class="edge"><title>vbutton&#45;&gt;frame</title>
<path fill="none" stroke="black" d="M396.928,-235.837C397.402,-227.058 397.991,-216.163 398.526,-206.267"/>
<polygon fill="black" stroke="black" points="402.032,-206.244 399.077,-196.07 395.043,-205.866 402.032,-206.244"/>
</g>
<!-- content -->
<g id="node12" class="node"><title>content</title>
<polygon fill="none" stroke="black" points="430.031,-124 365.969,-124 365.969,-88 430.031,-88 430.031,-124"/>
<text text-anchor="middle" x="398" y="-103.474" font-family="Avenir Next" font-size="14.00">content</text>
</g>
<!-- frame&#45;&gt;content -->
<g id="edge12" class="edge"><title>frame&#45;&gt;content</title>
<path fill="none" stroke="black" d="M399.506,-159.697C399.285,-151.983 399.02,-142.712 398.775,-134.112"/>
<polygon fill="black" stroke="black" points="402.273,-134 398.489,-124.104 395.276,-134.2 402.273,-134"/>
</g>
<!-- attr -->
<g id="node14" class="node"><title>attr</title>
<polygon fill="none" stroke="black" points="579.314,-124 466.686,-124 466.686,-88 579.314,-88 579.314,-124"/>
<text text-anchor="middle" x="523" y="-103.474" font-family="Avenir Next" font-size="14.00">attribute (class)</text>
</g>
<!-- frame&#45;&gt;attr -->
<g id="edge13" class="edge"><title>frame&#45;&gt;attr</title>
<path fill="none" stroke="black" d="M430.089,-159.876C446.32,-150.639 466.542,-139.131 483.971,-129.212"/>
<polygon fill="black" stroke="black" points="485.835,-132.178 492.795,-124.19 482.373,-126.094 485.835,-132.178"/>
</g>
<!-- textlabel -->
<g id="node13" class="node"><title>textlabel</title>
<polygon fill="none" stroke="black" points="452.243,-52 341.757,-52 341.757,-16 452.243,-16 452.243,-52"/>
<text text-anchor="middle" x="397" y="-31.4744" font-family="Avenir Next" font-size="14.00">text (text&#45;label)</text>
</g>
<!-- content&#45;&gt;textlabel -->
<g id="edge14" class="edge"><title>content&#45;&gt;textlabel</title>
<path fill="none" stroke="black" d="M397.753,-87.6966C397.643,-79.9827 397.51,-70.7125 397.387,-62.1124"/>
<polygon fill="black" stroke="black" points="400.887,-62.0533 397.244,-52.1043 393.888,-62.1533 400.887,-62.0533"/>
</g>
<!-- text_button -->
<g id="node15" class="node"><title>text_button</title>
<polygon fill="none" stroke="black" points="575.071,-52 470.929,-52 470.929,-16 575.071,-16 575.071,-52"/>
<text text-anchor="middle" x="523" y="-31.4744" font-family="Avenir Next" font-size="14.00">text (“button”)</text>
</g>
<!-- attr&#45;&gt;text_button -->
<g id="edge15" class="edge"><title>attr&#45;&gt;text_button</title>
<path fill="none" stroke="black" d="M523,-87.6966C523,-79.9827 523,-70.7125 523,-62.1124"/>
<polygon fill="black" stroke="black" points="526.5,-62.1043 523,-52.1043 519.5,-62.1044 526.5,-62.1043"/>
</g>
<!-- text_class -->
<g id="node16" class="node"><title>text_class</title>
<polygon fill="none" stroke="black" points="702.476,-52 593.524,-52 593.524,-16 702.476,-16 702.476,-52"/>
<text text-anchor="middle" x="648" y="-31.4744" font-family="Avenir Next" font-size="14.00">text (text&#45;class)</text>
</g>
<!-- attr&#45;&gt;text_class -->
<g id="edge16" class="edge"><title>attr&#45;&gt;text_class</title>
<path fill="none" stroke="black" d="M553.578,-87.8761C570.074,-78.6388 590.624,-67.1308 608.336,-57.2116"/>
<polygon fill="black" stroke="black" points="610.289,-60.1296 617.304,-52.1898 606.869,-54.0221 610.289,-60.1296"/>
</g>
</g>
</svg>
