<?xml version="1.0" encoding="UTF-8" standalone="no"?>
<!DOCTYPE svg PUBLIC "-//W3C//DTD SVG 1.1//EN"
 "http://www.w3.org/Graphics/SVG/1.1/DTD/svg11.dtd">
<!-- Generated by graphviz version 2.34.0 (20130907.0228)
 -->
<!-- Title: bender Pages: 1 -->
<svg width="365pt" height="250pt"
 viewBox="0.00 0.00 365.00 250.00" xmlns="http://www.w3.org/2000/svg" xmlns:xlink="http://www.w3.org/1999/xlink">
<g id="graph0" class="graph" transform="scale(1 1) rotate(0) translate(4 246)">
<title>bender</title>
<polygon fill="white" stroke="white" points="-4,4 -4,-246 361,-246 361,4 -4,4"/>
<!-- w6 -->
<g id="node1" class="node"><title>w6</title>
<polygon fill="none" stroke="black" points="185,-242 163,-242 163,-220 185,-220 185,-242"/>
<text text-anchor="middle" x="174" y="-228.474" font-family="Avenir Next" font-size="14.00">6</text>
</g>
<!-- pushed -->
<g id="node2" class="node"><title>pushed</title>
<polygon fill="none" stroke="black" points="267.194,-129.641 248.736,-150.014 174,-159.081 99.264,-150.014 80.8058,-129.641 132.525,-113.304 215.475,-113.304 267.194,-129.641"/>
<text text-anchor="middle" x="174" y="-132.474" font-family="Avenir Next" font-size="14.00">pushed (Button)</text>
</g>
<!-- w6&#45;&gt;pushed -->
<g id="edge1" class="edge"><title>w6&#45;&gt;pushed</title>
<path fill="none" stroke="black" d="M174,-219.94C174,-207.904 174,-187.137 174,-169.272"/>
<polygon fill="black" stroke="black" points="177.5,-169.176 174,-159.176 170.5,-169.176 177.5,-169.176"/>
<text text-anchor="middle" x="209.819" y="-187.474" font-family="Avenir Next" font-size="14.00"> Plus, event</text>
</g>
<!-- ppushed -->
<g id="node3" class="node"><title>ppushed</title>
<polygon fill="none" stroke="black" points="160.345,-19.6415 144.432,-40.0142 80,-49.0809 15.5681,-40.0142 -0.345273,-19.6415 44.243,-3.30383 115.757,-3.30383 160.345,-19.6415"/>
<text text-anchor="middle" x="80" y="-22.4744" font-family="Avenir Next" font-size="14.00">pushed (Plus)</text>
</g>
<!-- pushed&#45;&gt;ppushed -->
<g id="edge2" class="edge"><title>pushed&#45;&gt;ppushed</title>
<path fill="none" stroke="#f94179" d="M155.876,-113.177C141.311,-96.4427 120.706,-72.7692 104.644,-54.314"/>
<polygon fill="#f94179" stroke="#f94179" points="107.274,-52.0048 98.0685,-46.7596 101.994,-56.6005 107.274,-52.0048"/>
<text text-anchor="middle" x="171.819" y="-77.4744" font-family="Avenir Next" font-size="14.00"> Plus, event</text>
</g>
<!-- mpushed -->
<g id="node4" class="node"><title>mpushed</title>
<polygon fill="none" stroke="black" points="357.431,-19.6415 339.718,-40.0142 268,-49.0809 196.282,-40.0142 178.569,-19.6415 228.199,-3.30383 307.801,-3.30383 357.431,-19.6415"/>
<text text-anchor="middle" x="268" y="-22.4744" font-family="Avenir Next" font-size="14.00">pushed (Minus)</text>
</g>
<!-- pushed&#45;&gt;mpushed -->
<g id="edge3" class="edge"><title>pushed&#45;&gt;mpushed</title>
<path fill="none" stroke="#f94179" stroke-dasharray="5,2" d="M192.484,-113.099C198.412,-106.375 204.996,-98.8838 211,-92 221.674,-79.7633 233.408,-66.1956 243.442,-54.5599"/>
<polygon fill="#f94179" stroke="#f94179" points="246.206,-56.7135 250.082,-46.8531 240.903,-52.1443 246.206,-56.7135"/>
<text text-anchor="middle" x="265.033" y="-77.4744" font-family="Avenir Next" font-size="14.00"> (no value)</text>
</g>
</g>
</svg>
