<?xml version="1.0" encoding="UTF-8" standalone="no"?>
<!DOCTYPE svg PUBLIC "-//W3C//DTD SVG 1.1//EN"
 "http://www.w3.org/Graphics/SVG/1.1/DTD/svg11.dtd">
<!-- Generated by graphviz version 2.34.0 (20130907.0228)
 -->
<!-- Title: tree Pages: 1 -->
<svg width="303pt" height="372pt"
 viewBox="0.00 0.00 303.00 372.00" xmlns="http://www.w3.org/2000/svg" xmlns:xlink="http://www.w3.org/1999/xlink">
<g id="graph0" class="graph" transform="scale(1 1) rotate(0) translate(4 368)">
<title>tree</title>
<polygon fill="white" stroke="white" points="-4,4 -4,-368 299,-368 299,4 -4,4"/>
<!-- A -->
<g id="node1" class="node"><title>A</title>
<ellipse fill="none" stroke="black" cx="148" cy="-342" rx="27" ry="21.7689"/>
<text text-anchor="middle" x="148" y="-339.474" font-family="Avenir Next" font-size="14.00">A</text>
</g>
<!-- B1 -->
<g id="node2" class="node"><title>B1</title>
<ellipse fill="none" stroke="black" cx="112" cy="-262" rx="27" ry="21.7689"/>
<text text-anchor="middle" x="112" y="-259.474" font-family="Avenir Next" font-size="14.00">B1</text>
</g>
<!-- A&#45;&gt;B1 -->
<g id="edge1" class="edge"><title>A&#45;&gt;B1</title>
<path fill="none" stroke="black" d="M138.916,-321.317C134.823,-312.449 129.907,-301.798 125.403,-292.039"/>
<polygon fill="black" stroke="black" points="128.45,-290.289 121.081,-282.676 122.094,-293.223 128.45,-290.289"/>
</g>
<!-- B2 -->
<g id="node3" class="node"><title>B2</title>
<ellipse fill="none" stroke="black" cx="184" cy="-262" rx="27" ry="21.7689"/>
<text text-anchor="middle" x="184" y="-259.474" font-family="Avenir Next" font-size="14.00">B2</text>
</g>
<!-- A&#45;&gt;B2 -->
<g id="edge2" class="edge"><title>A&#45;&gt;B2</title>
<path fill="none" stroke="black" d="M157.084,-321.317C161.177,-312.449 166.093,-301.798 170.597,-292.039"/>
<polygon fill="black" stroke="black" points="173.906,-293.223 174.919,-282.676 167.55,-290.289 173.906,-293.223"/>
</g>
<!-- B -->
<g id="node4" class="node"><title>B</title>
<ellipse fill="none" stroke="black" cx="148" cy="-182" rx="27" ry="21.7689"/>
<text text-anchor="middle" x="148" y="-179.474" font-family="Avenir Next" font-size="14.00">B</text>
</g>
<!-- B1&#45;&gt;B -->
<g id="edge8" class="edge"><title>B1&#45;&gt;B</title>
<path fill="none" stroke="#f94179" d="M121.084,-241.317C125.177,-232.449 130.093,-221.798 134.597,-212.039"/>
<polygon fill="#f94179" stroke="#f94179" points="137.906,-213.223 138.919,-202.676 131.55,-210.289 137.906,-213.223"/>
</g>
<!-- C_ -->
<g id="node7" class="node"><title>C_</title>
<ellipse fill="none" stroke="black" cx="27" cy="-22" rx="27" ry="21.7689"/>
<text text-anchor="middle" x="27" y="-19.4744" font-family="Avenir Next" font-size="14.00">C’</text>
</g>
<!-- B1&#45;&gt;C_ -->
<g id="edge7" class="edge"><title>B1&#45;&gt;C_</title>
<path fill="none" stroke="black" stroke-dasharray="5,2" d="M100.79,-241.915C94.7047,-231.045 87.3536,-217.034 82,-204 60.8755,-152.571 43.6382,-90.0095 34.3848,-53.5288"/>
<polygon fill="black" stroke="black" points="37.7041,-52.3753 31.8818,-43.5237 30.9134,-54.0742 37.7041,-52.3753"/>
</g>
<!-- D_ -->
<g id="node9" class="node"><title>D_</title>
<ellipse fill="none" stroke="black" cx="186" cy="-22" rx="27" ry="21.7689"/>
<text text-anchor="middle" x="186" y="-19.4744" font-family="Avenir Next" font-size="14.00">D’</text>
</g>
<!-- B1&#45;&gt;D_ -->
<g id="edge9" class="edge"><title>B1&#45;&gt;D_</title>
<path fill="none" stroke="black" stroke-dasharray="5,2" d="M133.182,-248.214C148.871,-237.88 169.888,-222.108 184,-204 207.967,-173.246 211.818,-162.122 220,-124 224.104,-104.88 225.196,-98.8527 220,-80 217.03,-69.2248 211.43,-58.4317 205.618,-49.1812"/>
<polygon fill="black" stroke="black" points="208.517,-47.2193 200.061,-40.8359 202.691,-51.0992 208.517,-47.2193"/>
</g>
<!-- B2&#45;&gt;B -->
<g id="edge13" class="edge"><title>B2&#45;&gt;B</title>
<path fill="none" stroke="#f94179" d="M174.916,-241.317C170.823,-232.449 165.907,-221.798 161.403,-212.039"/>
<polygon fill="#f94179" stroke="#f94179" points="164.45,-210.289 157.081,-202.676 158.094,-213.223 164.45,-210.289"/>
</g>
<!-- C__ -->
<g id="node8" class="node"><title>C__</title>
<ellipse fill="none" stroke="black" cx="109" cy="-22" rx="27" ry="21.7689"/>
<text text-anchor="middle" x="109" y="-19.4744" font-family="Avenir Next" font-size="14.00">C”</text>
</g>
<!-- B2&#45;&gt;C__ -->
<g id="edge12" class="edge"><title>B2&#45;&gt;C__</title>
<path fill="none" stroke="black" stroke-dasharray="5,2" d="M162.818,-248.214C147.129,-237.88 126.112,-222.108 112,-204 88.033,-173.246 84.1822,-162.122 76,-124 71.8962,-104.88 70.9273,-98.8862 76,-80 78.8475,-69.3985 84.2,-58.7325 89.7783,-49.5412"/>
<polygon fill="black" stroke="black" points="92.8729,-51.2003 95.3475,-40.8985 86.9887,-47.4086 92.8729,-51.2003"/>
</g>
<!-- D__ -->
<g id="node10" class="node"><title>D__</title>
<ellipse fill="none" stroke="black" cx="268" cy="-22" rx="27" ry="21.7689"/>
<text text-anchor="middle" x="268" y="-19.4744" font-family="Avenir Next" font-size="14.00">D”</text>
</g>
<!-- B2&#45;&gt;D__ -->
<g id="edge14" class="edge"><title>B2&#45;&gt;D__</title>
<path fill="none" stroke="black" stroke-dasharray="5,2" d="M194.049,-241.508C199.448,-230.631 206.003,-216.743 211,-204 231.307,-152.217 249.621,-90.0107 259.738,-53.6524"/>
<polygon fill="black" stroke="black" points="263.205,-54.2465 262.489,-43.6759 256.457,-52.386 263.205,-54.2465"/>
</g>
<!-- C -->
<g id="node5" class="node"><title>C</title>
<ellipse fill="none" stroke="black" cx="112" cy="-102" rx="27" ry="21.7689"/>
<text text-anchor="middle" x="112" y="-99.4744" font-family="Avenir Next" font-size="14.00">C</text>
</g>
<!-- B&#45;&gt;C -->
<g id="edge3" class="edge"><title>B&#45;&gt;C</title>
<path fill="none" stroke="black" d="M138.916,-161.317C134.823,-152.449 129.907,-141.798 125.403,-132.039"/>
<polygon fill="black" stroke="black" points="128.45,-130.289 121.081,-122.676 122.094,-133.223 128.45,-130.289"/>
</g>
<!-- D -->
<g id="node6" class="node"><title>D</title>
<ellipse fill="none" stroke="black" cx="184" cy="-102" rx="27" ry="21.7689"/>
<text text-anchor="middle" x="184" y="-99.4744" font-family="Avenir Next" font-size="14.00">D</text>
</g>
<!-- B&#45;&gt;D -->
<g id="edge4" class="edge"><title>B&#45;&gt;D</title>
<path fill="none" stroke="black" d="M157.084,-161.317C161.177,-152.449 166.093,-141.798 170.597,-132.039"/>
<polygon fill="black" stroke="black" points="173.906,-133.223 174.919,-122.676 167.55,-130.289 173.906,-133.223"/>
</g>
<!-- C&#45;&gt;C_ -->
<g id="edge5" class="edge"><title>C&#45;&gt;C_</title>
<path fill="none" stroke="#f94179" d="M86.7202,-77.802C73.0426,-65.2508 56.5012,-50.0717 44.2987,-38.8741"/>
<polygon fill="#f94179" stroke="#f94179" points="84.6536,-80.6559 94.3879,-84.8383 89.3864,-75.4984 84.6536,-80.6559"/>
</g>
<!-- C&#45;&gt;C__ -->
<g id="edge6" class="edge"><title>C&#45;&gt;C__</title>
<path fill="none" stroke="#f94179" d="M110.803,-69.8753C110.468,-61.1721 110.112,-51.9228 109.806,-43.9603"/>
<polygon fill="#f94179" stroke="#f94179" points="107.314,-70.2394 111.196,-80.0974 114.309,-69.9703 107.314,-70.2394"/>
</g>
<!-- D&#45;&gt;D_ -->
<g id="edge10" class="edge"><title>D&#45;&gt;D_</title>
<path fill="none" stroke="#f94179" d="M184.798,-69.8753C185.021,-61.1721 185.258,-51.9228 185.463,-43.9603"/>
<polygon fill="#f94179" stroke="#f94179" points="181.294,-70.011 184.536,-80.0974 188.291,-70.1905 181.294,-70.011"/>
</g>
<!-- D&#45;&gt;D__ -->
<g id="edge11" class="edge"><title>D&#45;&gt;D__</title>
<path fill="none" stroke="#f94179" d="M208.93,-77.851C222.35,-65.3897 238.571,-50.3266 250.617,-39.1409"/>
<polygon fill="#f94179" stroke="#f94179" points="206.351,-75.469 201.405,-84.8383 211.114,-80.5986 206.351,-75.469"/>
</g>
</g>
</svg>
