<?xml version="1.0" encoding="UTF-8" standalone="no"?>
<!DOCTYPE svg PUBLIC "-//W3C//DTD SVG 1.1//EN"
 "http://www.w3.org/Graphics/SVG/1.1/DTD/svg11.dtd">
<!-- Generated by graphviz version 2.34.0 (20130907.0228)
 -->
<!-- Title: tree Pages: 1 -->
<svg width="378pt" height="292pt"
 viewBox="0.00 0.00 378.00 292.00" xmlns="http://www.w3.org/2000/svg" xmlns:xlink="http://www.w3.org/1999/xlink">
<g id="graph0" class="graph" transform="scale(1 1) rotate(0) translate(4 288)">
<title>tree</title>
<polygon fill="white" stroke="white" points="-4,4 -4,-288 374,-288 374,4 -4,4"/>
<g id="clust6" class="cluster"><title>cluster5</title>
<polygon fill="none" stroke="#f94179" points="164,-8 164,-60 234,-60 234,-8 164,-8"/>
</g>
<g id="clust4" class="cluster"><title>cluster3</title>
<polygon fill="none" stroke="#f94179" points="8,-8 8,-60 78,-60 78,-8 8,-8"/>
</g>
<g id="clust7" class="cluster"><title>cluster6</title>
<polygon fill="none" stroke="#f94179" points="242,-8 242,-60 312,-60 312,-8 242,-8"/>
</g>
<g id="clust1" class="cluster"><title>cluster0</title>
<polygon fill="none" stroke="#f94179" points="125,-224 125,-276 195,-276 195,-224 125,-224"/>
</g>
<g id="clust2" class="cluster"><title>cluster1</title>
<polygon fill="none" stroke="#f94179" points="86,-80 86,-204 156,-204 156,-80 86,-80"/>
</g>
<g id="clust5" class="cluster"><title>cluster4</title>
<polygon fill="none" stroke="#f94179" points="86,-8 86,-60 156,-60 156,-8 86,-8"/>
</g>
<g id="clust3" class="cluster"><title>cluster2</title>
<polygon fill="none" stroke="#f94179" points="164,-80 164,-204 234,-204 234,-80 164,-80"/>
</g>
<!-- VA -->
<g id="node1" class="node"><title>VA</title>
<polygon fill="none" stroke="black" points="187,-268 133,-268 133,-232 187,-232 187,-268"/>
<text text-anchor="middle" x="160" y="-247.474" font-family="Avenir Next" font-size="14.00">A</text>
</g>
<!-- VB1 -->
<g id="node2" class="node"><title>VB1</title>
<polygon fill="none" stroke="black" points="148,-196 94,-196 94,-160 148,-160 148,-196"/>
<text text-anchor="middle" x="121" y="-175.474" font-family="Avenir Next" font-size="14.00">B1</text>
</g>
<!-- VA&#45;&gt;VB1 -->
<g id="edge1" class="edge"><title>VA&#45;&gt;VB1</title>
<path fill="none" stroke="black" d="M150.36,-231.697C145.873,-223.644 140.441,-213.894 135.476,-204.982"/>
<polygon fill="black" stroke="black" points="138.454,-203.137 130.53,-196.104 132.339,-206.544 138.454,-203.137"/>
</g>
<!-- VB2 -->
<g id="node3" class="node"><title>VB2</title>
<polygon fill="none" stroke="black" points="226,-196 172,-196 172,-160 226,-160 226,-196"/>
<text text-anchor="middle" x="199" y="-175.474" font-family="Avenir Next" font-size="14.00">B2</text>
</g>
<!-- VA&#45;&gt;VB2 -->
<g id="edge2" class="edge"><title>VA&#45;&gt;VB2</title>
<path fill="none" stroke="black" d="M169.64,-231.697C174.127,-223.644 179.559,-213.894 184.524,-204.982"/>
<polygon fill="black" stroke="black" points="187.661,-206.544 189.47,-196.104 181.546,-203.137 187.661,-206.544"/>
</g>
<!-- VB_ -->
<g id="node7" class="node"><title>VB_</title>
<polygon fill="none" stroke="black" points="148,-124 94,-124 94,-88 148,-88 148,-124"/>
<text text-anchor="middle" x="121" y="-103.474" font-family="Avenir Next" font-size="14.00">B’</text>
</g>
<!-- VB1&#45;&gt;VB_ -->
<g id="edge3" class="edge"><title>VB1&#45;&gt;VB_</title>
<path fill="none" stroke="#f94179" d="M121,-159.697C121,-148.846 121,-134.917 121,-124.104"/>
</g>
<!-- VB__ -->
<g id="node10" class="node"><title>VB__</title>
<polygon fill="none" stroke="black" points="226,-124 172,-124 172,-88 226,-88 226,-124"/>
<text text-anchor="middle" x="199" y="-103.474" font-family="Avenir Next" font-size="14.00">B”</text>
</g>
<!-- VB2&#45;&gt;VB__ -->
<g id="edge4" class="edge"><title>VB2&#45;&gt;VB__</title>
<path fill="none" stroke="#f94179" d="M199,-159.697C199,-148.846 199,-134.917 199,-124.104"/>
</g>
<!-- VB -->
<g id="node4" class="node"><title>VB</title>
<polygon fill="none" stroke="black" points="334,-268 280,-268 280,-232 334,-232 334,-268"/>
<text text-anchor="middle" x="307" y="-247.474" font-family="Avenir Next" font-size="14.00">B</text>
</g>
<!-- VC -->
<g id="node5" class="node"><title>VC</title>
<polygon fill="none" stroke="black" points="298,-196 244,-196 244,-160 298,-160 298,-196"/>
<text text-anchor="middle" x="271" y="-175.474" font-family="Avenir Next" font-size="14.00">C</text>
</g>
<!-- VB&#45;&gt;VC -->
<g id="edge9" class="edge"><title>VB&#45;&gt;VC</title>
<path fill="none" stroke="black" d="M298.101,-231.697C294.003,-223.728 289.051,-214.1 284.507,-205.264"/>
<polygon fill="black" stroke="black" points="287.483,-203.396 279.797,-196.104 281.258,-206.598 287.483,-203.396"/>
</g>
<!-- VD -->
<g id="node6" class="node"><title>VD</title>
<polygon fill="none" stroke="black" points="370,-196 316,-196 316,-160 370,-160 370,-196"/>
<text text-anchor="middle" x="343" y="-175.474" font-family="Avenir Next" font-size="14.00">D</text>
</g>
<!-- VB&#45;&gt;VD -->
<g id="edge10" class="edge"><title>VB&#45;&gt;VD</title>
<path fill="none" stroke="black" d="M315.899,-231.697C319.997,-223.728 324.949,-214.1 329.493,-205.264"/>
<polygon fill="black" stroke="black" points="332.742,-206.598 334.203,-196.104 326.517,-203.396 332.742,-206.598"/>
</g>
<!-- VC_ -->
<g id="node8" class="node"><title>VC_</title>
<polygon fill="none" stroke="black" points="70,-52 16,-52 16,-16 70,-16 70,-52"/>
<text text-anchor="middle" x="43" y="-31.4744" font-family="Avenir Next" font-size="14.00">C’</text>
</g>
<!-- VB_&#45;&gt;VC_ -->
<g id="edge5" class="edge"><title>VB_&#45;&gt;VC_</title>
<path fill="none" stroke="black" d="M101.719,-87.6966C92.0846,-79.0503 80.2712,-68.4486 69.773,-59.027"/>
<polygon fill="black" stroke="black" points="71.8393,-56.1786 62.0591,-52.1043 67.1639,-61.3883 71.8393,-56.1786"/>
</g>
<!-- VD_ -->
<g id="node9" class="node"><title>VD_</title>
<polygon fill="none" stroke="black" points="148,-52 94,-52 94,-16 148,-16 148,-52"/>
<text text-anchor="middle" x="121" y="-31.4744" font-family="Avenir Next" font-size="14.00">D’</text>
</g>
<!-- VB_&#45;&gt;VD_ -->
<g id="edge6" class="edge"><title>VB_&#45;&gt;VD_</title>
<path fill="none" stroke="black" d="M121,-87.6966C121,-79.9827 121,-70.7125 121,-62.1124"/>
<polygon fill="black" stroke="black" points="124.5,-62.1043 121,-52.1043 117.5,-62.1044 124.5,-62.1043"/>
</g>
<!-- VC__ -->
<g id="node11" class="node"><title>VC__</title>
<polygon fill="none" stroke="black" points="226,-52 172,-52 172,-16 226,-16 226,-52"/>
<text text-anchor="middle" x="199" y="-31.4744" font-family="Avenir Next" font-size="14.00">C”</text>
</g>
<!-- VB__&#45;&gt;VC__ -->
<g id="edge7" class="edge"><title>VB__&#45;&gt;VC__</title>
<path fill="none" stroke="black" d="M199,-87.6966C199,-79.9827 199,-70.7125 199,-62.1124"/>
<polygon fill="black" stroke="black" points="202.5,-62.1043 199,-52.1043 195.5,-62.1044 202.5,-62.1043"/>
</g>
<!-- VD__ -->
<g id="node12" class="node"><title>VD__</title>
<polygon fill="none" stroke="black" points="304,-52 250,-52 250,-16 304,-16 304,-52"/>
<text text-anchor="middle" x="277" y="-31.4744" font-family="Avenir Next" font-size="14.00">D”</text>
</g>
<!-- VB__&#45;&gt;VD__ -->
<g id="edge8" class="edge"><title>VB__&#45;&gt;VD__</title>
<path fill="none" stroke="black" d="M218.281,-87.6966C227.915,-79.0503 239.729,-68.4486 250.227,-59.027"/>
<polygon fill="black" stroke="black" points="252.836,-61.3883 257.941,-52.1043 248.161,-56.1786 252.836,-61.3883"/>
</g>
</g>
</svg>
