<?xml version="1.0" encoding="UTF-8" standalone="no"?>
<!DOCTYPE svg PUBLIC "-//W3C//DTD SVG 1.1//EN"
 "http://www.w3.org/Graphics/SVG/1.1/DTD/svg11.dtd">
<!-- Generated by graphviz version 2.34.0 (20130907.0228)
 -->
<!-- Title: bender Pages: 1 -->
<svg width="567pt" height="716pt"
 viewBox="0.00 0.00 567.00 716.00" xmlns="http://www.w3.org/2000/svg" xmlns:xlink="http://www.w3.org/1999/xlink">
<g id="graph0" class="graph" transform="scale(1 1) rotate(0) translate(4 712)">
<title>bender</title>
<polygon fill="white" stroke="white" points="-4,4 -4,-712 563,-712 563,4 -4,4"/>
<!-- t -->
<g id="node1" class="node"><title>t</title>
<polygon fill="none" stroke="black" points="368,-36 350,-9 386,-9 368,-36"/>
</g>
<!-- ppushed -->
<g id="node2" class="node"><title>ppushed</title>
<polygon fill="none" stroke="black" points="357.345,-447.641 341.432,-468.014 277,-477.081 212.568,-468.014 196.655,-447.641 241.243,-431.304 312.757,-431.304 357.345,-447.641"/>
<text text-anchor="middle" x="277" y="-450.474" font-family="Avenir Next" font-size="14.00">pushed (Plus)</text>
</g>
<!-- w1 -->
<g id="node3" class="node"><title>w1</title>
<polygon fill="none" stroke="black" points="285,-392 263,-392 263,-370 285,-370 285,-392"/>
<text text-anchor="middle" x="274" y="-378.474" font-family="Avenir Next" font-size="14.00">1</text>
</g>
<!-- ppushed&#45;&gt;w1 -->
<g id="edge1" class="edge"><title>ppushed&#45;&gt;w1</title>
<path fill="none" stroke="black" d="M276.1,-430.998C275.707,-421.836 275.249,-411.142 274.861,-402.087"/>
<polygon fill="black" stroke="black" points="278.356,-401.907 274.431,-392.067 271.363,-402.207 278.356,-401.907"/>
</g>
<!-- n -->
<g id="node4" class="node"><title>n</title>
<ellipse fill="none" stroke="black" cx="269" cy="-312" rx="49.2362" ry="21.7689"/>
<text text-anchor="middle" x="269" y="-309.474" font-family="Avenir Next" font-size="14.00">n (Panel)</text>
</g>
<!-- w1&#45;&gt;n -->
<g id="edge2" class="edge"><title>w1&#45;&gt;n</title>
<path fill="none" stroke="black" d="M273.241,-369.824C272.729,-362.962 272.023,-353.508 271.334,-344.279"/>
<polygon fill="black" stroke="black" points="274.81,-343.818 270.575,-334.106 267.829,-344.339 274.81,-343.818"/>
</g>
<!-- w3 -->
<g id="node7" class="node"><title>w3</title>
<polygon fill="none" stroke="black" points="280,-243 258,-243 258,-221 280,-221 280,-243"/>
<text text-anchor="middle" x="269" y="-229.474" font-family="Avenir Next" font-size="14.00">3</text>
</g>
<!-- n&#45;&gt;w3 -->
<g id="edge5" class="edge"><title>n&#45;&gt;w3</title>
<path fill="none" stroke="black" d="M269,-290.097C269,-278.726 269,-264.716 269,-253.42"/>
<polygon fill="black" stroke="black" points="272.5,-253.227 269,-243.227 265.5,-253.227 272.5,-253.227"/>
</g>
<!-- mpushed -->
<g id="node5" class="node"><title>mpushed</title>
<polygon fill="none" stroke="black" points="178.431,-447.641 160.718,-468.014 89,-477.081 17.2817,-468.014 -0.431263,-447.641 49.1993,-431.304 128.801,-431.304 178.431,-447.641"/>
<text text-anchor="middle" x="89" y="-450.474" font-family="Avenir Next" font-size="14.00">pushed (Minus)</text>
</g>
<!-- w2 -->
<g id="node6" class="node"><title>w2</title>
<polygon fill="none" stroke="black" points="171,-392 149,-392 149,-370 171,-370 171,-392"/>
<text text-anchor="middle" x="160" y="-378.474" font-family="Avenir Next" font-size="14.00">2</text>
</g>
<!-- mpushed&#45;&gt;w2 -->
<g id="edge3" class="edge"><title>mpushed&#45;&gt;w2</title>
<path fill="none" stroke="black" d="M110.302,-430.998C120.616,-420.829 132.844,-408.773 142.59,-399.165"/>
<polygon fill="black" stroke="black" points="145.126,-401.58 149.79,-392.067 140.211,-396.595 145.126,-401.58"/>
</g>
<!-- w2&#45;&gt;n -->
<g id="edge4" class="edge"><title>w2&#45;&gt;n</title>
<path fill="none" stroke="black" d="M171.254,-373.082C185.596,-364.266 211.09,-348.596 232.445,-335.47"/>
<polygon fill="black" stroke="black" points="234.31,-338.432 240.996,-330.213 230.644,-332.468 234.31,-338.432"/>
</g>
<!-- w3&#45;&gt;t -->
<g id="edge6" class="edge"><title>w3&#45;&gt;t</title>
<path fill="none" stroke="black" d="M280.323,-223.565C294.195,-213.848 317.4,-195.512 330,-174 354.029,-132.974 362.919,-77.3035 366.168,-45.0553"/>
<polygon fill="black" stroke="black" points="369.656,-45.3457 367.067,-35.0719 362.684,-44.7175 369.656,-45.3457"/>
</g>
<!-- menabled -->
<g id="node8" class="node"><title>menabled</title>
<ellipse fill="none" stroke="black" cx="237" cy="-152" rx="84.014" ry="21.7689"/>
<text text-anchor="middle" x="237" y="-149.474" font-family="Avenir Next" font-size="14.00">enabled (Minus)</text>
</g>
<!-- w3&#45;&gt;menabled -->
<g id="edge7" class="edge"><title>w3&#45;&gt;menabled</title>
<path fill="none" stroke="black" d="M264.817,-220.803C260.918,-211.299 254.904,-196.64 249.464,-183.38"/>
<polygon fill="black" stroke="black" points="252.676,-181.989 245.643,-174.066 246.2,-184.646 252.676,-181.989"/>
</g>
<!-- w8 -->
<g id="node18" class="node"><title>w8</title>
<polygon fill="none" stroke="black" points="248,-94 226,-94 226,-72 248,-72 248,-94"/>
<text text-anchor="middle" x="237" y="-80.4744" font-family="Avenir Next" font-size="14.00">8</text>
</g>
<!-- menabled&#45;&gt;w8 -->
<g id="edge21" class="edge"><title>menabled&#45;&gt;w8</title>
<path fill="none" stroke="#f8ca00" d="M237,-129.801C237,-121.577 237,-112.206 237,-104.091"/>
<polygon fill="#f8ca00" stroke="#f8ca00" points="240.5,-104.031 237,-94.0306 233.5,-104.031 240.5,-104.031"/>
</g>
<!-- label -->
<g id="node9" class="node"><title>label</title>
<ellipse fill="none" stroke="black" cx="487" cy="-152" rx="71.4669" ry="21.7689"/>
<text text-anchor="middle" x="487" y="-149.474" font-family="Avenir Next" font-size="14.00">label (Button)</text>
</g>
<!-- w4 -->
<g id="node10" class="node"><title>w4</title>
<polygon fill="none" stroke="black" points="467,-94 445,-94 445,-72 467,-72 467,-94"/>
<text text-anchor="middle" x="456" y="-80.4744" font-family="Avenir Next" font-size="14.00">4</text>
</g>
<!-- label&#45;&gt;w4 -->
<g id="edge8" class="edge"><title>label&#45;&gt;w4</title>
<path fill="none" stroke="black" d="M477.361,-130.168C473.419,-121.647 468.883,-111.844 465.008,-103.469"/>
<polygon fill="black" stroke="black" points="468.069,-101.75 460.693,-94.144 461.716,-104.689 468.069,-101.75"/>
</g>
<!-- w4&#45;&gt;t -->
<g id="edge9" class="edge"><title>w4&#45;&gt;t</title>
<path fill="none" stroke="black" d="M444.855,-74.021C429.416,-62.9684 401.44,-42.9399 383.837,-30.3378"/>
<polygon fill="black" stroke="black" points="385.867,-27.4868 375.699,-24.5115 381.792,-33.1786 385.867,-27.4868"/>
</g>
<!-- mousedown -->
<g id="node11" class="node"><title>mousedown</title>
<polygon fill="none" stroke="black" points="517.108,-677.641 494.706,-698.014 404,-707.081 313.294,-698.014 290.892,-677.641 353.662,-661.304 454.338,-661.304 517.108,-677.641"/>
<text text-anchor="middle" x="404" y="-680.474" font-family="Avenir Next" font-size="14.00">mousedown (frame)</text>
</g>
<!-- w5 -->
<g id="node12" class="node"><title>w5</title>
<polygon fill="none" stroke="black" points="409,-622 387,-622 387,-600 409,-600 409,-622"/>
<text text-anchor="middle" x="398" y="-608.474" font-family="Avenir Next" font-size="14.00">5</text>
</g>
<!-- mousedown&#45;&gt;w5 -->
<g id="edge10" class="edge"><title>mousedown&#45;&gt;w5</title>
<path fill="none" stroke="black" d="M402.2,-660.998C401.415,-651.836 400.498,-641.142 399.722,-632.087"/>
<polygon fill="black" stroke="black" points="403.204,-631.731 398.863,-622.067 396.23,-632.329 403.204,-631.731"/>
</g>
<!-- down -->
<g id="node13" class="node"><title>down</title>
<ellipse fill="none" stroke="black" cx="387" cy="-539" rx="75.3376" ry="21.7689"/>
<text text-anchor="middle" x="387" y="-536.474" font-family="Avenir Next" font-size="14.00">down (Button)</text>
</g>
<!-- w5&#45;&gt;down -->
<g id="edge11" class="edge"><title>w5&#45;&gt;down</title>
<path fill="none" stroke="black" d="M396.424,-599.971C395.23,-592.372 393.521,-581.497 391.885,-571.089"/>
<polygon fill="black" stroke="black" points="395.306,-570.311 390.296,-560.976 388.391,-571.398 395.306,-570.311"/>
</g>
<!-- w7 -->
<g id="node17" class="node"><title>w7</title>
<polygon fill="none" stroke="black" points="398,-323 376,-323 376,-301 398,-301 398,-323"/>
<text text-anchor="middle" x="387" y="-309.474" font-family="Avenir Next" font-size="14.00">7</text>
</g>
<!-- down&#45;&gt;w7 -->
<g id="edge17" class="edge"><title>down&#45;&gt;w7</title>
<path fill="none" stroke="black" d="M387,-516.833C387,-473.743 387,-376.316 387,-333.658"/>
<polygon fill="black" stroke="black" points="390.5,-333.39 387,-323.39 383.5,-333.391 390.5,-333.39"/>
</g>
<!-- mouseup -->
<g id="node14" class="node"><title>mouseup</title>
<polygon fill="none" stroke="black" points="273.21,-677.641 253.758,-698.014 175,-707.081 96.2419,-698.014 76.7903,-677.641 131.293,-661.304 218.707,-661.304 273.21,-677.641"/>
<text text-anchor="middle" x="175" y="-680.474" font-family="Avenir Next" font-size="14.00">mouseup (frame)</text>
</g>
<!-- w6 -->
<g id="node15" class="node"><title>w6</title>
<polygon fill="none" stroke="black" points="191,-622 169,-622 169,-600 191,-600 191,-622"/>
<text text-anchor="middle" x="180" y="-608.474" font-family="Avenir Next" font-size="14.00">6</text>
</g>
<!-- mouseup&#45;&gt;w6 -->
<g id="edge12" class="edge"><title>mouseup&#45;&gt;w6</title>
<path fill="none" stroke="black" d="M176.5,-660.998C177.155,-651.836 177.918,-641.142 178.565,-632.087"/>
<polygon fill="black" stroke="black" points="182.06,-632.291 179.281,-622.067 175.077,-631.792 182.06,-632.291"/>
</g>
<!-- w6&#45;&gt;down -->
<g id="edge13" class="edge"><title>w6&#45;&gt;down</title>
<path fill="none" stroke="black" d="M191.129,-606.236C216.82,-597.549 281.738,-575.596 329.835,-559.331"/>
<polygon fill="black" stroke="black" points="331.166,-562.576 339.518,-556.057 328.924,-555.945 331.166,-562.576"/>
</g>
<!-- pushed -->
<g id="node16" class="node"><title>pushed</title>
<polygon fill="none" stroke="black" points="273.194,-533.641 254.736,-554.014 180,-563.081 105.264,-554.014 86.8058,-533.641 138.525,-517.304 221.475,-517.304 273.194,-533.641"/>
<text text-anchor="middle" x="180" y="-536.474" font-family="Avenir Next" font-size="14.00">pushed (Button)</text>
</g>
<!-- w6&#45;&gt;pushed -->
<g id="edge14" class="edge"><title>w6&#45;&gt;pushed</title>
<path fill="none" stroke="black" d="M180,-599.971C180,-592.975 180,-583.201 180,-573.572"/>
<polygon fill="black" stroke="black" points="183.5,-573.318 180,-563.318 176.5,-573.318 183.5,-573.318"/>
</g>
<!-- pushed&#45;&gt;ppushed -->
<g id="edge15" class="edge"><title>pushed&#45;&gt;ppushed</title>
<path fill="none" stroke="#f94179" d="M203.978,-517.236C216.734,-506.189 232.562,-492.483 246.217,-480.658"/>
<polygon fill="#f94179" stroke="#f94179" points="248.698,-483.139 253.966,-473.947 244.116,-477.847 248.698,-483.139"/>
</g>
<!-- pushed&#45;&gt;mpushed -->
<g id="edge16" class="edge"><title>pushed&#45;&gt;mpushed</title>
<path fill="none" stroke="#f94179" d="M157.506,-517.236C145.825,-506.453 131.398,-493.137 118.802,-481.509"/>
<polygon fill="#f94179" stroke="#f94179" points="120.958,-478.736 111.236,-474.525 116.21,-483.88 120.958,-478.736"/>
</g>
<!-- w7&#45;&gt;t -->
<g id="edge18" class="edge"><title>w7&#45;&gt;t</title>
<path fill="none" stroke="black" d="M386.541,-300.973C385.007,-268.112 379.779,-160.689 373,-72 372.299,-62.8278 371.387,-52.7763 370.535,-43.9157"/>
<polygon fill="black" stroke="black" points="374.005,-43.4462 369.542,-33.8375 367.039,-44.1324 374.005,-43.4462"/>
</g>
<!-- w8&#45;&gt;t -->
<g id="edge22" class="edge"><title>w8&#45;&gt;t</title>
<path fill="none" stroke="black" d="M248.169,-76.6287C270.883,-65.7051 322.628,-40.82 350.097,-27.6096"/>
<polygon fill="black" stroke="black" points="351.83,-30.66 359.326,-23.1717 348.797,-24.3516 351.83,-30.66"/>
</g>
<!-- enabled -->
<g id="node19" class="node"><title>enabled</title>
<ellipse fill="none" stroke="black" cx="134" cy="-232" rx="87.3051" ry="21.7689"/>
<text text-anchor="middle" x="134" y="-229.474" font-family="Avenir Next" font-size="14.00">enabled (Button)</text>
</g>
<!-- enabled&#45;&gt;menabled -->
<g id="edge20" class="edge"><title>enabled&#45;&gt;menabled</title>
<path fill="none" stroke="#f94179" d="M160.258,-211.115C173.091,-201.397 188.702,-189.575 202.486,-179.137"/>
<polygon fill="#f94179" stroke="#f94179" points="204.931,-181.676 210.79,-172.848 200.705,-176.095 204.931,-181.676"/>
</g>
<!-- enabled&#45;&gt;w8 -->
<g id="edge19" class="edge"><title>enabled&#45;&gt;w8</title>
<path fill="none" stroke="black" d="M130.532,-210.049C128.076,-188.109 127.663,-153.622 144,-130 160.742,-105.793 193.998,-93.7476 215.868,-88.2004"/>
<polygon fill="black" stroke="black" points="216.876,-91.5604 225.843,-85.918 215.314,-84.7367 216.876,-91.5604"/>
</g>
</g>
</svg>
