<?xml version="1.0" encoding="UTF-8" standalone="no"?>
<!DOCTYPE svg PUBLIC "-//W3C//DTD SVG 1.1//EN"
 "http://www.w3.org/Graphics/SVG/1.1/DTD/svg11.dtd">
<!-- Generated by graphviz version 2.34.0 (20130907.0228)
 -->
<!-- Title: bender Pages: 1 -->
<svg width="600pt" height="716pt"
 viewBox="0.00 0.00 600.00 716.00" xmlns="http://www.w3.org/2000/svg" xmlns:xlink="http://www.w3.org/1999/xlink">
<g id="graph0" class="graph" transform="scale(1 1) rotate(0) translate(4 712)">
<title>bender</title>
<polygon fill="white" stroke="white" points="-4,4 -4,-712 596,-712 596,4 -4,4"/>
<!-- t -->
<g id="node1" class="node"><title>t</title>
<polygon fill="none" stroke="black" points="382,-36 364,-9 400,-9 382,-36"/>
</g>
<!-- ppushed -->
<g id="node2" class="node"><title>ppushed</title>
<polygon fill="none" stroke="black" points="357.345,-447.641 341.432,-468.014 277,-477.081 212.568,-468.014 196.655,-447.641 241.243,-431.304 312.757,-431.304 357.345,-447.641"/>
<text text-anchor="middle" x="277" y="-450.474" font-family="Avenir Next" font-size="14.00">pushed (Plus)</text>
</g>
<!-- w1 -->
<g id="node3" class="node"><title>w1</title>
<polygon fill="none" stroke="black" points="219,-392 197,-392 197,-370 219,-370 219,-392"/>
<text text-anchor="middle" x="208" y="-378.474" font-family="Avenir Next" font-size="14.00">1</text>
</g>
<!-- ppushed&#45;&gt;w1 -->
<g id="edge1" class="edge"><title>ppushed&#45;&gt;w1</title>
<path fill="none" stroke="black" d="M256.298,-430.998C246.374,-420.93 234.626,-409.012 225.202,-399.451"/>
<polygon fill="black" stroke="black" points="227.435,-396.731 217.923,-392.067 222.45,-401.645 227.435,-396.731"/>
</g>
<!-- n -->
<g id="node4" class="node"><title>n</title>
<ellipse fill="none" stroke="black" cx="173" cy="-312" rx="49.2362" ry="21.7689"/>
<text text-anchor="middle" x="173" y="-309.474" font-family="Avenir Next" font-size="14.00">n (Panel)</text>
</g>
<!-- w1&#45;&gt;n -->
<g id="edge2" class="edge"><title>w1&#45;&gt;n</title>
<path fill="none" stroke="black" d="M202.684,-369.824C198.887,-362.556 193.571,-352.38 188.485,-342.644"/>
<polygon fill="black" stroke="black" points="191.469,-340.796 183.737,-333.553 185.265,-344.037 191.469,-340.796"/>
</g>
<!-- w3 -->
<g id="node7" class="node"><title>w3</title>
<polygon fill="none" stroke="black" points="184,-243 162,-243 162,-221 184,-221 184,-243"/>
<text text-anchor="middle" x="173" y="-229.474" font-family="Avenir Next" font-size="14.00">3</text>
</g>
<!-- n&#45;&gt;w3 -->
<g id="edge5" class="edge"><title>n&#45;&gt;w3</title>
<path fill="none" stroke="black" d="M173,-290.097C173,-278.726 173,-264.716 173,-253.42"/>
<polygon fill="black" stroke="black" points="176.5,-253.227 173,-243.227 169.5,-253.227 176.5,-253.227"/>
</g>
<!-- mpushed -->
<g id="node5" class="node"><title>mpushed</title>
<polygon fill="none" stroke="black" points="178.431,-447.641 160.718,-468.014 89,-477.081 17.2817,-468.014 -0.431263,-447.641 49.1993,-431.304 128.801,-431.304 178.431,-447.641"/>
<text text-anchor="middle" x="89" y="-450.474" font-family="Avenir Next" font-size="14.00">pushed (Minus)</text>
</g>
<!-- w2 -->
<g id="node6" class="node"><title>w2</title>
<polygon fill="none" stroke="black" points="124,-392 102,-392 102,-370 124,-370 124,-392"/>
<text text-anchor="middle" x="113" y="-378.474" font-family="Avenir Next" font-size="14.00">2</text>
</g>
<!-- mpushed&#45;&gt;w2 -->
<g id="edge3" class="edge"><title>mpushed&#45;&gt;w2</title>
<path fill="none" stroke="black" d="M96.2008,-430.998C99.3765,-421.735 103.089,-410.907 106.215,-401.789"/>
<polygon fill="black" stroke="black" points="109.616,-402.661 109.549,-392.067 102.994,-400.391 109.616,-402.661"/>
</g>
<!-- w2&#45;&gt;n -->
<g id="edge4" class="edge"><title>w2&#45;&gt;n</title>
<path fill="none" stroke="black" d="M122.113,-369.824C129.114,-362.006 139.128,-350.824 148.424,-340.444"/>
<polygon fill="black" stroke="black" points="151.266,-342.516 155.33,-332.731 146.052,-337.846 151.266,-342.516"/>
</g>
<!-- w3&#45;&gt;t -->
<g id="edge6" class="edge"><title>w3&#45;&gt;t</title>
<path fill="none" stroke="black" d="M170.354,-220.883C165.913,-201.555 159.094,-158.748 177,-130 219.321,-62.054 318.612,-32.8414 361.583,-23.0688"/>
<polygon fill="black" stroke="black" points="362.41,-26.4711 371.45,-20.9459 360.937,-19.6277 362.41,-26.4711"/>
</g>
<!-- menabled -->
<g id="node8" class="node"><title>menabled</title>
<ellipse fill="none" stroke="black" cx="270" cy="-152" rx="84.014" ry="21.7689"/>
<text text-anchor="middle" x="270" y="-149.474" font-family="Avenir Next" font-size="14.00">enabled (Minus)</text>
</g>
<!-- w3&#45;&gt;menabled -->
<g id="edge7" class="edge"><title>w3&#45;&gt;menabled</title>
<path fill="none" stroke="black" d="M184.127,-222.052C196.901,-211.781 218.45,-194.452 236.765,-179.725"/>
<polygon fill="black" stroke="black" points="239.31,-182.17 244.91,-173.176 234.923,-176.715 239.31,-182.17"/>
</g>
<!-- w7 -->
<g id="node18" class="node"><title>w7</title>
<polygon fill="none" stroke="black" points="393,-94 371,-94 371,-72 393,-72 393,-94"/>
<text text-anchor="middle" x="382" y="-80.4744" font-family="Avenir Next" font-size="14.00">7</text>
</g>
<!-- menabled&#45;&gt;w7 -->
<g id="edge19" class="edge"><title>menabled&#45;&gt;w7</title>
<path fill="none" stroke="#f8ca00" d="M302.395,-131.621C321.621,-120.119 345.391,-105.9 361.927,-96.0079"/>
<polygon fill="#f8ca00" stroke="#f8ca00" points="363.954,-98.8741 370.739,-90.7368 360.36,-92.8669 363.954,-98.8741"/>
</g>
<!-- label -->
<g id="node9" class="node"><title>label</title>
<ellipse fill="none" stroke="black" cx="520" cy="-152" rx="71.4669" ry="21.7689"/>
<text text-anchor="middle" x="520" y="-149.474" font-family="Avenir Next" font-size="14.00">label (Button)</text>
</g>
<!-- w4 -->
<g id="node10" class="node"><title>w4</title>
<polygon fill="none" stroke="black" points="482,-94 460,-94 460,-72 482,-72 482,-94"/>
<text text-anchor="middle" x="471" y="-80.4744" font-family="Avenir Next" font-size="14.00">4</text>
</g>
<!-- label&#45;&gt;w4 -->
<g id="edge8" class="edge"><title>label&#45;&gt;w4</title>
<path fill="none" stroke="black" d="M505.032,-130.534C498.515,-121.622 490.932,-111.253 484.58,-102.568"/>
<polygon fill="black" stroke="black" points="487.23,-100.264 478.502,-94.2579 481.58,-104.396 487.23,-100.264"/>
</g>
<!-- w4&#45;&gt;t -->
<g id="edge9" class="edge"><title>w4&#45;&gt;t</title>
<path fill="none" stroke="black" d="M459.728,-74.021C444.114,-62.9684 415.82,-42.9399 398.017,-30.3378"/>
<polygon fill="black" stroke="black" points="399.97,-27.4325 389.786,-24.5115 395.926,-33.1459 399.97,-27.4325"/>
</g>
<!-- mousedown -->
<g id="node11" class="node"><title>mousedown</title>
<polygon fill="none" stroke="black" points="550.108,-677.641 527.706,-698.014 437,-707.081 346.294,-698.014 323.892,-677.641 386.662,-661.304 487.338,-661.304 550.108,-677.641"/>
<text text-anchor="middle" x="437" y="-680.474" font-family="Avenir Next" font-size="14.00">mousedown (frame)</text>
</g>
<!-- w5 -->
<g id="node12" class="node"><title>w5</title>
<polygon fill="none" stroke="black" points="442,-622 420,-622 420,-600 442,-600 442,-622"/>
<text text-anchor="middle" x="431" y="-608.474" font-family="Avenir Next" font-size="14.00">5</text>
</g>
<!-- mousedown&#45;&gt;w5 -->
<g id="edge10" class="edge"><title>mousedown&#45;&gt;w5</title>
<path fill="none" stroke="black" d="M435.2,-660.998C434.415,-651.836 433.498,-641.142 432.722,-632.087"/>
<polygon fill="black" stroke="black" points="436.204,-631.731 431.863,-622.067 429.23,-632.329 436.204,-631.731"/>
</g>
<!-- down -->
<g id="node13" class="node"><title>down</title>
<ellipse fill="none" stroke="black" cx="420" cy="-539" rx="75.3376" ry="21.7689"/>
<text text-anchor="middle" x="420" y="-536.474" font-family="Avenir Next" font-size="14.00">down (Button)</text>
</g>
<!-- w5&#45;&gt;down -->
<g id="edge11" class="edge"><title>w5&#45;&gt;down</title>
<path fill="none" stroke="black" d="M429.424,-599.971C428.23,-592.372 426.521,-581.497 424.885,-571.089"/>
<polygon fill="black" stroke="black" points="428.306,-570.311 423.296,-560.976 421.391,-571.398 428.306,-570.311"/>
</g>
<!-- down&#45;&gt;w7 -->
<g id="edge17" class="edge"><title>down&#45;&gt;w7</title>
<path fill="none" stroke="black" d="M420,-517.057C420,-487.115 420,-430.344 420,-382 420,-382 420,-382 420,-231 420,-184.019 401.581,-131.203 390.39,-103.449"/>
<polygon fill="black" stroke="black" points="393.576,-101.996 386.508,-94.1033 387.112,-104.681 393.576,-101.996"/>
</g>
<!-- mouseup -->
<g id="node14" class="node"><title>mouseup</title>
<polygon fill="none" stroke="black" points="306.21,-677.641 286.758,-698.014 208,-707.081 129.242,-698.014 109.79,-677.641 164.293,-661.304 251.707,-661.304 306.21,-677.641"/>
<text text-anchor="middle" x="208" y="-680.474" font-family="Avenir Next" font-size="14.00">mouseup (frame)</text>
</g>
<!-- w6 -->
<g id="node15" class="node"><title>w6</title>
<polygon fill="none" stroke="black" points="224,-622 202,-622 202,-600 224,-600 224,-622"/>
<text text-anchor="middle" x="213" y="-608.474" font-family="Avenir Next" font-size="14.00">6</text>
</g>
<!-- mouseup&#45;&gt;w6 -->
<g id="edge12" class="edge"><title>mouseup&#45;&gt;w6</title>
<path fill="none" stroke="black" d="M209.5,-660.998C210.155,-651.836 210.918,-641.142 211.565,-632.087"/>
<polygon fill="black" stroke="black" points="215.06,-632.291 212.281,-622.067 208.077,-631.792 215.06,-632.291"/>
</g>
<!-- w6&#45;&gt;down -->
<g id="edge13" class="edge"><title>w6&#45;&gt;down</title>
<path fill="none" stroke="black" d="M224.129,-606.236C249.82,-597.549 314.738,-575.596 362.835,-559.331"/>
<polygon fill="black" stroke="black" points="364.166,-562.576 372.518,-556.057 361.924,-555.945 364.166,-562.576"/>
</g>
<!-- pushed -->
<g id="node16" class="node"><title>pushed</title>
<polygon fill="none" stroke="black" points="306.194,-533.641 287.736,-554.014 213,-563.081 138.264,-554.014 119.806,-533.641 171.525,-517.304 254.475,-517.304 306.194,-533.641"/>
<text text-anchor="middle" x="213" y="-536.474" font-family="Avenir Next" font-size="14.00">pushed (Button)</text>
</g>
<!-- w6&#45;&gt;pushed -->
<g id="edge14" class="edge"><title>w6&#45;&gt;pushed</title>
<path fill="none" stroke="black" d="M213,-599.971C213,-592.975 213,-583.201 213,-573.572"/>
<polygon fill="black" stroke="black" points="216.5,-573.318 213,-563.318 209.5,-573.318 216.5,-573.318"/>
</g>
<!-- pushed&#45;&gt;ppushed -->
<g id="edge15" class="edge"><title>pushed&#45;&gt;ppushed</title>
<path fill="none" stroke="#f94179" d="M228.82,-517.236C236.607,-507.015 246.13,-494.518 254.646,-483.34"/>
<polygon fill="#f94179" stroke="#f94179" points="257.641,-485.184 260.917,-475.109 252.073,-480.942 257.641,-485.184"/>
</g>
<!-- pushed&#45;&gt;mpushed -->
<g id="edge16" class="edge"><title>pushed&#45;&gt;mpushed</title>
<path fill="none" stroke="#f94179" d="M182.348,-517.236C165.461,-505.796 144.363,-491.504 126.498,-479.402"/>
<polygon fill="#f94179" stroke="#f94179" points="128.263,-476.37 118.021,-473.659 124.337,-482.166 128.263,-476.37"/>
</g>
<!-- enabled -->
<g id="node17" class="node"><title>enabled</title>
<ellipse fill="none" stroke="black" cx="297" cy="-232" rx="87.3051" ry="21.7689"/>
<text text-anchor="middle" x="297" y="-229.474" font-family="Avenir Next" font-size="14.00">enabled (Button)</text>
</g>
<!-- enabled&#45;&gt;menabled -->
<g id="edge20" class="edge"><title>enabled&#45;&gt;menabled</title>
<path fill="none" stroke="#f94179" d="M289.764,-210.097C286.95,-201.966 283.668,-192.487 280.597,-183.615"/>
<polygon fill="#f94179" stroke="#f94179" points="283.834,-182.265 277.255,-173.96 277.219,-184.555 283.834,-182.265"/>
</g>
<!-- enabled&#45;&gt;w7 -->
<g id="edge18" class="edge"><title>enabled&#45;&gt;w7</title>
<path fill="none" stroke="black" d="M327.633,-211.304C340.425,-201.565 354.303,-188.733 363,-174 375.758,-152.388 380.012,-123.393 381.395,-104.225"/>
<polygon fill="black" stroke="black" points="384.892,-104.374 381.921,-94.2043 377.902,-104.007 384.892,-104.374"/>
</g>
<!-- w7&#45;&gt;t -->
<g id="edge21" class="edge"><title>w7&#45;&gt;t</title>
<path fill="none" stroke="black" d="M382,-71.878C382,-64.978 382,-55.4869 382,-46.4483"/>
<polygon fill="black" stroke="black" points="385.5,-46.228 382,-36.228 378.5,-46.2281 385.5,-46.228"/>
</g>
</g>
</svg>
