<?xml version="1.0" encoding="UTF-8" standalone="no"?>
<!DOCTYPE svg PUBLIC "-//W3C//DTD SVG 1.1//EN"
 "http://www.w3.org/Graphics/SVG/1.1/DTD/svg11.dtd">
<!-- Generated by graphviz version 2.34.0 (20130907.0228)
 -->
<!-- Title: bender Pages: 1 -->
<svg width="989pt" height="632pt"
 viewBox="0.00 0.00 989.22 632.00" xmlns="http://www.w3.org/2000/svg" xmlns:xlink="http://www.w3.org/1999/xlink">
<g id="graph0" class="graph" transform="scale(1 1) rotate(0) translate(4 628)">
<title>bender</title>
<polygon fill="white" stroke="white" points="-4,4 -4,-628 985.216,-628 985.216,4 -4,4"/>
<!-- t -->
<g id="node1" class="node"><title>t</title>
<polygon fill="none" stroke="black" points="583,-36 565,-9 601,-9 583,-36"/>
</g>
<!-- w4 -->
<g id="node2" class="node"><title>w4</title>
<polygon fill="none" stroke="black" points="322,-140 300,-140 300,-118 322,-118 322,-140"/>
<text text-anchor="middle" x="311" y="-126.474" font-family="Avenir Next" font-size="14.00">4</text>
</g>
<!-- w4&#45;&gt;t -->
<g id="edge17" class="edge"><title>w4&#45;&gt;t</title>
<path fill="none" stroke="black" d="M322.179,-119.572C342.985,-104.281 389.536,-71.8964 433.484,-54 477.514,-36.0701 532.754,-26.1364 562.221,-21.7591"/>
<polygon fill="black" stroke="black" points="563.095,-25.1703 572.506,-20.3039 562.114,-18.2393 563.095,-25.1703"/>
<text text-anchor="middle" x="506.758" y="-85.9488" font-family="Avenir Next" font-size="14.00"> 19 text&#45;label/Plus, &quot;+&quot;;</text>
<text text-anchor="middle" x="506.758" y="-63" font-family="Avenir Next" font-size="14.00"> text&#45;label/Minus, &quot;—&quot;</text>
</g>
<!-- label -->
<g id="node3" class="node"><title>label</title>
<ellipse fill="none" stroke="black" cx="207" cy="-245" rx="71.4669" ry="21.7689"/>
<text text-anchor="middle" x="207" y="-242.474" font-family="Avenir Next" font-size="14.00">label (Button)</text>
</g>
<!-- label&#45;&gt;w4 -->
<g id="edge16" class="edge"><title>label&#45;&gt;w4</title>
<path fill="none" stroke="black" d="M225.593,-223.619C245.4,-201.908 276.419,-167.906 295.121,-147.406"/>
<polygon fill="black" stroke="black" points="297.708,-149.763 301.862,-140.017 292.537,-145.046 297.708,-149.763"/>
<text text-anchor="middle" x="324.411" y="-189.949" font-family="Avenir Next" font-size="14.00"> 18 Plus, &quot;+&quot;;</text>
<text text-anchor="middle" x="324.411" y="-167" font-family="Avenir Next" font-size="14.00"> Minus, &quot;—&quot;</text>
</g>
<!-- w5 -->
<g id="node4" class="node"><title>w5</title>
<polygon fill="none" stroke="black" points="341,-383 319,-383 319,-361 341,-361 341,-383"/>
<text text-anchor="middle" x="330" y="-369.474" font-family="Avenir Next" font-size="14.00">5</text>
</g>
<!-- down -->
<g id="node6" class="node"><title>down</title>
<ellipse fill="none" stroke="black" cx="420" cy="-245" rx="75.3376" ry="21.7689"/>
<text text-anchor="middle" x="420" y="-242.474" font-family="Avenir Next" font-size="14.00">down (Button)</text>
</g>
<!-- w5&#45;&gt;down -->
<g id="edge10" class="edge"><title>w5&#45;&gt;down</title>
<path fill="none" stroke="black" stroke-dasharray="5,2" d="M331.962,-360.886C335.658,-343.926 344.978,-309.321 363.26,-286 367.556,-280.519 372.804,-275.475 378.354,-270.949"/>
<polygon fill="black" stroke="black" points="380.758,-273.519 386.628,-264.699 376.539,-267.934 380.758,-273.519"/>
<text text-anchor="middle" x="373.87" y="-306.474" font-family="Avenir Next" font-size="14.00"> 13</text>
</g>
<!-- w6 -->
<g id="node5" class="node"><title>w6</title>
<polygon fill="none" stroke="black" points="381,-383 359,-383 359,-361 381,-361 381,-383"/>
<text text-anchor="middle" x="370" y="-369.474" font-family="Avenir Next" font-size="14.00">6</text>
</g>
<!-- w6&#45;&gt;down -->
<g id="edge11" class="edge"><title>w6&#45;&gt;down</title>
<path fill="none" stroke="black" stroke-dasharray="5,2" d="M374.092,-360.771C381.362,-342.595 396.796,-304.009 407.759,-276.603"/>
<polygon fill="black" stroke="black" points="411.108,-277.654 411.572,-267.07 404.608,-275.055 411.108,-277.654"/>
<text text-anchor="middle" x="413.87" y="-306.474" font-family="Avenir Next" font-size="14.00"> 14</text>
</g>
<!-- w7 -->
<g id="node7" class="node"><title>w7</title>
<polygon fill="none" stroke="black" points="594,-140 572,-140 572,-118 594,-118 594,-140"/>
<text text-anchor="middle" x="583" y="-126.474" font-family="Avenir Next" font-size="14.00">7</text>
</g>
<!-- down&#45;&gt;w7 -->
<g id="edge14" class="edge"><title>down&#45;&gt;w7</title>
<path fill="none" stroke="black" d="M429.177,-223.115C438.887,-203.428 456.055,-174.547 479.484,-158 504.331,-140.451 539.63,-133.897 561.917,-131.452"/>
<polygon fill="black" stroke="black" points="562.346,-134.927 571.986,-130.531 561.709,-127.956 562.346,-134.927"/>
<text text-anchor="middle" x="524.758" y="-189.949" font-family="Avenir Next" font-size="14.00"> 16 Plus, false;</text>
<text text-anchor="middle" x="524.758" y="-167" font-family="Avenir Next" font-size="14.00"> Minus, false</text>
</g>
<!-- w7&#45;&gt;t -->
<g id="edge18" class="edge"><title>w7&#45;&gt;t</title>
<path fill="none" stroke="black" d="M583,-117.941C583,-101.835 583,-69.7065 583,-46.4205"/>
<polygon fill="black" stroke="black" points="586.5,-46.1211 583,-36.1212 579.5,-46.1212 586.5,-46.1211"/>
<text text-anchor="middle" x="661.729" y="-85.9488" font-family="Avenir Next" font-size="14.00"> 20 frame/Plus, &quot;&quot;;</text>
<text text-anchor="middle" x="661.729" y="-63" font-family="Avenir Next" font-size="14.00"> frame/Minus, &quot;disabled&quot;</text>
</g>
<!-- enabled -->
<g id="node8" class="node"><title>enabled</title>
<ellipse fill="none" stroke="black" cx="654" cy="-372" rx="87.3051" ry="21.7689"/>
<text text-anchor="middle" x="654" y="-369.474" font-family="Avenir Next" font-size="14.00">enabled (Button)</text>
</g>
<!-- enabled&#45;&gt;w7 -->
<g id="edge15" class="edge"><title>enabled&#45;&gt;w7</title>
<path fill="none" stroke="black" d="M637.535,-350.339C622.757,-330.499 601.943,-299.042 592.222,-268 579.664,-227.9 579.966,-178.137 581.414,-150.66"/>
<polygon fill="black" stroke="black" points="584.928,-150.545 582.07,-140.343 577.942,-150.1 584.928,-150.545"/>
<text text-anchor="middle" x="635.889" y="-253.949" font-family="Avenir Next" font-size="14.00"> 17 Plus, true;</text>
<text text-anchor="middle" x="635.889" y="-231" font-family="Avenir Next" font-size="14.00"> Minus, true</text>
</g>
<!-- menabled -->
<g id="node13" class="node"><title>menabled</title>
<ellipse fill="none" stroke="black" cx="771" cy="-245" rx="84.014" ry="21.7689"/>
<text text-anchor="middle" x="771" y="-242.474" font-family="Avenir Next" font-size="14.00">enabled (Minus)</text>
</g>
<!-- enabled&#45;&gt;menabled -->
<g id="edge9" class="edge"><title>enabled&#45;&gt;menabled</title>
<path fill="none" stroke="#f94179" d="M651.389,-349.814C650.268,-331.054 651.713,-303.938 666.032,-286 673.952,-276.078 684.632,-268.616 696.155,-263.004"/>
<polygon fill="#f94179" stroke="#f94179" points="697.789,-266.109 705.541,-258.888 694.977,-259.698 697.789,-266.109"/>
<text text-anchor="middle" x="713.984" y="-306.474" font-family="Avenir Next" font-size="14.00"> 12 Minus, true</text>
</g>
<!-- w1 -->
<g id="node9" class="node"><title>w1</title>
<polygon fill="none" stroke="black" points="817,-613 795,-613 795,-591 817,-591 817,-613"/>
<text text-anchor="middle" x="806" y="-599.474" font-family="Avenir Next" font-size="14.00">1</text>
</g>
<!-- n -->
<g id="node10" class="node"><title>n</title>
<ellipse fill="none" stroke="black" cx="846" cy="-498" rx="49.2362" ry="21.7689"/>
<text text-anchor="middle" x="846" y="-495.474" font-family="Avenir Next" font-size="14.00">n (Panel)</text>
</g>
<!-- w1&#45;&gt;n -->
<g id="edge4" class="edge"><title>w1&#45;&gt;n</title>
<path fill="none" stroke="black" stroke-dasharray="5,2" d="M809.933,-590.728C814.721,-578.246 823.076,-556.551 830.38,-538 831.519,-535.107 832.712,-532.097 833.909,-529.087"/>
<polygon fill="black" stroke="black" points="837.228,-530.212 837.686,-519.627 830.727,-527.616 837.228,-530.212"/>
<text text-anchor="middle" x="835.81" y="-547.474" font-family="Avenir Next" font-size="14.00"> 7</text>
</g>
<!-- w3 -->
<g id="node12" class="node"><title>w3</title>
<polygon fill="none" stroke="black" points="857,-383 835,-383 835,-361 857,-361 857,-383"/>
<text text-anchor="middle" x="846" y="-369.474" font-family="Avenir Next" font-size="14.00">3</text>
</g>
<!-- n&#45;&gt;w3 -->
<g id="edge7" class="edge"><title>n&#45;&gt;w3</title>
<path fill="none" stroke="black" d="M846,-475.965C846,-452.912 846,-416.182 846,-393.389"/>
<polygon fill="black" stroke="black" points="849.5,-393.162 846,-383.162 842.5,-393.162 849.5,-393.162"/>
<text text-anchor="middle" x="878.193" y="-432.474" font-family="Avenir Next" font-size="14.00"> 9 Panel, 0</text>
</g>
<!-- w2 -->
<g id="node11" class="node"><title>w2</title>
<polygon fill="none" stroke="black" points="857,-613 835,-613 835,-591 857,-591 857,-613"/>
<text text-anchor="middle" x="846" y="-599.474" font-family="Avenir Next" font-size="14.00">2</text>
</g>
<!-- w2&#45;&gt;n -->
<g id="edge5" class="edge"><title>w2&#45;&gt;n</title>
<path fill="none" stroke="black" stroke-dasharray="5,2" d="M846,-590.847C846,-576.858 846,-551.037 846,-530.327"/>
<polygon fill="black" stroke="black" points="849.5,-530.053 846,-520.053 842.5,-530.053 849.5,-530.053"/>
<text text-anchor="middle" x="851.81" y="-547.474" font-family="Avenir Next" font-size="14.00"> 8</text>
</g>
<!-- w3&#45;&gt;t -->
<g id="edge19" class="edge"><title>w3&#45;&gt;t</title>
<path fill="none" stroke="black" d="M854.45,-360.831C860.075,-353.369 866.969,-342.71 870,-332 883.334,-284.889 881.104,-267.877 864,-222 831.946,-136.023 820.636,-104.462 744,-54 700.618,-25.4343 637.772,-19.7834 604.904,-18.9118"/>
<polygon fill="black" stroke="black" points="604.655,-15.4083 594.609,-18.7731 604.561,-22.4076 604.655,-15.4083"/>
<text text-anchor="middle" x="918.608" y="-178.474" font-family="Avenir Next" font-size="14.00"> 21 text&#45;n/Panel, &quot;0&quot;</text>
</g>
<!-- w3&#45;&gt;menabled -->
<g id="edge8" class="edge"><title>w3&#45;&gt;menabled</title>
<path fill="none" stroke="black" d="M834.814,-368.806C817.85,-364.813 786.132,-354.592 772.294,-332 762.412,-315.866 761.995,-294.636 764.094,-277.307"/>
<polygon fill="black" stroke="black" points="767.603,-277.517 765.665,-267.101 760.684,-276.453 767.603,-277.517"/>
<text text-anchor="middle" x="821.853" y="-306.474" font-family="Avenir Next" font-size="14.00"> 11 Minus, false</text>
</g>
<!-- menabled&#45;&gt;w7 -->
<g id="edge13" class="edge"><title>menabled&#45;&gt;w7</title>
<path fill="none" stroke="#f8ca00" d="M739.108,-224.661C700.016,-200.956 634.982,-161.521 602.587,-141.877"/>
<polygon fill="#f8ca00" stroke="#f8ca00" points="604.37,-138.865 594.004,-136.673 600.74,-144.851 604.37,-138.865"/>
<text text-anchor="middle" x="753.853" y="-178.474" font-family="Avenir Next" font-size="14.00"> 15 Minus, false</text>
</g>
<!-- init_plabel -->
<g id="node14" class="node"><title>init_plabel</title>
<ellipse fill="none" stroke="#ff6a4d" cx="60" cy="-372" rx="60.0345" ry="21.7689"/>
<text text-anchor="middle" x="60" y="-369.474" font-family="Avenir Next" font-size="14.00" fill="#ff6a4d">label (Plus)</text>
</g>
<!-- init_plabel&#45;&gt;label -->
<g id="edge3" class="edge"><title>init_plabel&#45;&gt;label</title>
<path fill="none" stroke="#ff6a4d" d="M71.3446,-350.189C82.4249,-331.423 100.796,-304.076 122.738,-286 131.917,-278.439 142.763,-271.924 153.566,-266.477"/>
<polygon fill="#ff6a4d" stroke="#ff6a4d" points="155.085,-269.631 162.592,-262.154 152.061,-263.317 155.085,-269.631"/>
<text text-anchor="middle" x="163.131" y="-306.474" font-family="Avenir Next" font-size="14.00" fill="#ff6a4d"> 0.5 Plus, &quot;+&quot;</text>
</g>
<!-- init_mlabel -->
<g id="node15" class="node"><title>init_mlabel</title>
<ellipse fill="none" stroke="#ff6a4d" cx="207" cy="-372" rx="69.1754" ry="21.7689"/>
<text text-anchor="middle" x="207" y="-369.474" font-family="Avenir Next" font-size="14.00" fill="#ff6a4d">label (Minus)</text>
</g>
<!-- init_mlabel&#45;&gt;label -->
<g id="edge2" class="edge"><title>init_mlabel&#45;&gt;label</title>
<path fill="none" stroke="#ff6a4d" d="M207,-350.078C207,-330.158 207,-299.926 207,-277.169"/>
<polygon fill="#ff6a4d" stroke="#ff6a4d" points="210.5,-276.99 207,-266.99 203.5,-276.99 210.5,-276.99"/>
<text text-anchor="middle" x="256.924" y="-306.474" font-family="Avenir Next" font-size="14.00" fill="#ff6a4d"> 0.25 Minus, &quot;—&quot;</text>
</g>
<!-- init_enabled -->
<g id="node16" class="node"><title>init_enabled</title>
<ellipse fill="none" stroke="#ff6a4d" cx="654" cy="-498" rx="87.3051" ry="21.7689"/>
<text text-anchor="middle" x="654" y="-495.474" font-family="Avenir Next" font-size="14.00" fill="#ff6a4d">enabled (Button)</text>
</g>
<!-- init_enabled&#45;&gt;enabled -->
<g id="edge1" class="edge"><title>init_enabled&#45;&gt;enabled</title>
<path fill="none" stroke="#ff6a4d" d="M654,-475.965C654,-456.28 654,-426.624 654,-404.187"/>
<polygon fill="#ff6a4d" stroke="#ff6a4d" points="657.5,-404.138 654,-394.138 650.5,-404.138 657.5,-404.138"/>
<text text-anchor="middle" x="706.829" y="-443.949" font-family="Avenir Next" font-size="14.00" fill="#ff6a4d"> 0.125 Plus, true;</text>
<text text-anchor="middle" x="706.829" y="-421" font-family="Avenir Next" font-size="14.00" fill="#ff6a4d"> Minus, true</text>
</g>
<!-- init_n -->
<g id="node17" class="node"><title>init_n</title>
<ellipse fill="none" stroke="#ff6a4d" cx="925" cy="-602" rx="49.2362" ry="21.7689"/>
<text text-anchor="middle" x="925" y="-599.474" font-family="Avenir Next" font-size="14.00" fill="#ff6a4d">n (Panel)</text>
</g>
<!-- init_n&#45;&gt;n -->
<g id="edge6" class="edge"><title>init_n&#45;&gt;n</title>
<path fill="none" stroke="#ff6a4d" d="M909.392,-580.848C897.49,-565.481 880.952,-544.128 867.752,-527.085"/>
<polygon fill="#ff6a4d" stroke="#ff6a4d" points="870.466,-524.873 861.575,-519.11 864.932,-529.159 870.466,-524.873"/>
<text text-anchor="middle" x="930.073" y="-547.474" font-family="Avenir Next" font-size="14.00" fill="#ff6a4d"> 8.5 Panel, 0</text>
</g>
<!-- init_down -->
<g id="node18" class="node"><title>init_down</title>
<ellipse fill="none" stroke="#ff6a4d" cx="474" cy="-372" rx="75.3376" ry="21.7689"/>
<text text-anchor="middle" x="474" y="-369.474" font-family="Avenir Next" font-size="14.00" fill="#ff6a4d">down (Button)</text>
</g>
<!-- init_down&#45;&gt;down -->
<g id="edge12" class="edge"><title>init_down&#45;&gt;down</title>
<path fill="none" stroke="#ff6a4d" d="M464.962,-350.078C456.24,-329.888 442.941,-299.104 433.067,-276.247"/>
<polygon fill="#ff6a4d" stroke="#ff6a4d" points="436.247,-274.782 429.068,-266.99 429.821,-277.559 436.247,-274.782"/>
<text text-anchor="middle" x="507.638" y="-317.949" font-family="Avenir Next" font-size="14.00" fill="#ff6a4d"> 14.5 Plus, false;</text>
<text text-anchor="middle" x="507.638" y="-295" font-family="Avenir Next" font-size="14.00" fill="#ff6a4d"> Minus, false</text>
</g>
</g>
</svg>
