<?xml version="1.0" encoding="UTF-8" standalone="no"?>
<!DOCTYPE svg PUBLIC "-//W3C//DTD SVG 1.1//EN"
 "http://www.w3.org/Graphics/SVG/1.1/DTD/svg11.dtd">
<!-- Generated by graphviz version 2.34.0 (20130907.0228)
 -->
<!-- Title: bender Pages: 1 -->
<svg width="759pt" height="632pt"
 viewBox="0.00 0.00 759.22 632.00" xmlns="http://www.w3.org/2000/svg" xmlns:xlink="http://www.w3.org/1999/xlink">
<g id="graph0" class="graph" transform="scale(1 1) rotate(0) translate(4 628)">
<title>bender</title>
<polygon fill="white" stroke="white" points="-4,4 -4,-628 755.216,-628 755.216,4 -4,4"/>
<!-- t -->
<g id="node1" class="node"><title>t</title>
<polygon fill="none" stroke="black" points="352,-36 334,-9 370,-9 352,-36"/>
</g>
<!-- w4 -->
<g id="node2" class="node"><title>w4</title>
<polygon fill="none" stroke="black" points="137,-140 115,-140 115,-118 137,-118 137,-140"/>
<text text-anchor="middle" x="126" y="-126.474" font-family="Avenir Next" font-size="14.00">4</text>
</g>
<!-- w4&#45;&gt;t -->
<g id="edge12" class="edge"><title>w4&#45;&gt;t</title>
<path fill="none" stroke="black" d="M133.462,-117.859C145.898,-101.725 172.478,-70.3698 202.484,-54 244.196,-31.2442 300.299,-23.2092 330.537,-20.4274"/>
<polygon fill="black" stroke="black" points="331.09,-23.8942 340.775,-19.5988 330.525,-16.917 331.09,-23.8942"/>
<text text-anchor="middle" x="275.758" y="-85.9488" font-family="Avenir Next" font-size="14.00"> 19 text&#45;label/Plus, &quot;+&quot;;</text>
<text text-anchor="middle" x="275.758" y="-63" font-family="Avenir Next" font-size="14.00"> text&#45;label/Minus, &quot;—&quot;</text>
</g>
<!-- label -->
<g id="node3" class="node"><title>label</title>
<ellipse fill="none" stroke="black" cx="73" cy="-245" rx="71.4669" ry="21.7689"/>
<text text-anchor="middle" x="73" y="-242.474" font-family="Avenir Next" font-size="14.00">label (Button)</text>
</g>
<!-- label&#45;&gt;w4 -->
<g id="edge11" class="edge"><title>label&#45;&gt;w4</title>
<path fill="none" stroke="black" d="M82.721,-223.091C92.4868,-202.085 107.417,-169.971 116.941,-149.485"/>
<polygon fill="black" stroke="black" points="120.212,-150.751 121.254,-140.208 113.865,-147.8 120.212,-150.751"/>
<text text-anchor="middle" x="152.411" y="-189.949" font-family="Avenir Next" font-size="14.00"> 18 Plus, &quot;+&quot;;</text>
<text text-anchor="middle" x="152.411" y="-167" font-family="Avenir Next" font-size="14.00"> Minus, &quot;—&quot;</text>
</g>
<!-- down -->
<g id="node4" class="node"><title>down</title>
<ellipse fill="none" stroke="black" cx="240" cy="-245" rx="75.3376" ry="21.7689"/>
<text text-anchor="middle" x="240" y="-242.474" font-family="Avenir Next" font-size="14.00">down (Button)</text>
</g>
<!-- w7 -->
<g id="node5" class="node"><title>w7</title>
<polygon fill="none" stroke="black" points="363,-140 341,-140 341,-118 363,-118 363,-140"/>
<text text-anchor="middle" x="352" y="-126.474" font-family="Avenir Next" font-size="14.00">7</text>
</g>
<!-- down&#45;&gt;w7 -->
<g id="edge9" class="edge"><title>down&#45;&gt;w7</title>
<path fill="none" stroke="black" d="M235.95,-223.062C233.519,-203.891 233.362,-175.863 248.484,-158 268.63,-134.202 306.72,-129.558 330.654,-129.192"/>
<polygon fill="black" stroke="black" points="330.802,-132.693 340.832,-129.281 330.863,-125.694 330.802,-132.693"/>
<text text-anchor="middle" x="293.758" y="-189.949" font-family="Avenir Next" font-size="14.00"> 16 Plus, false;</text>
<text text-anchor="middle" x="293.758" y="-167" font-family="Avenir Next" font-size="14.00"> Minus, false</text>
</g>
<!-- w7&#45;&gt;t -->
<g id="edge13" class="edge"><title>w7&#45;&gt;t</title>
<path fill="none" stroke="black" d="M352,-117.941C352,-101.835 352,-69.7065 352,-46.4205"/>
<polygon fill="black" stroke="black" points="355.5,-46.1211 352,-36.1212 348.5,-46.1212 355.5,-46.1211"/>
<text text-anchor="middle" x="430.729" y="-85.9488" font-family="Avenir Next" font-size="14.00"> 20 frame/Plus, &quot;&quot;;</text>
<text text-anchor="middle" x="430.729" y="-63" font-family="Avenir Next" font-size="14.00"> frame/Minus, &quot;disabled&quot;</text>
</g>
<!-- enabled -->
<g id="node6" class="node"><title>enabled</title>
<ellipse fill="none" stroke="black" cx="419" cy="-372" rx="87.3051" ry="21.7689"/>
<text text-anchor="middle" x="419" y="-369.474" font-family="Avenir Next" font-size="14.00">enabled (Button)</text>
</g>
<!-- enabled&#45;&gt;w7 -->
<g id="edge10" class="edge"><title>enabled&#45;&gt;w7</title>
<path fill="none" stroke="black" d="M403.611,-350.163C389.798,-330.2 370.337,-298.659 361.222,-268 349.248,-227.722 349.335,-178.024 350.589,-150.607"/>
<polygon fill="black" stroke="black" points="354.101,-150.494 351.166,-140.313 347.112,-150.102 354.101,-150.494"/>
<text text-anchor="middle" x="404.889" y="-253.949" font-family="Avenir Next" font-size="14.00"> 17 Plus, true;</text>
<text text-anchor="middle" x="404.889" y="-231" font-family="Avenir Next" font-size="14.00"> Minus, true</text>
</g>
<!-- menabled -->
<g id="node9" class="node"><title>menabled</title>
<ellipse fill="none" stroke="black" cx="540" cy="-245" rx="84.014" ry="21.7689"/>
<text text-anchor="middle" x="540" y="-242.474" font-family="Avenir Next" font-size="14.00">enabled (Minus)</text>
</g>
<!-- enabled&#45;&gt;menabled -->
<g id="edge6" class="edge"><title>enabled&#45;&gt;menabled</title>
<path fill="none" stroke="#f94179" d="M417.248,-350.096C416.82,-331.268 419.203,-303.878 434.032,-286 442.335,-275.989 453.422,-268.482 465.299,-262.851"/>
<polygon fill="#f94179" stroke="#f94179" points="466.693,-266.062 474.502,-258.902 463.932,-259.629 466.693,-266.062"/>
<text text-anchor="middle" x="481.984" y="-306.474" font-family="Avenir Next" font-size="14.00"> 12 Minus, true</text>
</g>
<!-- n -->
<g id="node7" class="node"><title>n</title>
<ellipse fill="none" stroke="black" cx="614" cy="-498" rx="49.2362" ry="21.7689"/>
<text text-anchor="middle" x="614" y="-495.474" font-family="Avenir Next" font-size="14.00">n (Panel)</text>
</g>
<!-- w3 -->
<g id="node8" class="node"><title>w3</title>
<polygon fill="none" stroke="black" points="625,-383 603,-383 603,-361 625,-361 625,-383"/>
<text text-anchor="middle" x="614" y="-369.474" font-family="Avenir Next" font-size="14.00">3</text>
</g>
<!-- n&#45;&gt;w3 -->
<g id="edge4" class="edge"><title>n&#45;&gt;w3</title>
<path fill="none" stroke="black" d="M614,-475.965C614,-452.912 614,-416.182 614,-393.389"/>
<polygon fill="black" stroke="black" points="617.5,-393.162 614,-383.162 610.5,-393.162 617.5,-393.162"/>
<text text-anchor="middle" x="646.193" y="-432.474" font-family="Avenir Next" font-size="14.00"> 9 Panel, 0</text>
</g>
<!-- w3&#45;&gt;t -->
<g id="edge14" class="edge"><title>w3&#45;&gt;t</title>
<path fill="none" stroke="black" d="M622.45,-360.831C628.075,-353.369 634.969,-342.71 638,-332 651.328,-284.911 649.74,-267.987 633,-222 601.613,-135.777 589.636,-104.462 513,-54 469.618,-25.4343 406.772,-19.7834 373.904,-18.9118"/>
<polygon fill="black" stroke="black" points="373.655,-15.4083 363.609,-18.7731 373.561,-22.4076 373.655,-15.4083"/>
<text text-anchor="middle" x="688.608" y="-178.474" font-family="Avenir Next" font-size="14.00"> 21 text&#45;n/Panel, &quot;0&quot;</text>
</g>
<!-- w3&#45;&gt;menabled -->
<g id="edge5" class="edge"><title>w3&#45;&gt;menabled</title>
<path fill="none" stroke="black" d="M602.782,-368.825C585.775,-364.859 554.001,-354.672 540.294,-332 530.507,-315.811 530.336,-294.58 532.659,-277.264"/>
<polygon fill="black" stroke="black" points="536.167,-277.509 534.365,-267.069 529.263,-276.354 536.167,-277.509"/>
<text text-anchor="middle" x="589.853" y="-306.474" font-family="Avenir Next" font-size="14.00"> 11 Minus, false</text>
</g>
<!-- menabled&#45;&gt;w7 -->
<g id="edge8" class="edge"><title>menabled&#45;&gt;w7</title>
<path fill="none" stroke="#f8ca00" d="M508.108,-224.661C469.016,-200.956 403.982,-161.521 371.587,-141.877"/>
<polygon fill="#f8ca00" stroke="#f8ca00" points="373.37,-138.865 363.004,-136.673 369.74,-144.851 373.37,-138.865"/>
<text text-anchor="middle" x="522.853" y="-178.474" font-family="Avenir Next" font-size="14.00"> 15 Minus, false</text>
</g>
<!-- init_label -->
<g id="node10" class="node"><title>init_label</title>
<ellipse fill="none" stroke="#ff6a4d" cx="71" cy="-372" rx="71.4669" ry="21.7689"/>
<text text-anchor="middle" x="71" y="-369.474" font-family="Avenir Next" font-size="14.00" fill="#ff6a4d">label (Button)</text>
</g>
<!-- init_label&#45;&gt;label -->
<g id="edge2" class="edge"><title>init_label&#45;&gt;label</title>
<path fill="none" stroke="#ff6a4d" d="M71.3348,-350.078C71.6535,-330.158 72.1372,-299.926 72.5013,-277.169"/>
<polygon fill="#ff6a4d" stroke="#ff6a4d" points="76.0036,-277.045 72.6642,-266.99 69.0045,-276.933 76.0036,-277.045"/>
<text text-anchor="middle" x="115.231" y="-317.949" font-family="Avenir Next" font-size="14.00" fill="#ff6a4d"> 0.5 Plus, &quot;+&quot;;</text>
<text text-anchor="middle" x="115.231" y="-295" font-family="Avenir Next" font-size="14.00" fill="#ff6a4d"> Minus, &quot;—&quot;</text>
</g>
<!-- init_enabled -->
<g id="node11" class="node"><title>init_enabled</title>
<ellipse fill="none" stroke="#ff6a4d" cx="419" cy="-498" rx="87.3051" ry="21.7689"/>
<text text-anchor="middle" x="419" y="-495.474" font-family="Avenir Next" font-size="14.00" fill="#ff6a4d">enabled (Button)</text>
</g>
<!-- init_enabled&#45;&gt;enabled -->
<g id="edge1" class="edge"><title>init_enabled&#45;&gt;enabled</title>
<path fill="none" stroke="#ff6a4d" d="M419,-475.965C419,-456.28 419,-426.624 419,-404.187"/>
<polygon fill="#ff6a4d" stroke="#ff6a4d" points="422.5,-404.138 419,-394.138 415.5,-404.138 422.5,-404.138"/>
<text text-anchor="middle" x="467.769" y="-443.949" font-family="Avenir Next" font-size="14.00" fill="#ff6a4d"> 0.25 Plus, true;</text>
<text text-anchor="middle" x="467.769" y="-421" font-family="Avenir Next" font-size="14.00" fill="#ff6a4d"> Minus, true</text>
</g>
<!-- init_n -->
<g id="node12" class="node"><title>init_n</title>
<ellipse fill="none" stroke="#ff6a4d" cx="614" cy="-602" rx="49.2362" ry="21.7689"/>
<text text-anchor="middle" x="614" y="-599.474" font-family="Avenir Next" font-size="14.00" fill="#ff6a4d">n (Panel)</text>
</g>
<!-- init_n&#45;&gt;n -->
<g id="edge3" class="edge"><title>init_n&#45;&gt;n</title>
<path fill="none" stroke="#ff6a4d" d="M614,-579.866C614,-565.505 614,-546.268 614,-530.159"/>
<polygon fill="#ff6a4d" stroke="#ff6a4d" points="617.5,-530.107 614,-520.107 610.5,-530.107 617.5,-530.107"/>
<text text-anchor="middle" x="652.073" y="-547.474" font-family="Avenir Next" font-size="14.00" fill="#ff6a4d"> 8.5 Panel, 0</text>
</g>
<!-- init_down -->
<g id="node13" class="node"><title>init_down</title>
<ellipse fill="none" stroke="#ff6a4d" cx="236" cy="-372" rx="75.3376" ry="21.7689"/>
<text text-anchor="middle" x="236" y="-369.474" font-family="Avenir Next" font-size="14.00" fill="#ff6a4d">down (Button)</text>
</g>
<!-- init_down&#45;&gt;down -->
<g id="edge7" class="edge"><title>init_down&#45;&gt;down</title>
<path fill="none" stroke="#ff6a4d" d="M235.752,-350.03C235.651,-332.819 235.739,-307.819 236.724,-286 236.854,-283.129 237.027,-280.144 237.225,-277.158"/>
<polygon fill="#ff6a4d" stroke="#ff6a4d" points="240.718,-277.39 237.976,-267.156 233.737,-276.866 240.718,-277.39"/>
<text text-anchor="middle" x="287.638" y="-317.949" font-family="Avenir Next" font-size="14.00" fill="#ff6a4d"> 14.5 Plus, false;</text>
<text text-anchor="middle" x="287.638" y="-295" font-family="Avenir Next" font-size="14.00" fill="#ff6a4d"> Minus, false</text>
</g>
</g>
</svg>
