<?xml version="1.0" encoding="UTF-8" standalone="no"?>
<!DOCTYPE svg PUBLIC "-//W3C//DTD SVG 1.1//EN"
 "http://www.w3.org/Graphics/SVG/1.1/DTD/svg11.dtd">
<!-- Generated by graphviz version 2.34.0 (20130907.0228)
 -->
<!-- Title: bender Pages: 1 -->
<svg width="857pt" height="632pt"
 viewBox="0.00 0.00 857.48 632.00" xmlns="http://www.w3.org/2000/svg" xmlns:xlink="http://www.w3.org/1999/xlink">
<g id="graph0" class="graph" transform="scale(1 1) rotate(0) translate(4 628)">
<title>bender</title>
<polygon fill="white" stroke="white" points="-4,4 -4,-628 853.476,-628 853.476,4 -4,4"/>
<!-- t -->
<g id="node1" class="node"><title>t</title>
<polygon fill="none" stroke="black" points="481,-36 463,-9 499,-9 481,-36"/>
</g>
<!-- init_n -->
<g id="node2" class="node"><title>init_n</title>
<ellipse fill="none" stroke="#ff6a4d" cx="720" cy="-602" rx="49.2362" ry="21.7689"/>
<text text-anchor="middle" x="720" y="-599.474" font-family="Avenir Next" font-size="14.00" fill="#ff6a4d">n (Panel)</text>
</g>
<!-- n -->
<g id="node3" class="node"><title>n</title>
<ellipse fill="none" stroke="black" cx="720" cy="-498" rx="49.2362" ry="21.7689"/>
<text text-anchor="middle" x="720" y="-495.474" font-family="Avenir Next" font-size="14.00">n (Panel)</text>
</g>
<!-- init_n&#45;&gt;n -->
<g id="edge1" class="edge"><title>init_n&#45;&gt;n</title>
<path fill="none" stroke="#ff6a4d" d="M720,-579.866C720,-565.505 720,-546.268 720,-530.159"/>
<polygon fill="#ff6a4d" stroke="#ff6a4d" points="723.5,-530.107 720,-520.107 716.5,-530.107 723.5,-530.107"/>
<text text-anchor="middle" x="746.383" y="-547.474" font-family="Avenir Next" font-size="14.00" fill="#ff6a4d"> Panel, 0</text>
</g>
<!-- w3 -->
<g id="node4" class="node"><title>w3</title>
<polygon fill="none" stroke="black" points="731,-383 709,-383 709,-361 731,-361 731,-383"/>
<text text-anchor="middle" x="720" y="-369.474" font-family="Avenir Next" font-size="14.00">3</text>
</g>
<!-- n&#45;&gt;w3 -->
<g id="edge2" class="edge"><title>n&#45;&gt;w3</title>
<path fill="none" stroke="black" d="M720,-475.965C720,-452.912 720,-416.182 720,-393.389"/>
<polygon fill="black" stroke="black" points="723.5,-393.162 720,-383.162 716.5,-393.162 723.5,-393.162"/>
<text text-anchor="middle" x="746.383" y="-432.474" font-family="Avenir Next" font-size="14.00"> Panel, 0</text>
</g>
<!-- w3&#45;&gt;t -->
<g id="edge3" class="edge"><title>w3&#45;&gt;t</title>
<path fill="none" stroke="black" d="M731.164,-362.815C739.778,-355.752 751.034,-344.701 756,-332 773.821,-286.421 766.708,-268.35 751,-222 722.432,-137.704 715.224,-104.598 642,-54 599.267,-24.4717 536.15,-19.2238 503.068,-18.6678"/>
<polygon fill="black" stroke="black" points="502.713,-15.1668 492.702,-18.6347 502.691,-22.1668 502.713,-15.1668"/>
<text text-anchor="middle" x="796.738" y="-178.474" font-family="Avenir Next" font-size="14.00"> text&#45;n/Panel, &quot;0&quot;</text>
</g>
<!-- menabled -->
<g id="node5" class="node"><title>menabled</title>
<ellipse fill="none" stroke="black" cx="658" cy="-245" rx="84.014" ry="21.7689"/>
<text text-anchor="middle" x="658" y="-242.474" font-family="Avenir Next" font-size="14.00">enabled (Minus)</text>
</g>
<!-- w3&#45;&gt;menabled -->
<g id="edge4" class="edge"><title>w3&#45;&gt;menabled</title>
<path fill="none" stroke="black" d="M708.981,-363.671C699.343,-356.673 685.717,-345.251 678.034,-332 668.355,-315.306 663.35,-294.237 660.764,-277.131"/>
<polygon fill="black" stroke="black" points="664.215,-276.528 659.446,-267.067 657.274,-277.437 664.215,-276.528"/>
<text text-anchor="middle" x="717.983" y="-306.474" font-family="Avenir Next" font-size="14.00"> Minus, false</text>
</g>
<!-- w7 -->
<g id="node12" class="node"><title>w7</title>
<polygon fill="none" stroke="black" points="492,-140 470,-140 470,-118 492,-118 492,-140"/>
<text text-anchor="middle" x="481" y="-126.474" font-family="Avenir Next" font-size="14.00">7</text>
</g>
<!-- menabled&#45;&gt;w7 -->
<g id="edge14" class="edge"><title>menabled&#45;&gt;w7</title>
<path fill="none" stroke="#f8ca00" d="M627.573,-224.403C591.205,-200.98 531.413,-162.469 500.645,-142.653"/>
<polygon fill="#f8ca00" stroke="#f8ca00" points="502.388,-139.612 492.086,-137.14 498.598,-145.497 502.388,-139.612"/>
<text text-anchor="middle" x="634.983" y="-178.474" font-family="Avenir Next" font-size="14.00"> Minus, false</text>
</g>
<!-- init_mlabel -->
<g id="node6" class="node"><title>init_mlabel</title>
<ellipse fill="none" stroke="#ff6a4d" cx="207" cy="-372" rx="69.1754" ry="21.7689"/>
<text text-anchor="middle" x="207" y="-369.474" font-family="Avenir Next" font-size="14.00" fill="#ff6a4d">label (Minus)</text>
</g>
<!-- label -->
<g id="node8" class="node"><title>label</title>
<ellipse fill="none" stroke="black" cx="205" cy="-245" rx="71.4669" ry="21.7689"/>
<text text-anchor="middle" x="205" y="-242.474" font-family="Avenir Next" font-size="14.00">label (Button)</text>
</g>
<!-- init_mlabel&#45;&gt;label -->
<g id="edge5" class="edge"><title>init_mlabel&#45;&gt;label</title>
<path fill="none" stroke="#ff6a4d" d="M206.665,-350.078C206.347,-330.158 205.863,-299.926 205.499,-277.169"/>
<polygon fill="#ff6a4d" stroke="#ff6a4d" points="208.995,-276.933 205.336,-266.99 201.996,-277.045 208.995,-276.933"/>
<text text-anchor="middle" x="241.174" y="-306.474" font-family="Avenir Next" font-size="14.00" fill="#ff6a4d"> Minus, &quot;—&quot;</text>
</g>
<!-- init_plabel -->
<g id="node7" class="node"><title>init_plabel</title>
<ellipse fill="none" stroke="#ff6a4d" cx="60" cy="-372" rx="60.0345" ry="21.7689"/>
<text text-anchor="middle" x="60" y="-369.474" font-family="Avenir Next" font-size="14.00" fill="#ff6a4d">label (Plus)</text>
</g>
<!-- init_plabel&#45;&gt;label -->
<g id="edge6" class="edge"><title>init_plabel&#45;&gt;label</title>
<path fill="none" stroke="#ff6a4d" d="M77.9259,-350.983C94.4978,-333.01 120.249,-306.393 145.118,-286 151.508,-280.761 158.59,-275.56 165.58,-270.728"/>
<polygon fill="#ff6a4d" stroke="#ff6a4d" points="167.993,-273.322 174.327,-264.829 164.08,-267.519 167.993,-273.322"/>
<text text-anchor="middle" x="174.441" y="-306.474" font-family="Avenir Next" font-size="14.00" fill="#ff6a4d"> Plus, &quot;+&quot;</text>
</g>
<!-- w4 -->
<g id="node9" class="node"><title>w4</title>
<polygon fill="none" stroke="black" points="278,-140 256,-140 256,-118 278,-118 278,-140"/>
<text text-anchor="middle" x="267" y="-126.474" font-family="Avenir Next" font-size="14.00">4</text>
</g>
<!-- label&#45;&gt;w4 -->
<g id="edge7" class="edge"><title>label&#45;&gt;w4</title>
<path fill="none" stroke="black" d="M216.228,-223.355C227.683,-202.292 245.322,-169.86 256.505,-149.298"/>
<polygon fill="black" stroke="black" points="259.718,-150.716 261.421,-140.259 253.568,-147.371 259.718,-150.716"/>
<text text-anchor="middle" x="285.174" y="-189.949" font-family="Avenir Next" font-size="14.00"> Plus, &quot;+&quot;</text>
<text text-anchor="middle" x="285.174" y="-167" font-family="Avenir Next" font-size="14.00"> Minus, &quot;—&quot;</text>
</g>
<!-- w4&#45;&gt;t -->
<g id="edge8" class="edge"><title>w4&#45;&gt;t</title>
<path fill="none" stroke="black" d="M274.561,-117.93C287.149,-101.896 313.997,-70.6778 343.958,-54 381.484,-33.1112 431.702,-24.4281 459.753,-21.023"/>
<polygon fill="black" stroke="black" points="460.436,-24.4691 469.994,-19.898 459.671,-17.511 460.436,-24.4691"/>
<text text-anchor="middle" x="410.521" y="-85.9488" font-family="Avenir Next" font-size="14.00"> text&#45;label/Plus, &quot;+&quot;</text>
<text text-anchor="middle" x="410.521" y="-63" font-family="Avenir Next" font-size="14.00"> text&#45;label/Minus, &quot;—&quot;</text>
</g>
<!-- init_down -->
<g id="node10" class="node"><title>init_down</title>
<ellipse fill="none" stroke="#ff6a4d" cx="370" cy="-372" rx="75.3376" ry="21.7689"/>
<text text-anchor="middle" x="370" y="-369.474" font-family="Avenir Next" font-size="14.00" fill="#ff6a4d">down (Button)</text>
</g>
<!-- down -->
<g id="node11" class="node"><title>down</title>
<ellipse fill="none" stroke="black" cx="370" cy="-245" rx="75.3376" ry="21.7689"/>
<text text-anchor="middle" x="370" y="-242.474" font-family="Avenir Next" font-size="14.00">down (Button)</text>
</g>
<!-- init_down&#45;&gt;down -->
<g id="edge9" class="edge"><title>init_down&#45;&gt;down</title>
<path fill="none" stroke="#ff6a4d" d="M370,-350.078C370,-330.158 370,-299.926 370,-277.169"/>
<polygon fill="#ff6a4d" stroke="#ff6a4d" points="373.5,-276.99 370,-266.99 366.5,-276.99 373.5,-276.99"/>
<text text-anchor="middle" x="408.983" y="-317.949" font-family="Avenir Next" font-size="14.00" fill="#ff6a4d"> Plus, false</text>
<text text-anchor="middle" x="408.983" y="-295" font-family="Avenir Next" font-size="14.00" fill="#ff6a4d"> Minus, false</text>
</g>
<!-- down&#45;&gt;w7 -->
<g id="edge10" class="edge"><title>down&#45;&gt;w7</title>
<path fill="none" stroke="black" d="M369.028,-222.9C369.31,-203.615 372.834,-175.511 389.034,-158 407.192,-138.373 438.64,-132.345 459.633,-130.583"/>
<polygon fill="black" stroke="black" points="460.021,-134.066 469.801,-129.992 459.615,-127.078 460.021,-134.066"/>
<text text-anchor="middle" x="428.983" y="-189.949" font-family="Avenir Next" font-size="14.00"> Plus, false</text>
<text text-anchor="middle" x="428.983" y="-167" font-family="Avenir Next" font-size="14.00"> Minus, false</text>
</g>
<!-- w7&#45;&gt;t -->
<g id="edge15" class="edge"><title>w7&#45;&gt;t</title>
<path fill="none" stroke="black" d="M481,-117.941C481,-101.835 481,-69.7065 481,-46.4205"/>
<polygon fill="black" stroke="black" points="484.5,-46.1211 481,-36.1212 477.5,-46.1212 484.5,-46.1211"/>
<text text-anchor="middle" x="559.729" y="-85.9488" font-family="Avenir Next" font-size="14.00"> frame/Plus, &quot;&quot;</text>
<text text-anchor="middle" x="559.729" y="-63" font-family="Avenir Next" font-size="14.00"> frame/Minus, &quot;disabled&quot;</text>
</g>
<!-- enabled -->
<g id="node13" class="node"><title>enabled</title>
<ellipse fill="none" stroke="black" cx="554" cy="-372" rx="87.3051" ry="21.7689"/>
<text text-anchor="middle" x="554" y="-369.474" font-family="Avenir Next" font-size="14.00">enabled (Button)</text>
</g>
<!-- enabled&#45;&gt;menabled -->
<g id="edge12" class="edge"><title>enabled&#45;&gt;menabled</title>
<path fill="none" stroke="#f94179" d="M557.267,-350.007C561.095,-331.377 569.034,-304.343 584.772,-286 590.399,-279.441 597.38,-273.767 604.779,-268.921"/>
<polygon fill="#f94179" stroke="#f94179" points="606.838,-271.767 613.6,-263.61 603.227,-265.77 606.838,-271.767"/>
<text text-anchor="middle" x="622.114" y="-306.474" font-family="Avenir Next" font-size="14.00"> Minus, true</text>
</g>
<!-- enabled&#45;&gt;w7 -->
<g id="edge11" class="edge"><title>enabled&#45;&gt;w7</title>
<path fill="none" stroke="black" d="M537.174,-350.396C522.067,-330.596 500.777,-299.166 490.772,-268 477.861,-227.779 478.078,-177.689 479.478,-150.273"/>
<polygon fill="black" stroke="black" points="482.989,-150.205 480.116,-140.007 476.003,-149.771 482.989,-150.205"/>
<text text-anchor="middle" x="528.114" y="-253.949" font-family="Avenir Next" font-size="14.00"> Plus, true</text>
<text text-anchor="middle" x="528.114" y="-231" font-family="Avenir Next" font-size="14.00"> Minus, true</text>
</g>
<!-- init_enabled -->
<g id="node14" class="node"><title>init_enabled</title>
<ellipse fill="none" stroke="#ff6a4d" cx="554" cy="-498" rx="75.3376" ry="21.7689"/>
<text text-anchor="middle" x="554" y="-495.474" font-family="Avenir Next" font-size="14.00" fill="#ff6a4d">down (Button)</text>
</g>
<!-- init_enabled&#45;&gt;enabled -->
<g id="edge13" class="edge"><title>init_enabled&#45;&gt;enabled</title>
<path fill="none" stroke="#ff6a4d" d="M554,-475.965C554,-456.28 554,-426.624 554,-404.187"/>
<polygon fill="#ff6a4d" stroke="#ff6a4d" points="557.5,-404.138 554,-394.138 550.5,-404.138 557.5,-404.138"/>
<text text-anchor="middle" x="591.114" y="-443.949" font-family="Avenir Next" font-size="14.00" fill="#ff6a4d"> Plus, true</text>
<text text-anchor="middle" x="591.114" y="-421" font-family="Avenir Next" font-size="14.00" fill="#ff6a4d"> Minus, true</text>
</g>
</g>
</svg>
