<?xml version="1.0" encoding="UTF-8" standalone="no"?>
<!DOCTYPE svg PUBLIC "-//W3C//DTD SVG 1.1//EN"
 "http://www.w3.org/Graphics/SVG/1.1/DTD/svg11.dtd">
<!-- Generated by graphviz version 2.34.0 (20130907.0228)
 -->
<!-- Title: bender Pages: 1 -->
<svg width="506pt" height="668pt"
 viewBox="0.00 0.00 506.00 668.00" xmlns="http://www.w3.org/2000/svg" xmlns:xlink="http://www.w3.org/1999/xlink">
<g id="graph0" class="graph" transform="scale(1 1) rotate(0) translate(4 664)">
<title>bender</title>
<polygon fill="white" stroke="white" points="-4,4 -4,-664 502,-664 502,4 -4,4"/>
<!-- t -->
<g id="node1" class="node"><title>t</title>
<polygon fill="none" stroke="black" points="327,-36 309,-9 345,-9 327,-36"/>
</g>
<!-- pushed -->
<g id="node2" class="node"><title>pushed</title>
<polygon fill="none" stroke="black" points="433.3,-435.631 410.86,-471.25 320,-487.102 229.14,-471.25 206.7,-435.631 269.577,-407.067 370.423,-407.067 433.3,-435.631"/>
<text text-anchor="middle" x="320" y="-453.949" font-family="Avenir Next" font-size="14.00">pushed</text>
<text text-anchor="middle" x="320" y="-431" font-family="Avenir Next" font-size="14.00">(Button, Plus, Minus)</text>
</g>
<!-- n -->
<g id="node3" class="node"><title>n</title>
<ellipse fill="none" stroke="black" cx="320" cy="-344" rx="49.2362" ry="21.7689"/>
<text text-anchor="middle" x="320" y="-341.474" font-family="Avenir Next" font-size="14.00">n (Panel)</text>
</g>
<!-- pushed&#45;&gt;n -->
<g id="edge1" class="edge"><title>pushed&#45;&gt;n</title>
<path fill="none" stroke="black" d="M320,-406.854C320,-396.701 320,-385.806 320,-376.033"/>
<polygon fill="black" stroke="black" points="323.5,-375.956 320,-365.956 316.5,-375.956 323.5,-375.956"/>
</g>
<!-- w3 -->
<g id="node4" class="node"><title>w3</title>
<polygon fill="none" stroke="black" points="331,-286 309,-286 309,-264 331,-264 331,-286"/>
<text text-anchor="middle" x="320" y="-272.474" font-family="Avenir Next" font-size="14.00">3</text>
</g>
<!-- n&#45;&gt;w3 -->
<g id="edge2" class="edge"><title>n&#45;&gt;w3</title>
<path fill="none" stroke="black" d="M320,-321.801C320,-313.577 320,-304.206 320,-296.091"/>
<polygon fill="black" stroke="black" points="323.5,-296.031 320,-286.031 316.5,-296.031 323.5,-296.031"/>
</g>
<!-- w3&#45;&gt;t -->
<g id="edge3" class="edge"><title>w3&#45;&gt;t</title>
<path fill="none" stroke="black" d="M320.283,-263.688C321.295,-226.825 324.754,-100.834 326.274,-45.4639"/>
<polygon fill="black" stroke="black" points="329.775,-45.4712 326.55,-35.3789 322.777,-45.2791 329.775,-45.4712"/>
</g>
<!-- enabled -->
<g id="node5" class="node"><title>enabled</title>
<ellipse fill="none" stroke="black" cx="220" cy="-190" rx="79.2326" ry="38.2232"/>
<text text-anchor="middle" x="220" y="-198.949" font-family="Avenir Next" font-size="14.00">enabled</text>
<text text-anchor="middle" x="220" y="-176" font-family="Avenir Next" font-size="14.00">(Button, Minus)</text>
</g>
<!-- w3&#45;&gt;enabled -->
<g id="edge4" class="edge"><title>w3&#45;&gt;enabled</title>
<path fill="none" stroke="black" d="M308.916,-264.8C298.697,-256.318 282.8,-243.124 267.258,-230.225"/>
<polygon fill="black" stroke="black" points="269.125,-227.226 259.195,-223.532 264.655,-232.612 269.125,-227.226"/>
</g>
<!-- w7 -->
<g id="node11" class="node"><title>w7</title>
<polygon fill="none" stroke="black" points="231,-105 209,-105 209,-83 231,-83 231,-105"/>
<text text-anchor="middle" x="220" y="-91.4744" font-family="Avenir Next" font-size="14.00">7</text>
</g>
<!-- enabled&#45;&gt;w7 -->
<g id="edge10" class="edge"><title>enabled&#45;&gt;w7</title>
<path fill="none" stroke="black" d="M220,-151.849C220,-139.488 220,-126.175 220,-115.542"/>
<polygon fill="black" stroke="black" points="223.5,-115.227 220,-105.227 216.5,-115.227 223.5,-115.227"/>
</g>
<!-- label -->
<g id="node6" class="node"><title>label</title>
<ellipse fill="none" stroke="black" cx="427" cy="-94" rx="71.4669" ry="21.7689"/>
<text text-anchor="middle" x="427" y="-91.4744" font-family="Avenir Next" font-size="14.00">label (Button)</text>
</g>
<!-- label&#45;&gt;t -->
<g id="edge5" class="edge"><title>label&#45;&gt;t</title>
<path fill="none" stroke="black" d="M400.726,-73.5574C382.344,-59.9547 358.392,-42.2304 342.858,-30.7347"/>
<polygon fill="black" stroke="black" points="344.91,-27.8993 334.79,-24.7643 340.746,-33.5262 344.91,-27.8993"/>
</g>
<!-- mousedown -->
<g id="node7" class="node"><title>mousedown</title>
<polygon fill="none" stroke="black" points="226.108,-543.641 203.706,-564.014 113,-573.081 22.2945,-564.014 -0.107917,-543.641 62.6622,-527.304 163.338,-527.304 226.108,-543.641"/>
<text text-anchor="middle" x="113" y="-546.474" font-family="Avenir Next" font-size="14.00">mousedown (frame)</text>
</g>
<!-- down -->
<g id="node8" class="node"><title>down</title>
<ellipse fill="none" stroke="black" cx="113" cy="-445" rx="75.3376" ry="21.7689"/>
<text text-anchor="middle" x="113" y="-442.474" font-family="Avenir Next" font-size="14.00">down (Button)</text>
</g>
<!-- mousedown&#45;&gt;down -->
<g id="edge6" class="edge"><title>mousedown&#45;&gt;down</title>
<path fill="none" stroke="black" d="M113,-526.866C113,-512.505 113,-493.268 113,-477.159"/>
<polygon fill="black" stroke="black" points="116.5,-477.107 113,-467.107 109.5,-477.107 116.5,-477.107"/>
</g>
<!-- down&#45;&gt;w7 -->
<g id="edge11" class="edge"><title>down&#45;&gt;w7</title>
<path fill="none" stroke="black" d="M108.396,-423.073C98.4476,-372.442 79.8213,-240.953 132,-152 146.97,-126.48 178.405,-110.388 199.363,-102.04"/>
<polygon fill="black" stroke="black" points="200.81,-105.236 208.958,-98.4639 198.365,-98.6768 200.81,-105.236"/>
</g>
<!-- mouseup -->
<g id="node9" class="node"><title>mouseup</title>
<polygon fill="none" stroke="black" points="385.21,-629.641 365.758,-650.014 287,-659.081 208.242,-650.014 188.79,-629.641 243.293,-613.304 330.707,-613.304 385.21,-629.641"/>
<text text-anchor="middle" x="287" y="-632.474" font-family="Avenir Next" font-size="14.00">mouseup (frame)</text>
</g>
<!-- w6 -->
<g id="node10" class="node"><title>w6</title>
<polygon fill="none" stroke="black" points="298,-560 276,-560 276,-538 298,-538 298,-560"/>
<text text-anchor="middle" x="287" y="-546.474" font-family="Avenir Next" font-size="14.00">6</text>
</g>
<!-- mouseup&#45;&gt;w6 -->
<g id="edge7" class="edge"><title>mouseup&#45;&gt;w6</title>
<path fill="none" stroke="black" d="M287,-613.236C287,-600.159 287,-583.356 287,-570.357"/>
<polygon fill="black" stroke="black" points="290.5,-570.104 287,-560.104 283.5,-570.104 290.5,-570.104"/>
</g>
<!-- w6&#45;&gt;pushed -->
<g id="edge9" class="edge"><title>w6&#45;&gt;pushed</title>
<path fill="none" stroke="black" d="M290.285,-537.847C293.61,-527.569 299.002,-510.904 304.286,-494.571"/>
<polygon fill="black" stroke="black" points="307.62,-495.636 307.368,-485.044 300.96,-493.481 307.62,-495.636"/>
</g>
<!-- w6&#45;&gt;down -->
<g id="edge8" class="edge"><title>w6&#45;&gt;down</title>
<path fill="none" stroke="black" d="M275.851,-541.464C251.723,-527.32 193.633,-493.267 153.778,-469.904"/>
<polygon fill="black" stroke="black" points="155.468,-466.838 145.071,-464.8 151.928,-472.877 155.468,-466.838"/>
</g>
<!-- w7&#45;&gt;t -->
<g id="edge12" class="edge"><title>w7&#45;&gt;t</title>
<path fill="none" stroke="black" d="M231.048,-85.3594C250.016,-72.2409 288.856,-45.3799 310.86,-30.1623"/>
<polygon fill="black" stroke="black" points="312.919,-32.9941 319.152,-24.4273 308.937,-27.2368 312.919,-32.9941"/>
</g>
</g>
</svg>
