<?xml version="1.0" encoding="UTF-8" standalone="no"?>
<!DOCTYPE svg PUBLIC "-//W3C//DTD SVG 1.1//EN"
 "http://www.w3.org/Graphics/SVG/1.1/DTD/svg11.dtd">
<!-- Generated by graphviz version 2.34.0 (20130907.0228)
 -->
<!-- Title: bender Pages: 1 -->
<svg width="336pt" height="440pt"
 viewBox="0.00 0.00 336.00 440.00" xmlns="http://www.w3.org/2000/svg" xmlns:xlink="http://www.w3.org/1999/xlink">
<g id="graph0" class="graph" transform="scale(1 1) rotate(0) translate(4 436)">
<title>bender</title>
<polygon fill="white" stroke="white" points="-4,4 -4,-436 332,-436 332,4 -4,4"/>
<!-- mouseup -->
<g id="node1" class="node"><title>mouseup</title>
<polygon fill="none" stroke="black" points="259.21,-401.641 239.758,-422.014 161,-431.081 82.2419,-422.014 62.7903,-401.641 117.293,-385.304 204.707,-385.304 259.21,-401.641"/>
<text text-anchor="middle" x="161" y="-404.474" font-family="Avenir Next" font-size="14.00">mouseup (frame)</text>
</g>
<!-- w6 -->
<g id="node4" class="node"><title>w6</title>
<polygon fill="none" stroke="black" points="172,-346 150,-346 150,-324 172,-324 172,-346"/>
<text text-anchor="middle" x="161" y="-332.474" font-family="Avenir Next" font-size="14.00">6</text>
</g>
<!-- mouseup&#45;&gt;w6 -->
<g id="edge1" class="edge"><title>mouseup&#45;&gt;w6</title>
<path fill="none" stroke="black" d="M161,-384.998C161,-375.836 161,-365.142 161,-356.087"/>
<polygon fill="black" stroke="black" points="164.5,-356.067 161,-346.067 157.5,-356.067 164.5,-356.067"/>
</g>
<!-- down -->
<g id="node2" class="node"><title>down</title>
<ellipse fill="none" stroke="black" cx="75" cy="-263" rx="75.3376" ry="21.7689"/>
<text text-anchor="middle" x="75" y="-260.474" font-family="Avenir Next" font-size="14.00">down (Button)</text>
</g>
<!-- w7 -->
<g id="node5" class="node"><title>w7</title>
<polygon fill="none" stroke="black" points="86,-188 64,-188 64,-166 86,-166 86,-188"/>
<text text-anchor="middle" x="75" y="-174.474" font-family="Avenir Next" font-size="14.00">7</text>
</g>
<!-- down&#45;&gt;w7 -->
<g id="edge4" class="edge"><title>down&#45;&gt;w7</title>
<path fill="none" stroke="black" d="M75,-240.803C75,-227.872 75,-211.421 75,-198.6"/>
<polygon fill="black" stroke="black" points="78.5001,-198.448 75,-188.448 71.5001,-198.448 78.5001,-198.448"/>
</g>
<!-- pushed -->
<g id="node3" class="node"><title>pushed</title>
<polygon fill="none" stroke="black" points="327.269,-257.641 311.569,-278.014 248,-287.081 184.431,-278.014 168.731,-257.641 212.722,-241.304 283.278,-241.304 327.269,-257.641"/>
<text text-anchor="middle" x="248" y="-260.474" font-family="Avenir Next" font-size="14.00">push (Button)</text>
</g>
<!-- ppushed -->
<g id="node7" class="node"><title>ppushed</title>
<polygon fill="none" stroke="black" points="328.345,-171.641 312.432,-192.014 248,-201.081 183.568,-192.014 167.655,-171.641 212.243,-155.304 283.757,-155.304 328.345,-171.641"/>
<text text-anchor="middle" x="248" y="-174.474" font-family="Avenir Next" font-size="14.00">pushed (Plus)</text>
</g>
<!-- pushed&#45;&gt;ppushed -->
<g id="edge8" class="edge"><title>pushed&#45;&gt;ppushed</title>
<path fill="none" stroke="#f94179" d="M248,-241.236C248,-232.221 248,-221.436 248,-211.346"/>
<polygon fill="#f94179" stroke="#f94179" points="251.5,-211.188 248,-201.188 244.5,-211.188 251.5,-211.188"/>
</g>
<!-- w6&#45;&gt;down -->
<g id="edge2" class="edge"><title>w6&#45;&gt;down</title>
<path fill="none" stroke="black" d="M149.757,-324.849C139.001,-316.093 122.254,-302.462 107.335,-290.319"/>
<polygon fill="black" stroke="black" points="109.25,-287.365 99.285,-283.767 104.831,-292.794 109.25,-287.365"/>
</g>
<!-- w6&#45;&gt;pushed -->
<g id="edge3" class="edge"><title>w6&#45;&gt;pushed</title>
<path fill="none" stroke="black" d="M172.019,-325.134C182.999,-316.3 200.394,-302.304 215.771,-289.932"/>
<polygon fill="black" stroke="black" points="217.986,-292.642 223.583,-283.646 213.598,-287.188 217.986,-292.642"/>
</g>
<!-- t -->
<g id="node6" class="node"><title>t</title>
<polygon fill="none" stroke="black" points="75,-116 57,-89 93,-89 75,-116"/>
</g>
<!-- w7&#45;&gt;t -->
<g id="edge5" class="edge"><title>w7&#45;&gt;t</title>
<path fill="none" stroke="black" d="M75,-165.934C75,-155.863 75,-139.929 75,-126.134"/>
<polygon fill="black" stroke="black" points="78.5001,-126.134 75,-116.134 71.5001,-126.134 78.5001,-126.134"/>
</g>
<!-- w1 -->
<g id="node8" class="node"><title>w1</title>
<polygon fill="none" stroke="black" points="259,-109 237,-109 237,-87 259,-87 259,-109"/>
<text text-anchor="middle" x="248" y="-95.4744" font-family="Avenir Next" font-size="14.00">1</text>
</g>
<!-- ppushed&#45;&gt;w1 -->
<g id="edge6" class="edge"><title>ppushed&#45;&gt;w1</title>
<path fill="none" stroke="black" d="M248,-154.959C248,-143.987 248,-130.615 248,-119.695"/>
<polygon fill="black" stroke="black" points="251.5,-119.405 248,-109.405 244.5,-119.405 251.5,-119.405"/>
</g>
<!-- n -->
<g id="node9" class="node"><title>n</title>
<ellipse fill="none" stroke="black" cx="248" cy="-22" rx="49.2362" ry="21.7689"/>
<text text-anchor="middle" x="248" y="-19.4744" font-family="Avenir Next" font-size="14.00">n (Panel)</text>
</g>
<!-- w1&#45;&gt;n -->
<g id="edge7" class="edge"><title>w1&#45;&gt;n</title>
<path fill="none" stroke="black" d="M248,-86.7106C248,-78.3187 248,-66.0015 248,-54.4286"/>
<polygon fill="black" stroke="black" points="251.5,-54.1435 248,-44.1435 244.5,-54.1436 251.5,-54.1435"/>
</g>
</g>
</svg>
