<?xml version="1.0" encoding="UTF-8" standalone="no"?>
<!DOCTYPE svg PUBLIC "-//W3C//DTD SVG 1.1//EN"
 "http://www.w3.org/Graphics/SVG/1.1/DTD/svg11.dtd">
<!-- Generated by graphviz version 2.34.0 (20130907.0228)
 -->
<!-- Title: bender Pages: 1 -->
<svg width="335pt" height="202pt"
 viewBox="0.00 0.00 335.00 202.00" xmlns="http://www.w3.org/2000/svg" xmlns:xlink="http://www.w3.org/1999/xlink">
<g id="graph0" class="graph" transform="scale(1 1) rotate(0) translate(4 198)">
<title>bender</title>
<polygon fill="white" stroke="white" points="-4,4 -4,-198 331,-198 331,4 -4,4"/>
<!-- mouseup -->
<g id="node1" class="node"><title>mouseup</title>
<polygon fill="none" stroke="black" points="259.21,-163.641 239.758,-184.014 161,-193.081 82.2419,-184.014 62.7903,-163.641 117.293,-147.304 204.707,-147.304 259.21,-163.641"/>
<text text-anchor="middle" x="161" y="-166.474" font-family="Avenir Next" font-size="14.00">mouseup (frame)</text>
</g>
<!-- w6 -->
<g id="node4" class="node"><title>w6</title>
<polygon fill="none" stroke="black" points="172,-108 150,-108 150,-86 172,-86 172,-108"/>
<text text-anchor="middle" x="161" y="-94.4744" font-family="Avenir Next" font-size="14.00">6</text>
</g>
<!-- mouseup&#45;&gt;w6 -->
<g id="edge1" class="edge"><title>mouseup&#45;&gt;w6</title>
<path fill="none" stroke="black" d="M161,-146.998C161,-137.836 161,-127.142 161,-118.087"/>
<polygon fill="black" stroke="black" points="164.5,-118.067 161,-108.067 157.5,-118.067 164.5,-118.067"/>
</g>
<!-- down -->
<g id="node2" class="node"><title>down</title>
<ellipse fill="none" stroke="black" cx="75" cy="-25" rx="75.3376" ry="21.7689"/>
<text text-anchor="middle" x="75" y="-22.4744" font-family="Avenir Next" font-size="14.00">down (Button)</text>
</g>
<!-- pushed -->
<g id="node3" class="node"><title>pushed</title>
<polygon fill="none" stroke="black" points="327.269,-19.6415 311.569,-40.0142 248,-49.0809 184.431,-40.0142 168.731,-19.6415 212.722,-3.30383 283.278,-3.30383 327.269,-19.6415"/>
<text text-anchor="middle" x="248" y="-22.4744" font-family="Avenir Next" font-size="14.00">push (Button)</text>
</g>
<!-- w6&#45;&gt;down -->
<g id="edge2" class="edge"><title>w6&#45;&gt;down</title>
<path fill="none" stroke="black" d="M149.757,-86.8487C139.001,-78.0935 122.254,-64.4625 107.335,-52.3195"/>
<polygon fill="black" stroke="black" points="109.25,-49.3651 99.285,-45.7668 104.831,-54.7941 109.25,-49.3651"/>
</g>
<!-- w6&#45;&gt;pushed -->
<g id="edge3" class="edge"><title>w6&#45;&gt;pushed</title>
<path fill="none" stroke="black" d="M172.019,-87.1345C182.999,-78.2999 200.394,-64.304 215.771,-51.9318"/>
<polygon fill="black" stroke="black" points="217.986,-54.6416 223.583,-45.6459 213.598,-49.1877 217.986,-54.6416"/>
</g>
</g>
</svg>
