<?xml version="1.0" encoding="UTF-8" standalone="no"?>
<!DOCTYPE svg PUBLIC "-//W3C//DTD SVG 1.1//EN"
 "http://www.w3.org/Graphics/SVG/1.1/DTD/svg11.dtd">
<!-- Generated by graphviz version 2.34.0 (20130907.0228)
 -->
<!-- Title: bender Pages: 1 -->
<svg width="571pt" height="932pt"
 viewBox="0.00 0.00 571.00 932.00" xmlns="http://www.w3.org/2000/svg" xmlns:xlink="http://www.w3.org/1999/xlink">
<g id="graph0" class="graph" transform="scale(1 1) rotate(0) translate(4 928)">
<title>bender</title>
<polygon fill="white" stroke="white" points="-4,4 -4,-928 567,-928 567,4 -4,4"/>
<!-- t -->
<g id="node1" class="node"><title>t</title>
<polygon fill="none" stroke="black" points="342,-36 324,-9 360,-9 342,-36"/>
</g>
<!-- ppushed -->
<g id="node2" class="node"><title>ppushed</title>
<polygon fill="none" stroke="black" points="363.345,-591.641 347.432,-612.014 283,-621.081 218.568,-612.014 202.655,-591.641 247.243,-575.304 318.757,-575.304 363.345,-591.641"/>
<text text-anchor="middle" x="283" y="-594.474" font-family="Avenir Next" font-size="14.00">pushed (Plus)</text>
</g>
<!-- w1 -->
<g id="node3" class="node"><title>w1</title>
<polygon fill="none" stroke="black" points="270,-512 248,-512 248,-490 270,-490 270,-512"/>
<text text-anchor="middle" x="259" y="-498.474" font-family="Avenir Next" font-size="14.00">1</text>
</g>
<!-- ppushed&#45;&gt;w1 -->
<g id="edge1" class="edge"><title>ppushed&#45;&gt;w1</title>
<path fill="none" stroke="black" d="M277.674,-575.138C273.634,-559.318 268.116,-537.703 264.126,-522.078"/>
<polygon fill="black" stroke="black" points="267.511,-521.186 261.646,-512.362 260.728,-522.917 267.511,-521.186"/>
<text text-anchor="middle" x="313.489" y="-539.474" font-family="Avenir Next" font-size="14.00">8. Plus, event</text>
</g>
<!-- n -->
<g id="node4" class="node"><title>n</title>
<ellipse fill="none" stroke="black" cx="246" cy="-408" rx="49.2362" ry="21.7689"/>
<text text-anchor="middle" x="246" y="-405.474" font-family="Avenir Next" font-size="14.00">n (Panel)</text>
</g>
<!-- w1&#45;&gt;n -->
<g id="edge2" class="edge"><title>w1&#45;&gt;n</title>
<path fill="none" stroke="black" d="M257.559,-489.914C255.862,-478.034 252.961,-457.725 250.49,-440.427"/>
<polygon fill="black" stroke="black" points="253.9,-439.552 249.021,-430.147 246.97,-440.542 253.9,-439.552"/>
<text text-anchor="middle" x="287.053" y="-457.474" font-family="Avenir Next" font-size="14.00">9. Panel, 3</text>
</g>
<!-- w3 -->
<g id="node7" class="node"><title>w3</title>
<polygon fill="none" stroke="black" points="257,-315 235,-315 235,-293 257,-293 257,-315"/>
<text text-anchor="middle" x="246" y="-301.474" font-family="Avenir Next" font-size="14.00">3</text>
</g>
<!-- n&#45;&gt;w3 -->
<g id="edge5" class="edge"><title>n&#45;&gt;w3</title>
<path fill="none" stroke="black" d="M246,-385.866C246,-368.155 246,-343.024 246,-325.495"/>
<polygon fill="black" stroke="black" points="249.5,-325.228 246,-315.228 242.5,-325.228 249.5,-325.228"/>
<text text-anchor="middle" x="282.113" y="-353.474" font-family="Avenir Next" font-size="14.00">10. Panel, 3</text>
</g>
<!-- mpushed -->
<g id="node5" class="node"><title>mpushed</title>
<polygon fill="none" stroke="black" points="184.431,-591.641 166.718,-612.014 95,-621.081 23.2817,-612.014 5.56874,-591.641 55.1993,-575.304 134.801,-575.304 184.431,-591.641"/>
<text text-anchor="middle" x="95" y="-594.474" font-family="Avenir Next" font-size="14.00">pushed (Minus)</text>
</g>
<!-- w2 -->
<g id="node6" class="node"><title>w2</title>
<polygon fill="none" stroke="black" points="151,-512 129,-512 129,-490 151,-490 151,-512"/>
<text text-anchor="middle" x="140" y="-498.474" font-family="Avenir Next" font-size="14.00">2</text>
</g>
<!-- mpushed&#45;&gt;w2 -->
<g id="edge3" class="edge"><title>mpushed&#45;&gt;w2</title>
<path fill="none" stroke="black" stroke-dasharray="5,2" d="M104.987,-575.138C112.634,-559.165 123.107,-537.287 130.603,-521.629"/>
<polygon fill="black" stroke="black" points="133.878,-522.893 135.039,-512.362 127.564,-519.871 133.878,-522.893"/>
</g>
<!-- w2&#45;&gt;n -->
<g id="edge4" class="edge"><title>w2&#45;&gt;n</title>
<path fill="none" stroke="black" stroke-dasharray="5,2" d="M151.344,-490.261C166.756,-477.031 194.862,-452.901 216.459,-434.361"/>
<polygon fill="black" stroke="black" points="218.777,-436.983 224.085,-427.814 214.218,-431.672 218.777,-436.983"/>
</g>
<!-- w3&#45;&gt;t -->
<g id="edge6" class="edge"><title>w3&#45;&gt;t</title>
<path fill="none" stroke="black" d="M257.13,-293.245C264.633,-285.979 274.038,-275.383 279,-264 301.9,-211.474 280.087,-191.476 294.434,-136 303.718,-100.102 321.491,-60.5785 332.488,-37.8825"/>
<polygon fill="black" stroke="black" points="335.726,-39.2291 337.008,-28.7122 329.447,-36.1339 335.726,-39.2291"/>
<text text-anchor="middle" x="336.783" y="-145.474" font-family="Avenir Next" font-size="14.00">13. Panel, &quot;3&quot;</text>
</g>
<!-- menabled -->
<g id="node8" class="node"><title>menabled</title>
<ellipse fill="none" stroke="black" cx="181" cy="-200" rx="84.014" ry="21.7689"/>
<text text-anchor="middle" x="181" y="-197.474" font-family="Avenir Next" font-size="14.00">enabled (Minus)</text>
</g>
<!-- w3&#45;&gt;menabled -->
<g id="edge7" class="edge"><title>w3&#45;&gt;menabled</title>
<path fill="none" stroke="black" d="M234.723,-299.333C220.454,-294.034 196.403,-282.758 185.312,-264 179.746,-254.587 177.863,-242.944 177.638,-232.239"/>
<polygon fill="black" stroke="black" points="181.144,-232.046 177.89,-221.963 174.146,-231.874 181.144,-232.046"/>
<text text-anchor="middle" x="232.844" y="-249.474" font-family="Avenir Next" font-size="14.00">11. Minus, true</text>
</g>
<!-- w8 -->
<g id="node18" class="node"><title>w8</title>
<polygon fill="none" stroke="black" points="162,-118 140,-118 140,-96 162,-96 162,-118"/>
<text text-anchor="middle" x="151" y="-104.474" font-family="Avenir Next" font-size="14.00">8</text>
</g>
<!-- menabled&#45;&gt;w8 -->
<g id="edge21" class="edge"><title>menabled&#45;&gt;w8</title>
<path fill="none" stroke="#f8ca00" d="M174.042,-177.894C169.083,-162.853 162.46,-142.763 157.588,-127.982"/>
<polygon fill="#f8ca00" stroke="#f8ca00" points="160.853,-126.707 154.398,-118.306 154.205,-128.899 160.853,-126.707"/>
<text text-anchor="middle" x="214.844" y="-145.474" font-family="Avenir Next" font-size="14.00">12. Minus, true</text>
</g>
<!-- label -->
<g id="node9" class="node"><title>label</title>
<ellipse fill="none" stroke="black" cx="492" cy="-200" rx="71.4669" ry="21.7689"/>
<text text-anchor="middle" x="492" y="-197.474" font-family="Avenir Next" font-size="14.00">label (Button)</text>
</g>
<!-- w4 -->
<g id="node10" class="node"><title>w4</title>
<polygon fill="none" stroke="black" points="472,-118 450,-118 450,-96 472,-96 472,-118"/>
<text text-anchor="middle" x="461" y="-104.474" font-family="Avenir Next" font-size="14.00">4</text>
</g>
<!-- label&#45;&gt;w4 -->
<g id="edge8" class="edge"><title>label&#45;&gt;w4</title>
<path fill="none" stroke="black" stroke-dasharray="5,2" d="M484.81,-177.894C479.686,-162.853 472.842,-142.763 467.807,-127.982"/>
<polygon fill="black" stroke="black" points="471.049,-126.643 464.511,-118.306 464.423,-128.901 471.049,-126.643"/>
</g>
<!-- w4&#45;&gt;t -->
<g id="edge9" class="edge"><title>w4&#45;&gt;t</title>
<path fill="none" stroke="black" stroke-dasharray="5,2" d="M451.927,-95.9959C441.529,-84.887 423.64,-66.832 406,-54 391.474,-43.433 373.397,-33.8308 360.163,-27.3683"/>
<polygon fill="black" stroke="black" points="361.661,-24.2051 351.127,-23.0745 358.657,-30.5276 361.661,-24.2051"/>
</g>
<!-- mousedown -->
<g id="node11" class="node"><title>mousedown</title>
<polygon fill="none" stroke="black" points="525.108,-893.641 502.706,-914.014 412,-923.081 321.294,-914.014 298.892,-893.641 361.662,-877.304 462.338,-877.304 525.108,-893.641"/>
<text text-anchor="middle" x="412" y="-896.474" font-family="Avenir Next" font-size="14.00">mousedown (frame)</text>
</g>
<!-- w5 -->
<g id="node12" class="node"><title>w5</title>
<polygon fill="none" stroke="black" points="414,-814 392,-814 392,-792 414,-792 414,-814"/>
<text text-anchor="middle" x="403" y="-800.474" font-family="Avenir Next" font-size="14.00">5</text>
</g>
<!-- mousedown&#45;&gt;w5 -->
<g id="edge10" class="edge"><title>mousedown&#45;&gt;w5</title>
<path fill="none" stroke="black" stroke-dasharray="5,2" d="M410.003,-877.138C408.502,-861.47 406.458,-840.118 404.966,-824.53"/>
<polygon fill="black" stroke="black" points="408.429,-823.983 403.992,-814.362 401.461,-824.65 408.429,-823.983"/>
</g>
<!-- down -->
<g id="node13" class="node"><title>down</title>
<ellipse fill="none" stroke="black" cx="392" cy="-707" rx="75.3376" ry="21.7689"/>
<text text-anchor="middle" x="392" y="-704.474" font-family="Avenir Next" font-size="14.00">down (Button)</text>
</g>
<!-- w5&#45;&gt;down -->
<g id="edge11" class="edge"><title>w5&#45;&gt;down</title>
<path fill="none" stroke="black" stroke-dasharray="5,2" d="M401.823,-791.94C400.352,-779.371 397.767,-757.279 395.618,-738.914"/>
<polygon fill="black" stroke="black" points="399.085,-738.431 394.446,-728.905 392.132,-739.244 399.085,-738.431"/>
</g>
<!-- w7 -->
<g id="node17" class="node"><title>w7</title>
<polygon fill="none" stroke="black" points="403,-553 381,-553 381,-531 403,-531 403,-553"/>
<text text-anchor="middle" x="392" y="-539.474" font-family="Avenir Next" font-size="14.00">7</text>
</g>
<!-- down&#45;&gt;w7 -->
<g id="edge17" class="edge"><title>down&#45;&gt;w7</title>
<path fill="none" stroke="black" d="M392,-685.024C392,-653.474 392,-594.199 392,-563.144"/>
<polygon fill="black" stroke="black" points="395.5,-563.083 392,-553.083 388.5,-563.083 395.5,-563.083"/>
<text text-anchor="middle" x="430.458" y="-649.474" font-family="Avenir Next" font-size="14.00">3. Plus, false</text>
</g>
<!-- mouseup -->
<g id="node14" class="node"><title>mouseup</title>
<polygon fill="none" stroke="black" points="281.21,-893.641 261.758,-914.014 183,-923.081 104.242,-914.014 84.7903,-893.641 139.293,-877.304 226.707,-877.304 281.21,-893.641"/>
<text text-anchor="middle" x="183" y="-896.474" font-family="Avenir Next" font-size="14.00">mouseup (frame)</text>
</g>
<!-- w6 -->
<g id="node15" class="node"><title>w6</title>
<polygon fill="none" stroke="black" points="196,-814 174,-814 174,-792 196,-792 196,-814"/>
<text text-anchor="middle" x="185" y="-800.474" font-family="Avenir Next" font-size="14.00">6</text>
</g>
<!-- mouseup&#45;&gt;w6 -->
<g id="edge12" class="edge"><title>mouseup&#45;&gt;w6</title>
<path fill="none" stroke="black" d="M183.444,-877.138C183.777,-861.47 184.232,-840.118 184.563,-824.53"/>
<polygon fill="black" stroke="black" points="188.066,-824.435 184.78,-814.362 181.068,-824.286 188.066,-824.435"/>
<text text-anchor="middle" x="250.296" y="-841.474" font-family="Avenir Next" font-size="14.00">1. Button/Plus, event</text>
</g>
<!-- w6&#45;&gt;down -->
<g id="edge13" class="edge"><title>w6&#45;&gt;down</title>
<path fill="none" stroke="black" d="M196.059,-798.68C211.672,-793.869 240.957,-784.392 265,-774 294.124,-761.412 325.79,-744.962 350.217,-731.634"/>
<polygon fill="black" stroke="black" points="352.127,-734.578 359.204,-726.693 348.755,-728.443 352.127,-734.578"/>
<text text-anchor="middle" x="353.458" y="-759.474" font-family="Avenir Next" font-size="14.00">2. Plus, false</text>
</g>
<!-- pushed -->
<g id="node16" class="node"><title>pushed</title>
<polygon fill="none" stroke="black" points="278.194,-701.641 259.736,-722.014 185,-731.081 110.264,-722.014 91.8058,-701.641 143.525,-685.304 226.475,-685.304 278.194,-701.641"/>
<text text-anchor="middle" x="185" y="-704.474" font-family="Avenir Next" font-size="14.00">pushed (Button)</text>
</g>
<!-- w6&#45;&gt;pushed -->
<g id="edge14" class="edge"><title>w6&#45;&gt;pushed</title>
<path fill="none" stroke="black" d="M185,-791.94C185,-779.904 185,-759.137 185,-741.272"/>
<polygon fill="black" stroke="black" points="188.5,-741.176 185,-731.176 181.5,-741.176 188.5,-741.176"/>
<text text-anchor="middle" x="223.458" y="-759.474" font-family="Avenir Next" font-size="14.00">5. Plus, false</text>
</g>
<!-- pushed&#45;&gt;ppushed -->
<g id="edge15" class="edge"><title>pushed&#45;&gt;ppushed</title>
<path fill="none" stroke="#f94179" d="M203.895,-685.177C219.08,-668.443 240.561,-644.769 257.308,-626.314"/>
<polygon fill="#f94179" stroke="#f94179" points="260.035,-628.517 264.163,-618.76 254.851,-623.813 260.035,-628.517"/>
<text text-anchor="middle" x="284.489" y="-649.474" font-family="Avenir Next" font-size="14.00">7. Plus, event</text>
</g>
<!-- pushed&#45;&gt;mpushed -->
<g id="edge16" class="edge"><title>pushed&#45;&gt;mpushed</title>
<path fill="none" stroke="#f94179" stroke-dasharray="5,2" d="M164.846,-684.962C158.707,-678.361 152.022,-670.975 146.112,-664 136.16,-652.255 125.668,-638.895 116.796,-627.281"/>
<polygon fill="#f94179" stroke="#f94179" points="119.485,-625.034 110.654,-619.181 113.907,-629.264 119.485,-625.034"/>
<text text-anchor="middle" x="185.444" y="-649.474" font-family="Avenir Next" font-size="14.00">6. No match</text>
</g>
<!-- w7&#45;&gt;t -->
<g id="edge18" class="edge"><title>w7&#45;&gt;t</title>
<path fill="none" stroke="black" d="M392,-530.897C392,-515.721 392,-486.139 392,-461 392,-461 392,-461 392,-106 392,-77.2201 371.178,-49.3544 356.408,-33.2081"/>
<polygon fill="black" stroke="black" points="358.829,-30.6771 349.378,-25.8902 353.781,-35.5265 358.829,-30.6771"/>
<text text-anchor="middle" x="445.256" y="-301.474" font-family="Avenir Next" font-size="14.00">4. Button/Plus, &quot;&quot;</text>
</g>
<!-- w8&#45;&gt;t -->
<g id="edge22" class="edge"><title>w8&#45;&gt;t</title>
<path fill="none" stroke="black" d="M147.788,-95.8907C144.809,-84.3459 142.162,-65.5657 151.978,-54 173.489,-28.654 275.596,-21.5751 320.606,-19.6707"/>
<polygon fill="black" stroke="black" points="320.873,-23.1632 330.735,-19.29 320.61,-16.1681 320.873,-23.1632"/>
<text text-anchor="middle" x="215.511" y="-63.4744" font-family="Avenir Next" font-size="14.00">14. Button/Minus, &quot;&quot;</text>
</g>
<!-- enabled -->
<g id="node19" class="node"><title>enabled</title>
<ellipse fill="none" stroke="black" cx="87" cy="-304" rx="87.3051" ry="21.7689"/>
<text text-anchor="middle" x="87" y="-301.474" font-family="Avenir Next" font-size="14.00">enabled (Button)</text>
</g>
<!-- enabled&#45;&gt;menabled -->
<g id="edge20" class="edge"><title>enabled&#45;&gt;menabled</title>
<path fill="none" stroke="#f94179" stroke-dasharray="5,2" d="M106.022,-282.359C120.165,-267.013 139.621,-245.9 155.17,-229.028"/>
<polygon fill="#f94179" stroke="#f94179" points="157.803,-231.336 162.006,-221.611 152.655,-226.592 157.803,-231.336"/>
</g>
<!-- enabled&#45;&gt;w8 -->
<g id="edge19" class="edge"><title>enabled&#45;&gt;w8</title>
<path fill="none" stroke="black" stroke-dasharray="5,2" d="M82.7411,-281.801C78.5859,-256.229 74.6447,-212.391 88,-178 96.889,-155.11 117.032,-134.985 132.164,-122.259"/>
<polygon fill="black" stroke="black" points="134.364,-124.981 139.952,-115.98 129.971,-119.532 134.364,-124.981"/>
</g>
</g>
</svg>
