<?xml version="1.0" encoding="UTF-8" standalone="no"?>
<!DOCTYPE svg PUBLIC "-//W3C//DTD SVG 1.1//EN"
 "http://www.w3.org/Graphics/SVG/1.1/DTD/svg11.dtd">
<!-- Generated by graphviz version 2.34.0 (20130907.0228)
 -->
<!-- Title: bender Pages: 1 -->
<svg width="573pt" height="934pt"
 viewBox="0.00 0.00 573.00 934.00" xmlns="http://www.w3.org/2000/svg" xmlns:xlink="http://www.w3.org/1999/xlink">
<g id="graph0" class="graph" transform="scale(1 1) rotate(0) translate(4 930)">
<title>bender</title>
<polygon fill="white" stroke="white" points="-4,4 -4,-930 569,-930 569,4 -4,4"/>
<!-- t -->
<g id="node1" class="node"><title>t</title>
<polygon fill="none" stroke="black" points="356,-36 338,-9 374,-9 356,-36"/>
</g>
<!-- ppushed -->
<g id="node2" class="node"><title>ppushed</title>
<polygon fill="none" stroke="black" points="362.345,-615.641 346.432,-636.014 282,-645.081 217.568,-636.014 201.655,-615.641 246.243,-599.304 317.757,-599.304 362.345,-615.641"/>
<text text-anchor="middle" x="282" y="-618.474" font-family="Avenir Next" font-size="14.00">pushed (Plus)</text>
</g>
<!-- w1 -->
<g id="node3" class="node"><title>w1</title>
<polygon fill="none" stroke="black" points="257,-538 235,-538 235,-516 257,-516 257,-538"/>
<text text-anchor="middle" x="246" y="-524.474" font-family="Avenir Next" font-size="14.00">1</text>
</g>
<!-- ppushed&#45;&gt;w1 -->
<g id="edge1" class="edge"><title>ppushed&#45;&gt;w1</title>
<path fill="none" stroke="black" stroke-dasharray="5,2" d="M273.831,-599.124C267.763,-583.617 259.545,-562.615 253.614,-547.458"/>
<polygon fill="black" stroke="black" points="256.831,-546.074 249.928,-538.037 250.312,-548.625 256.831,-546.074"/>
</g>
<!-- n -->
<g id="node4" class="node"><title>n</title>
<ellipse fill="none" stroke="black" cx="228" cy="-456" rx="49.2362" ry="21.7689"/>
<text text-anchor="middle" x="228" y="-453.474" font-family="Avenir Next" font-size="14.00">n (Panel)</text>
</g>
<!-- w1&#45;&gt;n -->
<g id="edge2" class="edge"><title>w1&#45;&gt;n</title>
<path fill="none" stroke="black" stroke-dasharray="5,2" d="M243.344,-515.819C241.393,-508.34 238.633,-497.759 235.99,-487.629"/>
<polygon fill="black" stroke="black" points="239.332,-486.574 233.421,-477.781 232.559,-488.341 239.332,-486.574"/>
</g>
<!-- w3 -->
<g id="node7" class="node"><title>w3</title>
<polygon fill="none" stroke="black" points="239,-362 217,-362 217,-340 239,-340 239,-362"/>
<text text-anchor="middle" x="228" y="-348.474" font-family="Avenir Next" font-size="14.00">3</text>
</g>
<!-- n&#45;&gt;w3 -->
<g id="edge5" class="edge"><title>n&#45;&gt;w3</title>
<path fill="none" stroke="black" d="M228,-433.658C228,-415.592 228,-389.879 228,-372.157"/>
<polygon fill="black" stroke="black" points="231.5,-372.061 228,-362.061 224.5,-372.061 231.5,-372.061"/>
<text text-anchor="middle" x="252.633" y="-401.474" font-family="Avenir Next" font-size="14.00">Panel, 0</text>
</g>
<!-- mpushed -->
<g id="node5" class="node"><title>mpushed</title>
<polygon fill="none" stroke="black" points="183.431,-615.641 165.718,-636.014 94,-645.081 22.2817,-636.014 4.56874,-615.641 54.1993,-599.304 133.801,-599.304 183.431,-615.641"/>
<text text-anchor="middle" x="94" y="-618.474" font-family="Avenir Next" font-size="14.00">pushed (Minus)</text>
</g>
<!-- w2 -->
<g id="node6" class="node"><title>w2</title>
<polygon fill="none" stroke="black" points="146,-538 124,-538 124,-516 146,-516 146,-538"/>
<text text-anchor="middle" x="135" y="-524.474" font-family="Avenir Next" font-size="14.00">2</text>
</g>
<!-- mpushed&#45;&gt;w2 -->
<g id="edge3" class="edge"><title>mpushed&#45;&gt;w2</title>
<path fill="none" stroke="black" stroke-dasharray="5,2" d="M103.304,-599.124C110.214,-583.617 119.574,-562.615 126.329,-547.458"/>
<polygon fill="black" stroke="black" points="129.653,-548.596 130.527,-538.037 123.259,-545.747 129.653,-548.596"/>
</g>
<!-- w2&#45;&gt;n -->
<g id="edge4" class="edge"><title>w2&#45;&gt;n</title>
<path fill="none" stroke="black" stroke-dasharray="5,2" d="M146.034,-517.814C158.107,-508.856 178.035,-494.071 195.218,-481.322"/>
<polygon fill="black" stroke="black" points="197.441,-484.031 203.387,-475.262 193.27,-478.409 197.441,-484.031"/>
</g>
<!-- w3&#45;&gt;t -->
<g id="edge6" class="edge"><title>w3&#45;&gt;t</title>
<path fill="none" stroke="black" d="M239.197,-346.888C254.898,-341.897 283.09,-330.514 297,-310 335.322,-253.483 305.701,-224.898 319.394,-158 328.008,-115.913 341.59,-67.5743 349.563,-40.4231"/>
<polygon fill="black" stroke="black" points="352.931,-41.3773 352.417,-30.7949 346.22,-39.3879 352.931,-41.3773"/>
<text text-anchor="middle" x="350.303" y="-178.474" font-family="Avenir Next" font-size="14.00">Panel, &quot;0&quot;</text>
</g>
<!-- menabled -->
<g id="node8" class="node"><title>menabled</title>
<ellipse fill="none" stroke="black" cx="206" cy="-245" rx="84.014" ry="21.7689"/>
<text text-anchor="middle" x="206" y="-242.474" font-family="Avenir Next" font-size="14.00">enabled (Minus)</text>
</g>
<!-- w3&#45;&gt;menabled -->
<g id="edge7" class="edge"><title>w3&#45;&gt;menabled</title>
<path fill="none" stroke="black" d="M225.81,-339.648C222.747,-325.166 217.052,-298.246 212.552,-276.972"/>
<polygon fill="black" stroke="black" points="215.949,-276.121 210.455,-267.062 209.101,-277.569 215.949,-276.121"/>
<text text-anchor="middle" x="256.233" y="-295.474" font-family="Avenir Next" font-size="14.00">Minus, false</text>
</g>
<!-- w8 -->
<g id="node18" class="node"><title>w8</title>
<polygon fill="none" stroke="black" points="154,-140 132,-140 132,-118 154,-118 154,-140"/>
<text text-anchor="middle" x="143" y="-126.474" font-family="Avenir Next" font-size="14.00">8</text>
</g>
<!-- menabled&#45;&gt;w8 -->
<g id="edge21" class="edge"><title>menabled&#45;&gt;w8</title>
<path fill="none" stroke="#f8ca00" d="M194.445,-223.091C182.783,-201.989 164.927,-169.677 153.613,-149.205"/>
<polygon fill="#f8ca00" stroke="#f8ca00" points="156.541,-147.267 148.641,-140.208 150.415,-150.653 156.541,-147.267"/>
<text text-anchor="middle" x="221.233" y="-178.474" font-family="Avenir Next" font-size="14.00">Minus, false</text>
</g>
<!-- label -->
<g id="node9" class="node"><title>label</title>
<ellipse fill="none" stroke="black" cx="494" cy="-245" rx="71.4669" ry="21.7689"/>
<text text-anchor="middle" x="494" y="-242.474" font-family="Avenir Next" font-size="14.00">label (Button)</text>
</g>
<!-- w4 -->
<g id="node10" class="node"><title>w4</title>
<polygon fill="none" stroke="black" points="474,-140 452,-140 452,-118 474,-118 474,-140"/>
<text text-anchor="middle" x="463" y="-126.474" font-family="Avenir Next" font-size="14.00">4</text>
</g>
<!-- label&#45;&gt;w4 -->
<g id="edge8" class="edge"><title>label&#45;&gt;w4</title>
<path fill="none" stroke="black" d="M488.314,-223.091C482.654,-202.277 474.028,-170.556 468.452,-150.049"/>
<polygon fill="black" stroke="black" points="471.777,-148.939 465.776,-140.208 465.022,-150.776 471.777,-148.939"/>
<text text-anchor="middle" x="516.424" y="-189.949" font-family="Avenir Next" font-size="14.00">Plus, &quot;+&quot;</text>
<text text-anchor="middle" x="516.424" y="-167" font-family="Avenir Next" font-size="14.00">Minus, &quot;—&quot;</text>
</g>
<!-- w4&#45;&gt;t -->
<g id="edge9" class="edge"><title>w4&#45;&gt;t</title>
<path fill="none" stroke="black" d="M457.001,-117.818C447.775,-102.712 428.96,-74.0026 408,-54 397.512,-43.9913 383.858,-34.9213 373.173,-28.5234"/>
<polygon fill="black" stroke="black" points="374.783,-25.4114 364.371,-23.4488 371.287,-31.4757 374.783,-25.4114"/>
<text text-anchor="middle" x="502.231" y="-85.9488" font-family="Avenir Next" font-size="14.00">Button/Plus, &quot;+&quot;</text>
<text text-anchor="middle" x="502.231" y="-63" font-family="Avenir Next" font-size="14.00">Button/Minus, &quot;—&quot;</text>
</g>
<!-- mousedown -->
<g id="node11" class="node"><title>mousedown</title>
<polygon fill="none" stroke="black" points="542.108,-895.641 519.706,-916.014 429,-925.081 338.294,-916.014 315.892,-895.641 378.662,-879.304 479.338,-879.304 542.108,-895.641"/>
<text text-anchor="middle" x="429" y="-898.474" font-family="Avenir Next" font-size="14.00">mousedown (frame)</text>
</g>
<!-- w5 -->
<g id="node12" class="node"><title>w5</title>
<polygon fill="none" stroke="black" points="437,-838 415,-838 415,-816 437,-816 437,-838"/>
<text text-anchor="middle" x="426" y="-824.474" font-family="Avenir Next" font-size="14.00">5</text>
</g>
<!-- mousedown&#45;&gt;w5 -->
<g id="edge10" class="edge"><title>mousedown&#45;&gt;w5</title>
<path fill="none" stroke="black" stroke-dasharray="5,2" d="M428.132,-879.175C427.729,-869.503 427.252,-858.043 426.851,-848.421"/>
<polygon fill="black" stroke="black" points="430.338,-848.035 426.425,-838.189 423.344,-848.326 430.338,-848.035"/>
</g>
<!-- down -->
<g id="node13" class="node"><title>down</title>
<ellipse fill="none" stroke="black" cx="394" cy="-753" rx="75.3376" ry="21.7689"/>
<text text-anchor="middle" x="394" y="-750.474" font-family="Avenir Next" font-size="14.00">down (Button)</text>
</g>
<!-- w5&#45;&gt;down -->
<g id="edge11" class="edge"><title>w5&#45;&gt;down</title>
<path fill="none" stroke="black" stroke-dasharray="5,2" d="M421.551,-815.989C417.874,-807.717 412.456,-795.527 407.396,-784.14"/>
<polygon fill="black" stroke="black" points="410.534,-782.584 403.275,-774.868 404.138,-785.427 410.534,-782.584"/>
</g>
<!-- w7 -->
<g id="node17" class="node"><title>w7</title>
<polygon fill="none" stroke="black" points="405,-578 383,-578 383,-556 405,-556 405,-578"/>
<text text-anchor="middle" x="394" y="-564.474" font-family="Avenir Next" font-size="14.00">7</text>
</g>
<!-- down&#45;&gt;w7 -->
<g id="edge17" class="edge"><title>down&#45;&gt;w7</title>
<path fill="none" stroke="black" d="M394,-730.893C394,-695.273 394,-623.679 394,-588.484"/>
<polygon fill="black" stroke="black" points="397.5,-588.048 394,-578.048 390.5,-588.048 397.5,-588.048"/>
<text text-anchor="middle" x="431.233" y="-695.949" font-family="Avenir Next" font-size="14.00">Plus, false</text>
<text text-anchor="middle" x="431.233" y="-673" font-family="Avenir Next" font-size="14.00">Minus, false</text>
</g>
<!-- mouseup -->
<g id="node14" class="node"><title>mouseup</title>
<polygon fill="none" stroke="black" points="298.21,-895.641 278.758,-916.014 200,-925.081 121.242,-916.014 101.79,-895.641 156.293,-879.304 243.707,-879.304 298.21,-895.641"/>
<text text-anchor="middle" x="200" y="-898.474" font-family="Avenir Next" font-size="14.00">mouseup (frame)</text>
</g>
<!-- w6 -->
<g id="node15" class="node"><title>w6</title>
<polygon fill="none" stroke="black" points="216,-838 194,-838 194,-816 216,-816 216,-838"/>
<text text-anchor="middle" x="205" y="-824.474" font-family="Avenir Next" font-size="14.00">6</text>
</g>
<!-- mouseup&#45;&gt;w6 -->
<g id="edge12" class="edge"><title>mouseup&#45;&gt;w6</title>
<path fill="none" stroke="black" stroke-dasharray="5,2" d="M201.446,-879.175C202.118,-869.503 202.914,-858.043 203.582,-848.421"/>
<polygon fill="black" stroke="black" points="207.091,-848.408 204.292,-838.189 200.108,-847.923 207.091,-848.408"/>
</g>
<!-- w6&#45;&gt;down -->
<g id="edge13" class="edge"><title>w6&#45;&gt;down</title>
<path fill="none" stroke="black" stroke-dasharray="5,2" d="M216.257,-821.712C240.121,-812.621 297.133,-790.902 340.202,-774.495"/>
<polygon fill="black" stroke="black" points="341.615,-777.702 349.714,-770.871 339.123,-771.16 341.615,-777.702"/>
</g>
<!-- pushed -->
<g id="node16" class="node"><title>pushed</title>
<polygon fill="none" stroke="black" points="298.194,-747.641 279.736,-768.014 205,-777.081 130.264,-768.014 111.806,-747.641 163.525,-731.304 246.475,-731.304 298.194,-747.641"/>
<text text-anchor="middle" x="205" y="-750.474" font-family="Avenir Next" font-size="14.00">pushed (Button)</text>
</g>
<!-- w6&#45;&gt;pushed -->
<g id="edge14" class="edge"><title>w6&#45;&gt;pushed</title>
<path fill="none" stroke="black" stroke-dasharray="5,2" d="M205,-815.989C205,-808.512 205,-797.833 205,-787.439"/>
<polygon fill="black" stroke="black" points="208.5,-787.271 205,-777.271 201.5,-787.271 208.5,-787.271"/>
</g>
<!-- pushed&#45;&gt;ppushed -->
<g id="edge15" class="edge"><title>pushed&#45;&gt;ppushed</title>
<path fill="none" stroke="#f94179" stroke-dasharray="5,2" d="M217.371,-731.113C229.962,-709.857 249.611,-676.682 263.94,-652.49"/>
<polygon fill="#f94179" stroke="#f94179" points="267.061,-654.09 269.146,-643.702 261.038,-650.522 267.061,-654.09"/>
</g>
<!-- pushed&#45;&gt;mpushed -->
<g id="edge16" class="edge"><title>pushed&#45;&gt;mpushed</title>
<path fill="none" stroke="#f94179" stroke-dasharray="5,2" d="M187.166,-731.113C168.556,-709.318 139.248,-674.993 118.478,-650.668"/>
<polygon fill="#f94179" stroke="#f94179" points="120.945,-648.167 111.79,-642.835 115.622,-652.713 120.945,-648.167"/>
</g>
<!-- w7&#45;&gt;t -->
<g id="edge18" class="edge"><title>w7&#45;&gt;t</title>
<path fill="none" stroke="black" d="M394,-555.862C394,-542.574 394,-518.542 394,-498 394,-498 394,-498 394,-128 394,-94.2637 377.568,-57.7633 366.315,-36.722"/>
<polygon fill="black" stroke="black" points="369.363,-34.9999 361.444,-27.9605 363.245,-38.4013 369.363,-34.9999"/>
<text text-anchor="middle" x="446.031" y="-359.949" font-family="Avenir Next" font-size="14.00">Button/Plus, &quot;&quot;</text>
<text text-anchor="middle" x="446.031" y="-337" font-family="Avenir Next" font-size="14.00">Button/Minus, &quot;&quot;</text>
</g>
<!-- w8&#45;&gt;t -->
<g id="edge22" class="edge"><title>w8&#45;&gt;t</title>
<path fill="none" stroke="black" d="M139.61,-117.975C135.002,-102.286 128.986,-71.8801 144.456,-54 168.973,-25.663 285.754,-20.2495 334.524,-19.2298"/>
<polygon fill="black" stroke="black" points="334.666,-22.728 344.607,-19.0627 334.55,-15.729 334.666,-22.728"/>
<text text-anchor="middle" x="224.772" y="-85.9488" font-family="Avenir Next" font-size="14.00">Button/Plus, &quot;&quot;</text>
<text text-anchor="middle" x="224.772" y="-63" font-family="Avenir Next" font-size="14.00">Button/Minus, &quot;disabled&quot;</text>
</g>
<!-- enabled -->
<g id="node19" class="node"><title>enabled</title>
<ellipse fill="none" stroke="black" cx="87" cy="-351" rx="87.3051" ry="21.7689"/>
<text text-anchor="middle" x="87" y="-348.474" font-family="Avenir Next" font-size="14.00">enabled (Button)</text>
</g>
<!-- enabled&#45;&gt;menabled -->
<g id="edge20" class="edge"><title>enabled&#45;&gt;menabled</title>
<path fill="none" stroke="#f94179" d="M101.92,-329.219C112.086,-315.924 126.364,-298.827 141.272,-286 147.678,-280.489 154.924,-275.234 162.19,-270.452"/>
<polygon fill="#f94179" stroke="#f94179" points="164.109,-273.379 170.68,-265.068 160.361,-267.468 164.109,-273.379"/>
<text text-anchor="middle" x="177.364" y="-295.474" font-family="Avenir Next" font-size="14.00">Minus, true</text>
</g>
<!-- enabled&#45;&gt;w8 -->
<g id="edge19" class="edge"><title>enabled&#45;&gt;w8</title>
<path fill="none" stroke="black" d="M70.1097,-329.218C51.4433,-303.569 26.0303,-258.831 42.272,-222 58.7228,-184.695 98.5975,-155.96 122.954,-141.138"/>
<polygon fill="black" stroke="black" points="124.887,-144.062 131.742,-135.984 121.346,-138.024 124.887,-144.062"/>
<text text-anchor="middle" x="78.364" y="-253.949" font-family="Avenir Next" font-size="14.00">Plus, true</text>
<text text-anchor="middle" x="78.364" y="-231" font-family="Avenir Next" font-size="14.00">Minus, true</text>
</g>
</g>
</svg>
