<?xml version="1.0" encoding="UTF-8" standalone="no"?>
<!DOCTYPE svg PUBLIC "-//W3C//DTD SVG 1.1//EN"
 "http://www.w3.org/Graphics/SVG/1.1/DTD/svg11.dtd">
<!-- Generated by graphviz version 2.34.0 (20130907.0228)
 -->
<!-- Title: bender Pages: 1 -->
<svg width="528pt" height="440pt"
 viewBox="0.00 0.00 528.00 440.00" xmlns="http://www.w3.org/2000/svg" xmlns:xlink="http://www.w3.org/1999/xlink">
<g id="graph0" class="graph" transform="scale(1 1) rotate(0) translate(4 436)">
<title>bender</title>
<polygon fill="white" stroke="white" points="-4,4 -4,-436 524,-436 524,4 -4,4"/>
<!-- mouseup -->
<g id="node1" class="node"><title>mouseup</title>
<polygon fill="none" stroke="black" points="355.21,-401.641 335.758,-422.014 257,-431.081 178.242,-422.014 158.79,-401.641 213.293,-385.304 300.707,-385.304 355.21,-401.641"/>
<text text-anchor="middle" x="257" y="-404.474" font-family="Avenir Next" font-size="14.00">mouseup (frame)</text>
</g>
<!-- w6 -->
<g id="node5" class="node"><title>w6</title>
<polygon fill="none" stroke="black" points="268,-346 246,-346 246,-324 268,-324 268,-346"/>
<text text-anchor="middle" x="257" y="-332.474" font-family="Avenir Next" font-size="14.00">6</text>
</g>
<!-- mouseup&#45;&gt;w6 -->
<g id="edge1" class="edge"><title>mouseup&#45;&gt;w6</title>
<path fill="none" stroke="black" d="M257,-384.998C257,-375.836 257,-365.142 257,-356.087"/>
<polygon fill="black" stroke="black" points="260.5,-356.067 257,-346.067 253.5,-356.067 260.5,-356.067"/>
</g>
<!-- down -->
<g id="node2" class="node"><title>down</title>
<ellipse fill="none" stroke="black" cx="75" cy="-263" rx="75.3376" ry="21.7689"/>
<text text-anchor="middle" x="75" y="-260.474" font-family="Avenir Next" font-size="14.00">down (Button)</text>
</g>
<!-- w7 -->
<g id="node6" class="node"><title>w7</title>
<polygon fill="none" stroke="black" points="176,-188 154,-188 154,-166 176,-166 176,-188"/>
<text text-anchor="middle" x="165" y="-174.474" font-family="Avenir Next" font-size="14.00">7</text>
</g>
<!-- down&#45;&gt;w7 -->
<g id="edge4" class="edge"><title>down&#45;&gt;w7</title>
<path fill="none" stroke="black" d="M96.7865,-241.666C112.062,-227.409 132.251,-208.566 146.695,-195.085"/>
<polygon fill="black" stroke="black" points="149.137,-197.593 154.06,-188.211 144.361,-192.475 149.137,-197.593"/>
</g>
<!-- enabled -->
<g id="node3" class="node"><title>enabled</title>
<ellipse fill="none" stroke="black" cx="255" cy="-263" rx="87.3051" ry="21.7689"/>
<text text-anchor="middle" x="255" y="-260.474" font-family="Avenir Next" font-size="14.00">enabled (Button)</text>
</g>
<!-- enabled&#45;&gt;w7 -->
<g id="edge5" class="edge"><title>enabled&#45;&gt;w7</title>
<path fill="none" stroke="black" d="M233.214,-241.666C217.938,-227.409 197.749,-208.566 183.305,-195.085"/>
<polygon fill="black" stroke="black" points="185.639,-192.475 175.94,-188.211 180.863,-197.593 185.639,-192.475"/>
</g>
<!-- pushed -->
<g id="node4" class="node"><title>pushed</title>
<polygon fill="none" stroke="black" points="519.269,-257.641 503.569,-278.014 440,-287.081 376.431,-278.014 360.731,-257.641 404.722,-241.304 475.278,-241.304 519.269,-257.641"/>
<text text-anchor="middle" x="440" y="-260.474" font-family="Avenir Next" font-size="14.00">push (Button)</text>
</g>
<!-- ppushed -->
<g id="node8" class="node"><title>ppushed</title>
<polygon fill="none" stroke="black" points="520.345,-171.641 504.432,-192.014 440,-201.081 375.568,-192.014 359.655,-171.641 404.243,-155.304 475.757,-155.304 520.345,-171.641"/>
<text text-anchor="middle" x="440" y="-174.474" font-family="Avenir Next" font-size="14.00">pushed (Plus)</text>
</g>
<!-- pushed&#45;&gt;ppushed -->
<g id="edge9" class="edge"><title>pushed&#45;&gt;ppushed</title>
<path fill="none" stroke="#f94179" d="M440,-241.236C440,-232.221 440,-221.436 440,-211.346"/>
<polygon fill="#f94179" stroke="#f94179" points="443.5,-211.188 440,-201.188 436.5,-211.188 443.5,-211.188"/>
</g>
<!-- w6&#45;&gt;down -->
<g id="edge2" class="edge"><title>w6&#45;&gt;down</title>
<path fill="none" stroke="black" d="M245.889,-329.727C223.049,-320.942 169.517,-300.353 128.406,-284.541"/>
<polygon fill="black" stroke="black" points="129.635,-281.264 119.045,-280.941 127.122,-287.797 129.635,-281.264"/>
</g>
<!-- w6&#45;&gt;pushed -->
<g id="edge3" class="edge"><title>w6&#45;&gt;pushed</title>
<path fill="none" stroke="black" d="M268.172,-329.727C291.138,-320.942 344.964,-300.353 386.301,-284.541"/>
<polygon fill="black" stroke="black" points="387.623,-287.782 395.713,-280.941 385.122,-281.244 387.623,-287.782"/>
</g>
<!-- t -->
<g id="node7" class="node"><title>t</title>
<polygon fill="none" stroke="black" points="165,-116 147,-89 183,-89 165,-116"/>
</g>
<!-- w7&#45;&gt;t -->
<g id="edge6" class="edge"><title>w7&#45;&gt;t</title>
<path fill="none" stroke="black" d="M165,-165.934C165,-155.863 165,-139.929 165,-126.134"/>
<polygon fill="black" stroke="black" points="168.5,-126.134 165,-116.134 161.5,-126.134 168.5,-126.134"/>
</g>
<!-- w1 -->
<g id="node9" class="node"><title>w1</title>
<polygon fill="none" stroke="black" points="451,-109 429,-109 429,-87 451,-87 451,-109"/>
<text text-anchor="middle" x="440" y="-95.4744" font-family="Avenir Next" font-size="14.00">1</text>
</g>
<!-- ppushed&#45;&gt;w1 -->
<g id="edge7" class="edge"><title>ppushed&#45;&gt;w1</title>
<path fill="none" stroke="black" d="M440,-154.959C440,-143.987 440,-130.615 440,-119.695"/>
<polygon fill="black" stroke="black" points="443.5,-119.405 440,-109.405 436.5,-119.405 443.5,-119.405"/>
</g>
<!-- n -->
<g id="node10" class="node"><title>n</title>
<ellipse fill="none" stroke="black" cx="440" cy="-22" rx="49.2362" ry="21.7689"/>
<text text-anchor="middle" x="440" y="-19.4744" font-family="Avenir Next" font-size="14.00">n (Panel)</text>
</g>
<!-- w1&#45;&gt;n -->
<g id="edge8" class="edge"><title>w1&#45;&gt;n</title>
<path fill="none" stroke="black" d="M440,-86.7106C440,-78.3187 440,-66.0015 440,-54.4286"/>
<polygon fill="black" stroke="black" points="443.5,-54.1435 440,-44.1435 436.5,-54.1436 443.5,-54.1435"/>
</g>
</g>
</svg>
