<?xml version="1.0" encoding="UTF-8" standalone="no"?>
<!DOCTYPE svg PUBLIC "-//W3C//DTD SVG 1.1//EN"
 "http://www.w3.org/Graphics/SVG/1.1/DTD/svg11.dtd">
<!-- Generated by graphviz version 2.34.0 (20130907.0228)
 -->
<!-- Title: bender Pages: 1 -->
<svg width="545pt" height="588pt"
 viewBox="0.00 0.00 545.00 588.00" xmlns="http://www.w3.org/2000/svg" xmlns:xlink="http://www.w3.org/1999/xlink">
<g id="graph0" class="graph" transform="scale(1 1) rotate(0) translate(4 584)">
<title>bender</title>
<polygon fill="white" stroke="white" points="-4,4 -4,-584 541,-584 541,4 -4,4"/>
<!-- t -->
<g id="node1" class="node"><title>t</title>
<polygon fill="none" stroke="black" points="243,-36 225,-9 261,-9 243,-36"/>
</g>
<!-- pushed -->
<g id="node2" class="node"><title>pushed</title>
<polygon fill="none" stroke="black" points="433.3,-355.631 410.86,-391.25 320,-407.102 229.14,-391.25 206.7,-355.631 269.577,-327.067 370.423,-327.067 433.3,-355.631"/>
<text text-anchor="middle" x="320" y="-373.949" font-family="Avenir Next" font-size="14.00">pushed</text>
<text text-anchor="middle" x="320" y="-351" font-family="Avenir Next" font-size="14.00">(Button, Plus, Minus)</text>
</g>
<!-- n -->
<g id="node3" class="node"><title>n</title>
<ellipse fill="none" stroke="black" cx="312" cy="-264" rx="49.2362" ry="21.7689"/>
<text text-anchor="middle" x="312" y="-261.474" font-family="Avenir Next" font-size="14.00">n (Panel)</text>
</g>
<!-- pushed&#45;&gt;n -->
<g id="edge1" class="edge"><title>pushed&#45;&gt;n</title>
<path fill="none" stroke="black" d="M316.998,-326.854C316.178,-316.701 315.297,-305.806 314.508,-296.033"/>
<polygon fill="black" stroke="black" points="317.988,-295.641 313.693,-285.956 311.01,-296.205 317.988,-295.641"/>
</g>
<!-- w3 -->
<g id="node4" class="node"><title>w3</title>
<polygon fill="none" stroke="black" points="308,-206 286,-206 286,-184 308,-184 308,-206"/>
<text text-anchor="middle" x="297" y="-192.474" font-family="Avenir Next" font-size="14.00">3</text>
</g>
<!-- n&#45;&gt;w3 -->
<g id="edge2" class="edge"><title>n&#45;&gt;w3</title>
<path fill="none" stroke="black" d="M307.336,-242.168C305.47,-233.835 303.33,-224.275 301.483,-216.024"/>
<polygon fill="black" stroke="black" points="304.871,-215.138 299.271,-206.144 298.04,-216.667 304.871,-215.138"/>
</g>
<!-- w3&#45;&gt;t -->
<g id="edge3" class="edge"><title>w3&#45;&gt;t</title>
<path fill="none" stroke="black" d="M285.852,-191.991C266.223,-187.785 225.968,-176.017 209,-148 191.502,-119.108 199.497,-104.413 209,-72 213.097,-58.0248 222.137,-44.2421 229.867,-34.2361"/>
<polygon fill="black" stroke="black" points="232.805,-36.1716 236.417,-26.2114 227.382,-31.7451 232.805,-36.1716"/>
</g>
<!-- enabled -->
<g id="node5" class="node"><title>enabled</title>
<ellipse fill="none" stroke="black" cx="297" cy="-110" rx="79.2326" ry="38.2232"/>
<text text-anchor="middle" x="297" y="-118.949" font-family="Avenir Next" font-size="14.00">enabled</text>
<text text-anchor="middle" x="297" y="-96" font-family="Avenir Next" font-size="14.00">(Button, Minus)</text>
</g>
<!-- w3&#45;&gt;enabled -->
<g id="edge4" class="edge"><title>w3&#45;&gt;enabled</title>
<path fill="none" stroke="black" d="M297,-183.823C297,-177.204 297,-168.045 297,-158.452"/>
<polygon fill="black" stroke="black" points="300.5,-158.387 297,-148.387 293.5,-158.387 300.5,-158.387"/>
</g>
<!-- enabled&#45;&gt;t -->
<g id="edge11" class="edge"><title>enabled&#45;&gt;t</title>
<path fill="none" stroke="black" d="M275.503,-73.171C268.014,-60.6894 259.935,-47.2247 253.705,-36.8417"/>
<polygon fill="black" stroke="black" points="256.524,-34.738 248.378,-27.9638 250.522,-38.3395 256.524,-34.738"/>
</g>
<!-- label -->
<g id="node6" class="node"><title>label</title>
<ellipse fill="none" stroke="black" cx="466" cy="-110" rx="71.4669" ry="21.7689"/>
<text text-anchor="middle" x="466" y="-107.474" font-family="Avenir Next" font-size="14.00">label (Button)</text>
</g>
<!-- label&#45;&gt;t -->
<g id="edge5" class="edge"><title>label&#45;&gt;t</title>
<path fill="none" stroke="black" d="M428.74,-91.3075C415.076,-84.9979 399.425,-77.9778 385,-72 341.435,-53.9468 289.276,-35.1964 261.905,-25.5722"/>
<polygon fill="black" stroke="black" points="262.988,-22.2432 252.394,-22.2449 260.677,-28.8506 262.988,-22.2432"/>
</g>
<!-- mousedown -->
<g id="node7" class="node"><title>mousedown</title>
<polygon fill="none" stroke="black" points="226.108,-463.641 203.706,-484.014 113,-493.081 22.2945,-484.014 -0.107917,-463.641 62.6622,-447.304 163.338,-447.304 226.108,-463.641"/>
<text text-anchor="middle" x="113" y="-466.474" font-family="Avenir Next" font-size="14.00">mousedown (frame)</text>
</g>
<!-- down -->
<g id="node8" class="node"><title>down</title>
<ellipse fill="none" stroke="black" cx="113" cy="-365" rx="75.3376" ry="21.7689"/>
<text text-anchor="middle" x="113" y="-362.474" font-family="Avenir Next" font-size="14.00">down (Button)</text>
</g>
<!-- mousedown&#45;&gt;down -->
<g id="edge6" class="edge"><title>mousedown&#45;&gt;down</title>
<path fill="none" stroke="black" d="M113,-446.866C113,-432.505 113,-413.268 113,-397.159"/>
<polygon fill="black" stroke="black" points="116.5,-397.107 113,-387.107 109.5,-397.107 116.5,-397.107"/>
</g>
<!-- down&#45;&gt;t -->
<g id="edge10" class="edge"><title>down&#45;&gt;t</title>
<path fill="none" stroke="black" d="M115.539,-342.931C122.241,-293.079 143.554,-165.095 195,-72 203.528,-56.5677 217.368,-41.9453 228.001,-31.9843"/>
<polygon fill="black" stroke="black" points="230.591,-34.3623 235.678,-25.0688 225.906,-29.1614 230.591,-34.3623"/>
</g>
<!-- mouseup -->
<g id="node9" class="node"><title>mouseup</title>
<polygon fill="none" stroke="black" points="385.21,-549.641 365.758,-570.014 287,-579.081 208.242,-570.014 188.79,-549.641 243.293,-533.304 330.707,-533.304 385.21,-549.641"/>
<text text-anchor="middle" x="287" y="-552.474" font-family="Avenir Next" font-size="14.00">mouseup (frame)</text>
</g>
<!-- w6 -->
<g id="node10" class="node"><title>w6</title>
<polygon fill="none" stroke="black" points="298,-480 276,-480 276,-458 298,-458 298,-480"/>
<text text-anchor="middle" x="287" y="-466.474" font-family="Avenir Next" font-size="14.00">6</text>
</g>
<!-- mouseup&#45;&gt;w6 -->
<g id="edge7" class="edge"><title>mouseup&#45;&gt;w6</title>
<path fill="none" stroke="black" d="M287,-533.236C287,-520.159 287,-503.356 287,-490.357"/>
<polygon fill="black" stroke="black" points="290.5,-490.104 287,-480.104 283.5,-490.104 290.5,-490.104"/>
</g>
<!-- w6&#45;&gt;pushed -->
<g id="edge9" class="edge"><title>w6&#45;&gt;pushed</title>
<path fill="none" stroke="black" d="M290.285,-457.847C293.61,-447.569 299.002,-430.904 304.286,-414.571"/>
<polygon fill="black" stroke="black" points="307.62,-415.636 307.368,-405.044 300.96,-413.481 307.62,-415.636"/>
</g>
<!-- w6&#45;&gt;down -->
<g id="edge8" class="edge"><title>w6&#45;&gt;down</title>
<path fill="none" stroke="black" d="M275.851,-461.464C251.723,-447.32 193.633,-413.267 153.778,-389.904"/>
<polygon fill="black" stroke="black" points="155.468,-386.838 145.071,-384.8 151.928,-392.877 155.468,-386.838"/>
</g>
</g>
</svg>
