<?xml version="1.0" encoding="UTF-8" standalone="no"?>
<!DOCTYPE svg PUBLIC "-//W3C//DTD SVG 1.1//EN"
 "http://www.w3.org/Graphics/SVG/1.1/DTD/svg11.dtd">
<!-- Generated by graphviz version 2.34.0 (20130907.0228)
 -->
<!-- Title: bender Pages: 1 -->
<svg width="703pt" height="858pt"
 viewBox="0.00 0.00 703.00 858.00" xmlns="http://www.w3.org/2000/svg" xmlns:xlink="http://www.w3.org/1999/xlink">
<g id="graph0" class="graph" transform="scale(1 1) rotate(0) translate(4 854)">
<title>bender</title>
<polygon fill="white" stroke="white" points="-4,4 -4,-854 699,-854 699,4 -4,4"/>
<!-- t -->
<g id="node1" class="node"><title>t</title>
<polygon fill="none" stroke="black" points="153,-36 135,-9 171,-9 153,-36"/>
</g>
<!-- n -->
<g id="node2" class="node"><title>n</title>
<ellipse fill="none" stroke="black" cx="172" cy="-462" rx="49.2362" ry="21.7689"/>
<text text-anchor="middle" x="172" y="-459.474" font-family="Avenir Next" font-size="14.00">n (Panel)</text>
</g>
<!-- w3 -->
<g id="node3" class="node"><title>w3</title>
<polygon fill="none" stroke="black" points="183,-369 161,-369 161,-347 183,-347 183,-369"/>
<text text-anchor="middle" x="172" y="-355.474" font-family="Avenir Next" font-size="14.00">3</text>
</g>
<!-- n&#45;&gt;w3 -->
<g id="edge6" class="edge"><title>n&#45;&gt;w3</title>
<path fill="none" stroke="black" d="M172,-439.866C172,-422.155 172,-397.024 172,-379.495"/>
<polygon fill="black" stroke="black" points="175.5,-379.228 172,-369.228 168.5,-379.228 175.5,-379.228"/>
<text text-anchor="middle" x="177.81" y="-407.474" font-family="Avenir Next" font-size="14.00"> 9</text>
</g>
<!-- w3&#45;&gt;t -->
<g id="edge16" class="edge"><title>w3&#45;&gt;t</title>
<path fill="none" stroke="black" d="M160.867,-352.093C138.959,-341.738 90.7534,-315.324 72,-276 37.5638,-203.791 40.4524,-169.517 72,-96 85.0191,-65.6608 116.516,-41.635 136.176,-28.9335"/>
<polygon fill="black" stroke="black" points="138.083,-31.8694 144.744,-23.6299 134.399,-25.9176 138.083,-31.8694"/>
<text text-anchor="middle" x="60.87" y="-167.474" font-family="Avenir Next" font-size="14.00"> 21</text>
</g>
<!-- enabled -->
<g id="node4" class="node"><title>enabled</title>
<ellipse fill="none" stroke="black" cx="322" cy="-238" rx="79.2326" ry="38.2232"/>
<text text-anchor="middle" x="322" y="-246.949" font-family="Avenir Next" font-size="14.00">enabled</text>
<text text-anchor="middle" x="322" y="-224" font-family="Avenir Next" font-size="14.00">(Button, Minus)</text>
</g>
<!-- w3&#45;&gt;enabled -->
<g id="edge8" class="edge"><title>w3&#45;&gt;enabled</title>
<path fill="none" stroke="black" d="M183.274,-348.131C202.243,-333.209 241.601,-302.247 273.566,-277.102"/>
<polygon fill="black" stroke="black" points="275.82,-279.781 281.516,-270.847 271.492,-274.279 275.82,-279.781"/>
<text text-anchor="middle" x="260.87" y="-303.474" font-family="Avenir Next" font-size="14.00"> 11</text>
</g>
<!-- w7 -->
<g id="node11" class="node"><title>w7</title>
<polygon fill="none" stroke="black" points="333,-129 311,-129 311,-107 333,-107 333,-129"/>
<text text-anchor="middle" x="322" y="-115.474" font-family="Avenir Next" font-size="14.00">7</text>
</g>
<!-- enabled&#45;&gt;w7 -->
<g id="edge13" class="edge"><title>enabled&#45;&gt;w7</title>
<path fill="none" stroke="black" d="M322,-199.664C322,-179.695 322,-155.881 322,-139.327"/>
<polygon fill="black" stroke="black" points="325.5,-139.163 322,-129.163 318.5,-139.163 325.5,-139.163"/>
<text text-anchor="middle" x="331.87" y="-167.474" font-family="Avenir Next" font-size="14.00"> 17</text>
</g>
<!-- label -->
<g id="node5" class="node"><title>label</title>
<ellipse fill="none" stroke="black" cx="153" cy="-118" rx="71.4669" ry="21.7689"/>
<text text-anchor="middle" x="153" y="-115.474" font-family="Avenir Next" font-size="14.00">label (Button)</text>
</g>
<!-- label&#45;&gt;t -->
<g id="edge14" class="edge"><title>label&#45;&gt;t</title>
<path fill="none" stroke="black" d="M153,-95.7355C153,-81.2819 153,-62.0279 153,-46.4224"/>
<polygon fill="black" stroke="black" points="156.5,-46.3054 153,-36.3054 149.5,-46.3054 156.5,-46.3054"/>
<text text-anchor="middle" x="162.87" y="-63.4744" font-family="Avenir Next" font-size="14.00"> 19</text>
</g>
<!-- mousedown -->
<g id="node6" class="node"><title>mousedown</title>
<polygon fill="none" stroke="black" points="527.108,-709.641 504.706,-730.014 414,-739.081 323.294,-730.014 300.892,-709.641 363.662,-693.304 464.338,-693.304 527.108,-709.641"/>
<text text-anchor="middle" x="414" y="-712.474" font-family="Avenir Next" font-size="14.00">mousedown (frame)</text>
</g>
<!-- down -->
<g id="node7" class="node"><title>down</title>
<ellipse fill="none" stroke="black" cx="437" cy="-587" rx="75.3376" ry="21.7689"/>
<text text-anchor="middle" x="437" y="-584.474" font-family="Avenir Next" font-size="14.00">down (Button)</text>
</g>
<!-- mousedown&#45;&gt;down -->
<g id="edge9" class="edge"><title>mousedown&#45;&gt;down</title>
<path fill="none" stroke="black" d="M417.798,-693.194C421.471,-673.07 427.085,-642.316 431.296,-619.25"/>
<polygon fill="black" stroke="black" points="434.767,-619.724 433.12,-609.258 427.881,-618.467 434.767,-619.724"/>
<text text-anchor="middle" x="434.87" y="-657.474" font-family="Avenir Next" font-size="14.00"> 13</text>
</g>
<!-- down&#45;&gt;w7 -->
<g id="edge12" class="edge"><title>down&#45;&gt;w7</title>
<path fill="none" stroke="black" d="M437,-565.107C437,-540.636 437,-498.875 437,-463 437,-463 437,-463 437,-237 437,-183.337 375.247,-144.958 342.245,-128.279"/>
<polygon fill="black" stroke="black" points="343.552,-125.022 333.027,-123.806 340.496,-131.32 343.552,-125.022"/>
<text text-anchor="middle" x="446.87" y="-355.474" font-family="Avenir Next" font-size="14.00"> 16</text>
</g>
<!-- mouseup -->
<g id="node8" class="node"><title>mouseup</title>
<polygon fill="none" stroke="black" points="347.21,-819.641 327.758,-840.014 249,-849.081 170.242,-840.014 150.79,-819.641 205.293,-803.304 292.707,-803.304 347.21,-819.641"/>
<text text-anchor="middle" x="249" y="-822.474" font-family="Avenir Next" font-size="14.00">mouseup (frame)</text>
</g>
<!-- w6 -->
<g id="node9" class="node"><title>w6</title>
<polygon fill="none" stroke="black" points="260,-726 238,-726 238,-704 260,-704 260,-726"/>
<text text-anchor="middle" x="249" y="-712.474" font-family="Avenir Next" font-size="14.00">6</text>
</g>
<!-- mouseup&#45;&gt;w6 -->
<g id="edge2" class="edge"><title>mouseup&#45;&gt;w6</title>
<path fill="none" stroke="black" d="M249,-803.177C249,-783.808 249,-755.142 249,-736.032"/>
<polygon fill="black" stroke="black" points="252.5,-736.027 249,-726.027 245.5,-736.027 252.5,-736.027"/>
<text text-anchor="middle" x="254.81" y="-767.474" font-family="Avenir Next" font-size="14.00"> 1</text>
</g>
<!-- w6&#45;&gt;down -->
<g id="edge10" class="edge"><title>w6&#45;&gt;down</title>
<path fill="none" stroke="black" d="M260.197,-706.495C287.098,-688.466 356.348,-642.054 399.766,-612.955"/>
<polygon fill="black" stroke="black" points="401.727,-615.854 408.085,-607.379 397.83,-610.039 401.727,-615.854"/>
<text text-anchor="middle" x="352.87" y="-657.474" font-family="Avenir Next" font-size="14.00"> 14</text>
</g>
<!-- pushed -->
<g id="node10" class="node"><title>pushed</title>
<polygon fill="none" stroke="black" points="226.3,-577.631 203.86,-613.25 113,-629.102 22.1404,-613.25 -0.300045,-577.631 62.5767,-549.067 163.423,-549.067 226.3,-577.631"/>
<text text-anchor="middle" x="113" y="-595.949" font-family="Avenir Next" font-size="14.00">pushed</text>
<text text-anchor="middle" x="113" y="-573" font-family="Avenir Next" font-size="14.00">(Button, Plus, Minus)</text>
</g>
<!-- w6&#45;&gt;pushed -->
<g id="edge3" class="edge"><title>w6&#45;&gt;pushed</title>
<path fill="none" stroke="black" d="M237.871,-703.689C220.575,-687.665 186.292,-655.903 158.017,-629.707"/>
<polygon fill="black" stroke="black" points="160.312,-627.062 150.597,-622.833 155.554,-632.196 160.312,-627.062"/>
<text text-anchor="middle" x="207.81" y="-657.474" font-family="Avenir Next" font-size="14.00"> 2</text>
</g>
<!-- pushed&#45;&gt;n -->
<g id="edge4" class="edge"><title>pushed&#45;&gt;n</title>
<path fill="none" stroke="black" d="M130.862,-548.762C139.424,-530.912 149.544,-509.814 157.604,-493.011"/>
<polygon fill="black" stroke="black" points="160.915,-494.201 162.085,-483.671 154.604,-491.174 160.915,-494.201"/>
<text text-anchor="middle" x="158.81" y="-511.474" font-family="Avenir Next" font-size="14.00"> 8</text>
</g>
<!-- w7&#45;&gt;t -->
<g id="edge15" class="edge"><title>w7&#45;&gt;t</title>
<path fill="none" stroke="black" d="M310.911,-110.57C282.172,-93.9045 205.103,-49.2133 170.381,-29.0791"/>
<polygon fill="black" stroke="black" points="171.831,-25.8737 161.424,-23.885 168.319,-31.9292 171.831,-25.8737"/>
<text text-anchor="middle" x="261.87" y="-63.4744" font-family="Avenir Next" font-size="14.00"> 20</text>
</g>
<!-- init_label -->
<g id="node12" class="node"><title>init_label</title>
<ellipse fill="none" stroke="#ff6a4d" cx="153" cy="-238" rx="71.4669" ry="21.7689"/>
<text text-anchor="middle" x="153" y="-235.474" font-family="Avenir Next" font-size="14.00" fill="#ff6a4d">label (Button)</text>
</g>
<!-- init_label&#45;&gt;label -->
<g id="edge1" class="edge"><title>init_label&#45;&gt;label</title>
<path fill="none" stroke="#ff6a4d" d="M153,-215.904C153,-197.614 153,-170.896 153,-150.145"/>
<polygon fill="#ff6a4d" stroke="#ff6a4d" points="156.5,-149.913 153,-139.913 149.5,-149.913 156.5,-149.913"/>
<text text-anchor="middle" x="164.69" y="-167.474" font-family="Avenir Next" font-size="14.00" fill="#ff6a4d"> 0.5</text>
</g>
<!-- init_enabled -->
<g id="node13" class="node"><title>init_enabled</title>
<ellipse fill="none" stroke="#ff6a4d" cx="314" cy="-358" rx="87.3051" ry="21.7689"/>
<text text-anchor="middle" x="314" y="-355.474" font-family="Avenir Next" font-size="14.00" fill="#ff6a4d">enabled (Button)</text>
</g>
<!-- init_enabled&#45;&gt;enabled -->
<g id="edge7" class="edge"><title>init_enabled&#45;&gt;enabled</title>
<path fill="none" stroke="#ff6a4d" d="M315.43,-335.904C316.361,-322.18 317.613,-303.71 318.774,-286.577"/>
<polygon fill="#ff6a4d" stroke="#ff6a4d" points="322.298,-286.35 319.482,-276.136 315.314,-285.876 322.298,-286.35"/>
<text text-anchor="middle" x="333.75" y="-303.474" font-family="Avenir Next" font-size="14.00" fill="#ff6a4d"> 11.5</text>
</g>
<!-- init_n -->
<g id="node14" class="node"><title>init_n</title>
<ellipse fill="none" stroke="#ff6a4d" cx="294" cy="-587" rx="49.2362" ry="21.7689"/>
<text text-anchor="middle" x="294" y="-584.474" font-family="Avenir Next" font-size="14.00" fill="#ff6a4d">n (Panel)</text>
</g>
<!-- init_n&#45;&gt;n -->
<g id="edge5" class="edge"><title>init_n&#45;&gt;n</title>
<path fill="none" stroke="#ff6a4d" d="M274.938,-566.781C254.377,-546.052 221.496,-512.902 198.443,-489.66"/>
<polygon fill="#ff6a4d" stroke="#ff6a4d" points="200.858,-487.125 191.331,-482.49 195.888,-492.054 200.858,-487.125"/>
<text text-anchor="middle" x="244.69" y="-511.474" font-family="Avenir Next" font-size="14.00" fill="#ff6a4d"> 8.5</text>
</g>
<!-- init_down -->
<g id="node15" class="node"><title>init_down</title>
<ellipse fill="none" stroke="#ff6a4d" cx="620" cy="-715" rx="75.3376" ry="21.7689"/>
<text text-anchor="middle" x="620" y="-712.474" font-family="Avenir Next" font-size="14.00" fill="#ff6a4d">down (Button)</text>
</g>
<!-- init_down&#45;&gt;down -->
<g id="edge11" class="edge"><title>init_down&#45;&gt;down</title>
<path fill="none" stroke="#ff6a4d" d="M591.807,-694.589C560.105,-672.761 508.515,-637.24 473.694,-613.265"/>
<polygon fill="#ff6a4d" stroke="#ff6a4d" points="475.446,-610.222 465.225,-607.433 471.476,-615.987 475.446,-610.222"/>
<text text-anchor="middle" x="570.75" y="-657.474" font-family="Avenir Next" font-size="14.00" fill="#ff6a4d"> 14.5</text>
</g>
</g>
</svg>
