<?xml version="1.0" encoding="UTF-8" standalone="no"?>
<!DOCTYPE svg PUBLIC "-//W3C//DTD SVG 1.1//EN"
 "http://www.w3.org/Graphics/SVG/1.1/DTD/svg11.dtd">
<!-- Generated by graphviz version 2.34.0 (20130907.0228)
 -->
<!-- Title: bender Pages: 1 -->
<svg width="596pt" height="932pt"
 viewBox="0.00 0.00 596.00 932.00" xmlns="http://www.w3.org/2000/svg" xmlns:xlink="http://www.w3.org/1999/xlink">
<g id="graph0" class="graph" transform="scale(1 1) rotate(0) translate(4 928)">
<title>bender</title>
<polygon fill="white" stroke="white" points="-4,4 -4,-928 592,-928 592,4 -4,4"/>
<!-- t -->
<g id="node1" class="node"><title>t</title>
<polygon fill="none" stroke="black" points="217,-36 199,-9 235,-9 217,-36"/>
</g>
<!-- w4 -->
<g id="node2" class="node"><title>w4</title>
<polygon fill="none" stroke="black" points="108,-118 86,-118 86,-96 108,-96 108,-118"/>
<text text-anchor="middle" x="97" y="-104.474" font-family="Avenir Next" font-size="14.00">4</text>
</g>
<!-- w4&#45;&gt;t -->
<g id="edge19" class="edge"><title>w4&#45;&gt;t</title>
<path fill="none" stroke="black" d="M108.074,-97.9712C129.374,-82.5288 176.127,-48.633 200.884,-30.6844"/>
<polygon fill="black" stroke="black" points="203.154,-33.3614 209.196,-24.658 199.045,-27.6941 203.154,-33.3614"/>
<text text-anchor="middle" x="177.87" y="-63.4744" font-family="Avenir Next" font-size="14.00"> 19</text>
</g>
<!-- label -->
<g id="node3" class="node"><title>label</title>
<ellipse fill="none" stroke="black" cx="71" cy="-200" rx="71.4669" ry="21.7689"/>
<text text-anchor="middle" x="71" y="-197.474" font-family="Avenir Next" font-size="14.00">label (Button)</text>
</g>
<!-- label&#45;&gt;w4 -->
<g id="edge18" class="edge"><title>label&#45;&gt;w4</title>
<path fill="none" stroke="black" d="M77.0303,-177.894C81.3277,-162.853 87.0677,-142.763 91.2908,-127.982"/>
<polygon fill="black" stroke="black" points="94.6735,-128.883 94.0554,-118.306 87.9428,-126.96 94.6735,-128.883"/>
<text text-anchor="middle" x="98.87" y="-145.474" font-family="Avenir Next" font-size="14.00"> 18</text>
</g>
<!-- w5 -->
<g id="node4" class="node"><title>w5</title>
<polygon fill="none" stroke="black" points="166,-814 144,-814 144,-792 166,-792 166,-814"/>
<text text-anchor="middle" x="155" y="-800.474" font-family="Avenir Next" font-size="14.00">5</text>
</g>
<!-- down -->
<g id="node6" class="node"><title>down</title>
<ellipse fill="none" stroke="black" cx="171" cy="-707" rx="75.3376" ry="21.7689"/>
<text text-anchor="middle" x="171" y="-704.474" font-family="Avenir Next" font-size="14.00">down (Button)</text>
</g>
<!-- w5&#45;&gt;down -->
<g id="edge13" class="edge"><title>w5&#45;&gt;down</title>
<path fill="none" stroke="black" d="M156.712,-791.94C158.852,-779.371 162.612,-757.279 165.738,-738.914"/>
<polygon fill="black" stroke="black" points="169.214,-739.351 167.442,-728.905 162.313,-738.176 169.214,-739.351"/>
<text text-anchor="middle" x="173.87" y="-759.474" font-family="Avenir Next" font-size="14.00"> 13</text>
</g>
<!-- mousedown -->
<g id="node5" class="node"><title>mousedown</title>
<polygon fill="none" stroke="black" points="247.108,-893.641 224.706,-914.014 134,-923.081 43.2945,-914.014 20.8921,-893.641 83.6622,-877.304 184.338,-877.304 247.108,-893.641"/>
<text text-anchor="middle" x="134" y="-896.474" font-family="Avenir Next" font-size="14.00">mousedown (frame)</text>
</g>
<!-- mousedown&#45;&gt;w5 -->
<g id="edge10" class="edge"><title>mousedown&#45;&gt;w5</title>
<path fill="none" stroke="black" d="M138.661,-877.138C142.161,-861.47 146.931,-840.118 150.413,-824.53"/>
<polygon fill="black" stroke="black" points="153.92,-824.885 152.685,-814.362 147.089,-823.359 153.92,-824.885"/>
<text text-anchor="middle" x="158.87" y="-841.474" font-family="Avenir Next" font-size="14.00"> 10</text>
</g>
<!-- w7 -->
<g id="node10" class="node"><title>w7</title>
<polygon fill="none" stroke="black" points="228,-118 206,-118 206,-96 228,-96 228,-118"/>
<text text-anchor="middle" x="217" y="-104.474" font-family="Avenir Next" font-size="14.00">7</text>
</g>
<!-- down&#45;&gt;w7 -->
<g id="edge16" class="edge"><title>down&#45;&gt;w7</title>
<path fill="none" stroke="black" d="M171,-684.892C171,-663.121 171,-628.188 171,-598 171,-598 171,-598 171,-199 171,-171.413 188.046,-143.692 201.384,-126.222"/>
<polygon fill="black" stroke="black" points="204.39,-128.068 207.912,-118.076 198.927,-123.691 204.39,-128.068"/>
<text text-anchor="middle" x="180.87" y="-405.474" font-family="Avenir Next" font-size="14.00"> 16</text>
</g>
<!-- w6 -->
<g id="node7" class="node"><title>w6</title>
<polygon fill="none" stroke="black" points="371,-814 349,-814 349,-792 371,-792 371,-814"/>
<text text-anchor="middle" x="360" y="-800.474" font-family="Avenir Next" font-size="14.00">6</text>
</g>
<!-- w6&#45;&gt;down -->
<g id="edge14" class="edge"><title>w6&#45;&gt;down</title>
<path fill="none" stroke="black" d="M348.743,-796.401C323.37,-783.782 260.52,-752.523 216.802,-730.78"/>
<polygon fill="black" stroke="black" points="218.297,-727.614 207.784,-726.295 215.18,-733.882 218.297,-727.614"/>
<text text-anchor="middle" x="308.87" y="-759.474" font-family="Avenir Next" font-size="14.00"> 14</text>
</g>
<!-- pushed -->
<g id="node9" class="node"><title>pushed</title>
<polygon fill="none" stroke="black" points="453.194,-701.641 434.736,-722.014 360,-731.081 285.264,-722.014 266.806,-701.641 318.525,-685.304 401.475,-685.304 453.194,-701.641"/>
<text text-anchor="middle" x="360" y="-704.474" font-family="Avenir Next" font-size="14.00">pushed (Button)</text>
</g>
<!-- w6&#45;&gt;pushed -->
<g id="edge2" class="edge"><title>w6&#45;&gt;pushed</title>
<path fill="none" stroke="black" d="M360,-791.94C360,-779.904 360,-759.137 360,-741.272"/>
<polygon fill="black" stroke="black" points="363.5,-741.176 360,-731.176 356.5,-741.176 363.5,-741.176"/>
<text text-anchor="middle" x="365.81" y="-759.474" font-family="Avenir Next" font-size="14.00"> 2</text>
</g>
<!-- mouseup -->
<g id="node8" class="node"><title>mouseup</title>
<polygon fill="none" stroke="black" points="461.21,-893.641 441.758,-914.014 363,-923.081 284.242,-914.014 264.79,-893.641 319.293,-877.304 406.707,-877.304 461.21,-893.641"/>
<text text-anchor="middle" x="363" y="-896.474" font-family="Avenir Next" font-size="14.00">mouseup (frame)</text>
</g>
<!-- mouseup&#45;&gt;w6 -->
<g id="edge1" class="edge"><title>mouseup&#45;&gt;w6</title>
<path fill="none" stroke="black" d="M362.334,-877.138C361.834,-861.47 361.153,-840.118 360.655,-824.53"/>
<polygon fill="black" stroke="black" points="364.148,-824.246 360.331,-814.362 357.152,-824.469 364.148,-824.246"/>
<text text-anchor="middle" x="367.81" y="-841.474" font-family="Avenir Next" font-size="14.00"> 1</text>
</g>
<!-- ppushed -->
<g id="node13" class="node"><title>ppushed</title>
<polygon fill="none" stroke="black" points="391.345,-591.641 375.432,-612.014 311,-621.081 246.568,-612.014 230.655,-591.641 275.243,-575.304 346.757,-575.304 391.345,-591.641"/>
<text text-anchor="middle" x="311" y="-594.474" font-family="Avenir Next" font-size="14.00">pushed (Plus)</text>
</g>
<!-- pushed&#45;&gt;ppushed -->
<g id="edge4" class="edge"><title>pushed&#45;&gt;ppushed</title>
<path fill="none" stroke="#f94179" d="M350.552,-685.177C343.372,-669.351 333.376,-647.318 325.229,-629.362"/>
<polygon fill="#f94179" stroke="#f94179" points="328.242,-627.532 320.923,-619.872 321.868,-630.424 328.242,-627.532"/>
<text text-anchor="middle" x="345.81" y="-649.474" font-family="Avenir Next" font-size="14.00"> 4</text>
</g>
<!-- mpushed -->
<g id="node16" class="node"><title>mpushed</title>
<polygon fill="none" stroke="black" points="588.431,-591.641 570.718,-612.014 499,-621.081 427.282,-612.014 409.569,-591.641 459.199,-575.304 538.801,-575.304 588.431,-591.641"/>
<text text-anchor="middle" x="499" y="-594.474" font-family="Avenir Next" font-size="14.00">pushed (Minus)</text>
</g>
<!-- pushed&#45;&gt;mpushed -->
<g id="edge3" class="edge"><title>pushed&#45;&gt;mpushed</title>
<path fill="none" stroke="#f94179" d="M386.801,-685.177C409.101,-667.85 440.976,-643.083 465.057,-624.373"/>
<polygon fill="#f94179" stroke="#f94179" points="467.472,-626.929 473.222,-618.029 463.178,-621.401 467.472,-626.929"/>
<text text-anchor="middle" x="447.81" y="-649.474" font-family="Avenir Next" font-size="14.00"> 3</text>
</g>
<!-- w7&#45;&gt;t -->
<g id="edge20" class="edge"><title>w7&#45;&gt;t</title>
<path fill="none" stroke="black" d="M217,-95.6783C217,-83.6415 217,-63.2602 217,-46.535"/>
<polygon fill="black" stroke="black" points="220.5,-46.1965 217,-36.1965 213.5,-46.1966 220.5,-46.1965"/>
<text text-anchor="middle" x="226.87" y="-63.4744" font-family="Avenir Next" font-size="14.00"> 20</text>
</g>
<!-- enabled -->
<g id="node11" class="node"><title>enabled</title>
<ellipse fill="none" stroke="black" cx="291" cy="-304" rx="87.3051" ry="21.7689"/>
<text text-anchor="middle" x="291" y="-301.474" font-family="Avenir Next" font-size="14.00">enabled (Button)</text>
</g>
<!-- enabled&#45;&gt;w7 -->
<g id="edge17" class="edge"><title>enabled&#45;&gt;w7</title>
<path fill="none" stroke="black" d="M268.893,-282.609C254.044,-267.456 235.554,-245.427 226.26,-222 213.989,-191.069 213.816,-151.784 215.159,-128.336"/>
<polygon fill="black" stroke="black" points="218.662,-128.43 215.895,-118.203 211.68,-127.923 218.662,-128.43"/>
<text text-anchor="middle" x="236.87" y="-197.474" font-family="Avenir Next" font-size="14.00"> 17</text>
</g>
<!-- menabled -->
<g id="node18" class="node"><title>menabled</title>
<ellipse fill="none" stroke="black" cx="339" cy="-200" rx="84.014" ry="21.7689"/>
<text text-anchor="middle" x="339" y="-197.474" font-family="Avenir Next" font-size="14.00">enabled (Minus)</text>
</g>
<!-- enabled&#45;&gt;menabled -->
<g id="edge12" class="edge"><title>enabled&#45;&gt;menabled</title>
<path fill="none" stroke="#f94179" d="M300.946,-281.866C307.878,-267.134 317.226,-247.27 324.922,-230.916"/>
<polygon fill="#f94179" stroke="#f94179" points="328.14,-232.297 329.231,-221.758 321.806,-229.316 328.14,-232.297"/>
<text text-anchor="middle" x="329.87" y="-249.474" font-family="Avenir Next" font-size="14.00"> 12</text>
</g>
<!-- w1 -->
<g id="node12" class="node"><title>w1</title>
<polygon fill="none" stroke="black" points="409,-512 387,-512 387,-490 409,-490 409,-512"/>
<text text-anchor="middle" x="398" y="-498.474" font-family="Avenir Next" font-size="14.00">1</text>
</g>
<!-- n -->
<g id="node14" class="node"><title>n</title>
<ellipse fill="none" stroke="black" cx="425" cy="-408" rx="49.2362" ry="21.7689"/>
<text text-anchor="middle" x="425" y="-405.474" font-family="Avenir Next" font-size="14.00">n (Panel)</text>
</g>
<!-- w1&#45;&gt;n -->
<g id="edge7" class="edge"><title>w1&#45;&gt;n</title>
<path fill="none" stroke="black" d="M401.058,-489.639C404.157,-479.143 409.093,-462.44 413.38,-448 414.163,-445.361 414.978,-442.621 415.795,-439.873"/>
<polygon fill="black" stroke="black" points="419.221,-440.631 418.721,-430.048 412.512,-438.633 419.221,-440.631"/>
<text text-anchor="middle" x="419.81" y="-457.474" font-family="Avenir Next" font-size="14.00"> 7</text>
</g>
<!-- ppushed&#45;&gt;w1 -->
<g id="edge6" class="edge"><title>ppushed&#45;&gt;w1</title>
<path fill="none" stroke="black" d="M330.308,-575.138C345.655,-558.557 366.892,-535.611 381.463,-519.867"/>
<polygon fill="black" stroke="black" points="384.185,-522.079 388.409,-512.362 379.048,-517.324 384.185,-522.079"/>
<text text-anchor="middle" x="375.81" y="-539.474" font-family="Avenir Next" font-size="14.00"> 6</text>
</g>
<!-- w3 -->
<g id="node17" class="node"><title>w3</title>
<polygon fill="none" stroke="black" points="436,-315 414,-315 414,-293 436,-293 436,-315"/>
<text text-anchor="middle" x="425" y="-301.474" font-family="Avenir Next" font-size="14.00">3</text>
</g>
<!-- n&#45;&gt;w3 -->
<g id="edge9" class="edge"><title>n&#45;&gt;w3</title>
<path fill="none" stroke="black" d="M425,-385.866C425,-368.155 425,-343.024 425,-325.495"/>
<polygon fill="black" stroke="black" points="428.5,-325.228 425,-315.228 421.5,-325.228 428.5,-325.228"/>
<text text-anchor="middle" x="430.81" y="-353.474" font-family="Avenir Next" font-size="14.00"> 9</text>
</g>
<!-- w2 -->
<g id="node15" class="node"><title>w2</title>
<polygon fill="none" stroke="black" points="463,-512 441,-512 441,-490 463,-490 463,-512"/>
<text text-anchor="middle" x="452" y="-498.474" font-family="Avenir Next" font-size="14.00">2</text>
</g>
<!-- w2&#45;&gt;n -->
<g id="edge8" class="edge"><title>w2&#45;&gt;n</title>
<path fill="none" stroke="black" d="M449.007,-489.914C445.426,-477.845 439.264,-457.075 434.08,-439.601"/>
<polygon fill="black" stroke="black" points="437.367,-438.376 431.167,-429.785 430.656,-440.367 437.367,-438.376"/>
<text text-anchor="middle" x="449.81" y="-457.474" font-family="Avenir Next" font-size="14.00"> 8</text>
</g>
<!-- mpushed&#45;&gt;w2 -->
<g id="edge5" class="edge"><title>mpushed&#45;&gt;w2</title>
<path fill="none" stroke="black" d="M488.569,-575.138C480.583,-559.165 469.643,-537.287 461.814,-521.629"/>
<polygon fill="black" stroke="black" points="464.784,-519.741 457.181,-512.362 458.523,-522.872 464.784,-519.741"/>
<text text-anchor="middle" x="481.81" y="-539.474" font-family="Avenir Next" font-size="14.00"> 5</text>
</g>
<!-- w3&#45;&gt;t -->
<g id="edge21" class="edge"><title>w3&#45;&gt;t</title>
<path fill="none" stroke="black" d="M428.783,-292.913C436.442,-270.732 451.474,-216.622 432,-178 389.713,-94.1322 279.98,-43.5181 235.818,-25.9789"/>
<polygon fill="black" stroke="black" points="236.897,-22.6435 226.307,-22.3149 234.38,-29.1757 236.897,-22.6435"/>
<text text-anchor="middle" x="430.87" y="-145.474" font-family="Avenir Next" font-size="14.00"> 21</text>
</g>
<!-- w3&#45;&gt;menabled -->
<g id="edge11" class="edge"><title>w3&#45;&gt;menabled</title>
<path fill="none" stroke="black" d="M416.44,-292.847C404.083,-278.191 380.776,-250.548 362.947,-229.402"/>
<polygon fill="black" stroke="black" points="365.538,-227.046 356.416,-221.657 360.187,-231.558 365.538,-227.046"/>
<text text-anchor="middle" x="399.87" y="-249.474" font-family="Avenir Next" font-size="14.00"> 11</text>
</g>
<!-- menabled&#45;&gt;w7 -->
<g id="edge15" class="edge"><title>menabled&#45;&gt;w7</title>
<path fill="none" stroke="#f8ca00" d="M312.227,-179.03C289.253,-161.894 256.703,-137.614 236.23,-122.344"/>
<polygon fill="#f8ca00" stroke="#f8ca00" points="238.113,-119.382 228.005,-116.208 233.928,-124.993 238.113,-119.382"/>
<text text-anchor="middle" x="295.87" y="-145.474" font-family="Avenir Next" font-size="14.00"> 15</text>
</g>
</g>
</svg>
