<?xml version="1.0" encoding="UTF-8" standalone="no"?>
<!DOCTYPE svg PUBLIC "-//W3C//DTD SVG 1.1//EN"
 "http://www.w3.org/Graphics/SVG/1.1/DTD/svg11.dtd">
<!-- Generated by graphviz version 2.34.0 (20130907.0228)
 -->
<!-- Title: bender Pages: 1 -->
<svg width="850pt" height="632pt"
 viewBox="0.00 0.00 849.98 632.00" xmlns="http://www.w3.org/2000/svg" xmlns:xlink="http://www.w3.org/1999/xlink">
<g id="graph0" class="graph" transform="scale(1 1) rotate(0) translate(4 628)">
<title>bender</title>
<polygon fill="white" stroke="white" points="-4,4 -4,-628 845.976,-628 845.976,4 -4,4"/>
<!-- t -->
<g id="node1" class="node"><title>t</title>
<polygon fill="none" stroke="black" points="481,-36 463,-9 499,-9 481,-36"/>
</g>
<!-- init_n -->
<g id="node2" class="node"><title>init_n</title>
<ellipse fill="none" stroke="#774f38" cx="718" cy="-602" rx="49.2362" ry="21.7689"/>
<text text-anchor="middle" x="718" y="-599.474" font-family="Avenir Next" font-size="14.00" fill="#774f38">n (Panel)</text>
</g>
<!-- n -->
<g id="node3" class="node"><title>n</title>
<ellipse fill="none" stroke="black" cx="718" cy="-498" rx="49.2362" ry="21.7689"/>
<text text-anchor="middle" x="718" y="-495.474" font-family="Avenir Next" font-size="14.00">n (Panel)</text>
</g>
<!-- init_n&#45;&gt;n -->
<g id="edge1" class="edge"><title>init_n&#45;&gt;n</title>
<path fill="none" stroke="#774f38" d="M718,-579.866C718,-565.505 718,-546.268 718,-530.159"/>
<polygon fill="#774f38" stroke="#774f38" points="721.5,-530.107 718,-520.107 714.5,-530.107 721.5,-530.107"/>
<text text-anchor="middle" x="742.633" y="-547.474" font-family="Avenir Next" font-size="14.00" fill="#774f38">Panel, 0</text>
</g>
<!-- w3 -->
<g id="node4" class="node"><title>w3</title>
<polygon fill="none" stroke="black" points="729,-383 707,-383 707,-361 729,-361 729,-383"/>
<text text-anchor="middle" x="718" y="-369.474" font-family="Avenir Next" font-size="14.00">3</text>
</g>
<!-- n&#45;&gt;w3 -->
<g id="edge2" class="edge"><title>n&#45;&gt;w3</title>
<path fill="none" stroke="black" d="M718,-475.965C718,-452.912 718,-416.182 718,-393.389"/>
<polygon fill="black" stroke="black" points="721.5,-393.162 718,-383.162 714.5,-393.162 721.5,-393.162"/>
<text text-anchor="middle" x="742.633" y="-432.474" font-family="Avenir Next" font-size="14.00">Panel, 0</text>
</g>
<!-- w3&#45;&gt;t -->
<g id="edge3" class="edge"><title>w3&#45;&gt;t</title>
<path fill="none" stroke="black" d="M729.223,-362.092C737.271,-354.938 747.461,-344.113 752,-332 769.172,-286.172 762.708,-268.35 747,-222 718.432,-137.704 711.091,-104.791 638,-54 596.562,-25.2043 535.402,-19.6215 503.006,-18.8288"/>
<polygon fill="black" stroke="black" points="502.864,-15.3272 492.826,-18.718 502.788,-22.3267 502.864,-15.3272"/>
<text text-anchor="middle" x="790.988" y="-178.474" font-family="Avenir Next" font-size="14.00">text&#45;n/Panel, &quot;0&quot;</text>
</g>
<!-- menabled -->
<g id="node5" class="node"><title>menabled</title>
<ellipse fill="none" stroke="black" cx="654" cy="-245" rx="84.014" ry="21.7689"/>
<text text-anchor="middle" x="654" y="-242.474" font-family="Avenir Next" font-size="14.00">enabled (Minus)</text>
</g>
<!-- w3&#45;&gt;menabled -->
<g id="edge4" class="edge"><title>w3&#45;&gt;menabled</title>
<path fill="none" stroke="black" d="M706.773,-362.952C697.611,-355.813 685.002,-344.587 677.534,-332 667.592,-315.243 661.737,-294.172 658.354,-277.082"/>
<polygon fill="black" stroke="black" points="661.761,-276.255 656.552,-267.029 654.871,-277.49 661.761,-276.255"/>
<text text-anchor="middle" x="715.233" y="-306.474" font-family="Avenir Next" font-size="14.00">Minus, false</text>
</g>
<!-- w7 -->
<g id="node12" class="node"><title>w7</title>
<polygon fill="none" stroke="black" points="492,-140 470,-140 470,-118 492,-118 492,-140"/>
<text text-anchor="middle" x="481" y="-126.474" font-family="Avenir Next" font-size="14.00">7</text>
</g>
<!-- menabled&#45;&gt;w7 -->
<g id="edge14" class="edge"><title>menabled&#45;&gt;w7</title>
<path fill="none" stroke="#f8ca00" d="M624.26,-224.403C588.89,-201.095 530.849,-162.848 500.647,-142.947"/>
<polygon fill="#f8ca00" stroke="#f8ca00" points="502.5,-139.976 492.224,-137.396 498.648,-145.821 502.5,-139.976"/>
<text text-anchor="middle" x="631.233" y="-178.474" font-family="Avenir Next" font-size="14.00">Minus, false</text>
</g>
<!-- init_mlabel -->
<g id="node6" class="node"><title>init_mlabel</title>
<ellipse fill="none" stroke="#774f38" cx="207" cy="-372" rx="69.1754" ry="21.7689"/>
<text text-anchor="middle" x="207" y="-369.474" font-family="Avenir Next" font-size="14.00" fill="#774f38">label (Minus)</text>
</g>
<!-- label -->
<g id="node8" class="node"><title>label</title>
<ellipse fill="none" stroke="black" cx="205" cy="-245" rx="71.4669" ry="21.7689"/>
<text text-anchor="middle" x="205" y="-242.474" font-family="Avenir Next" font-size="14.00">label (Button)</text>
</g>
<!-- init_mlabel&#45;&gt;label -->
<g id="edge5" class="edge"><title>init_mlabel&#45;&gt;label</title>
<path fill="none" stroke="#774f38" d="M206.665,-350.078C206.347,-330.158 205.863,-299.926 205.499,-277.169"/>
<polygon fill="#774f38" stroke="#774f38" points="208.995,-276.933 205.336,-266.99 201.996,-277.045 208.995,-276.933"/>
<text text-anchor="middle" x="239.424" y="-306.474" font-family="Avenir Next" font-size="14.00" fill="#774f38">Minus, &quot;—&quot;</text>
</g>
<!-- init_plabel -->
<g id="node7" class="node"><title>init_plabel</title>
<ellipse fill="none" stroke="#774f38" cx="60" cy="-372" rx="60.0345" ry="21.7689"/>
<text text-anchor="middle" x="60" y="-369.474" font-family="Avenir Next" font-size="14.00" fill="#774f38">label (Plus)</text>
</g>
<!-- init_plabel&#45;&gt;label -->
<g id="edge6" class="edge"><title>init_plabel&#45;&gt;label</title>
<path fill="none" stroke="#774f38" d="M79.2843,-350.885C96.7352,-333.084 123.479,-306.782 148.618,-286 154.732,-280.946 161.447,-275.835 168.045,-271.034"/>
<polygon fill="#774f38" stroke="#774f38" points="170.185,-273.807 176.287,-265.146 166.115,-268.111 170.185,-273.807"/>
<text text-anchor="middle" x="175.691" y="-306.474" font-family="Avenir Next" font-size="14.00" fill="#774f38">Plus, &quot;+&quot;</text>
</g>
<!-- w4 -->
<g id="node9" class="node"><title>w4</title>
<polygon fill="none" stroke="black" points="280,-140 258,-140 258,-118 280,-118 280,-140"/>
<text text-anchor="middle" x="269" y="-126.474" font-family="Avenir Next" font-size="14.00">4</text>
</g>
<!-- label&#45;&gt;w4 -->
<g id="edge7" class="edge"><title>label&#45;&gt;w4</title>
<path fill="none" stroke="black" d="M216.59,-223.355C228.469,-202.196 246.788,-169.565 258.323,-149.018"/>
<polygon fill="black" stroke="black" points="261.397,-150.692 263.241,-140.259 255.293,-147.265 261.397,-150.692"/>
<text text-anchor="middle" x="284.424" y="-189.949" font-family="Avenir Next" font-size="14.00">Plus, &quot;+&quot;</text>
<text text-anchor="middle" x="284.424" y="-167" font-family="Avenir Next" font-size="14.00">Minus, &quot;—&quot;</text>
</g>
<!-- w4&#45;&gt;t -->
<g id="edge8" class="edge"><title>w4&#45;&gt;t</title>
<path fill="none" stroke="black" d="M276.767,-117.957C289.681,-101.962 317.163,-70.7965 347.458,-54 384.12,-33.6733 433.021,-24.7843 460.324,-21.1922"/>
<polygon fill="black" stroke="black" points="460.78,-24.6626 470.291,-19.9931 459.944,-17.7127 460.78,-24.6626"/>
<text text-anchor="middle" x="412.771" y="-85.9488" font-family="Avenir Next" font-size="14.00">text&#45;label/Plus, &quot;+&quot;</text>
<text text-anchor="middle" x="412.771" y="-63" font-family="Avenir Next" font-size="14.00">text&#45;label/Minus, &quot;—&quot;</text>
</g>
<!-- init_down -->
<g id="node10" class="node"><title>init_down</title>
<ellipse fill="none" stroke="#774f38" cx="370" cy="-372" rx="75.3376" ry="21.7689"/>
<text text-anchor="middle" x="370" y="-369.474" font-family="Avenir Next" font-size="14.00" fill="#774f38">down (Button)</text>
</g>
<!-- down -->
<g id="node11" class="node"><title>down</title>
<ellipse fill="none" stroke="black" cx="370" cy="-245" rx="75.3376" ry="21.7689"/>
<text text-anchor="middle" x="370" y="-242.474" font-family="Avenir Next" font-size="14.00">down (Button)</text>
</g>
<!-- init_down&#45;&gt;down -->
<g id="edge9" class="edge"><title>init_down&#45;&gt;down</title>
<path fill="none" stroke="#774f38" d="M370,-350.078C370,-330.158 370,-299.926 370,-277.169"/>
<polygon fill="#774f38" stroke="#774f38" points="373.5,-276.99 370,-266.99 366.5,-276.99 373.5,-276.99"/>
<text text-anchor="middle" x="407.233" y="-317.949" font-family="Avenir Next" font-size="14.00" fill="#774f38">Plus, false</text>
<text text-anchor="middle" x="407.233" y="-295" font-family="Avenir Next" font-size="14.00" fill="#774f38">Minus, false</text>
</g>
<!-- down&#45;&gt;w7 -->
<g id="edge10" class="edge"><title>down&#45;&gt;w7</title>
<path fill="none" stroke="black" d="M370.034,-222.871C371.203,-203.566 375.942,-175.448 392.534,-158 410.05,-139.581 439.58,-133.23 459.661,-131.068"/>
<polygon fill="black" stroke="black" points="460.026,-134.55 469.708,-130.248 459.457,-127.573 460.026,-134.55"/>
<text text-anchor="middle" x="430.233" y="-189.949" font-family="Avenir Next" font-size="14.00">Plus, false</text>
<text text-anchor="middle" x="430.233" y="-167" font-family="Avenir Next" font-size="14.00">Minus, false</text>
</g>
<!-- w7&#45;&gt;t -->
<g id="edge15" class="edge"><title>w7&#45;&gt;t</title>
<path fill="none" stroke="black" d="M481,-117.941C481,-101.835 481,-69.7065 481,-46.4205"/>
<polygon fill="black" stroke="black" points="484.5,-46.1211 481,-36.1212 477.5,-46.1212 484.5,-46.1211"/>
<text text-anchor="middle" x="557.979" y="-85.9488" font-family="Avenir Next" font-size="14.00">frame/Plus, &quot;&quot;</text>
<text text-anchor="middle" x="557.979" y="-63" font-family="Avenir Next" font-size="14.00">frame/Minus, &quot;disabled&quot;</text>
</g>
<!-- enabled -->
<g id="node13" class="node"><title>enabled</title>
<ellipse fill="none" stroke="black" cx="555" cy="-372" rx="87.3051" ry="21.7689"/>
<text text-anchor="middle" x="555" y="-369.474" font-family="Avenir Next" font-size="14.00">enabled (Button)</text>
</g>
<!-- enabled&#45;&gt;menabled -->
<g id="edge12" class="edge"><title>enabled&#45;&gt;menabled</title>
<path fill="none" stroke="#f94179" d="M558.553,-350.129C562.599,-331.581 570.766,-304.599 586.272,-286 591.375,-279.879 597.671,-274.469 604.351,-269.766"/>
<polygon fill="#f94179" stroke="#f94179" points="606.471,-272.563 612.957,-264.185 602.663,-266.689 606.471,-272.563"/>
<text text-anchor="middle" x="622.364" y="-306.474" font-family="Avenir Next" font-size="14.00">Minus, true</text>
</g>
<!-- enabled&#45;&gt;w7 -->
<g id="edge11" class="edge"><title>enabled&#45;&gt;w7</title>
<path fill="none" stroke="black" d="M537.745,-350.473C522.26,-330.728 500.45,-299.335 490.272,-268 477.225,-227.834 477.729,-177.723 479.322,-150.29"/>
<polygon fill="black" stroke="black" points="482.834,-150.234 480.035,-140.016 475.851,-149.749 482.834,-150.234"/>
<text text-anchor="middle" x="526.364" y="-253.949" font-family="Avenir Next" font-size="14.00">Plus, true</text>
<text text-anchor="middle" x="526.364" y="-231" font-family="Avenir Next" font-size="14.00">Minus, true</text>
</g>
<!-- init_enabled -->
<g id="node14" class="node"><title>init_enabled</title>
<ellipse fill="none" stroke="#774f38" cx="555" cy="-498" rx="75.3376" ry="21.7689"/>
<text text-anchor="middle" x="555" y="-495.474" font-family="Avenir Next" font-size="14.00" fill="#774f38">down (Button)</text>
</g>
<!-- init_enabled&#45;&gt;enabled -->
<g id="edge13" class="edge"><title>init_enabled&#45;&gt;enabled</title>
<path fill="none" stroke="#774f38" d="M555,-475.965C555,-456.28 555,-426.624 555,-404.187"/>
<polygon fill="#774f38" stroke="#774f38" points="558.5,-404.138 555,-394.138 551.5,-404.138 558.5,-404.138"/>
<text text-anchor="middle" x="590.364" y="-443.949" font-family="Avenir Next" font-size="14.00" fill="#774f38">Plus, true</text>
<text text-anchor="middle" x="590.364" y="-421" font-family="Avenir Next" font-size="14.00" fill="#774f38">Minus, true</text>
</g>
</g>
</svg>
