<?xml version="1.0" encoding="UTF-8" standalone="no"?>
<!DOCTYPE svg PUBLIC "-//W3C//DTD SVG 1.1//EN"
 "http://www.w3.org/Graphics/SVG/1.1/DTD/svg11.dtd">
<!-- Generated by graphviz version 2.34.0 (20130907.0228)
 -->
<!-- Title: bender Pages: 1 -->
<svg width="507pt" height="770pt"
 viewBox="0.00 0.00 507.00 770.00" xmlns="http://www.w3.org/2000/svg" xmlns:xlink="http://www.w3.org/1999/xlink">
<g id="graph0" class="graph" transform="scale(1 1) rotate(0) translate(4 766)">
<title>bender</title>
<polygon fill="white" stroke="white" points="-4,4 -4,-766 503,-766 503,4 -4,4"/>
<!-- t -->
<g id="node1" class="node"><title>t</title>
<polygon fill="none" stroke="black" points="327,-36 309,-9 345,-9 327,-36"/>
</g>
<!-- n -->
<g id="node2" class="node"><title>n</title>
<ellipse fill="none" stroke="black" cx="320" cy="-418" rx="49.2362" ry="21.7689"/>
<text text-anchor="middle" x="320" y="-415.474" font-family="Avenir Next" font-size="14.00">n (Panel)</text>
</g>
<!-- w3 -->
<g id="node3" class="node"><title>w3</title>
<polygon fill="none" stroke="black" points="331,-336 309,-336 309,-314 331,-314 331,-336"/>
<text text-anchor="middle" x="320" y="-322.474" font-family="Avenir Next" font-size="14.00">3</text>
</g>
<!-- n&#45;&gt;w3 -->
<g id="edge2" class="edge"><title>n&#45;&gt;w3</title>
<path fill="none" stroke="black" d="M320,-395.894C320,-380.999 320,-361.153 320,-346.414"/>
<polygon fill="black" stroke="black" points="323.5,-346.306 320,-336.306 316.5,-346.306 323.5,-346.306"/>
<text text-anchor="middle" x="325.81" y="-363.474" font-family="Avenir Next" font-size="14.00"> 9</text>
</g>
<!-- w3&#45;&gt;t -->
<g id="edge3" class="edge"><title>w3&#45;&gt;t</title>
<path fill="none" stroke="black" d="M320.233,-313.852C321.199,-271.739 324.913,-109.939 326.389,-45.6039"/>
<polygon fill="black" stroke="black" points="329.892,-45.5366 326.622,-35.4589 322.894,-45.3759 329.892,-45.5366"/>
<text text-anchor="middle" x="334.87" y="-145.474" font-family="Avenir Next" font-size="14.00"> 21</text>
</g>
<!-- enabled -->
<g id="node4" class="node"><title>enabled</title>
<ellipse fill="none" stroke="black" cx="220" cy="-216" rx="79.2326" ry="38.2232"/>
<text text-anchor="middle" x="220" y="-224.949" font-family="Avenir Next" font-size="14.00">enabled</text>
<text text-anchor="middle" x="220" y="-202" font-family="Avenir Next" font-size="14.00">(Button, Minus)</text>
</g>
<!-- w3&#45;&gt;enabled -->
<g id="edge4" class="edge"><title>w3&#45;&gt;enabled</title>
<path fill="none" stroke="black" d="M310.31,-313.925C305.216,-308.611 298.88,-301.972 293.26,-296 281.901,-283.93 269.629,-270.751 258.436,-258.676"/>
<polygon fill="black" stroke="black" points="260.987,-256.28 251.624,-251.321 255.851,-261.036 260.987,-256.28"/>
<text text-anchor="middle" x="303.87" y="-281.474" font-family="Avenir Next" font-size="14.00"> 11</text>
</g>
<!-- w7 -->
<g id="node11" class="node"><title>w7</title>
<polygon fill="none" stroke="black" points="231,-107 209,-107 209,-85 231,-85 231,-107"/>
<text text-anchor="middle" x="220" y="-93.4744" font-family="Avenir Next" font-size="14.00">7</text>
</g>
<!-- enabled&#45;&gt;w7 -->
<g id="edge10" class="edge"><title>enabled&#45;&gt;w7</title>
<path fill="none" stroke="black" d="M220,-177.664C220,-157.695 220,-133.881 220,-117.327"/>
<polygon fill="black" stroke="black" points="223.5,-117.163 220,-107.163 216.5,-117.163 223.5,-117.163"/>
</g>
<!-- pushed -->
<g id="node5" class="node"><title>pushed</title>
<polygon fill="none" stroke="black" points="433.3,-533.631 410.86,-569.25 320,-585.102 229.14,-569.25 206.7,-533.631 269.577,-505.067 370.423,-505.067 433.3,-533.631"/>
<text text-anchor="middle" x="320" y="-551.949" font-family="Avenir Next" font-size="14.00">pushed</text>
<text text-anchor="middle" x="320" y="-529" font-family="Avenir Next" font-size="14.00">(Button, Plus, Minus)</text>
</g>
<!-- pushed&#45;&gt;n -->
<g id="edge1" class="edge"><title>pushed&#45;&gt;n</title>
<path fill="none" stroke="black" d="M320,-504.762C320,-487.362 320,-466.875 320,-450.289"/>
<polygon fill="black" stroke="black" points="323.5,-450.024 320,-440.024 316.5,-450.024 323.5,-450.024"/>
<text text-anchor="middle" x="325.81" y="-467.474" font-family="Avenir Next" font-size="14.00"> 8</text>
</g>
<!-- label -->
<g id="node6" class="node"><title>label</title>
<ellipse fill="none" stroke="black" cx="427" cy="-96" rx="71.4669" ry="21.7689"/>
<text text-anchor="middle" x="427" y="-93.4744" font-family="Avenir Next" font-size="14.00">label (Button)</text>
</g>
<!-- label&#45;&gt;t -->
<g id="edge5" class="edge"><title>label&#45;&gt;t</title>
<path fill="none" stroke="black" d="M401.248,-75.4281C382.865,-61.4573 358.713,-43.1016 343.026,-31.1796"/>
<polygon fill="black" stroke="black" points="344.955,-28.2497 334.876,-24.9854 340.719,-33.8228 344.955,-28.2497"/>
</g>
<!-- mousedown -->
<g id="node7" class="node"><title>mousedown</title>
<polygon fill="none" stroke="black" points="226.108,-643.641 203.706,-664.014 113,-673.081 22.2945,-664.014 -0.107917,-643.641 62.6622,-627.304 163.338,-627.304 226.108,-643.641"/>
<text text-anchor="middle" x="113" y="-646.474" font-family="Avenir Next" font-size="14.00">mousedown (frame)</text>
</g>
<!-- down -->
<g id="node8" class="node"><title>down</title>
<ellipse fill="none" stroke="black" cx="113" cy="-543" rx="75.3376" ry="21.7689"/>
<text text-anchor="middle" x="113" y="-540.474" font-family="Avenir Next" font-size="14.00">down (Button)</text>
</g>
<!-- mousedown&#45;&gt;down -->
<g id="edge6" class="edge"><title>mousedown&#45;&gt;down</title>
<path fill="none" stroke="black" d="M113,-626.954C113,-612.153 113,-592.091 113,-575.404"/>
<polygon fill="black" stroke="black" points="116.5,-575.015 113,-565.015 109.5,-575.015 116.5,-575.015"/>
</g>
<!-- down&#45;&gt;w7 -->
<g id="edge11" class="edge"><title>down&#45;&gt;w7</title>
<path fill="none" stroke="black" d="M113,-521.107C113,-496.636 113,-454.875 113,-419 113,-419 113,-419 113,-215 113,-163.845 168.867,-125.007 199.864,-107.395"/>
<polygon fill="black" stroke="black" points="201.852,-110.297 208.952,-102.434 198.498,-104.153 201.852,-110.297"/>
</g>
<!-- mouseup -->
<g id="node9" class="node"><title>mouseup</title>
<polygon fill="none" stroke="black" points="369.21,-731.641 349.758,-752.014 271,-761.081 192.242,-752.014 172.79,-731.641 227.293,-715.304 314.707,-715.304 369.21,-731.641"/>
<text text-anchor="middle" x="271" y="-734.474" font-family="Avenir Next" font-size="14.00">mouseup (frame)</text>
</g>
<!-- w6 -->
<g id="node10" class="node"><title>w6</title>
<polygon fill="none" stroke="black" points="282,-660 260,-660 260,-638 282,-638 282,-660"/>
<text text-anchor="middle" x="271" y="-646.474" font-family="Avenir Next" font-size="14.00">6</text>
</g>
<!-- mouseup&#45;&gt;w6 -->
<g id="edge7" class="edge"><title>mouseup&#45;&gt;w6</title>
<path fill="none" stroke="black" d="M271,-715.182C271,-701.667 271,-684.126 271,-670.645"/>
<polygon fill="black" stroke="black" points="274.5,-670.454 271,-660.454 267.5,-670.454 274.5,-670.454"/>
</g>
<!-- w6&#45;&gt;pushed -->
<g id="edge9" class="edge"><title>w6&#45;&gt;pushed</title>
<path fill="none" stroke="black" d="M275.877,-637.648C280.984,-626.81 289.371,-609.007 297.47,-591.818"/>
<polygon fill="black" stroke="black" points="300.821,-592.918 301.917,-582.38 294.489,-589.934 300.821,-592.918"/>
</g>
<!-- w6&#45;&gt;down -->
<g id="edge8" class="edge"><title>w6&#45;&gt;down</title>
<path fill="none" stroke="black" d="M259.985,-640.626C252.866,-635.867 243.396,-629.551 235,-624 206.963,-605.462 175.211,-584.647 151.129,-568.896"/>
<polygon fill="black" stroke="black" points="152.91,-565.879 142.624,-563.336 149.079,-571.738 152.91,-565.879"/>
</g>
<!-- w7&#45;&gt;t -->
<g id="edge12" class="edge"><title>w7&#45;&gt;t</title>
<path fill="none" stroke="black" d="M231.048,-87.1529C250.016,-73.6799 288.856,-46.0928 310.86,-30.464"/>
<polygon fill="black" stroke="black" points="313.026,-33.2183 319.152,-24.574 308.973,-27.5113 313.026,-33.2183"/>
</g>
</g>
</svg>
