<?xml version="1.0" encoding="UTF-8" standalone="no"?>
<!DOCTYPE svg PUBLIC "-//W3C//DTD SVG 1.1//EN"
 "http://www.w3.org/Graphics/SVG/1.1/DTD/svg11.dtd">
<!-- Generated by graphviz version 2.34.0 (20130907.0228)
 -->
<!-- Title: panel Pages: 1 -->
<svg width="457pt" height="516pt"
 viewBox="0.00 0.00 457.00 516.00" xmlns="http://www.w3.org/2000/svg" xmlns:xlink="http://www.w3.org/1999/xlink">
<g id="graph0" class="graph" transform="scale(1 1) rotate(0) translate(4 512)">
<title>panel</title>
<polygon fill="white" stroke="white" points="-4,4 -4,-512 453,-512 453,4 -4,4"/>
<g id="clust2" class="cluster"><title>cluster_button</title>
<polygon fill="none" stroke="white" points="309,-8 309,-356 441,-356 441,-8 309,-8"/>
</g>
<!-- Panel -->
<g id="node1" class="node"><title>Panel</title>
<ellipse fill="none" stroke="black" cx="239" cy="-486" rx="35.4841" ry="21.7689"/>
<text text-anchor="middle" x="239" y="-483.474" font-family="Avenir Next" font-size="14.00">Panel</text>
</g>
<!-- vpanel -->
<g id="node2" class="node"><title>vpanel</title>
<polygon fill="none" stroke="black" points="191.332,-424 100.668,-424 100.668,-388 191.332,-388 191.332,-424"/>
<text text-anchor="middle" x="146" y="-403.474" font-family="Avenir Next" font-size="14.00">view (Panel)</text>
</g>
<!-- Panel&#45;&gt;vpanel -->
<g id="edge1" class="edge"><title>Panel&#45;&gt;vpanel</title>
<path fill="none" stroke="#4dbce9" d="M218.36,-467.689C205.477,-456.884 188.711,-442.822 174.561,-430.955"/>
<polygon fill="#4dbce9" stroke="#4dbce9" points="176.493,-428.007 166.582,-424.262 171.995,-433.37 176.493,-428.007"/>
</g>
<!-- Plus -->
<g id="node3" class="node"><title>Plus</title>
<ellipse fill="none" stroke="black" cx="239" cy="-406" rx="29.5446" ry="21.7689"/>
<text text-anchor="middle" x="239" y="-403.474" font-family="Avenir Next" font-size="14.00">Plus</text>
</g>
<!-- Panel&#45;&gt;Plus -->
<g id="edge2" class="edge"><title>Panel&#45;&gt;Plus</title>
<path fill="none" stroke="black" d="M239,-464.097C239,-456.141 239,-446.894 239,-438.188"/>
<polygon fill="black" stroke="black" points="242.5,-437.96 239,-427.96 235.5,-437.96 242.5,-437.96"/>
</g>
<!-- Minus -->
<g id="node4" class="node"><title>Minus</title>
<ellipse fill="none" stroke="black" cx="325" cy="-406" rx="38.1875" ry="21.7689"/>
<text text-anchor="middle" x="325" y="-403.474" font-family="Avenir Next" font-size="14.00">Minus</text>
</g>
<!-- Panel&#45;&gt;Minus -->
<g id="edge3" class="edge"><title>Panel&#45;&gt;Minus</title>
<path fill="none" stroke="black" d="M258.515,-467.301C270.088,-456.804 284.936,-443.338 297.663,-431.794"/>
<polygon fill="black" stroke="black" points="300.209,-434.21 305.265,-424.899 295.506,-429.025 300.209,-434.21"/>
</g>
<!-- div1 -->
<g id="node5" class="node"><title>div1</title>
<polygon fill="none" stroke="black" points="179.455,-344 112.545,-344 112.545,-308 179.455,-308 179.455,-344"/>
<text text-anchor="middle" x="146" y="-323.474" font-family="Avenir Next" font-size="14.00">html:div</text>
</g>
<!-- vpanel&#45;&gt;div1 -->
<g id="edge4" class="edge"><title>vpanel&#45;&gt;div1</title>
<path fill="none" stroke="black" d="M146,-387.689C146,-377.894 146,-365.422 146,-354.335"/>
<polygon fill="black" stroke="black" points="149.5,-354.262 146,-344.262 142.5,-354.262 149.5,-354.262"/>
</g>
<!-- vplus -->
<g id="node7" class="node"><title>vplus</title>
<polygon fill="none" stroke="black" points="187.013,-268 104.987,-268 104.987,-232 187.013,-232 187.013,-268"/>
<text text-anchor="middle" x="146" y="-247.474" font-family="Avenir Next" font-size="14.00">view (Plus)</text>
</g>
<!-- Plus&#45;&gt;vplus -->
<g id="edge8" class="edge"><title>Plus&#45;&gt;vplus</title>
<path fill="none" stroke="#4dbce9" d="M230.355,-384.992C221.012,-364.135 205.142,-330.811 188,-304 181.866,-294.405 174.35,-284.472 167.381,-275.835"/>
<polygon fill="#4dbce9" stroke="#4dbce9" points="169.989,-273.497 160.929,-268.004 164.586,-277.948 169.989,-273.497"/>
</g>
<!-- Button -->
<g id="node9" class="node"><title>Button</title>
<ellipse fill="none" stroke="black" cx="358" cy="-326" rx="40.9801" ry="21.7689"/>
<text text-anchor="middle" x="358" y="-323.474" font-family="Avenir Next" font-size="14.00">Button</text>
</g>
<!-- Plus&#45;&gt;Button -->
<g id="edge15" class="edge"><title>Plus&#45;&gt;Button</title>
<path fill="none" stroke="#f94179" d="M260.55,-390.875C278.366,-379.197 303.973,-362.413 324.467,-348.98"/>
<polygon fill="#f94179" stroke="#f94179" points="326.455,-351.862 332.899,-343.452 322.617,-346.007 326.455,-351.862"/>
</g>
<!-- vminus -->
<g id="node6" class="node"><title>vminus</title>
<polygon fill="none" stroke="black" points="300.304,-268 205.696,-268 205.696,-232 300.304,-232 300.304,-268"/>
<text text-anchor="middle" x="253" y="-247.474" font-family="Avenir Next" font-size="14.00">view (Minus)</text>
</g>
<!-- Minus&#45;&gt;vminus -->
<g id="edge9" class="edge"><title>Minus&#45;&gt;vminus</title>
<path fill="none" stroke="#4dbce9" d="M315.439,-384.55C302.53,-356.938 279.511,-307.704 265.319,-277.348"/>
<polygon fill="#4dbce9" stroke="#4dbce9" points="268.451,-275.784 261.045,-268.207 262.11,-278.748 268.451,-275.784"/>
</g>
<!-- Minus&#45;&gt;Button -->
<g id="edge14" class="edge"><title>Minus&#45;&gt;Button</title>
<path fill="none" stroke="#f94179" d="M333.67,-384.506C337.242,-376.064 341.451,-366.116 345.355,-356.889"/>
<polygon fill="#f94179" stroke="#f94179" points="348.6,-358.201 349.273,-347.628 342.153,-355.473 348.6,-358.201"/>
</g>
<!-- div1&#45;&gt;vminus -->
<g id="edge6" class="edge"><title>div1&#45;&gt;vminus</title>
<path fill="none" stroke="black" d="M170.817,-307.837C185.402,-297.75 204.025,-284.87 219.854,-273.923"/>
<polygon fill="black" stroke="black" points="222.084,-276.637 228.318,-268.07 218.102,-270.88 222.084,-276.637"/>
</g>
<!-- div1&#45;&gt;vplus -->
<g id="edge7" class="edge"><title>div1&#45;&gt;vplus</title>
<path fill="none" stroke="black" d="M146,-307.837C146,-299.058 146,-288.163 146,-278.267"/>
<polygon fill="black" stroke="black" points="149.5,-278.07 146,-268.07 142.5,-278.07 149.5,-278.07"/>
</g>
<!-- textn -->
<g id="node8" class="node"><title>textn</title>
<polygon fill="none" stroke="black" points="86.2517,-268 -0.251715,-268 -0.251715,-232 86.2517,-232 86.2517,-268"/>
<text text-anchor="middle" x="43" y="-247.474" font-family="Avenir Next" font-size="14.00">text (text&#45;n)</text>
</g>
<!-- div1&#45;&gt;textn -->
<g id="edge5" class="edge"><title>div1&#45;&gt;textn</title>
<path fill="none" stroke="black" d="M122.111,-307.837C108.071,-297.75 90.144,-284.87 74.9065,-273.923"/>
<polygon fill="black" stroke="black" points="76.9231,-271.062 66.7596,-268.07 72.8388,-276.747 76.9231,-271.062"/>
</g>
<!-- vbutton -->
<g id="node10" class="node"><title>vbutton</title>
<polygon fill="none" stroke="black" points="420.338,-268 321.662,-268 321.662,-232 420.338,-232 420.338,-268"/>
<text text-anchor="middle" x="371" y="-247.474" font-family="Avenir Next" font-size="14.00">view (Button)</text>
</g>
<!-- Button&#45;&gt;vbutton -->
<g id="edge10" class="edge"><title>Button&#45;&gt;vbutton</title>
<path fill="none" stroke="#4dbce9" d="M361.691,-303.993C363.099,-295.973 364.726,-286.712 366.222,-278.197"/>
<polygon fill="#4dbce9" stroke="#4dbce9" points="369.675,-278.769 367.958,-268.315 362.781,-277.558 369.675,-278.769"/>
</g>
<!-- frame -->
<g id="node11" class="node"><title>frame</title>
<polygon fill="none" stroke="black" points="433.017,-196 316.983,-196 316.983,-160 433.017,-160 433.017,-196"/>
<text text-anchor="middle" x="375" y="-175.474" font-family="Avenir Next" font-size="14.00">html:div (frame)</text>
</g>
<!-- vbutton&#45;&gt;frame -->
<g id="edge11" class="edge"><title>vbutton&#45;&gt;frame</title>
<path fill="none" stroke="black" d="M371.989,-231.697C372.43,-223.983 372.959,-214.712 373.451,-206.112"/>
<polygon fill="black" stroke="black" points="376.946,-206.288 374.023,-196.104 369.958,-205.888 376.946,-206.288"/>
</g>
<!-- content -->
<g id="node12" class="node"><title>content</title>
<polygon fill="none" stroke="black" points="407.031,-124 342.969,-124 342.969,-88 407.031,-88 407.031,-124"/>
<text text-anchor="middle" x="375" y="-103.474" font-family="Avenir Next" font-size="14.00">content</text>
</g>
<!-- frame&#45;&gt;content -->
<g id="edge12" class="edge"><title>frame&#45;&gt;content</title>
<path fill="none" stroke="black" d="M375,-159.697C375,-151.983 375,-142.712 375,-134.112"/>
<polygon fill="black" stroke="black" points="378.5,-134.104 375,-124.104 371.5,-134.104 378.5,-134.104"/>
</g>
<!-- textlabel -->
<g id="node13" class="node"><title>textlabel</title>
<polygon fill="none" stroke="black" points="430.243,-52 319.757,-52 319.757,-16 430.243,-16 430.243,-52"/>
<text text-anchor="middle" x="375" y="-31.4744" font-family="Avenir Next" font-size="14.00">text (text&#45;label)</text>
</g>
<!-- content&#45;&gt;textlabel -->
<g id="edge13" class="edge"><title>content&#45;&gt;textlabel</title>
<path fill="none" stroke="black" d="M375,-87.6966C375,-79.9827 375,-70.7125 375,-62.1124"/>
<polygon fill="black" stroke="black" points="378.5,-62.1043 375,-52.1043 371.5,-62.1044 378.5,-62.1043"/>
</g>
</g>
</svg>
