<?xml version="1.0" encoding="UTF-8" standalone="no"?>
<!DOCTYPE svg PUBLIC "-//W3C//DTD SVG 1.1//EN"
 "http://www.w3.org/Graphics/SVG/1.1/DTD/svg11.dtd">
<!-- Generated by graphviz version 2.34.0 (20130907.0228)
 -->
<!-- Title: panel Pages: 1 -->
<svg width="506pt" height="604pt"
 viewBox="0.00 0.00 506.00 604.00" xmlns="http://www.w3.org/2000/svg" xmlns:xlink="http://www.w3.org/1999/xlink">
<g id="graph0" class="graph" transform="scale(1 1) rotate(0) translate(4 600)">
<title>panel</title>
<polygon fill="white" stroke="white" points="-4,4 -4,-600 502,-600 502,4 -4,4"/>
<g id="clust1" class="cluster"><title>cluster_panel</title>
<polygon fill="none" stroke="white" points="8,-8 8,-588 350,-588 350,-8 8,-8"/>
</g>
<g id="clust3" class="cluster"><title>cluster_button</title>
<polygon fill="none" stroke="gray" points="358,-8 358,-356 490,-356 490,-8 358,-8"/>
</g>
<!-- Panel -->
<g id="node1" class="node"><title>Panel</title>
<ellipse fill="none" stroke="black" cx="218" cy="-558" rx="35.4841" ry="21.7689"/>
<text text-anchor="middle" x="218" y="-555.474" font-family="Avenir Next" font-size="14.00">Panel</text>
</g>
<!-- vpanel -->
<g id="node2" class="node"><title>vpanel</title>
<polygon fill="none" stroke="black" points="189.332,-500 98.6678,-500 98.6678,-464 189.332,-464 189.332,-500"/>
<text text-anchor="middle" x="144" y="-479.474" font-family="Avenir Next" font-size="14.00">view (Panel)</text>
</g>
<!-- Panel&#45;&gt;vpanel -->
<g id="edge1" class="edge"><title>Panel&#45;&gt;vpanel</title>
<path fill="none" stroke="#4dbce9" d="M200.087,-539.087C190.587,-529.587 178.775,-517.775 168.445,-507.445"/>
<polygon fill="#4dbce9" stroke="#4dbce9" points="170.785,-504.835 161.239,-500.239 165.835,-509.785 170.785,-504.835"/>
</g>
<!-- Plus -->
<g id="node3" class="node"><title>Plus</title>
<ellipse fill="none" stroke="black" cx="218" cy="-406" rx="29.5446" ry="21.7689"/>
<text text-anchor="middle" x="218" y="-403.474" font-family="Avenir Next" font-size="14.00">Plus</text>
</g>
<!-- Panel&#45;&gt;Plus -->
<g id="edge2" class="edge"><title>Panel&#45;&gt;Plus</title>
<path fill="none" stroke="black" d="M218,-535.827C218,-510.366 218,-467.412 218,-438.163"/>
<polygon fill="black" stroke="black" points="221.5,-438.065 218,-428.065 214.5,-438.066 221.5,-438.065"/>
</g>
<!-- Minus -->
<g id="node4" class="node"><title>Minus</title>
<ellipse fill="none" stroke="black" cx="304" cy="-406" rx="38.1875" ry="21.7689"/>
<text text-anchor="middle" x="304" y="-403.474" font-family="Avenir Next" font-size="14.00">Minus</text>
</g>
<!-- Panel&#45;&gt;Minus -->
<g id="edge3" class="edge"><title>Panel&#45;&gt;Minus</title>
<path fill="none" stroke="black" d="M229.42,-537.081C244.263,-511.193 270.292,-465.792 287.339,-436.06"/>
<polygon fill="black" stroke="black" points="290.595,-437.417 292.533,-427.001 284.522,-433.936 290.595,-437.417"/>
</g>
<!-- div1 -->
<g id="node5" class="node"><title>div1</title>
<polygon fill="none" stroke="#5eb26b" points="169.455,-424 102.545,-424 102.545,-388 169.455,-388 169.455,-424"/>
<text text-anchor="middle" x="136" y="-403.474" font-family="Avenir Next" font-size="14.00">html:div</text>
</g>
<!-- vpanel&#45;&gt;div1 -->
<g id="edge4" class="edge"><title>vpanel&#45;&gt;div1</title>
<path fill="none" stroke="black" d="M142.145,-463.837C141.195,-455.058 140.018,-444.163 138.948,-434.267"/>
<polygon fill="black" stroke="black" points="142.4,-433.636 137.845,-424.07 135.441,-434.388 142.4,-433.636"/>
</g>
<!-- vplus -->
<g id="node7" class="node"><title>vplus</title>
<polygon fill="none" stroke="black" points="204.013,-344 121.987,-344 121.987,-308 204.013,-308 204.013,-344"/>
<text text-anchor="middle" x="163" y="-323.474" font-family="Avenir Next" font-size="14.00">view (Plus)</text>
</g>
<!-- Plus&#45;&gt;vplus -->
<g id="edge8" class="edge"><title>Plus&#45;&gt;vplus</title>
<path fill="none" stroke="#4dbce9" d="M204.686,-386.118C197.562,-376.015 188.688,-363.43 180.961,-352.472"/>
<polygon fill="#4dbce9" stroke="#4dbce9" points="183.689,-350.267 175.066,-344.111 177.968,-354.301 183.689,-350.267"/>
</g>
<!-- Button -->
<g id="node17" class="node"><title>Button</title>
<ellipse fill="none" stroke="black" cx="407" cy="-326" rx="40.9801" ry="21.7689"/>
<text text-anchor="middle" x="407" y="-323.474" font-family="Avenir Next" font-size="14.00">Button</text>
</g>
<!-- Plus&#45;&gt;Button -->
<g id="edge19" class="edge"><title>Plus&#45;&gt;Button</title>
<path fill="none" stroke="#f94179" d="M240.704,-391.729C245.953,-388.956 251.589,-386.208 257,-384 298.545,-367.045 312.513,-373.095 354,-356 359.855,-353.587 365.896,-350.7 371.71,-347.696"/>
<polygon fill="#f94179" stroke="#f94179" points="373.44,-350.739 380.6,-342.93 370.133,-344.57 373.44,-350.739"/>
</g>
<!-- vminus -->
<g id="node6" class="node"><title>vminus</title>
<polygon fill="none" stroke="black" points="317.304,-344 222.696,-344 222.696,-308 317.304,-308 317.304,-344"/>
<text text-anchor="middle" x="270" y="-323.474" font-family="Avenir Next" font-size="14.00">view (Minus)</text>
</g>
<!-- Minus&#45;&gt;vminus -->
<g id="edge9" class="edge"><title>Minus&#45;&gt;vminus</title>
<path fill="none" stroke="#4dbce9" d="M295.067,-384.506C290.922,-374.997 285.944,-363.577 281.52,-353.429"/>
<polygon fill="#4dbce9" stroke="#4dbce9" points="284.699,-351.961 277.494,-344.193 278.282,-354.758 284.699,-351.961"/>
</g>
<!-- Minus&#45;&gt;Button -->
<g id="edge18" class="edge"><title>Minus&#45;&gt;Button</title>
<path fill="none" stroke="#f94179" d="M326.349,-388.075C340.86,-377.087 359.974,-362.612 375.952,-350.512"/>
<polygon fill="#f94179" stroke="#f94179" points="378.122,-353.259 383.981,-344.432 373.896,-347.679 378.122,-353.259"/>
</g>
<!-- div1&#45;&gt;vminus -->
<g id="edge6" class="edge"><title>div1&#45;&gt;vminus</title>
<path fill="none" stroke="black" d="M165.407,-387.883C184.956,-376.503 210.819,-361.449 231.935,-349.157"/>
<polygon fill="black" stroke="black" points="233.78,-352.133 240.662,-344.078 230.258,-346.083 233.78,-352.133"/>
</g>
<!-- div1&#45;&gt;vplus -->
<g id="edge7" class="edge"><title>div1&#45;&gt;vplus</title>
<path fill="none" stroke="black" d="M141.992,-387.689C145.418,-377.793 149.789,-365.164 153.656,-353.993"/>
<polygon fill="black" stroke="black" points="157.061,-354.857 157.025,-344.262 150.446,-352.567 157.061,-354.857"/>
</g>
<!-- textn -->
<g id="node16" class="node"><title>textn</title>
<polygon fill="none" stroke="#5eb26b" points="103.252,-344 16.7483,-344 16.7483,-308 103.252,-308 103.252,-344"/>
<text text-anchor="middle" x="60" y="-323.474" font-family="Avenir Next" font-size="14.00">text (text&#45;n)</text>
</g>
<!-- div1&#45;&gt;textn -->
<g id="edge5" class="edge"><title>div1&#45;&gt;textn</title>
<path fill="none" stroke="black" d="M119.133,-387.689C108.802,-377.086 95.4144,-363.346 83.991,-351.622"/>
<polygon fill="black" stroke="black" points="86.3052,-348.982 76.8197,-344.262 81.2916,-353.867 86.3052,-348.982"/>
</g>
<!-- vbutton__ -->
<g id="node12" class="node"><title>vbutton__</title>
<polygon fill="none" stroke="black" points="315.338,-268 216.662,-268 216.662,-232 315.338,-232 315.338,-268"/>
<text text-anchor="middle" x="266" y="-247.474" font-family="Avenir Next" font-size="14.00">view (Button)</text>
</g>
<!-- vminus&#45;&gt;vbutton__ -->
<g id="edge14" class="edge"><title>vminus&#45;&gt;vbutton__</title>
<path fill="none" stroke="#f94179" d="M269.072,-307.837C268.426,-295.882 267.568,-280.004 266.923,-268.07"/>
</g>
<!-- vbutton_ -->
<g id="node8" class="node"><title>vbutton_</title>
<polygon fill="none" stroke="black" points="168.338,-268 69.6618,-268 69.6618,-232 168.338,-232 168.338,-268"/>
<text text-anchor="middle" x="119" y="-247.474" font-family="Avenir Next" font-size="14.00">view (Button)</text>
</g>
<!-- vplus&#45;&gt;vbutton_ -->
<g id="edge10" class="edge"><title>vplus&#45;&gt;vbutton_</title>
<path fill="none" stroke="#f94179" d="M152.795,-307.837C145.687,-295.882 136.246,-280.004 129.15,-268.07"/>
</g>
<!-- frame_ -->
<g id="node9" class="node"><title>frame_</title>
<polygon fill="none" stroke="#5eb26b" points="163.4,-196 16.6,-196 16.6,-160 163.4,-160 163.4,-196"/>
<text text-anchor="middle" x="90" y="-175.474" font-family="Avenir Next" font-size="14.00">html:div (frame/Plus)</text>
</g>
<!-- vbutton_&#45;&gt;frame_ -->
<g id="edge11" class="edge"><title>vbutton_&#45;&gt;frame_</title>
<path fill="none" stroke="black" d="M111.831,-231.697C108.565,-223.813 104.626,-214.304 100.998,-205.546"/>
<polygon fill="black" stroke="black" points="104.147,-204.003 97.0861,-196.104 97.68,-206.683 104.147,-204.003"/>
</g>
<!-- content_ -->
<g id="node10" class="node"><title>content_</title>
<polygon fill="none" stroke="black" points="122.031,-124 57.969,-124 57.969,-88 122.031,-88 122.031,-124"/>
<text text-anchor="middle" x="90" y="-103.474" font-family="Avenir Next" font-size="14.00">content</text>
</g>
<!-- frame_&#45;&gt;content_ -->
<g id="edge12" class="edge"><title>frame_&#45;&gt;content_</title>
<path fill="none" stroke="black" d="M90,-159.697C90,-151.983 90,-142.712 90,-134.112"/>
<polygon fill="black" stroke="black" points="93.5001,-134.104 90,-124.104 86.5001,-134.104 93.5001,-134.104"/>
</g>
<!-- textlabel_ -->
<g id="node11" class="node"><title>textlabel_</title>
<polygon fill="none" stroke="#5eb26b" points="161.126,-52 18.874,-52 18.874,-16 161.126,-16 161.126,-52"/>
<text text-anchor="middle" x="90" y="-31.4744" font-family="Avenir Next" font-size="14.00">text (text&#45;label/Plus)</text>
</g>
<!-- content_&#45;&gt;textlabel_ -->
<g id="edge13" class="edge"><title>content_&#45;&gt;textlabel_</title>
<path fill="none" stroke="black" d="M90,-87.6966C90,-79.9827 90,-70.7125 90,-62.1124"/>
<polygon fill="black" stroke="black" points="93.5001,-62.1043 90,-52.1043 86.5001,-62.1044 93.5001,-62.1043"/>
</g>
<!-- frame__ -->
<g id="node13" class="node"><title>frame__</title>
<polygon fill="none" stroke="#5eb26b" points="342.192,-196 181.808,-196 181.808,-160 342.192,-160 342.192,-196"/>
<text text-anchor="middle" x="262" y="-175.474" font-family="Avenir Next" font-size="14.00">html:div (frame/Minus)</text>
</g>
<!-- vbutton__&#45;&gt;frame__ -->
<g id="edge15" class="edge"><title>vbutton__&#45;&gt;frame__</title>
<path fill="none" stroke="black" d="M265.011,-231.697C264.57,-223.983 264.041,-214.712 263.549,-206.112"/>
<polygon fill="black" stroke="black" points="267.042,-205.888 262.977,-196.104 260.054,-206.288 267.042,-205.888"/>
</g>
<!-- content__ -->
<g id="node14" class="node"><title>content__</title>
<polygon fill="none" stroke="black" points="294.031,-124 229.969,-124 229.969,-88 294.031,-88 294.031,-124"/>
<text text-anchor="middle" x="262" y="-103.474" font-family="Avenir Next" font-size="14.00">content</text>
</g>
<!-- frame__&#45;&gt;content__ -->
<g id="edge16" class="edge"><title>frame__&#45;&gt;content__</title>
<path fill="none" stroke="black" d="M262,-159.697C262,-151.983 262,-142.712 262,-134.112"/>
<polygon fill="black" stroke="black" points="265.5,-134.104 262,-124.104 258.5,-134.104 265.5,-134.104"/>
</g>
<!-- textlabel__ -->
<g id="node15" class="node"><title>textlabel__</title>
<polygon fill="none" stroke="#5eb26b" points="338.92,-52 185.08,-52 185.08,-16 338.92,-16 338.92,-52"/>
<text text-anchor="middle" x="262" y="-31.4744" font-family="Avenir Next" font-size="14.00">text (text&#45;label/Minus)</text>
</g>
<!-- content__&#45;&gt;textlabel__ -->
<g id="edge17" class="edge"><title>content__&#45;&gt;textlabel__</title>
<path fill="none" stroke="black" d="M262,-87.6966C262,-79.9827 262,-70.7125 262,-62.1124"/>
<polygon fill="black" stroke="black" points="265.5,-62.1043 262,-52.1043 258.5,-62.1044 265.5,-62.1043"/>
</g>
<!-- vbutton -->
<g id="node18" class="node"><title>vbutton</title>
<polygon fill="none" stroke="black" points="469.338,-268 370.662,-268 370.662,-232 469.338,-232 469.338,-268"/>
<text text-anchor="middle" x="420" y="-247.474" font-family="Avenir Next" font-size="14.00">view (Button)</text>
</g>
<!-- Button&#45;&gt;vbutton -->
<g id="edge20" class="edge"><title>Button&#45;&gt;vbutton</title>
<path fill="none" stroke="#4dbce9" d="M410.691,-303.993C412.099,-295.973 413.726,-286.712 415.222,-278.197"/>
<polygon fill="#4dbce9" stroke="#4dbce9" points="418.675,-278.769 416.958,-268.315 411.781,-277.558 418.675,-278.769"/>
</g>
<!-- frame -->
<g id="node19" class="node"><title>frame</title>
<polygon fill="none" stroke="black" points="482.017,-196 365.983,-196 365.983,-160 482.017,-160 482.017,-196"/>
<text text-anchor="middle" x="424" y="-175.474" font-family="Avenir Next" font-size="14.00">html:div (frame)</text>
</g>
<!-- vbutton&#45;&gt;frame -->
<g id="edge21" class="edge"><title>vbutton&#45;&gt;frame</title>
<path fill="none" stroke="black" d="M420.989,-231.697C421.43,-223.983 421.959,-214.712 422.451,-206.112"/>
<polygon fill="black" stroke="black" points="425.946,-206.288 423.023,-196.104 418.958,-205.888 425.946,-206.288"/>
</g>
<!-- content -->
<g id="node20" class="node"><title>content</title>
<polygon fill="none" stroke="black" points="456.031,-124 391.969,-124 391.969,-88 456.031,-88 456.031,-124"/>
<text text-anchor="middle" x="424" y="-103.474" font-family="Avenir Next" font-size="14.00">content</text>
</g>
<!-- frame&#45;&gt;content -->
<g id="edge22" class="edge"><title>frame&#45;&gt;content</title>
<path fill="none" stroke="black" d="M424,-159.697C424,-151.983 424,-142.712 424,-134.112"/>
<polygon fill="black" stroke="black" points="427.5,-134.104 424,-124.104 420.5,-134.104 427.5,-134.104"/>
</g>
<!-- textlabel -->
<g id="node21" class="node"><title>textlabel</title>
<polygon fill="none" stroke="black" points="479.243,-52 368.757,-52 368.757,-16 479.243,-16 479.243,-52"/>
<text text-anchor="middle" x="424" y="-31.4744" font-family="Avenir Next" font-size="14.00">text (text&#45;label)</text>
</g>
<!-- content&#45;&gt;textlabel -->
<g id="edge23" class="edge"><title>content&#45;&gt;textlabel</title>
<path fill="none" stroke="black" d="M424,-87.6966C424,-79.9827 424,-70.7125 424,-62.1124"/>
<polygon fill="black" stroke="black" points="427.5,-62.1043 424,-52.1043 420.5,-62.1044 427.5,-62.1043"/>
</g>
</g>
</svg>
