<?xml version="1.0" encoding="UTF-8" standalone="no"?>
<!DOCTYPE svg PUBLIC "-//W3C//DTD SVG 1.1//EN"
 "http://www.w3.org/Graphics/SVG/1.1/DTD/svg11.dtd">
<!-- Generated by graphviz version 2.34.0 (20130907.0228)
 -->
<!-- Title: panel Pages: 1 -->
<svg width="482pt" height="460pt"
 viewBox="0.00 0.00 482.00 460.00" xmlns="http://www.w3.org/2000/svg" xmlns:xlink="http://www.w3.org/1999/xlink">
<g id="graph0" class="graph" transform="scale(1 1) rotate(0) translate(4 456)">
<title>panel</title>
<polygon fill="white" stroke="white" points="-4,4 -4,-456 478,-456 478,4 -4,4"/>
<g id="clust1" class="cluster"><title>cluster_panel</title>
<polygon fill="none" stroke="#5eb26b" points="8,-228 8,-444 326,-444 326,-228 8,-228"/>
</g>
<g id="clust2" class="cluster"><title>cluster_button</title>
<polygon fill="none" stroke="#5eb26b" points="334,-8 334,-284 466,-284 466,-8 334,-8"/>
</g>
<!-- div1 -->
<g id="node1" class="node"><title>div1</title>
<polygon fill="none" stroke="black" points="145.455,-352 78.5445,-352 78.5445,-316 145.455,-316 145.455,-352"/>
<text text-anchor="middle" x="112" y="-331.474" font-family="Avenir Next" font-size="14.00">html:div</text>
</g>
<!-- vminus -->
<g id="node2" class="node"><title>vminus</title>
<polygon fill="none" stroke="black" points="317.304,-272 222.696,-272 222.696,-236 317.304,-236 317.304,-272"/>
<text text-anchor="middle" x="270" y="-251.474" font-family="Avenir Next" font-size="14.00">view (Minus)</text>
</g>
<!-- div1&#45;&gt;vminus -->
<g id="edge1" class="edge"><title>div1&#45;&gt;vminus</title>
<path fill="none" stroke="black" d="M145.794,-316.478C148.906,-314.962 152.011,-313.452 155,-312 180.749,-299.497 187.354,-296.713 213,-284 217.668,-281.686 222.539,-279.246 227.383,-276.804"/>
<polygon fill="black" stroke="black" points="229.261,-279.777 236.603,-272.138 226.1,-273.531 229.261,-279.777"/>
</g>
<!-- vplus -->
<g id="node3" class="node"><title>vplus</title>
<polygon fill="none" stroke="black" points="204.013,-272 121.987,-272 121.987,-236 204.013,-236 204.013,-272"/>
<text text-anchor="middle" x="163" y="-251.474" font-family="Avenir Next" font-size="14.00">view (Plus)</text>
</g>
<!-- div1&#45;&gt;vplus -->
<g id="edge3" class="edge"><title>div1&#45;&gt;vplus</title>
<path fill="none" stroke="black" d="M123.319,-315.689C130.053,-305.389 138.723,-292.129 146.241,-280.632"/>
<polygon fill="black" stroke="black" points="149.17,-282.547 151.713,-272.262 143.311,-278.717 149.17,-282.547"/>
</g>
<!-- textn -->
<g id="node4" class="node"><title>textn</title>
<polygon fill="none" stroke="black" points="103.252,-272 16.7483,-272 16.7483,-236 103.252,-236 103.252,-272"/>
<text text-anchor="middle" x="60" y="-251.474" font-family="Avenir Next" font-size="14.00">text (text&#45;n)</text>
</g>
<!-- div1&#45;&gt;textn -->
<g id="edge2" class="edge"><title>div1&#45;&gt;textn</title>
<path fill="none" stroke="black" d="M100.46,-315.689C93.5926,-305.389 84.7526,-292.129 77.0881,-280.632"/>
<polygon fill="black" stroke="black" points="79.9675,-278.641 71.5082,-272.262 74.1431,-282.524 79.9675,-278.641"/>
</g>
<!-- Panel -->
<g id="node5" class="node"><title>Panel</title>
<ellipse fill="none" stroke="black" cx="194" cy="-414" rx="35.4841" ry="21.7689"/>
<text text-anchor="middle" x="194" y="-411.474" font-family="Avenir Next" font-size="14.00">Panel</text>
</g>
<!-- Panel&#45;&gt;div1 -->
<g id="edge4" class="edge"><title>Panel&#45;&gt;div1</title>
<path fill="none" stroke="#4dbce9" d="M175.393,-395.301C164.123,-384.581 149.597,-370.763 137.294,-359.06"/>
<polygon fill="#4dbce9" stroke="#4dbce9" points="139.628,-356.45 129.97,-352.093 134.803,-361.521 139.628,-356.45"/>
</g>
<!-- Plus -->
<g id="node6" class="node"><title>Plus</title>
<ellipse fill="none" stroke="black" cx="194" cy="-334" rx="29.5446" ry="21.7689"/>
<text text-anchor="middle" x="194" y="-331.474" font-family="Avenir Next" font-size="14.00">Plus</text>
</g>
<!-- Panel&#45;&gt;Plus -->
<g id="edge7" class="edge"><title>Panel&#45;&gt;Plus</title>
<path fill="none" stroke="black" d="M194,-392.097C194,-384.141 194,-374.894 194,-366.188"/>
<polygon fill="black" stroke="black" points="197.5,-365.96 194,-355.96 190.5,-365.96 197.5,-365.96"/>
</g>
<!-- Minus -->
<g id="node7" class="node"><title>Minus</title>
<ellipse fill="none" stroke="black" cx="280" cy="-334" rx="38.1875" ry="21.7689"/>
<text text-anchor="middle" x="280" y="-331.474" font-family="Avenir Next" font-size="14.00">Minus</text>
</g>
<!-- Panel&#45;&gt;Minus -->
<g id="edge8" class="edge"><title>Panel&#45;&gt;Minus</title>
<path fill="none" stroke="black" d="M213.515,-395.301C225.088,-384.804 239.936,-371.338 252.663,-359.794"/>
<polygon fill="black" stroke="black" points="255.209,-362.21 260.265,-352.899 250.506,-357.025 255.209,-362.21"/>
</g>
<!-- Plus&#45;&gt;vplus -->
<g id="edge5" class="edge"><title>Plus&#45;&gt;vplus</title>
<path fill="none" stroke="#4dbce9" d="M186.017,-312.913C182.21,-303.335 177.606,-291.749 173.518,-281.465"/>
<polygon fill="#4dbce9" stroke="#4dbce9" points="176.747,-280.112 169.801,-272.111 170.242,-282.697 176.747,-280.112"/>
</g>
<!-- Button -->
<g id="node8" class="node"><title>Button</title>
<ellipse fill="none" stroke="black" cx="383" cy="-254" rx="40.9801" ry="21.7689"/>
<text text-anchor="middle" x="383" y="-251.474" font-family="Avenir Next" font-size="14.00">Button</text>
</g>
<!-- Plus&#45;&gt;Button -->
<g id="edge13" class="edge"><title>Plus&#45;&gt;Button</title>
<path fill="none" stroke="#f94179" d="M216.704,-319.729C221.953,-316.956 227.589,-314.208 233,-312 274.545,-295.045 288.513,-301.095 330,-284 335.855,-281.587 341.896,-278.7 347.71,-275.696"/>
<polygon fill="#f94179" stroke="#f94179" points="349.44,-278.739 356.6,-270.93 346.133,-272.57 349.44,-278.739"/>
</g>
<!-- Minus&#45;&gt;vminus -->
<g id="edge6" class="edge"><title>Minus&#45;&gt;vminus</title>
<path fill="none" stroke="#4dbce9" d="M277.32,-312.097C276.139,-302.885 274.736,-291.941 273.476,-282.111"/>
<polygon fill="#4dbce9" stroke="#4dbce9" points="276.925,-281.49 272.182,-272.017 269.982,-282.38 276.925,-281.49"/>
</g>
<!-- Minus&#45;&gt;Button -->
<g id="edge12" class="edge"><title>Minus&#45;&gt;Button</title>
<path fill="none" stroke="#f94179" d="M302.349,-316.075C316.86,-305.087 335.974,-290.612 351.952,-278.512"/>
<polygon fill="#f94179" stroke="#f94179" points="354.122,-281.259 359.981,-272.432 349.896,-275.679 354.122,-281.259"/>
</g>
<!-- frame -->
<g id="node9" class="node"><title>frame</title>
<polygon fill="none" stroke="black" points="458.017,-196 341.983,-196 341.983,-160 458.017,-160 458.017,-196"/>
<text text-anchor="middle" x="400" y="-175.474" font-family="Avenir Next" font-size="14.00">html:div (frame)</text>
</g>
<!-- Button&#45;&gt;frame -->
<g id="edge9" class="edge"><title>Button&#45;&gt;frame</title>
<path fill="none" stroke="#4dbce9" d="M387.826,-231.993C389.668,-223.973 391.796,-214.712 393.752,-206.197"/>
<polygon fill="#4dbce9" stroke="#4dbce9" points="397.194,-206.844 396.022,-196.315 390.372,-205.277 397.194,-206.844"/>
</g>
<!-- content -->
<g id="node10" class="node"><title>content</title>
<polygon fill="none" stroke="black" points="432.031,-124 367.969,-124 367.969,-88 432.031,-88 432.031,-124"/>
<text text-anchor="middle" x="400" y="-103.474" font-family="Avenir Next" font-size="14.00">content</text>
</g>
<!-- frame&#45;&gt;content -->
<g id="edge10" class="edge"><title>frame&#45;&gt;content</title>
<path fill="none" stroke="black" d="M400,-159.697C400,-151.983 400,-142.712 400,-134.112"/>
<polygon fill="black" stroke="black" points="403.5,-134.104 400,-124.104 396.5,-134.104 403.5,-134.104"/>
</g>
<!-- textlabel -->
<g id="node11" class="node"><title>textlabel</title>
<polygon fill="none" stroke="black" points="455.243,-52 344.757,-52 344.757,-16 455.243,-16 455.243,-52"/>
<text text-anchor="middle" x="400" y="-31.4744" font-family="Avenir Next" font-size="14.00">text (text&#45;label)</text>
</g>
<!-- content&#45;&gt;textlabel -->
<g id="edge11" class="edge"><title>content&#45;&gt;textlabel</title>
<path fill="none" stroke="black" d="M400,-87.6966C400,-79.9827 400,-70.7125 400,-62.1124"/>
<polygon fill="black" stroke="black" points="403.5,-62.1043 400,-52.1043 396.5,-62.1044 403.5,-62.1043"/>
</g>
</g>
</svg>
