<?xml version="1.0" encoding="UTF-8" standalone="no"?>
<!DOCTYPE svg PUBLIC "-//W3C//DTD SVG 1.1//EN"
 "http://www.w3.org/Graphics/SVG/1.1/DTD/svg11.dtd">
<!-- Generated by graphviz version 2.34.0 (20130907.0228)
 -->
<!-- Title: panel Pages: 1 -->
<svg width="888pt" height="612pt"
 viewBox="0.00 0.00 888.00 612.00" xmlns="http://www.w3.org/2000/svg" xmlns:xlink="http://www.w3.org/1999/xlink">
<g id="graph0" class="graph" transform="scale(1 1) rotate(0) translate(4 608)">
<title>panel</title>
<polygon fill="white" stroke="white" points="-4,4 -4,-608 884,-608 884,4 -4,4"/>
<g id="clust1" class="cluster"><title>cluster_panel</title>
<polygon fill="none" stroke="white" points="8,-16 8,-596 594,-596 594,-16 8,-16"/>
</g>
<g id="clust5" class="cluster"><title>cluster_minus_stack</title>
<polygon fill="none" stroke="#f94179" points="447,-232 447,-360 563,-360 563,-232 447,-232"/>
</g>
<g id="clust4" class="cluster"><title>cluster_plus_stack</title>
<polygon fill="none" stroke="#f94179" points="323,-232 323,-360 439,-360 439,-232 323,-232"/>
</g>
<g id="clust3" class="cluster"><title>cluster_panel_stack</title>
<polygon fill="none" stroke="#f94179" points="335,-464 335,-516 443,-516 443,-464 335,-464"/>
</g>
<g id="clust6" class="cluster"><title>cluster_button</title>
<polygon fill="none" stroke="white" points="602,-8 602,-364 872,-364 872,-8 602,-8"/>
</g>
<g id="clust7" class="cluster"><title>cluster_unrendered</title>
<polygon fill="none" stroke="gray" points="610,-16 610,-284 864,-284 864,-16 610,-16"/>
</g>
<!-- Panel -->
<g id="node1" class="node"><title>Panel</title>
<ellipse fill="none" stroke="black" cx="462" cy="-566" rx="35.4841" ry="21.7689"/>
<text text-anchor="middle" x="462" y="-563.474" font-family="Avenir Next" font-size="14.00">Panel</text>
</g>
<!-- vpanel -->
<g id="node2" class="node"><title>vpanel</title>
<polygon fill="none" stroke="black" points="434.332,-508 343.668,-508 343.668,-472 434.332,-472 434.332,-508"/>
<text text-anchor="middle" x="389" y="-487.474" font-family="Avenir Next" font-size="14.00">view (Panel)</text>
</g>
<!-- Panel&#45;&gt;vpanel -->
<g id="edge1" class="edge"><title>Panel&#45;&gt;vpanel</title>
<path fill="none" stroke="#4dbce9" d="M443.955,-546.708C434.578,-537.202 422.995,-525.461 412.885,-515.213"/>
<polygon fill="#4dbce9" stroke="#4dbce9" points="415.351,-512.728 405.836,-508.067 410.368,-517.644 415.351,-512.728"/>
</g>
<!-- Plus -->
<g id="node3" class="node"><title>Plus</title>
<ellipse fill="none" stroke="black" cx="462" cy="-414" rx="29.5446" ry="21.7689"/>
<text text-anchor="middle" x="462" y="-411.474" font-family="Avenir Next" font-size="14.00">Plus</text>
</g>
<!-- Panel&#45;&gt;Plus -->
<g id="edge2" class="edge"><title>Panel&#45;&gt;Plus</title>
<path fill="none" stroke="black" d="M462,-543.827C462,-518.366 462,-475.412 462,-446.163"/>
<polygon fill="black" stroke="black" points="465.5,-446.065 462,-436.065 458.5,-446.066 465.5,-446.065"/>
</g>
<!-- Minus -->
<g id="node4" class="node"><title>Minus</title>
<ellipse fill="none" stroke="black" cx="548" cy="-414" rx="38.1875" ry="21.7689"/>
<text text-anchor="middle" x="548" y="-411.474" font-family="Avenir Next" font-size="14.00">Minus</text>
</g>
<!-- Panel&#45;&gt;Minus -->
<g id="edge3" class="edge"><title>Panel&#45;&gt;Minus</title>
<path fill="none" stroke="black" d="M473.42,-545.081C488.263,-519.193 514.292,-473.792 531.339,-444.06"/>
<polygon fill="black" stroke="black" points="534.595,-445.417 536.533,-435.001 528.522,-441.936 534.595,-445.417"/>
</g>
<!-- div1 -->
<g id="node9" class="node"><title>div1</title>
<polygon fill="none" stroke="#5eb26b" points="413.455,-432 346.545,-432 346.545,-396 413.455,-396 413.455,-432"/>
<text text-anchor="middle" x="380" y="-411.474" font-family="Avenir Next" font-size="14.00">html:div</text>
</g>
<!-- vpanel&#45;&gt;div1 -->
<g id="edge4" class="edge"><title>vpanel&#45;&gt;div1</title>
<path fill="none" stroke="black" d="M386.913,-471.837C385.845,-463.058 384.52,-452.163 383.316,-442.267"/>
<polygon fill="black" stroke="black" points="386.758,-441.574 382.076,-432.07 379.809,-442.419 386.758,-441.574"/>
</g>
<!-- vplus -->
<g id="node5" class="node"><title>vplus</title>
<polygon fill="none" stroke="black" points="422.013,-352 339.987,-352 339.987,-316 422.013,-316 422.013,-352"/>
<text text-anchor="middle" x="381" y="-331.474" font-family="Avenir Next" font-size="14.00">view (Plus)</text>
</g>
<!-- Plus&#45;&gt;vplus -->
<g id="edge8" class="edge"><title>Plus&#45;&gt;vplus</title>
<path fill="none" stroke="#4dbce9" d="M444.424,-396.075C433.25,-385.315 418.604,-371.212 406.202,-359.269"/>
<polygon fill="#4dbce9" stroke="#4dbce9" points="408.452,-356.576 398.821,-352.161 403.597,-361.619 408.452,-356.576"/>
</g>
<!-- Button -->
<g id="node21" class="node"><title>Button</title>
<ellipse fill="none" stroke="black" cx="651" cy="-334" rx="40.9801" ry="21.7689"/>
<text text-anchor="middle" x="651" y="-331.474" font-family="Avenir Next" font-size="14.00">Button</text>
</g>
<!-- Plus&#45;&gt;Button -->
<g id="edge23" class="edge"><title>Plus&#45;&gt;Button</title>
<path fill="none" stroke="#f94179" d="M484.845,-400.056C490.087,-397.266 495.684,-394.429 501,-392 536.059,-375.983 577.037,-360.629 607.296,-349.901"/>
<polygon fill="#f94179" stroke="#f94179" points="608.849,-353.064 617.122,-346.445 606.527,-346.461 608.849,-353.064"/>
</g>
<!-- vminus -->
<g id="node7" class="node"><title>vminus</title>
<polygon fill="none" stroke="black" points="552.304,-352 457.696,-352 457.696,-316 552.304,-316 552.304,-352"/>
<text text-anchor="middle" x="505" y="-331.474" font-family="Avenir Next" font-size="14.00">view (Minus)</text>
</g>
<!-- Minus&#45;&gt;vminus -->
<g id="edge9" class="edge"><title>Minus&#45;&gt;vminus</title>
<path fill="none" stroke="#4dbce9" d="M536.926,-392.913C531.592,-383.237 525.128,-371.51 519.415,-361.147"/>
<polygon fill="#4dbce9" stroke="#4dbce9" points="522.326,-359.179 514.433,-352.111 516.196,-362.559 522.326,-359.179"/>
</g>
<!-- Minus&#45;&gt;Button -->
<g id="edge22" class="edge"><title>Minus&#45;&gt;Button</title>
<path fill="none" stroke="#f94179" d="M570.349,-396.075C584.86,-385.087 603.974,-370.612 619.952,-358.512"/>
<polygon fill="#f94179" stroke="#f94179" points="622.122,-361.259 627.981,-352.432 617.896,-355.679 622.122,-361.259"/>
</g>
<!-- vbutton_ -->
<g id="node6" class="node"><title>vbutton_</title>
<polygon fill="none" stroke="black" points="430.338,-276 331.662,-276 331.662,-240 430.338,-240 430.338,-276"/>
<text text-anchor="middle" x="381" y="-255.474" font-family="Avenir Next" font-size="14.00">view (Button)</text>
</g>
<!-- vplus&#45;&gt;vbutton_ -->
<g id="edge10" class="edge"><title>vplus&#45;&gt;vbutton_</title>
<path fill="none" stroke="#f94179" d="M381,-315.837C381,-303.882 381,-288.004 381,-276.07"/>
</g>
<!-- frame_ -->
<g id="node10" class="node"><title>frame_</title>
<polygon fill="none" stroke="#5eb26b" points="288.4,-204 141.6,-204 141.6,-168 288.4,-168 288.4,-204"/>
<text text-anchor="middle" x="215" y="-183.474" font-family="Avenir Next" font-size="14.00">html:div (frame/Plus)</text>
</g>
<!-- vbutton_&#45;&gt;frame_ -->
<g id="edge11" class="edge"><title>vbutton_&#45;&gt;frame_</title>
<path fill="none" stroke="black" d="M340.392,-239.876C317.598,-230.264 288.973,-218.193 264.83,-208.013"/>
<polygon fill="black" stroke="black" points="266.051,-204.729 255.476,-204.068 263.331,-211.179 266.051,-204.729"/>
</g>
<!-- vbutton__ -->
<g id="node8" class="node"><title>vbutton__</title>
<polygon fill="none" stroke="black" points="554.338,-276 455.662,-276 455.662,-240 554.338,-240 554.338,-276"/>
<text text-anchor="middle" x="505" y="-255.474" font-family="Avenir Next" font-size="14.00">view (Button)</text>
</g>
<!-- vminus&#45;&gt;vbutton__ -->
<g id="edge16" class="edge"><title>vminus&#45;&gt;vbutton__</title>
<path fill="none" stroke="#f94179" d="M505,-315.837C505,-303.882 505,-288.004 505,-276.07"/>
</g>
<!-- frame__ -->
<g id="node15" class="node"><title>frame__</title>
<polygon fill="none" stroke="#5eb26b" points="585.192,-204 424.808,-204 424.808,-168 585.192,-168 585.192,-204"/>
<text text-anchor="middle" x="505" y="-183.474" font-family="Avenir Next" font-size="14.00">html:div (frame/Minus)</text>
</g>
<!-- vbutton__&#45;&gt;frame__ -->
<g id="edge17" class="edge"><title>vbutton__&#45;&gt;frame__</title>
<path fill="none" stroke="black" d="M505,-239.697C505,-231.983 505,-222.712 505,-214.112"/>
<polygon fill="black" stroke="black" points="508.5,-214.104 505,-204.104 501.5,-214.104 508.5,-214.104"/>
</g>
<!-- div1&#45;&gt;vplus -->
<g id="edge7" class="edge"><title>div1&#45;&gt;vplus</title>
<path fill="none" stroke="black" d="M380.222,-395.689C380.348,-385.894 380.507,-373.422 380.65,-362.335"/>
<polygon fill="black" stroke="black" points="384.15,-362.306 380.779,-352.262 377.151,-362.217 384.15,-362.306"/>
</g>
<!-- div1&#45;&gt;vminus -->
<g id="edge6" class="edge"><title>div1&#45;&gt;vminus</title>
<path fill="none" stroke="black" d="M407.432,-395.883C425.505,-384.605 449.363,-369.717 468.963,-357.487"/>
<polygon fill="black" stroke="black" points="471.001,-360.341 477.632,-352.078 467.296,-354.402 471.001,-360.341"/>
</g>
<!-- textn -->
<g id="node20" class="node"><title>textn</title>
<polygon fill="none" stroke="#5eb26b" points="314.454,-352 187.546,-352 187.546,-316 314.454,-316 314.454,-352"/>
<text text-anchor="middle" x="251" y="-331.474" font-family="Avenir Next" font-size="14.00">text (text&#45;n/Panel)</text>
</g>
<!-- div1&#45;&gt;textn -->
<g id="edge5" class="edge"><title>div1&#45;&gt;textn</title>
<path fill="none" stroke="black" d="M351.69,-395.883C332.955,-384.554 308.195,-369.583 287.917,-357.322"/>
<polygon fill="black" stroke="black" points="289.612,-354.257 279.244,-352.078 285.99,-360.247 289.612,-354.257"/>
</g>
<!-- attr_ -->
<g id="node11" class="node"><title>attr_</title>
<polygon fill="none" stroke="black" points="146.314,-132 33.6861,-132 33.6861,-96 146.314,-96 146.314,-132"/>
<text text-anchor="middle" x="90" y="-111.474" font-family="Avenir Next" font-size="14.00">attribute (class)</text>
</g>
<!-- frame_&#45;&gt;attr_ -->
<g id="edge12" class="edge"><title>frame_&#45;&gt;attr_</title>
<path fill="none" stroke="black" d="M184.422,-167.876C167.926,-158.639 147.376,-147.131 129.664,-137.212"/>
<polygon fill="black" stroke="black" points="131.131,-134.022 120.696,-132.19 127.711,-140.13 131.131,-134.022"/>
</g>
<!-- content_ -->
<g id="node13" class="node"><title>content_</title>
<polygon fill="none" stroke="black" points="247.031,-132 182.969,-132 182.969,-96 247.031,-96 247.031,-132"/>
<text text-anchor="middle" x="215" y="-111.474" font-family="Avenir Next" font-size="14.00">content</text>
</g>
<!-- frame_&#45;&gt;content_ -->
<g id="edge14" class="edge"><title>frame_&#45;&gt;content_</title>
<path fill="none" stroke="black" d="M215,-167.697C215,-159.983 215,-150.712 215,-142.112"/>
<polygon fill="black" stroke="black" points="218.5,-142.104 215,-132.104 211.5,-142.104 218.5,-142.104"/>
</g>
<!-- textclass_ -->
<g id="node12" class="node"><title>textclass_</title>
<polygon fill="none" stroke="black" points="125.476,-60 16.5239,-60 16.5239,-24 125.476,-24 125.476,-60"/>
<text text-anchor="middle" x="71" y="-39.4744" font-family="Avenir Next" font-size="14.00">text (text&#45;class)</text>
</g>
<!-- attr_&#45;&gt;textclass_ -->
<g id="edge13" class="edge"><title>attr_&#45;&gt;textclass_</title>
<path fill="none" stroke="black" d="M85.3034,-95.6966C83.1866,-87.8979 80.638,-78.5085 78.2822,-69.8292"/>
<polygon fill="black" stroke="black" points="81.64,-68.8383 75.6426,-60.1043 74.8844,-70.672 81.64,-68.8383"/>
</g>
<!-- textlabel_ -->
<g id="node14" class="node"><title>textlabel_</title>
<polygon fill="none" stroke="#5eb26b" points="286.126,-60 143.874,-60 143.874,-24 286.126,-24 286.126,-60"/>
<text text-anchor="middle" x="215" y="-39.4744" font-family="Avenir Next" font-size="14.00">text (text&#45;label/Plus)</text>
</g>
<!-- content_&#45;&gt;textlabel_ -->
<g id="edge15" class="edge"><title>content_&#45;&gt;textlabel_</title>
<path fill="none" stroke="black" d="M215,-95.6966C215,-87.9827 215,-78.7125 215,-70.1124"/>
<polygon fill="black" stroke="black" points="218.5,-70.1043 215,-60.1043 211.5,-70.1044 218.5,-70.1043"/>
</g>
<!-- attr__ -->
<g id="node16" class="node"><title>attr__</title>
<polygon fill="none" stroke="black" points="435.314,-132 322.686,-132 322.686,-96 435.314,-96 435.314,-132"/>
<text text-anchor="middle" x="379" y="-111.474" font-family="Avenir Next" font-size="14.00">attribute (class)</text>
</g>
<!-- frame__&#45;&gt;attr__ -->
<g id="edge18" class="edge"><title>frame__&#45;&gt;attr__</title>
<path fill="none" stroke="black" d="M474.177,-167.876C457.55,-158.639 436.835,-147.131 418.981,-137.212"/>
<polygon fill="black" stroke="black" points="420.383,-133.987 409.942,-132.19 416.983,-140.106 420.383,-133.987"/>
</g>
<!-- content__ -->
<g id="node18" class="node"><title>content__</title>
<polygon fill="none" stroke="black" points="539.031,-132 474.969,-132 474.969,-96 539.031,-96 539.031,-132"/>
<text text-anchor="middle" x="507" y="-111.474" font-family="Avenir Next" font-size="14.00">content</text>
</g>
<!-- frame__&#45;&gt;content__ -->
<g id="edge20" class="edge"><title>frame__&#45;&gt;content__</title>
<path fill="none" stroke="black" d="M505.494,-167.697C505.715,-159.983 505.98,-150.712 506.225,-142.112"/>
<polygon fill="black" stroke="black" points="509.724,-142.2 506.511,-132.104 502.727,-142 509.724,-142.2"/>
</g>
<!-- textclass__ -->
<g id="node17" class="node"><title>textclass__</title>
<polygon fill="none" stroke="black" points="413.476,-60 304.524,-60 304.524,-24 413.476,-24 413.476,-60"/>
<text text-anchor="middle" x="359" y="-39.4744" font-family="Avenir Next" font-size="14.00">text (text&#45;class)</text>
</g>
<!-- attr__&#45;&gt;textclass__ -->
<g id="edge19" class="edge"><title>attr__&#45;&gt;textclass__</title>
<path fill="none" stroke="black" d="M374.056,-95.6966C371.828,-87.8979 369.145,-78.5085 366.665,-69.8292"/>
<polygon fill="black" stroke="black" points="370,-68.758 363.887,-60.1043 363.269,-70.6811 370,-68.758"/>
</g>
<!-- textlabel__ -->
<g id="node19" class="node"><title>textlabel__</title>
<polygon fill="none" stroke="#5eb26b" points="585.92,-60 432.08,-60 432.08,-24 585.92,-24 585.92,-60"/>
<text text-anchor="middle" x="509" y="-39.4744" font-family="Avenir Next" font-size="14.00">text (text&#45;label/Minus)</text>
</g>
<!-- content__&#45;&gt;textlabel__ -->
<g id="edge21" class="edge"><title>content__&#45;&gt;textlabel__</title>
<path fill="none" stroke="black" d="M507.494,-95.6966C507.715,-87.9827 507.98,-78.7125 508.225,-70.1124"/>
<polygon fill="black" stroke="black" points="511.724,-70.2002 508.511,-60.1043 504.727,-70.0003 511.724,-70.2002"/>
</g>
<!-- vbutton -->
<g id="node22" class="node"><title>vbutton</title>
<polygon fill="none" stroke="black" points="721.338,-276 622.662,-276 622.662,-240 721.338,-240 721.338,-276"/>
<text text-anchor="middle" x="672" y="-255.474" font-family="Avenir Next" font-size="14.00">view (Button)</text>
</g>
<!-- Button&#45;&gt;vbutton -->
<g id="edge24" class="edge"><title>Button&#45;&gt;vbutton</title>
<path fill="none" stroke="#4dbce9" d="M656.962,-311.993C659.237,-303.973 661.866,-294.712 664.282,-286.197"/>
<polygon fill="#4dbce9" stroke="#4dbce9" points="667.723,-286.89 667.086,-276.315 660.989,-284.979 667.723,-286.89"/>
</g>
<!-- frame -->
<g id="node23" class="node"><title>frame</title>
<polygon fill="none" stroke="black" points="734.017,-204 617.983,-204 617.983,-168 734.017,-168 734.017,-204"/>
<text text-anchor="middle" x="676" y="-183.474" font-family="Avenir Next" font-size="14.00">html:div (frame)</text>
</g>
<!-- vbutton&#45;&gt;frame -->
<g id="edge25" class="edge"><title>vbutton&#45;&gt;frame</title>
<path fill="none" stroke="black" d="M672.989,-239.697C673.43,-231.983 673.959,-222.712 674.451,-214.112"/>
<polygon fill="black" stroke="black" points="677.946,-214.288 675.023,-204.104 670.958,-213.888 677.946,-214.288"/>
</g>
<!-- content -->
<g id="node24" class="node"><title>content</title>
<polygon fill="none" stroke="black" points="706.031,-132 641.969,-132 641.969,-96 706.031,-96 706.031,-132"/>
<text text-anchor="middle" x="674" y="-111.474" font-family="Avenir Next" font-size="14.00">content</text>
</g>
<!-- frame&#45;&gt;content -->
<g id="edge28" class="edge"><title>frame&#45;&gt;content</title>
<path fill="none" stroke="black" d="M675.506,-167.697C675.285,-159.983 675.02,-150.712 674.775,-142.112"/>
<polygon fill="black" stroke="black" points="678.273,-142 674.489,-132.104 671.276,-142.2 678.273,-142"/>
</g>
<!-- attr -->
<g id="node25" class="node"><title>attr</title>
<polygon fill="none" stroke="black" points="847.314,-132 734.686,-132 734.686,-96 847.314,-96 847.314,-132"/>
<text text-anchor="middle" x="791" y="-111.474" font-family="Avenir Next" font-size="14.00">attribute (class)</text>
</g>
<!-- frame&#45;&gt;attr -->
<g id="edge26" class="edge"><title>frame&#45;&gt;attr</title>
<path fill="none" stroke="black" d="M704.132,-167.876C719.168,-158.724 737.867,-147.342 754.06,-137.485"/>
<polygon fill="black" stroke="black" points="756.038,-140.379 762.76,-132.19 752.398,-134.4 756.038,-140.379"/>
</g>
<!-- textlabel -->
<g id="node27" class="node"><title>textlabel</title>
<polygon fill="none" stroke="black" points="728.243,-60 617.757,-60 617.757,-24 728.243,-24 728.243,-60"/>
<text text-anchor="middle" x="673" y="-39.4744" font-family="Avenir Next" font-size="14.00">text (text&#45;label)</text>
</g>
<!-- content&#45;&gt;textlabel -->
<g id="edge29" class="edge"><title>content&#45;&gt;textlabel</title>
<path fill="none" stroke="black" d="M673.753,-95.6966C673.643,-87.9827 673.51,-78.7125 673.387,-70.1124"/>
<polygon fill="black" stroke="black" points="676.887,-70.0533 673.244,-60.1043 669.888,-70.1533 676.887,-70.0533"/>
</g>
<!-- textclass -->
<g id="node26" class="node"><title>textclass</title>
<polygon fill="none" stroke="black" points="855.476,-60 746.524,-60 746.524,-24 855.476,-24 855.476,-60"/>
<text text-anchor="middle" x="801" y="-39.4744" font-family="Avenir Next" font-size="14.00">text (text&#45;class)</text>
</g>
<!-- attr&#45;&gt;textclass -->
<g id="edge27" class="edge"><title>attr&#45;&gt;textclass</title>
<path fill="none" stroke="black" d="M793.472,-95.6966C794.574,-87.9827 795.898,-78.7125 797.127,-70.1124"/>
<polygon fill="black" stroke="black" points="800.607,-70.4988 798.557,-60.1043 793.677,-69.5088 800.607,-70.4988"/>
</g>
</g>
</svg>
