<?xml version="1.0" encoding="UTF-8" standalone="no"?>
<!DOCTYPE svg PUBLIC "-//W3C//DTD SVG 1.1//EN"
 "http://www.w3.org/Graphics/SVG/1.1/DTD/svg11.dtd">
<!-- Generated by graphviz version 2.34.0 (20130907.0228)
 -->
<!-- Title: panel Pages: 1 -->
<svg width="572pt" height="612pt"
 viewBox="0.00 0.00 572.00 612.00" xmlns="http://www.w3.org/2000/svg" xmlns:xlink="http://www.w3.org/1999/xlink">
<g id="graph0" class="graph" transform="scale(1 1) rotate(0) translate(4 608)">
<title>panel</title>
<polygon fill="white" stroke="white" points="-4,4 -4,-608 568,-608 568,4 -4,4"/>
<g id="clust1" class="cluster"><title>cluster_panel</title>
<polygon fill="none" stroke="white" points="8,-16 8,-596 400,-596 400,-16 8,-16"/>
</g>
<g id="clust3" class="cluster"><title>cluster_panel_stack</title>
<polygon fill="none" stroke="#f94179" points="141,-464 141,-516 249,-516 249,-464 141,-464"/>
</g>
<g id="clust4" class="cluster"><title>cluster_plus_stack</title>
<polygon fill="none" stroke="#f94179" points="152,-232 152,-360 268,-360 268,-232 152,-232"/>
</g>
<g id="clust5" class="cluster"><title>cluster_minus_stack</title>
<polygon fill="none" stroke="#f94179" points="276,-232 276,-360 392,-360 392,-232 276,-232"/>
</g>
<g id="clust6" class="cluster"><title>cluster_button</title>
<polygon fill="none" stroke="white" points="408,-8 408,-364 556,-364 556,-8 408,-8"/>
</g>
<g id="clust7" class="cluster"><title>cluster_unrendered</title>
<polygon fill="none" stroke="gray" points="416,-16 416,-284 548,-284 548,-16 416,-16"/>
</g>
<!-- Panel -->
<g id="node1" class="node"><title>Panel</title>
<ellipse fill="none" stroke="black" cx="268" cy="-566" rx="35.4841" ry="21.7689"/>
<text text-anchor="middle" x="268" y="-563.474" font-family="Avenir Next" font-size="14.00">Panel</text>
</g>
<!-- vpanel -->
<g id="node2" class="node"><title>vpanel</title>
<polygon fill="none" stroke="black" points="240.332,-508 149.668,-508 149.668,-472 240.332,-472 240.332,-508"/>
<text text-anchor="middle" x="195" y="-487.474" font-family="Avenir Next" font-size="14.00">view (Panel)</text>
</g>
<!-- Panel&#45;&gt;vpanel -->
<g id="edge1" class="edge"><title>Panel&#45;&gt;vpanel</title>
<path fill="none" stroke="#4dbce9" d="M249.955,-546.708C240.578,-537.202 228.995,-525.461 218.885,-515.213"/>
<polygon fill="#4dbce9" stroke="#4dbce9" points="221.351,-512.728 211.836,-508.067 216.368,-517.644 221.351,-512.728"/>
</g>
<!-- Plus -->
<g id="node3" class="node"><title>Plus</title>
<ellipse fill="none" stroke="black" cx="268" cy="-414" rx="29.5446" ry="21.7689"/>
<text text-anchor="middle" x="268" y="-411.474" font-family="Avenir Next" font-size="14.00">Plus</text>
</g>
<!-- Panel&#45;&gt;Plus -->
<g id="edge2" class="edge"><title>Panel&#45;&gt;Plus</title>
<path fill="none" stroke="black" d="M268,-543.827C268,-518.366 268,-475.412 268,-446.163"/>
<polygon fill="black" stroke="black" points="271.5,-446.065 268,-436.065 264.5,-446.066 271.5,-446.065"/>
</g>
<!-- Minus -->
<g id="node4" class="node"><title>Minus</title>
<ellipse fill="none" stroke="black" cx="354" cy="-414" rx="38.1875" ry="21.7689"/>
<text text-anchor="middle" x="354" y="-411.474" font-family="Avenir Next" font-size="14.00">Minus</text>
</g>
<!-- Panel&#45;&gt;Minus -->
<g id="edge3" class="edge"><title>Panel&#45;&gt;Minus</title>
<path fill="none" stroke="black" d="M279.42,-545.081C294.263,-519.193 320.292,-473.792 337.339,-444.06"/>
<polygon fill="black" stroke="black" points="340.595,-445.417 342.533,-435.001 334.522,-441.936 340.595,-445.417"/>
</g>
<!-- div1 -->
<g id="node9" class="node"><title>div1</title>
<polygon fill="none" stroke="#5eb26b" points="219.455,-432 152.545,-432 152.545,-396 219.455,-396 219.455,-432"/>
<text text-anchor="middle" x="186" y="-411.474" font-family="Avenir Next" font-size="14.00">html:div</text>
</g>
<!-- vpanel&#45;&gt;div1 -->
<g id="edge4" class="edge"><title>vpanel&#45;&gt;div1</title>
<path fill="none" stroke="black" d="M192.913,-471.837C191.845,-463.058 190.52,-452.163 189.316,-442.267"/>
<polygon fill="black" stroke="black" points="192.758,-441.574 188.076,-432.07 185.809,-442.419 192.758,-441.574"/>
</g>
<!-- vplus -->
<g id="node5" class="node"><title>vplus</title>
<polygon fill="none" stroke="black" points="251.013,-352 168.987,-352 168.987,-316 251.013,-316 251.013,-352"/>
<text text-anchor="middle" x="210" y="-331.474" font-family="Avenir Next" font-size="14.00">view (Plus)</text>
</g>
<!-- Plus&#45;&gt;vplus -->
<g id="edge8" class="edge"><title>Plus&#45;&gt;vplus</title>
<path fill="none" stroke="#4dbce9" d="M254.255,-394.515C246.62,-384.248 237.014,-371.329 228.704,-360.153"/>
<polygon fill="#4dbce9" stroke="#4dbce9" points="231.431,-357.956 222.656,-352.02 225.814,-362.133 231.431,-357.956"/>
</g>
<!-- Button -->
<g id="node17" class="node"><title>Button</title>
<ellipse fill="none" stroke="black" cx="457" cy="-334" rx="40.9801" ry="21.7689"/>
<text text-anchor="middle" x="457" y="-331.474" font-family="Avenir Next" font-size="14.00">Button</text>
</g>
<!-- Plus&#45;&gt;Button -->
<g id="edge19" class="edge"><title>Plus&#45;&gt;Button</title>
<path fill="none" stroke="#f94179" d="M290.743,-399.824C295.991,-397.047 301.616,-394.273 307,-392 345.204,-375.876 357.404,-379.161 396,-364 403.521,-361.046 411.412,-357.581 418.93,-354.094"/>
<polygon fill="#f94179" stroke="#f94179" points="420.659,-357.148 428.197,-349.703 417.661,-350.822 420.659,-357.148"/>
</g>
<!-- vminus -->
<g id="node7" class="node"><title>vminus</title>
<polygon fill="none" stroke="black" points="381.304,-352 286.696,-352 286.696,-316 381.304,-316 381.304,-352"/>
<text text-anchor="middle" x="334" y="-331.474" font-family="Avenir Next" font-size="14.00">view (Minus)</text>
</g>
<!-- Minus&#45;&gt;vminus -->
<g id="edge9" class="edge"><title>Minus&#45;&gt;vminus</title>
<path fill="none" stroke="#4dbce9" d="M348.64,-392.097C346.253,-382.787 343.412,-371.708 340.871,-361.798"/>
<polygon fill="#4dbce9" stroke="#4dbce9" points="344.237,-360.834 338.363,-352.017 337.457,-362.573 344.237,-360.834"/>
</g>
<!-- Minus&#45;&gt;Button -->
<g id="edge18" class="edge"><title>Minus&#45;&gt;Button</title>
<path fill="none" stroke="#f94179" d="M376.349,-396.075C390.86,-385.087 409.974,-370.612 425.952,-358.512"/>
<polygon fill="#f94179" stroke="#f94179" points="428.122,-361.259 433.981,-352.432 423.896,-355.679 428.122,-361.259"/>
</g>
<!-- vbutton_ -->
<g id="node6" class="node"><title>vbutton_</title>
<polygon fill="none" stroke="black" points="259.338,-276 160.662,-276 160.662,-240 259.338,-240 259.338,-276"/>
<text text-anchor="middle" x="210" y="-255.474" font-family="Avenir Next" font-size="14.00">view (Button)</text>
</g>
<!-- vplus&#45;&gt;vbutton_ -->
<g id="edge10" class="edge"><title>vplus&#45;&gt;vbutton_</title>
<path fill="none" stroke="#f94179" d="M210,-315.837C210,-303.882 210,-288.004 210,-276.07"/>
</g>
<!-- frame_ -->
<g id="node10" class="node"><title>frame_</title>
<polygon fill="none" stroke="#5eb26b" points="213.4,-204 66.6,-204 66.6,-168 213.4,-168 213.4,-204"/>
<text text-anchor="middle" x="140" y="-183.474" font-family="Avenir Next" font-size="14.00">html:div (frame/Plus)</text>
</g>
<!-- vbutton_&#45;&gt;frame_ -->
<g id="edge11" class="edge"><title>vbutton_&#45;&gt;frame_</title>
<path fill="none" stroke="black" d="M192.697,-239.697C184.135,-231.135 173.656,-220.656 164.304,-211.304"/>
<polygon fill="black" stroke="black" points="166.65,-208.701 157.104,-204.104 161.701,-213.65 166.65,-208.701"/>
</g>
<!-- vbutton__ -->
<g id="node8" class="node"><title>vbutton__</title>
<polygon fill="none" stroke="black" points="383.338,-276 284.662,-276 284.662,-240 383.338,-240 383.338,-276"/>
<text text-anchor="middle" x="334" y="-255.474" font-family="Avenir Next" font-size="14.00">view (Button)</text>
</g>
<!-- vminus&#45;&gt;vbutton__ -->
<g id="edge14" class="edge"><title>vminus&#45;&gt;vbutton__</title>
<path fill="none" stroke="#f94179" d="M334,-315.837C334,-303.882 334,-288.004 334,-276.07"/>
</g>
<!-- frame__ -->
<g id="node13" class="node"><title>frame__</title>
<polygon fill="none" stroke="#5eb26b" points="392.192,-204 231.808,-204 231.808,-168 392.192,-168 392.192,-204"/>
<text text-anchor="middle" x="312" y="-183.474" font-family="Avenir Next" font-size="14.00">html:div (frame/Minus)</text>
</g>
<!-- vbutton__&#45;&gt;frame__ -->
<g id="edge15" class="edge"><title>vbutton__&#45;&gt;frame__</title>
<path fill="none" stroke="black" d="M328.562,-239.697C326.111,-231.898 323.16,-222.509 320.432,-213.829"/>
<polygon fill="black" stroke="black" points="323.713,-212.595 317.376,-204.104 317.035,-214.694 323.713,-212.595"/>
</g>
<!-- div1&#45;&gt;vplus -->
<g id="edge7" class="edge"><title>div1&#45;&gt;vplus</title>
<path fill="none" stroke="black" d="M191.326,-395.689C194.371,-385.793 198.257,-373.164 201.695,-361.993"/>
<polygon fill="black" stroke="black" points="205.093,-362.849 204.689,-352.262 198.402,-360.791 205.093,-362.849"/>
</g>
<!-- div1&#45;&gt;vminus -->
<g id="edge6" class="edge"><title>div1&#45;&gt;vminus</title>
<path fill="none" stroke="black" d="M218.479,-395.883C240.264,-384.402 269.146,-369.18 292.581,-356.829"/>
<polygon fill="black" stroke="black" points="294.382,-359.836 301.597,-352.078 291.118,-353.644 294.382,-359.836"/>
</g>
<!-- textn -->
<g id="node16" class="node"><title>textn</title>
<polygon fill="none" stroke="#5eb26b" points="143.454,-352 16.5464,-352 16.5464,-316 143.454,-316 143.454,-352"/>
<text text-anchor="middle" x="80" y="-331.474" font-family="Avenir Next" font-size="14.00">text (text&#45;n/Panel)</text>
</g>
<!-- div1&#45;&gt;textn -->
<g id="edge5" class="edge"><title>div1&#45;&gt;textn</title>
<path fill="none" stroke="black" d="M162.738,-395.883C147.688,-384.808 127.908,-370.253 111.461,-358.151"/>
<polygon fill="black" stroke="black" points="113.337,-355.185 103.208,-352.078 109.188,-360.823 113.337,-355.185"/>
</g>
<!-- content_ -->
<g id="node11" class="node"><title>content_</title>
<polygon fill="none" stroke="black" points="172.031,-132 107.969,-132 107.969,-96 172.031,-96 172.031,-132"/>
<text text-anchor="middle" x="140" y="-111.474" font-family="Avenir Next" font-size="14.00">content</text>
</g>
<!-- frame_&#45;&gt;content_ -->
<g id="edge12" class="edge"><title>frame_&#45;&gt;content_</title>
<path fill="none" stroke="black" d="M140,-167.697C140,-159.983 140,-150.712 140,-142.112"/>
<polygon fill="black" stroke="black" points="143.5,-142.104 140,-132.104 136.5,-142.104 143.5,-142.104"/>
</g>
<!-- textlabel_ -->
<g id="node12" class="node"><title>textlabel_</title>
<polygon fill="none" stroke="#5eb26b" points="211.126,-60 68.874,-60 68.874,-24 211.126,-24 211.126,-60"/>
<text text-anchor="middle" x="140" y="-39.4744" font-family="Avenir Next" font-size="14.00">text (text&#45;label/Plus)</text>
</g>
<!-- content_&#45;&gt;textlabel_ -->
<g id="edge13" class="edge"><title>content_&#45;&gt;textlabel_</title>
<path fill="none" stroke="black" d="M140,-95.6966C140,-87.9827 140,-78.7125 140,-70.1124"/>
<polygon fill="black" stroke="black" points="143.5,-70.1043 140,-60.1043 136.5,-70.1044 143.5,-70.1043"/>
</g>
<!-- content__ -->
<g id="node14" class="node"><title>content__</title>
<polygon fill="none" stroke="black" points="344.031,-132 279.969,-132 279.969,-96 344.031,-96 344.031,-132"/>
<text text-anchor="middle" x="312" y="-111.474" font-family="Avenir Next" font-size="14.00">content</text>
</g>
<!-- frame__&#45;&gt;content__ -->
<g id="edge16" class="edge"><title>frame__&#45;&gt;content__</title>
<path fill="none" stroke="black" d="M312,-167.697C312,-159.983 312,-150.712 312,-142.112"/>
<polygon fill="black" stroke="black" points="315.5,-142.104 312,-132.104 308.5,-142.104 315.5,-142.104"/>
</g>
<!-- textlabel__ -->
<g id="node15" class="node"><title>textlabel__</title>
<polygon fill="none" stroke="#5eb26b" points="388.92,-60 235.08,-60 235.08,-24 388.92,-24 388.92,-60"/>
<text text-anchor="middle" x="312" y="-39.4744" font-family="Avenir Next" font-size="14.00">text (text&#45;label/Minus)</text>
</g>
<!-- content__&#45;&gt;textlabel__ -->
<g id="edge17" class="edge"><title>content__&#45;&gt;textlabel__</title>
<path fill="none" stroke="black" d="M312,-95.6966C312,-87.9827 312,-78.7125 312,-70.1124"/>
<polygon fill="black" stroke="black" points="315.5,-70.1043 312,-60.1043 308.5,-70.1044 315.5,-70.1043"/>
</g>
<!-- vbutton -->
<g id="node18" class="node"><title>vbutton</title>
<polygon fill="none" stroke="black" points="527.338,-276 428.662,-276 428.662,-240 527.338,-240 527.338,-276"/>
<text text-anchor="middle" x="478" y="-255.474" font-family="Avenir Next" font-size="14.00">view (Button)</text>
</g>
<!-- Button&#45;&gt;vbutton -->
<g id="edge20" class="edge"><title>Button&#45;&gt;vbutton</title>
<path fill="none" stroke="#4dbce9" d="M462.962,-311.993C465.237,-303.973 467.866,-294.712 470.282,-286.197"/>
<polygon fill="#4dbce9" stroke="#4dbce9" points="473.723,-286.89 473.086,-276.315 466.989,-284.979 473.723,-286.89"/>
</g>
<!-- frame -->
<g id="node19" class="node"><title>frame</title>
<polygon fill="none" stroke="black" points="540.017,-204 423.983,-204 423.983,-168 540.017,-168 540.017,-204"/>
<text text-anchor="middle" x="482" y="-183.474" font-family="Avenir Next" font-size="14.00">html:div (frame)</text>
</g>
<!-- vbutton&#45;&gt;frame -->
<g id="edge21" class="edge"><title>vbutton&#45;&gt;frame</title>
<path fill="none" stroke="black" d="M478.989,-239.697C479.43,-231.983 479.959,-222.712 480.451,-214.112"/>
<polygon fill="black" stroke="black" points="483.946,-214.288 481.023,-204.104 476.958,-213.888 483.946,-214.288"/>
</g>
<!-- content -->
<g id="node20" class="node"><title>content</title>
<polygon fill="none" stroke="black" points="514.031,-132 449.969,-132 449.969,-96 514.031,-96 514.031,-132"/>
<text text-anchor="middle" x="482" y="-111.474" font-family="Avenir Next" font-size="14.00">content</text>
</g>
<!-- frame&#45;&gt;content -->
<g id="edge22" class="edge"><title>frame&#45;&gt;content</title>
<path fill="none" stroke="black" d="M482,-167.697C482,-159.983 482,-150.712 482,-142.112"/>
<polygon fill="black" stroke="black" points="485.5,-142.104 482,-132.104 478.5,-142.104 485.5,-142.104"/>
</g>
<!-- textlabel -->
<g id="node21" class="node"><title>textlabel</title>
<polygon fill="none" stroke="black" points="537.243,-60 426.757,-60 426.757,-24 537.243,-24 537.243,-60"/>
<text text-anchor="middle" x="482" y="-39.4744" font-family="Avenir Next" font-size="14.00">text (text&#45;label)</text>
</g>
<!-- content&#45;&gt;textlabel -->
<g id="edge23" class="edge"><title>content&#45;&gt;textlabel</title>
<path fill="none" stroke="black" d="M482,-95.6966C482,-87.9827 482,-78.7125 482,-70.1124"/>
<polygon fill="black" stroke="black" points="485.5,-70.1043 482,-60.1043 478.5,-70.1044 485.5,-70.1043"/>
</g>
</g>
</svg>
