<?xml version="1.0" encoding="UTF-8" standalone="no"?>
<!DOCTYPE svg PUBLIC "-//W3C//DTD SVG 1.1//EN"
 "http://www.w3.org/Graphics/SVG/1.1/DTD/svg11.dtd">
<!-- Generated by graphviz version 2.34.0 (20130907.0228)
 -->
<!-- Title: panel Pages: 1 -->
<svg width="356pt" height="428pt"
 viewBox="0.00 0.00 356.00 428.00" xmlns="http://www.w3.org/2000/svg" xmlns:xlink="http://www.w3.org/1999/xlink">
<g id="graph0" class="graph" transform="scale(1 1) rotate(0) translate(4 424)">
<title>panel</title>
<polygon fill="white" stroke="white" points="-4,4 -4,-424 352,-424 352,4 -4,4"/>
<!-- div1 -->
<g id="node1" class="node"><title>div1</title>
<polygon fill="none" stroke="black" points="259.455,-336 192.545,-336 192.545,-300 259.455,-300 259.455,-336"/>
<text text-anchor="middle" x="226" y="-315.474" font-family="Avenir Next" font-size="14.00">html:div</text>
</g>
<!-- vminus -->
<g id="node2" class="node"><title>vminus</title>
<polygon fill="none" stroke="black" points="171,-256 117,-256 117,-220 171,-220 171,-256"/>
<text text-anchor="middle" x="144" y="-235.474" font-family="Avenir Next" font-size="14.00">view</text>
</g>
<!-- div1&#45;&gt;vminus -->
<g id="edge1" class="edge"><title>div1&#45;&gt;vminus</title>
<path fill="none" stroke="black" d="M207.802,-299.689C196.548,-288.985 181.935,-275.084 169.533,-263.288"/>
<polygon fill="black" stroke="black" points="171.805,-260.619 162.148,-256.262 166.981,-265.69 171.805,-260.619"/>
</g>
<!-- vplus -->
<g id="node3" class="node"><title>vplus</title>
<polygon fill="none" stroke="black" points="243,-256 189,-256 189,-220 243,-220 243,-256"/>
<text text-anchor="middle" x="216" y="-235.474" font-family="Avenir Next" font-size="14.00">view</text>
</g>
<!-- div1&#45;&gt;vplus -->
<g id="edge3" class="edge"><title>div1&#45;&gt;vplus</title>
<path fill="none" stroke="black" d="M223.781,-299.689C222.525,-289.894 220.926,-277.422 219.504,-266.335"/>
<polygon fill="black" stroke="black" points="222.956,-265.736 218.213,-256.262 216.013,-266.626 222.956,-265.736"/>
</g>
<!-- textn -->
<g id="node4" class="node"><title>textn</title>
<polygon fill="none" stroke="black" points="348.252,-256 261.748,-256 261.748,-220 348.252,-220 348.252,-256"/>
<text text-anchor="middle" x="305" y="-235.474" font-family="Avenir Next" font-size="14.00">text (text&#45;n)</text>
</g>
<!-- div1&#45;&gt;textn -->
<g id="edge2" class="edge"><title>div1&#45;&gt;textn</title>
<path fill="none" stroke="black" d="M243.533,-299.689C254.272,-289.086 268.188,-275.346 280.062,-263.622"/>
<polygon fill="black" stroke="black" points="282.859,-265.779 287.516,-256.262 277.941,-260.798 282.859,-265.779"/>
</g>
<!-- Panel -->
<g id="node5" class="node"><title>Panel</title>
<ellipse fill="none" stroke="black" cx="144" cy="-398" rx="35.4841" ry="21.7689"/>
<text text-anchor="middle" x="144" y="-395.474" font-family="Avenir Next" font-size="14.00">Panel</text>
</g>
<!-- Panel&#45;&gt;div1 -->
<g id="edge4" class="edge"><title>Panel&#45;&gt;div1</title>
<path fill="none" stroke="#4dbce9" d="M162.607,-379.301C173.877,-368.581 188.403,-354.763 200.706,-343.06"/>
<polygon fill="#4dbce9" stroke="#4dbce9" points="203.197,-345.521 208.03,-336.093 198.372,-340.45 203.197,-345.521"/>
</g>
<!-- Plus -->
<g id="node6" class="node"><title>Plus</title>
<ellipse fill="none" stroke="black" cx="144" cy="-318" rx="29.5446" ry="21.7689"/>
<text text-anchor="middle" x="144" y="-315.474" font-family="Avenir Next" font-size="14.00">Plus</text>
</g>
<!-- Panel&#45;&gt;Plus -->
<g id="edge7" class="edge"><title>Panel&#45;&gt;Plus</title>
<path fill="none" stroke="black" d="M144,-376.097C144,-368.141 144,-358.894 144,-350.188"/>
<polygon fill="black" stroke="black" points="147.5,-349.96 144,-339.96 140.5,-349.96 147.5,-349.96"/>
</g>
<!-- Minus -->
<g id="node7" class="node"><title>Minus</title>
<ellipse fill="none" stroke="black" cx="58" cy="-318" rx="38.1875" ry="21.7689"/>
<text text-anchor="middle" x="58" y="-315.474" font-family="Avenir Next" font-size="14.00">Minus</text>
</g>
<!-- Panel&#45;&gt;Minus -->
<g id="edge8" class="edge"><title>Panel&#45;&gt;Minus</title>
<path fill="none" stroke="black" d="M124.485,-379.301C112.912,-368.804 98.0645,-355.338 85.3374,-343.794"/>
<polygon fill="black" stroke="black" points="87.4938,-341.025 77.7352,-336.899 82.791,-346.21 87.4938,-341.025"/>
</g>
<!-- Plus&#45;&gt;vplus -->
<g id="edge5" class="edge"><title>Plus&#45;&gt;vplus</title>
<path fill="none" stroke="#4dbce9" d="M160.338,-299.301C170.047,-288.783 182.508,-275.283 193.177,-263.725"/>
<polygon fill="#4dbce9" stroke="#4dbce9" points="196.011,-265.815 200.222,-256.093 190.867,-261.067 196.011,-265.815"/>
</g>
<!-- Button -->
<g id="node8" class="node"><title>Button</title>
<ellipse fill="none" stroke="black" cx="58" cy="-238" rx="40.9801" ry="21.7689"/>
<text text-anchor="middle" x="58" y="-235.474" font-family="Avenir Next" font-size="14.00">Button</text>
</g>
<!-- Plus&#45;&gt;Button -->
<g id="edge13" class="edge"><title>Plus&#45;&gt;Button</title>
<path fill="none" stroke="#f94179" d="M125.762,-300.458C114.056,-289.842 98.637,-275.857 85.4648,-263.91"/>
<polygon fill="#f94179" stroke="#f94179" points="87.7726,-261.278 78.014,-257.152 83.0698,-266.463 87.7726,-261.278"/>
</g>
<!-- Minus&#45;&gt;vminus -->
<g id="edge6" class="edge"><title>Minus&#45;&gt;vminus</title>
<path fill="none" stroke="#4dbce9" d="M77.9463,-298.909C89.6984,-288.25 104.712,-274.633 117.456,-263.075"/>
<polygon fill="#4dbce9" stroke="#4dbce9" points="119.991,-265.501 125.047,-256.19 115.289,-260.315 119.991,-265.501"/>
</g>
<!-- Minus&#45;&gt;Button -->
<g id="edge12" class="edge"><title>Minus&#45;&gt;Button</title>
<path fill="none" stroke="#f94179" d="M58,-296.097C58,-288.141 58,-278.894 58,-270.188"/>
<polygon fill="#f94179" stroke="#f94179" points="61.5001,-269.96 58,-259.96 54.5001,-269.96 61.5001,-269.96"/>
</g>
<!-- frame -->
<g id="node9" class="node"><title>frame</title>
<polygon fill="none" stroke="black" points="116.017,-180 -0.0168747,-180 -0.0168747,-144 116.017,-144 116.017,-180"/>
<text text-anchor="middle" x="58" y="-159.474" font-family="Avenir Next" font-size="14.00">html:div (frame)</text>
</g>
<!-- Button&#45;&gt;frame -->
<g id="edge9" class="edge"><title>Button&#45;&gt;frame</title>
<path fill="none" stroke="#4dbce9" d="M58,-215.993C58,-208.061 58,-198.915 58,-190.478"/>
<polygon fill="#4dbce9" stroke="#4dbce9" points="61.5001,-190.315 58,-180.315 54.5001,-190.315 61.5001,-190.315"/>
</g>
<!-- content -->
<g id="node10" class="node"><title>content</title>
<polygon fill="none" stroke="black" points="90.031,-108 25.969,-108 25.969,-72 90.031,-72 90.031,-108"/>
<text text-anchor="middle" x="58" y="-87.4744" font-family="Avenir Next" font-size="14.00">content</text>
</g>
<!-- frame&#45;&gt;content -->
<g id="edge10" class="edge"><title>frame&#45;&gt;content</title>
<path fill="none" stroke="black" d="M58,-143.697C58,-135.983 58,-126.712 58,-118.112"/>
<polygon fill="black" stroke="black" points="61.5001,-118.104 58,-108.104 54.5001,-118.104 61.5001,-118.104"/>
</g>
<!-- textlabel -->
<g id="node11" class="node"><title>textlabel</title>
<polygon fill="none" stroke="black" points="113.243,-36 2.75748,-36 2.75748,-0 113.243,-0 113.243,-36"/>
<text text-anchor="middle" x="58" y="-15.4744" font-family="Avenir Next" font-size="14.00">text (text&#45;label)</text>
</g>
<!-- content&#45;&gt;textlabel -->
<g id="edge11" class="edge"><title>content&#45;&gt;textlabel</title>
<path fill="none" stroke="black" d="M58,-71.6966C58,-63.9827 58,-54.7125 58,-46.1124"/>
<polygon fill="black" stroke="black" points="61.5001,-46.1043 58,-36.1043 54.5001,-46.1044 61.5001,-46.1043"/>
</g>
</g>
</svg>
