<?xml version="1.0" encoding="UTF-8" standalone="no"?>
<!DOCTYPE svg PUBLIC "-//W3C//DTD SVG 1.1//EN"
 "http://www.w3.org/Graphics/SVG/1.1/DTD/svg11.dtd">
<!-- Generated by graphviz version 2.34.0 (20130907.0228)
 -->
<!-- Title: panel Pages: 1 -->
<svg width="482pt" height="604pt"
 viewBox="0.00 0.00 482.00 604.00" xmlns="http://www.w3.org/2000/svg" xmlns:xlink="http://www.w3.org/1999/xlink">
<g id="graph0" class="graph" transform="scale(1 1) rotate(0) translate(4 600)">
<title>panel</title>
<polygon fill="white" stroke="white" points="-4,4 -4,-600 478,-600 478,4 -4,4"/>
<g id="clust1" class="cluster"><title>cluster_panel</title>
<polygon fill="none" stroke="#5eb26b" points="8,-300 8,-588 326,-588 326,-300 8,-300"/>
</g>
<g id="clust3" class="cluster"><title>cluster_button</title>
<polygon fill="none" stroke="#5eb26b" points="334,-8 334,-356 466,-356 466,-8 334,-8"/>
</g>
<!-- Panel -->
<g id="node1" class="node"><title>Panel</title>
<ellipse fill="none" stroke="black" cx="194" cy="-558" rx="35.4841" ry="21.7689"/>
<text text-anchor="middle" x="194" y="-555.474" font-family="Avenir Next" font-size="14.00">Panel</text>
</g>
<!-- vpanel -->
<g id="node2" class="node"><title>vpanel</title>
<polygon fill="none" stroke="black" points="165.332,-500 74.6678,-500 74.6678,-464 165.332,-464 165.332,-500"/>
<text text-anchor="middle" x="120" y="-479.474" font-family="Avenir Next" font-size="14.00">view (Panel)</text>
</g>
<!-- Panel&#45;&gt;vpanel -->
<g id="edge1" class="edge"><title>Panel&#45;&gt;vpanel</title>
<path fill="none" stroke="#4dbce9" d="M176.087,-539.087C166.587,-529.587 154.775,-517.775 144.445,-507.445"/>
<polygon fill="#4dbce9" stroke="#4dbce9" points="146.785,-504.835 137.239,-500.239 141.835,-509.785 146.785,-504.835"/>
</g>
<!-- Plus -->
<g id="node3" class="node"><title>Plus</title>
<ellipse fill="none" stroke="black" cx="194" cy="-406" rx="29.5446" ry="21.7689"/>
<text text-anchor="middle" x="194" y="-403.474" font-family="Avenir Next" font-size="14.00">Plus</text>
</g>
<!-- Panel&#45;&gt;Plus -->
<g id="edge2" class="edge"><title>Panel&#45;&gt;Plus</title>
<path fill="none" stroke="black" d="M194,-535.827C194,-510.366 194,-467.412 194,-438.163"/>
<polygon fill="black" stroke="black" points="197.5,-438.065 194,-428.065 190.5,-438.066 197.5,-438.065"/>
</g>
<!-- Minus -->
<g id="node4" class="node"><title>Minus</title>
<ellipse fill="none" stroke="black" cx="280" cy="-406" rx="38.1875" ry="21.7689"/>
<text text-anchor="middle" x="280" y="-403.474" font-family="Avenir Next" font-size="14.00">Minus</text>
</g>
<!-- Panel&#45;&gt;Minus -->
<g id="edge3" class="edge"><title>Panel&#45;&gt;Minus</title>
<path fill="none" stroke="black" d="M205.42,-537.081C220.263,-511.193 246.292,-465.792 263.339,-436.06"/>
<polygon fill="black" stroke="black" points="266.595,-437.417 268.533,-427.001 260.522,-433.936 266.595,-437.417"/>
</g>
<!-- div1 -->
<g id="node5" class="node"><title>div1</title>
<polygon fill="none" stroke="black" points="145.455,-424 78.5445,-424 78.5445,-388 145.455,-388 145.455,-424"/>
<text text-anchor="middle" x="112" y="-403.474" font-family="Avenir Next" font-size="14.00">html:div</text>
</g>
<!-- vpanel&#45;&gt;div1 -->
<g id="edge4" class="edge"><title>vpanel&#45;&gt;div1</title>
<path fill="none" stroke="black" d="M118.145,-463.837C117.195,-455.058 116.018,-444.163 114.948,-434.267"/>
<polygon fill="black" stroke="black" points="118.4,-433.636 113.845,-424.07 111.441,-434.388 118.4,-433.636"/>
</g>
<!-- vplus -->
<g id="node7" class="node"><title>vplus</title>
<polygon fill="none" stroke="black" points="204.013,-344 121.987,-344 121.987,-308 204.013,-308 204.013,-344"/>
<text text-anchor="middle" x="163" y="-323.474" font-family="Avenir Next" font-size="14.00">view (Plus)</text>
</g>
<!-- Plus&#45;&gt;vplus -->
<g id="edge8" class="edge"><title>Plus&#45;&gt;vplus</title>
<path fill="none" stroke="#4dbce9" d="M186.017,-384.913C182.21,-375.335 177.606,-363.749 173.518,-353.465"/>
<polygon fill="#4dbce9" stroke="#4dbce9" points="176.747,-352.112 169.801,-344.111 170.242,-354.697 176.747,-352.112"/>
</g>
<!-- Button -->
<g id="node9" class="node"><title>Button</title>
<ellipse fill="none" stroke="black" cx="383" cy="-326" rx="40.9801" ry="21.7689"/>
<text text-anchor="middle" x="383" y="-323.474" font-family="Avenir Next" font-size="14.00">Button</text>
</g>
<!-- Plus&#45;&gt;Button -->
<g id="edge15" class="edge"><title>Plus&#45;&gt;Button</title>
<path fill="none" stroke="#f94179" d="M216.704,-391.729C221.953,-388.956 227.589,-386.208 233,-384 274.545,-367.045 288.513,-373.095 330,-356 335.855,-353.587 341.896,-350.7 347.71,-347.696"/>
<polygon fill="#f94179" stroke="#f94179" points="349.44,-350.739 356.6,-342.93 346.133,-344.57 349.44,-350.739"/>
</g>
<!-- vminus -->
<g id="node6" class="node"><title>vminus</title>
<polygon fill="none" stroke="black" points="317.304,-344 222.696,-344 222.696,-308 317.304,-308 317.304,-344"/>
<text text-anchor="middle" x="270" y="-323.474" font-family="Avenir Next" font-size="14.00">view (Minus)</text>
</g>
<!-- Minus&#45;&gt;vminus -->
<g id="edge9" class="edge"><title>Minus&#45;&gt;vminus</title>
<path fill="none" stroke="#4dbce9" d="M277.32,-384.097C276.139,-374.885 274.736,-363.941 273.476,-354.111"/>
<polygon fill="#4dbce9" stroke="#4dbce9" points="276.925,-353.49 272.182,-344.017 269.982,-354.38 276.925,-353.49"/>
</g>
<!-- Minus&#45;&gt;Button -->
<g id="edge14" class="edge"><title>Minus&#45;&gt;Button</title>
<path fill="none" stroke="#f94179" d="M302.349,-388.075C316.86,-377.087 335.974,-362.612 351.952,-350.512"/>
<polygon fill="#f94179" stroke="#f94179" points="354.122,-353.259 359.981,-344.432 349.896,-347.679 354.122,-353.259"/>
</g>
<!-- div1&#45;&gt;vminus -->
<g id="edge6" class="edge"><title>div1&#45;&gt;vminus</title>
<path fill="none" stroke="black" d="M145.794,-388.478C148.906,-386.962 152.011,-385.452 155,-384 180.749,-371.497 187.354,-368.713 213,-356 217.668,-353.686 222.539,-351.246 227.383,-348.804"/>
<polygon fill="black" stroke="black" points="229.261,-351.777 236.603,-344.138 226.1,-345.531 229.261,-351.777"/>
</g>
<!-- div1&#45;&gt;vplus -->
<g id="edge7" class="edge"><title>div1&#45;&gt;vplus</title>
<path fill="none" stroke="black" d="M123.319,-387.689C130.053,-377.389 138.723,-364.129 146.241,-352.632"/>
<polygon fill="black" stroke="black" points="149.17,-354.547 151.713,-344.262 143.311,-350.717 149.17,-354.547"/>
</g>
<!-- textn -->
<g id="node8" class="node"><title>textn</title>
<polygon fill="none" stroke="black" points="103.252,-344 16.7483,-344 16.7483,-308 103.252,-308 103.252,-344"/>
<text text-anchor="middle" x="60" y="-323.474" font-family="Avenir Next" font-size="14.00">text (text&#45;n)</text>
</g>
<!-- div1&#45;&gt;textn -->
<g id="edge5" class="edge"><title>div1&#45;&gt;textn</title>
<path fill="none" stroke="black" d="M100.46,-387.689C93.5926,-377.389 84.7526,-364.129 77.0881,-352.632"/>
<polygon fill="black" stroke="black" points="79.9675,-350.641 71.5082,-344.262 74.1431,-354.524 79.9675,-350.641"/>
</g>
<!-- vbutton -->
<g id="node10" class="node"><title>vbutton</title>
<polygon fill="none" stroke="black" points="445.338,-268 346.662,-268 346.662,-232 445.338,-232 445.338,-268"/>
<text text-anchor="middle" x="396" y="-247.474" font-family="Avenir Next" font-size="14.00">view (Button)</text>
</g>
<!-- Button&#45;&gt;vbutton -->
<g id="edge10" class="edge"><title>Button&#45;&gt;vbutton</title>
<path fill="none" stroke="#4dbce9" d="M386.691,-303.993C388.099,-295.973 389.726,-286.712 391.222,-278.197"/>
<polygon fill="#4dbce9" stroke="#4dbce9" points="394.675,-278.769 392.958,-268.315 387.781,-277.558 394.675,-278.769"/>
</g>
<!-- frame -->
<g id="node11" class="node"><title>frame</title>
<polygon fill="none" stroke="black" points="458.017,-196 341.983,-196 341.983,-160 458.017,-160 458.017,-196"/>
<text text-anchor="middle" x="400" y="-175.474" font-family="Avenir Next" font-size="14.00">html:div (frame)</text>
</g>
<!-- vbutton&#45;&gt;frame -->
<g id="edge11" class="edge"><title>vbutton&#45;&gt;frame</title>
<path fill="none" stroke="black" d="M396.989,-231.697C397.43,-223.983 397.959,-214.712 398.451,-206.112"/>
<polygon fill="black" stroke="black" points="401.946,-206.288 399.023,-196.104 394.958,-205.888 401.946,-206.288"/>
</g>
<!-- content -->
<g id="node12" class="node"><title>content</title>
<polygon fill="none" stroke="black" points="432.031,-124 367.969,-124 367.969,-88 432.031,-88 432.031,-124"/>
<text text-anchor="middle" x="400" y="-103.474" font-family="Avenir Next" font-size="14.00">content</text>
</g>
<!-- frame&#45;&gt;content -->
<g id="edge12" class="edge"><title>frame&#45;&gt;content</title>
<path fill="none" stroke="black" d="M400,-159.697C400,-151.983 400,-142.712 400,-134.112"/>
<polygon fill="black" stroke="black" points="403.5,-134.104 400,-124.104 396.5,-134.104 403.5,-134.104"/>
</g>
<!-- textlabel -->
<g id="node13" class="node"><title>textlabel</title>
<polygon fill="none" stroke="black" points="455.243,-52 344.757,-52 344.757,-16 455.243,-16 455.243,-52"/>
<text text-anchor="middle" x="400" y="-31.4744" font-family="Avenir Next" font-size="14.00">text (text&#45;label)</text>
</g>
<!-- content&#45;&gt;textlabel -->
<g id="edge13" class="edge"><title>content&#45;&gt;textlabel</title>
<path fill="none" stroke="black" d="M400,-87.6966C400,-79.9827 400,-70.7125 400,-62.1124"/>
<polygon fill="black" stroke="black" points="403.5,-62.1043 400,-52.1043 396.5,-62.1044 403.5,-62.1043"/>
</g>
</g>
</svg>
