<?xml version="1.0" encoding="UTF-8" standalone="no"?>
<!DOCTYPE svg PUBLIC "-//W3C//DTD SVG 1.1//EN"
 "http://www.w3.org/Graphics/SVG/1.1/DTD/svg11.dtd">
<!-- Generated by graphviz version 2.34.0 (20130907.0228)
 -->
<!-- Title: tree Pages: 1 -->
<svg width="278pt" height="132pt"
 viewBox="0.00 0.00 278.00 132.00" xmlns="http://www.w3.org/2000/svg" xmlns:xlink="http://www.w3.org/1999/xlink">
<g id="graph0" class="graph" transform="scale(1 1) rotate(0) translate(4 128)">
<title>tree</title>
<polygon fill="white" stroke="white" points="-4,4 -4,-128 274,-128 274,4 -4,4"/>
<!-- A -->
<g id="node1" class="node"><title>A</title>
<ellipse fill="none" stroke="black" cx="45" cy="-102" rx="27" ry="21.7689"/>
<text text-anchor="middle" x="45" y="-99.4744" font-family="Avenir Next" font-size="14.00">A</text>
</g>
<!-- B1 -->
<g id="node2" class="node"><title>B1</title>
<ellipse fill="none" stroke="black" cx="27" cy="-22" rx="27" ry="21.7689"/>
<text text-anchor="middle" x="27" y="-19.4744" font-family="Avenir Next" font-size="14.00">B1</text>
</g>
<!-- A&#45;&gt;B1 -->
<g id="edge1" class="edge"><title>A&#45;&gt;B1</title>
<path fill="none" stroke="black" d="M40.1763,-80.0974C38.3051,-71.9888 36.1244,-62.5392 34.0819,-53.6884"/>
<polygon fill="black" stroke="black" points="37.4336,-52.6467 31.7746,-43.6898 30.6129,-54.2207 37.4336,-52.6467"/>
</g>
<!-- B2 -->
<g id="node3" class="node"><title>B2</title>
<ellipse fill="none" stroke="black" cx="99" cy="-22" rx="27" ry="21.7689"/>
<text text-anchor="middle" x="99" y="-19.4744" font-family="Avenir Next" font-size="14.00">B2</text>
</g>
<!-- A&#45;&gt;B2 -->
<g id="edge2" class="edge"><title>A&#45;&gt;B2</title>
<path fill="none" stroke="black" d="M57.7972,-82.5151C64.5895,-72.704 73.0582,-60.4715 80.5483,-49.6525"/>
<polygon fill="black" stroke="black" points="83.4801,-51.5664 86.2946,-41.3522 77.7248,-47.5819 83.4801,-51.5664"/>
</g>
<!-- B -->
<g id="node4" class="node"><title>B</title>
<ellipse fill="none" stroke="black" cx="153" cy="-102" rx="27" ry="21.7689"/>
<text text-anchor="middle" x="153" y="-99.4744" font-family="Avenir Next" font-size="14.00">B</text>
</g>
<!-- B&#45;&gt;B1 -->
<g id="edge3" class="edge"><title>B&#45;&gt;B1</title>
<path fill="none" stroke="#f94179" d="M123.204,-82.5547C100.122,-68.2662 68.7158,-48.8241 48.1584,-36.098"/>
<polygon fill="#f94179" stroke="#f94179" points="121.566,-85.6569 131.91,-87.9446 125.25,-79.705 121.566,-85.6569"/>
</g>
<!-- B&#45;&gt;B2 -->
<g id="edge4" class="edge"><title>B&#45;&gt;B2</title>
<path fill="none" stroke="#f94179" d="M134.447,-74.2009C126.948,-63.3693 118.482,-51.1414 111.705,-41.3522"/>
<polygon fill="#f94179" stroke="#f94179" points="131.633,-76.2854 140.203,-82.5151 137.388,-72.3009 131.633,-76.2854"/>
</g>
<!-- C -->
<g id="node5" class="node"><title>C</title>
<ellipse fill="none" stroke="black" cx="171" cy="-22" rx="27" ry="21.7689"/>
<text text-anchor="middle" x="171" y="-19.4744" font-family="Avenir Next" font-size="14.00">C</text>
</g>
<!-- B&#45;&gt;C -->
<g id="edge5" class="edge"><title>B&#45;&gt;C</title>
<path fill="none" stroke="black" d="M157.824,-80.0974C159.695,-71.9888 161.876,-62.5392 163.918,-53.6884"/>
<polygon fill="black" stroke="black" points="167.387,-54.2207 166.225,-43.6898 160.566,-52.6467 167.387,-54.2207"/>
</g>
<!-- D -->
<g id="node6" class="node"><title>D</title>
<ellipse fill="none" stroke="black" cx="243" cy="-22" rx="27" ry="21.7689"/>
<text text-anchor="middle" x="243" y="-19.4744" font-family="Avenir Next" font-size="14.00">D</text>
</g>
<!-- B&#45;&gt;D -->
<g id="edge6" class="edge"><title>B&#45;&gt;D</title>
<path fill="none" stroke="black" d="M171.213,-85.2155C184.474,-73.7222 202.616,-57.9996 217.343,-45.2358"/>
<polygon fill="black" stroke="black" points="219.857,-47.6891 225.121,-38.4948 215.272,-42.3992 219.857,-47.6891"/>
</g>
</g>
</svg>
