<?xml version="1.0" encoding="UTF-8" standalone="no"?>
<!DOCTYPE svg PUBLIC "-//W3C//DTD SVG 1.1//EN"
 "http://www.w3.org/Graphics/SVG/1.1/DTD/svg11.dtd">
<!-- Generated by graphviz version 2.34.0 (20130907.0228)
 -->
<!-- Title: tree Pages: 1 -->
<svg width="411pt" height="468pt"
 viewBox="0.00 0.00 411.00 468.00" xmlns="http://www.w3.org/2000/svg" xmlns:xlink="http://www.w3.org/1999/xlink">
<g id="graph0" class="graph" transform="scale(1 1) rotate(0) translate(4 464)">
<title>tree</title>
<polygon fill="white" stroke="white" points="-4,4 -4,-464 407,-464 407,4 -4,4"/>
<g id="clust2" class="cluster"><title>cluster2</title>
<polygon fill="none" stroke="black" points="201,-116 201,-344 311,-344 311,-116 201,-116"/>
</g>
<g id="clust1" class="cluster"><title>cluster1</title>
<polygon fill="none" stroke="black" points="83,-116 83,-344 193,-344 193,-116 83,-116"/>
</g>
<!-- VA -->
<g id="node1" class="node"><title>VA</title>
<polygon fill="none" stroke="black" points="197,-459.538 160.77,-394.231 233.23,-394.231 197,-459.538"/>
<text text-anchor="middle" x="197" y="-413.474" font-family="Avenir Next" font-size="14.00">A</text>
</g>
<!-- VB1 -->
<g id="node2" class="node"><title>VB1</title>
<polygon fill="none" stroke="black" points="138,-335.538 91.4462,-270.231 184.554,-270.231 138,-335.538"/>
<text text-anchor="middle" x="138" y="-289.474" font-family="Avenir Next" font-size="14.00">B1</text>
</g>
<!-- VA&#45;&gt;VB1 -->
<g id="edge1" class="edge"><title>VA&#45;&gt;VB1</title>
<path fill="none" stroke="black" d="M186.858,-394.027C178.075,-375.868 165.195,-349.234 154.864,-327.872"/>
<polygon fill="black" stroke="black" points="157.971,-326.257 150.467,-318.779 151.67,-329.305 157.971,-326.257"/>
</g>
<!-- VB2 -->
<g id="node3" class="node"><title>VB2</title>
<polygon fill="none" stroke="black" points="256,-335.538 209.446,-270.231 302.554,-270.231 256,-335.538"/>
<text text-anchor="middle" x="256" y="-289.474" font-family="Avenir Next" font-size="14.00">B2</text>
</g>
<!-- VA&#45;&gt;VB2 -->
<g id="edge2" class="edge"><title>VA&#45;&gt;VB2</title>
<path fill="none" stroke="black" d="M207.142,-394.027C215.925,-375.868 228.805,-349.234 239.136,-327.872"/>
<polygon fill="black" stroke="black" points="242.33,-329.305 243.533,-318.779 236.029,-326.257 242.33,-329.305"/>
</g>
<!-- VB_ -->
<g id="node4" class="node"><title>VB_</title>
<polygon fill="none" stroke="black" points="138,-211.538 98.5781,-146.231 177.422,-146.231 138,-211.538"/>
<text text-anchor="middle" x="138" y="-165.474" font-family="Avenir Next" font-size="14.00">B’</text>
</g>
<!-- VB1&#45;&gt;VB_ -->
<g id="edge3" class="edge"><title>VB1&#45;&gt;VB_</title>
<path fill="none" stroke="#f94179" d="M138,-270.027C138,-254.017 138,-231.421 138,-211.657"/>
</g>
<!-- VB__ -->
<g id="node7" class="node"><title>VB__</title>
<polygon fill="none" stroke="black" points="256,-211.538 213.676,-146.231 298.324,-146.231 256,-211.538"/>
<text text-anchor="middle" x="256" y="-165.474" font-family="Avenir Next" font-size="14.00">B”</text>
</g>
<!-- VB2&#45;&gt;VB__ -->
<g id="edge4" class="edge"><title>VB2&#45;&gt;VB__</title>
<path fill="none" stroke="#f94179" d="M256,-270.027C256,-254.017 256,-231.421 256,-211.657"/>
</g>
<!-- VC_ -->
<g id="node5" class="node"><title>VC_</title>
<polygon fill="none" stroke="black" points="41,-87.5378 0.0809714,-22.2311 81.919,-22.2311 41,-87.5378"/>
<text text-anchor="middle" x="41" y="-41.4744" font-family="Avenir Next" font-size="14.00">C’</text>
</g>
<!-- VB_&#45;&gt;VC_ -->
<g id="edge5" class="edge"><title>VB_&#45;&gt;VC_</title>
<path fill="none" stroke="black" d="M121.325,-146.027C105.091,-125.609 80.3382,-94.4769 62.6032,-72.171"/>
<polygon fill="black" stroke="black" points="65.1452,-69.7442 56.1821,-64.095 59.6659,-74.1006 65.1452,-69.7442"/>
</g>
<!-- VD_ -->
<g id="node6" class="node"><title>VD_</title>
<polygon fill="none" stroke="black" points="142,-87.5378 99.9841,-22.2311 184.016,-22.2311 142,-87.5378"/>
<text text-anchor="middle" x="142" y="-41.4744" font-family="Avenir Next" font-size="14.00">D’</text>
</g>
<!-- VB_&#45;&gt;VD_ -->
<g id="edge6" class="edge"><title>VB_&#45;&gt;VD_</title>
<path fill="none" stroke="black" d="M138.688,-146.027C139.139,-132.245 139.751,-113.582 140.326,-96.0473"/>
<polygon fill="black" stroke="black" points="143.829,-96.008 140.659,-85.8986 136.833,-95.7785 143.829,-96.008"/>
</g>
<!-- VC__ -->
<g id="node8" class="node"><title>VC__</title>
<polygon fill="none" stroke="black" points="250,-87.5378 205.683,-22.2311 294.317,-22.2311 250,-87.5378"/>
<text text-anchor="middle" x="250" y="-41.4744" font-family="Avenir Next" font-size="14.00">C”</text>
</g>
<!-- VB__&#45;&gt;VC__ -->
<g id="edge7" class="edge"><title>VB__&#45;&gt;VC__</title>
<path fill="none" stroke="black" d="M254.969,-146.027C254.28,-132.018 253.343,-112.964 252.468,-95.1788"/>
<polygon fill="black" stroke="black" points="255.949,-94.7172 251.962,-84.9012 248.958,-95.0611 255.949,-94.7172"/>
</g>
<!-- VD__ -->
<g id="node9" class="node"><title>VD__</title>
<polygon fill="none" stroke="black" points="358,-87.5378 313.082,-22.2311 402.918,-22.2311 358,-87.5378"/>
<text text-anchor="middle" x="358" y="-41.4744" font-family="Avenir Next" font-size="14.00">D”</text>
</g>
<!-- VB__&#45;&gt;VD__ -->
<g id="edge8" class="edge"><title>VB__&#45;&gt;VD__</title>
<path fill="none" stroke="black" d="M273.534,-146.027C290.58,-125.64 316.554,-94.5726 335.197,-72.274"/>
<polygon fill="black" stroke="black" points="337.975,-74.4084 341.704,-64.4915 332.604,-69.9184 337.975,-74.4084"/>
</g>
</g>
</svg>
