<?xml version="1.0" encoding="UTF-8" standalone="no"?>
<!DOCTYPE svg PUBLIC "-//W3C//DTD SVG 1.1//EN"
 "http://www.w3.org/Graphics/SVG/1.1/DTD/svg11.dtd">
<!-- Generated by graphviz version 2.34.0 (20130907.0228)
 -->
<!-- Title: tree Pages: 1 -->
<svg width="332pt" height="372pt"
 viewBox="0.00 0.00 331.87 372.00" xmlns="http://www.w3.org/2000/svg" xmlns:xlink="http://www.w3.org/1999/xlink">
<g id="graph0" class="graph" transform="scale(1 1) rotate(0) translate(4 368)">
<title>tree</title>
<polygon fill="white" stroke="white" points="-4,4 -4,-368 327.867,-368 327.867,4 -4,4"/>
<!-- A -->
<g id="node1" class="node"><title>A</title>
<ellipse fill="none" stroke="black" cx="141.867" cy="-342" rx="27" ry="21.7689"/>
<text text-anchor="middle" x="141.867" y="-339.474" font-family="Avenir Next" font-size="14.00">A</text>
</g>
<!-- B1 -->
<g id="node2" class="node"><title>B1</title>
<ellipse fill="none" stroke="black" cx="105.867" cy="-262" rx="27" ry="21.7689"/>
<text text-anchor="middle" x="105.867" y="-259.474" font-family="Avenir Next" font-size="14.00">B1</text>
</g>
<!-- A&#45;&gt;B1 -->
<g id="edge1" class="edge"><title>A&#45;&gt;B1</title>
<path fill="none" stroke="black" d="M132.783,-321.317C128.69,-312.449 123.774,-301.798 119.27,-292.039"/>
<polygon fill="black" stroke="black" points="122.317,-290.289 114.949,-282.676 115.962,-293.223 122.317,-290.289"/>
</g>
<!-- B2 -->
<g id="node3" class="node"><title>B2</title>
<ellipse fill="none" stroke="black" cx="177.867" cy="-262" rx="27" ry="21.7689"/>
<text text-anchor="middle" x="177.867" y="-259.474" font-family="Avenir Next" font-size="14.00">B2</text>
</g>
<!-- A&#45;&gt;B2 -->
<g id="edge2" class="edge"><title>A&#45;&gt;B2</title>
<path fill="none" stroke="black" d="M150.952,-321.317C155.045,-312.449 159.961,-301.798 164.465,-292.039"/>
<polygon fill="black" stroke="black" points="167.773,-293.223 168.786,-282.676 161.417,-290.289 167.773,-293.223"/>
</g>
<!-- B -->
<g id="node4" class="node"><title>B</title>
<ellipse fill="none" stroke="black" cx="141.867" cy="-182" rx="27" ry="21.7689"/>
<text text-anchor="middle" x="141.867" y="-179.474" font-family="Avenir Next" font-size="14.00">B</text>
</g>
<!-- B1&#45;&gt;B -->
<g id="edge3" class="edge"><title>B1&#45;&gt;B</title>
<path fill="none" stroke="#f94179" d="M114.952,-241.317C119.045,-232.449 123.961,-221.798 128.465,-212.039"/>
<polygon fill="#f94179" stroke="#f94179" points="131.773,-213.223 132.786,-202.676 125.417,-210.289 131.773,-213.223"/>
</g>
<!-- B2&#45;&gt;B -->
<g id="edge4" class="edge"><title>B2&#45;&gt;B</title>
<path fill="none" stroke="#f94179" d="M168.783,-241.317C164.69,-232.449 159.774,-221.798 155.27,-212.039"/>
<polygon fill="#f94179" stroke="#f94179" points="158.317,-210.289 150.949,-202.676 151.962,-213.223 158.317,-210.289"/>
</g>
<!-- C -->
<g id="node5" class="node"><title>C</title>
<ellipse fill="none" stroke="black" cx="42.8674" cy="-22" rx="27" ry="21.7689"/>
<text text-anchor="middle" x="42.8674" y="-19.4744" font-family="Avenir Next" font-size="14.00">C</text>
</g>
<!-- B&#45;&gt;C -->
<g id="edge5" class="edge"><title>B&#45;&gt;C</title>
<path fill="none" stroke="black" d="M115.054,-178.312C83.0701,-173.508 30.9135,-160.254 6.86738,-124 -8.5967,-100.685 6.50453,-69.9342 21.6123,-48.5146"/>
<polygon fill="black" stroke="black" points="24.6115,-50.3472 27.7773,-40.2364 18.9973,-46.1662 24.6115,-50.3472"/>
</g>
<!-- D -->
<g id="node6" class="node"><title>D</title>
<ellipse fill="none" stroke="black" cx="224.867" cy="-22" rx="27" ry="21.7689"/>
<text text-anchor="middle" x="224.867" y="-19.4744" font-family="Avenir Next" font-size="14.00">D</text>
</g>
<!-- B&#45;&gt;D -->
<g id="edge6" class="edge"><title>B&#45;&gt;D</title>
<path fill="none" stroke="black" d="M150.32,-160.889C159.21,-140.235 173.955,-107.335 188.867,-80 194.305,-70.0336 200.79,-59.4363 206.749,-50.1172"/>
<polygon fill="black" stroke="black" points="209.744,-51.9309 212.249,-41.6363 203.871,-48.122 209.744,-51.9309"/>
</g>
<!-- C_ -->
<g id="node7" class="node"><title>C_</title>
<ellipse fill="none" stroke="black" cx="42.8674" cy="-102" rx="27" ry="21.7689"/>
<text text-anchor="middle" x="42.8674" y="-99.4744" font-family="Avenir Next" font-size="14.00">C’</text>
</g>
<!-- B&#45;&gt;C_ -->
<g id="edge9" class="edge"><title>B&#45;&gt;C_</title>
<path fill="none" stroke="black" stroke-dasharray="5,2" d="M122.779,-165.961C107.851,-154.199 86.8971,-137.69 70.1914,-124.528"/>
<polygon fill="black" stroke="black" points="71.918,-121.433 61.897,-117.993 67.5858,-126.931 71.918,-121.433"/>
</g>
<!-- C__ -->
<g id="node8" class="node"><title>C__</title>
<ellipse fill="none" stroke="black" cx="114.867" cy="-102" rx="27" ry="21.7689"/>
<text text-anchor="middle" x="114.867" y="-99.4744" font-family="Avenir Next" font-size="14.00">C”</text>
</g>
<!-- B&#45;&gt;C__ -->
<g id="edge10" class="edge"><title>B&#45;&gt;C__</title>
<path fill="none" stroke="black" stroke-dasharray="5,2" d="M134.773,-160.506C131.859,-152.087 128.426,-142.17 125.239,-132.963"/>
<polygon fill="black" stroke="black" points="128.493,-131.662 121.914,-123.357 121.878,-133.951 128.493,-131.662"/>
</g>
<!-- D_ -->
<g id="node9" class="node"><title>D_</title>
<ellipse fill="none" stroke="black" cx="224.867" cy="-102" rx="27" ry="21.7689"/>
<text text-anchor="middle" x="224.867" y="-99.4744" font-family="Avenir Next" font-size="14.00">D’</text>
</g>
<!-- B&#45;&gt;D_ -->
<g id="edge13" class="edge"><title>B&#45;&gt;D_</title>
<path fill="none" stroke="black" stroke-dasharray="5,2" d="M159.065,-164.838C170.973,-153.648 187.002,-138.584 200.259,-126.126"/>
<polygon fill="black" stroke="black" points="202.801,-128.54 207.692,-119.141 198.008,-123.439 202.801,-128.54"/>
</g>
<!-- D__ -->
<g id="node10" class="node"><title>D__</title>
<ellipse fill="none" stroke="black" cx="296.867" cy="-102" rx="27" ry="21.7689"/>
<text text-anchor="middle" x="296.867" y="-99.4744" font-family="Avenir Next" font-size="14.00">D”</text>
</g>
<!-- B&#45;&gt;D__ -->
<g id="edge14" class="edge"><title>B&#45;&gt;D__</title>
<path fill="none" stroke="black" stroke-dasharray="5,2" d="M164.955,-170.618C189.134,-159.589 228.078,-141.379 260.867,-124 262.841,-122.954 264.863,-121.854 266.891,-120.73"/>
<polygon fill="black" stroke="black" points="268.738,-123.706 275.708,-115.727 265.284,-117.618 268.738,-123.706"/>
</g>
<!-- C_&#45;&gt;C -->
<g id="edge7" class="edge"><title>C_&#45;&gt;C</title>
<path fill="none" stroke="#f94179" d="M42.8674,-80.0974C42.8674,-72.1411 42.8674,-62.8937 42.8674,-54.1878"/>
<polygon fill="#f94179" stroke="#f94179" points="46.3675,-53.9602 42.8674,-43.9603 39.3675,-53.9603 46.3675,-53.9602"/>
</g>
<!-- C__&#45;&gt;C -->
<g id="edge8" class="edge"><title>C__&#45;&gt;C</title>
<path fill="none" stroke="#f94179" d="M99.2445,-84.0752C89.3377,-73.3428 76.3612,-59.285 65.3555,-47.3621"/>
<polygon fill="#f94179" stroke="#f94179" points="67.8145,-44.8659 58.4598,-39.8918 62.6708,-49.6139 67.8145,-44.8659"/>
</g>
<!-- D_&#45;&gt;D -->
<g id="edge11" class="edge"><title>D_&#45;&gt;D</title>
<path fill="none" stroke="#f94179" d="M224.867,-80.0974C224.867,-72.1411 224.867,-62.8937 224.867,-54.1878"/>
<polygon fill="#f94179" stroke="#f94179" points="228.367,-53.9602 224.867,-43.9603 221.367,-53.9603 228.367,-53.9602"/>
</g>
<!-- D__&#45;&gt;D -->
<g id="edge12" class="edge"><title>D__&#45;&gt;D</title>
<path fill="none" stroke="#f94179" d="M281.244,-84.0752C271.338,-73.3428 258.361,-59.285 247.355,-47.3621"/>
<polygon fill="#f94179" stroke="#f94179" points="249.814,-44.8659 240.46,-39.8918 244.671,-49.6139 249.814,-44.8659"/>
</g>
</g>
</svg>
