<?xml version="1.0" encoding="UTF-8" standalone="no"?>
<!DOCTYPE svg PUBLIC "-//W3C//DTD SVG 1.1//EN"
 "http://www.w3.org/Graphics/SVG/1.1/DTD/svg11.dtd">
<!-- Generated by graphviz version 2.34.0 (20130907.0228)
 -->
<!-- Title: tree Pages: 1 -->
<svg width="411pt" height="468pt"
 viewBox="0.00 0.00 411.00 468.00" xmlns="http://www.w3.org/2000/svg" xmlns:xlink="http://www.w3.org/1999/xlink">
<g id="graph0" class="graph" transform="scale(1 1) rotate(0) translate(4 464)">
<title>tree</title>
<polygon fill="white" stroke="white" points="-4,4 -4,-464 407,-464 407,4 -4,4"/>
<!-- VA -->
<g id="node1" class="node"><title>VA</title>
<polygon fill="none" stroke="black" points="195,-459.538 158.77,-394.231 231.23,-394.231 195,-459.538"/>
<text text-anchor="middle" x="195" y="-413.474" font-family="Avenir Next" font-size="14.00">A</text>
</g>
<!-- VB1 -->
<g id="node2" class="node"><title>VB1</title>
<polygon fill="none" stroke="black" points="140,-335.538 93.4462,-270.231 186.554,-270.231 140,-335.538"/>
<text text-anchor="middle" x="140" y="-289.474" font-family="Avenir Next" font-size="14.00">B1</text>
</g>
<!-- VA&#45;&gt;VB1 -->
<g id="edge1" class="edge"><title>VA&#45;&gt;VB1</title>
<path fill="none" stroke="black" d="M185.545,-394.027C177.448,-376.067 165.615,-349.818 156.039,-328.578"/>
<polygon fill="black" stroke="black" points="159.121,-326.897 151.82,-319.219 152.739,-329.774 159.121,-326.897"/>
</g>
<!-- VB2 -->
<g id="node3" class="node"><title>VB2</title>
<polygon fill="none" stroke="black" points="251,-335.538 204.446,-270.231 297.554,-270.231 251,-335.538"/>
<text text-anchor="middle" x="251" y="-289.474" font-family="Avenir Next" font-size="14.00">B2</text>
</g>
<!-- VA&#45;&gt;VB2 -->
<g id="edge2" class="edge"><title>VA&#45;&gt;VB2</title>
<path fill="none" stroke="black" d="M204.627,-394.027C212.871,-376.067 224.919,-349.818 234.669,-328.578"/>
<polygon fill="black" stroke="black" points="237.974,-329.767 238.965,-319.219 231.612,-326.847 237.974,-329.767"/>
</g>
<!-- VB_ -->
<g id="node4" class="node"><title>VB_</title>
<polygon fill="none" stroke="black" points="140,-211.538 100.578,-146.231 179.422,-146.231 140,-211.538"/>
<text text-anchor="middle" x="140" y="-165.474" font-family="Avenir Next" font-size="14.00">B’</text>
</g>
<!-- VB1&#45;&gt;VB_ -->
<g id="edge3" class="edge"><title>VB1&#45;&gt;VB_</title>
<path fill="none" stroke="#f94179" d="M140,-270.027C140,-254.017 140,-231.421 140,-211.657"/>
</g>
<!-- VB__ -->
<g id="node7" class="node"><title>VB__</title>
<polygon fill="none" stroke="black" points="251,-211.538 208.676,-146.231 293.324,-146.231 251,-211.538"/>
<text text-anchor="middle" x="251" y="-165.474" font-family="Avenir Next" font-size="14.00">B”</text>
</g>
<!-- VB2&#45;&gt;VB__ -->
<g id="edge4" class="edge"><title>VB2&#45;&gt;VB__</title>
<path fill="none" stroke="#f94179" d="M251,-270.027C251,-254.017 251,-231.421 251,-211.657"/>
</g>
<!-- VC_ -->
<g id="node5" class="node"><title>VC_</title>
<polygon fill="none" stroke="black" points="41,-87.5378 0.0809714,-22.2311 81.919,-22.2311 41,-87.5378"/>
<text text-anchor="middle" x="41" y="-41.4744" font-family="Avenir Next" font-size="14.00">C’</text>
</g>
<!-- VB_&#45;&gt;VC_ -->
<g id="edge5" class="edge"><title>VB_&#45;&gt;VC_</title>
<path fill="none" stroke="black" d="M122.981,-146.027C106.241,-125.397 80.6255,-93.8314 62.489,-71.4814"/>
<polygon fill="black" stroke="black" points="65.1947,-69.2611 56.1758,-63.7015 59.7592,-73.6719 65.1947,-69.2611"/>
</g>
<!-- VD_ -->
<g id="node6" class="node"><title>VD_</title>
<polygon fill="none" stroke="black" points="142,-87.5378 99.9841,-22.2311 184.016,-22.2311 142,-87.5378"/>
<text text-anchor="middle" x="142" y="-41.4744" font-family="Avenir Next" font-size="14.00">D’</text>
</g>
<!-- VB_&#45;&gt;VD_ -->
<g id="edge6" class="edge"><title>VB_&#45;&gt;VD_</title>
<path fill="none" stroke="black" d="M140.344,-146.027C140.567,-132.416 140.868,-114.044 141.152,-96.7"/>
<polygon fill="black" stroke="black" points="144.653,-96.7063 141.317,-86.6502 137.654,-96.5915 144.653,-96.7063"/>
</g>
<!-- VC__ -->
<g id="node8" class="node"><title>VC__</title>
<polygon fill="none" stroke="black" points="250,-87.5378 205.683,-22.2311 294.317,-22.2311 250,-87.5378"/>
<text text-anchor="middle" x="250" y="-41.4744" font-family="Avenir Next" font-size="14.00">C”</text>
</g>
<!-- VB__&#45;&gt;VC__ -->
<g id="edge7" class="edge"><title>VB__&#45;&gt;VC__</title>
<path fill="none" stroke="black" d="M250.828,-146.027C250.718,-132.656 250.571,-114.691 250.431,-97.6185"/>
<polygon fill="black" stroke="black" points="253.927,-97.1239 250.346,-87.153 246.928,-97.1814 253.927,-97.1239"/>
</g>
<!-- VD__ -->
<g id="node9" class="node"><title>VD__</title>
<polygon fill="none" stroke="black" points="358,-87.5378 313.082,-22.2311 402.918,-22.2311 358,-87.5378"/>
<text text-anchor="middle" x="358" y="-41.4744" font-family="Avenir Next" font-size="14.00">D”</text>
</g>
<!-- VB__&#45;&gt;VD__ -->
<g id="edge8" class="edge"><title>VB__&#45;&gt;VD__</title>
<path fill="none" stroke="black" d="M269.394,-146.027C287.488,-125.397 315.172,-93.8314 334.775,-71.4814"/>
<polygon fill="black" stroke="black" points="337.635,-73.5275 341.598,-63.7015 332.373,-68.9118 337.635,-73.5275"/>
</g>
</g>
</svg>
