<?xml version="1.0" encoding="UTF-8" standalone="no"?>
<!DOCTYPE svg PUBLIC "-//W3C//DTD SVG 1.1//EN"
 "http://www.w3.org/Graphics/SVG/1.1/DTD/svg11.dtd">
<!-- Generated by graphviz version 2.34.0 (20130907.0228)
 -->
<!-- Title: tree Pages: 1 -->
<svg width="278pt" height="372pt"
 viewBox="0.00 0.00 278.00 372.00" xmlns="http://www.w3.org/2000/svg" xmlns:xlink="http://www.w3.org/1999/xlink">
<g id="graph0" class="graph" transform="scale(1 1) rotate(0) translate(4 368)">
<title>tree</title>
<polygon fill="white" stroke="white" points="-4,4 -4,-368 274,-368 274,4 -4,4"/>
<!-- A -->
<g id="node1" class="node"><title>A</title>
<ellipse fill="none" stroke="black" cx="135" cy="-342" rx="27" ry="21.7689"/>
<text text-anchor="middle" x="135" y="-339.474" font-family="Avenir Next" font-size="14.00">A</text>
</g>
<!-- B1 -->
<g id="node2" class="node"><title>B1</title>
<ellipse fill="none" stroke="black" cx="99" cy="-262" rx="27" ry="21.7689"/>
<text text-anchor="middle" x="99" y="-259.474" font-family="Avenir Next" font-size="14.00">B1</text>
</g>
<!-- A&#45;&gt;B1 -->
<g id="edge1" class="edge"><title>A&#45;&gt;B1</title>
<path fill="none" stroke="black" d="M125.916,-321.317C121.823,-312.449 116.907,-301.798 112.403,-292.039"/>
<polygon fill="black" stroke="black" points="115.45,-290.289 108.081,-282.676 109.094,-293.223 115.45,-290.289"/>
</g>
<!-- B2 -->
<g id="node3" class="node"><title>B2</title>
<ellipse fill="none" stroke="black" cx="171" cy="-262" rx="27" ry="21.7689"/>
<text text-anchor="middle" x="171" y="-259.474" font-family="Avenir Next" font-size="14.00">B2</text>
</g>
<!-- A&#45;&gt;B2 -->
<g id="edge2" class="edge"><title>A&#45;&gt;B2</title>
<path fill="none" stroke="black" d="M144.084,-321.317C148.177,-312.449 153.093,-301.798 157.597,-292.039"/>
<polygon fill="black" stroke="black" points="160.906,-293.223 161.919,-282.676 154.55,-290.289 160.906,-293.223"/>
</g>
<!-- B -->
<g id="node4" class="node"><title>B</title>
<ellipse fill="none" stroke="black" cx="135" cy="-182" rx="27" ry="21.7689"/>
<text text-anchor="middle" x="135" y="-179.474" font-family="Avenir Next" font-size="14.00">B</text>
</g>
<!-- B1&#45;&gt;B -->
<g id="edge7" class="edge"><title>B1&#45;&gt;B</title>
<path fill="none" stroke="#f94179" d="M108.084,-241.317C112.177,-232.449 117.093,-221.798 121.597,-212.039"/>
<polygon fill="#f94179" stroke="#f94179" points="124.906,-213.223 125.919,-202.676 118.55,-210.289 124.906,-213.223"/>
</g>
<!-- B2&#45;&gt;B -->
<g id="edge10" class="edge"><title>B2&#45;&gt;B</title>
<path fill="none" stroke="#f94179" d="M161.916,-241.317C157.823,-232.449 152.907,-221.798 148.403,-212.039"/>
<polygon fill="#f94179" stroke="#f94179" points="151.45,-210.289 144.081,-202.676 145.094,-213.223 151.45,-210.289"/>
</g>
<!-- C -->
<g id="node5" class="node"><title>C</title>
<ellipse fill="none" stroke="black" cx="99" cy="-102" rx="27" ry="21.7689"/>
<text text-anchor="middle" x="99" y="-99.4744" font-family="Avenir Next" font-size="14.00">C</text>
</g>
<!-- B&#45;&gt;C -->
<g id="edge3" class="edge"><title>B&#45;&gt;C</title>
<path fill="none" stroke="black" d="M125.916,-161.317C121.823,-152.449 116.907,-141.798 112.403,-132.039"/>
<polygon fill="black" stroke="black" points="115.45,-130.289 108.081,-122.676 109.094,-133.223 115.45,-130.289"/>
</g>
<!-- D -->
<g id="node6" class="node"><title>D</title>
<ellipse fill="none" stroke="black" cx="171" cy="-102" rx="27" ry="21.7689"/>
<text text-anchor="middle" x="171" y="-99.4744" font-family="Avenir Next" font-size="14.00">D</text>
</g>
<!-- B&#45;&gt;D -->
<g id="edge4" class="edge"><title>B&#45;&gt;D</title>
<path fill="none" stroke="black" d="M144.084,-161.317C148.177,-152.449 153.093,-141.798 157.597,-132.039"/>
<polygon fill="black" stroke="black" points="160.906,-133.223 161.919,-122.676 154.55,-130.289 160.906,-133.223"/>
</g>
<!-- C_ -->
<g id="node7" class="node"><title>C_</title>
<ellipse fill="none" stroke="black" cx="27" cy="-22" rx="27" ry="21.7689"/>
<text text-anchor="middle" x="27" y="-19.4744" font-family="Avenir Next" font-size="14.00">C’</text>
</g>
<!-- C&#45;&gt;C_ -->
<g id="edge5" class="edge"><title>C&#45;&gt;C_</title>
<path fill="none" stroke="#f94179" d="M76.478,-76.6012C65.4683,-64.674 52.4929,-50.6173 42.5924,-39.8918"/>
<polygon fill="#f94179" stroke="#f94179" points="74.0224,-79.1011 83.3771,-84.0752 79.1661,-74.3531 74.0224,-79.1011"/>
</g>
<!-- C__ -->
<g id="node8" class="node"><title>C__</title>
<ellipse fill="none" stroke="black" cx="99" cy="-22" rx="27" ry="21.7689"/>
<text text-anchor="middle" x="99" y="-19.4744" font-family="Avenir Next" font-size="14.00">C”</text>
</g>
<!-- C&#45;&gt;C__ -->
<g id="edge6" class="edge"><title>C&#45;&gt;C__</title>
<path fill="none" stroke="#f94179" d="M99,-69.8753C99,-61.1721 99,-51.9228 99,-43.9603"/>
<polygon fill="#f94179" stroke="#f94179" points="95.5001,-70.0974 99,-80.0974 102.5,-70.0975 95.5001,-70.0974"/>
</g>
<!-- D_ -->
<g id="node9" class="node"><title>D_</title>
<ellipse fill="none" stroke="black" cx="171" cy="-22" rx="27" ry="21.7689"/>
<text text-anchor="middle" x="171" y="-19.4744" font-family="Avenir Next" font-size="14.00">D’</text>
</g>
<!-- D&#45;&gt;D_ -->
<g id="edge8" class="edge"><title>D&#45;&gt;D_</title>
<path fill="none" stroke="#f94179" d="M171,-69.8753C171,-61.1721 171,-51.9228 171,-43.9603"/>
<polygon fill="#f94179" stroke="#f94179" points="167.5,-70.0974 171,-80.0974 174.5,-70.0975 167.5,-70.0974"/>
</g>
<!-- D__ -->
<g id="node10" class="node"><title>D__</title>
<ellipse fill="none" stroke="black" cx="243" cy="-22" rx="27" ry="21.7689"/>
<text text-anchor="middle" x="243" y="-19.4744" font-family="Avenir Next" font-size="14.00">D”</text>
</g>
<!-- D&#45;&gt;D__ -->
<g id="edge9" class="edge"><title>D&#45;&gt;D__</title>
<path fill="none" stroke="#f94179" d="M193.522,-76.6012C204.532,-64.674 217.507,-50.6173 227.408,-39.8918"/>
<polygon fill="#f94179" stroke="#f94179" points="190.834,-74.3531 186.623,-84.0752 195.978,-79.1011 190.834,-74.3531"/>
</g>
</g>
</svg>
