<?xml version="1.0" encoding="UTF-8" standalone="no"?>
<!DOCTYPE svg PUBLIC "-//W3C//DTD SVG 1.1//EN"
 "http://www.w3.org/Graphics/SVG/1.1/DTD/svg11.dtd">
<!-- Generated by graphviz version 2.34.0 (20130907.0228)
 -->
<!-- Title: tree Pages: 1 -->
<svg width="134pt" height="292pt"
 viewBox="0.00 0.00 134.00 292.00" xmlns="http://www.w3.org/2000/svg" xmlns:xlink="http://www.w3.org/1999/xlink">
<g id="graph0" class="graph" transform="scale(1 1) rotate(0) translate(4 288)">
<title>tree</title>
<polygon fill="white" stroke="white" points="-4,4 -4,-288 130,-288 130,4 -4,4"/>
<!-- A -->
<g id="node1" class="node"><title>A</title>
<ellipse fill="none" stroke="black" cx="63" cy="-262" rx="27" ry="21.7689"/>
<text text-anchor="middle" x="63" y="-259.474" font-family="Avenir Next" font-size="14.00">A</text>
</g>
<!-- B1 -->
<g id="node2" class="node"><title>B1</title>
<ellipse fill="none" stroke="black" cx="27" cy="-182" rx="27" ry="21.7689"/>
<text text-anchor="middle" x="27" y="-179.474" font-family="Avenir Next" font-size="14.00">B1</text>
</g>
<!-- A&#45;&gt;B1 -->
<g id="edge1" class="edge"><title>A&#45;&gt;B1</title>
<path fill="none" stroke="black" d="M53.9157,-241.317C49.8227,-232.449 44.9069,-221.798 40.4027,-212.039"/>
<polygon fill="black" stroke="black" points="43.4499,-210.289 36.0814,-202.676 37.0942,-213.223 43.4499,-210.289"/>
</g>
<!-- B2 -->
<g id="node3" class="node"><title>B2</title>
<ellipse fill="none" stroke="black" cx="99" cy="-182" rx="27" ry="21.7689"/>
<text text-anchor="middle" x="99" y="-179.474" font-family="Avenir Next" font-size="14.00">B2</text>
</g>
<!-- A&#45;&gt;B2 -->
<g id="edge2" class="edge"><title>A&#45;&gt;B2</title>
<path fill="none" stroke="black" d="M72.0843,-241.317C76.1773,-232.449 81.0931,-221.798 85.5973,-212.039"/>
<polygon fill="black" stroke="black" points="88.9058,-213.223 89.9186,-202.676 82.5501,-210.289 88.9058,-213.223"/>
</g>
<!-- B -->
<g id="node4" class="node"><title>B</title>
<ellipse fill="none" stroke="black" cx="63" cy="-102" rx="27" ry="21.7689"/>
<text text-anchor="middle" x="63" y="-99.4744" font-family="Avenir Next" font-size="14.00">B</text>
</g>
<!-- B1&#45;&gt;B -->
<g id="edge3" class="edge"><title>B1&#45;&gt;B</title>
<path fill="none" stroke="#f94179" d="M36.0843,-161.317C40.1773,-152.449 45.0931,-141.798 49.5973,-132.039"/>
<polygon fill="#f94179" stroke="#f94179" points="52.9058,-133.223 53.9186,-122.676 46.5501,-130.289 52.9058,-133.223"/>
</g>
<!-- B2&#45;&gt;B -->
<g id="edge4" class="edge"><title>B2&#45;&gt;B</title>
<path fill="none" stroke="#f94179" d="M89.9157,-161.317C85.8227,-152.449 80.9069,-141.798 76.4027,-132.039"/>
<polygon fill="#f94179" stroke="#f94179" points="79.4499,-130.289 72.0814,-122.676 73.0942,-133.223 79.4499,-130.289"/>
</g>
<!-- C -->
<g id="node5" class="node"><title>C</title>
<ellipse fill="none" stroke="black" cx="27" cy="-22" rx="27" ry="21.7689"/>
<text text-anchor="middle" x="27" y="-19.4744" font-family="Avenir Next" font-size="14.00">C</text>
</g>
<!-- B&#45;&gt;C -->
<g id="edge5" class="edge"><title>B&#45;&gt;C</title>
<path fill="none" stroke="black" d="M53.9157,-81.3173C49.8227,-72.4491 44.9069,-61.7982 40.4027,-52.0391"/>
<polygon fill="black" stroke="black" points="43.4499,-50.2893 36.0814,-42.6764 37.0942,-53.2227 43.4499,-50.2893"/>
</g>
<!-- D -->
<g id="node6" class="node"><title>D</title>
<ellipse fill="none" stroke="black" cx="99" cy="-22" rx="27" ry="21.7689"/>
<text text-anchor="middle" x="99" y="-19.4744" font-family="Avenir Next" font-size="14.00">D</text>
</g>
<!-- B&#45;&gt;D -->
<g id="edge6" class="edge"><title>B&#45;&gt;D</title>
<path fill="none" stroke="black" d="M72.0843,-81.3173C76.1773,-72.4491 81.0931,-61.7982 85.5973,-52.0391"/>
<polygon fill="black" stroke="black" points="88.9058,-53.2227 89.9186,-42.6764 82.5501,-50.2893 88.9058,-53.2227"/>
</g>
</g>
</svg>
