<?xml version="1.0" encoding="UTF-8" standalone="no"?>
<!DOCTYPE svg PUBLIC "-//W3C//DTD SVG 1.1//EN"
 "http://www.w3.org/Graphics/SVG/1.1/DTD/svg11.dtd">
<!-- Generated by graphviz version 2.34.0 (20130907.0228)
 -->
<!-- Title: tree Pages: 1 -->
<svg width="350pt" height="212pt"
 viewBox="0.00 0.00 350.00 212.00" xmlns="http://www.w3.org/2000/svg" xmlns:xlink="http://www.w3.org/1999/xlink">
<g id="graph0" class="graph" transform="scale(1 1) rotate(0) translate(4 208)">
<title>tree</title>
<polygon fill="white" stroke="white" points="-4,4 -4,-208 346,-208 346,4 -4,4"/>
<!-- A -->
<g id="node1" class="node"><title>A</title>
<ellipse fill="none" stroke="black" cx="63" cy="-182" rx="27" ry="21.7689"/>
<text text-anchor="middle" x="63" y="-179.474" font-family="Avenir Next" font-size="14.00">A</text>
</g>
<!-- B1 -->
<g id="node2" class="node"><title>B1</title>
<ellipse fill="none" stroke="black" cx="27" cy="-102" rx="27" ry="21.7689"/>
<text text-anchor="middle" x="27" y="-99.4744" font-family="Avenir Next" font-size="14.00">B1</text>
</g>
<!-- A&#45;&gt;B1 -->
<g id="edge1" class="edge"><title>A&#45;&gt;B1</title>
<path fill="none" stroke="black" d="M53.9157,-161.317C49.8227,-152.449 44.9069,-141.798 40.4027,-132.039"/>
<polygon fill="black" stroke="black" points="43.4499,-130.289 36.0814,-122.676 37.0942,-133.223 43.4499,-130.289"/>
</g>
<!-- B2 -->
<g id="node3" class="node"><title>B2</title>
<ellipse fill="none" stroke="black" cx="99" cy="-102" rx="27" ry="21.7689"/>
<text text-anchor="middle" x="99" y="-99.4744" font-family="Avenir Next" font-size="14.00">B2</text>
</g>
<!-- A&#45;&gt;B2 -->
<g id="edge2" class="edge"><title>A&#45;&gt;B2</title>
<path fill="none" stroke="black" d="M72.0843,-161.317C76.1773,-152.449 81.0931,-141.798 85.5973,-132.039"/>
<polygon fill="black" stroke="black" points="88.9058,-133.223 89.9186,-122.676 82.5501,-130.289 88.9058,-133.223"/>
</g>
<!-- B -->
<g id="node4" class="node"><title>B</title>
<ellipse fill="none" stroke="black" cx="135" cy="-182" rx="27" ry="21.7689"/>
<text text-anchor="middle" x="135" y="-179.474" font-family="Avenir Next" font-size="14.00">B</text>
</g>
<!-- B&#45;&gt;B1 -->
<g id="edge3" class="edge"><title>B&#45;&gt;B1</title>
<path fill="none" stroke="#f94179" d="M107.198,-160.921C88.2845,-147.261 63.712,-129.514 46.7774,-117.284"/>
<polygon fill="#f94179" stroke="#f94179" points="105.286,-163.857 115.442,-166.875 109.384,-158.182 105.286,-163.857"/>
</g>
<!-- B&#45;&gt;B2 -->
<g id="edge4" class="edge"><title>B&#45;&gt;B2</title>
<path fill="none" stroke="#f94179" d="M121.594,-151.954C117.09,-142.194 112.174,-131.544 108.081,-122.676"/>
<polygon fill="#f94179" stroke="#f94179" points="118.547,-153.704 125.916,-161.317 124.903,-150.771 118.547,-153.704"/>
</g>
<!-- C -->
<g id="node5" class="node"><title>C</title>
<ellipse fill="none" stroke="black" cx="171" cy="-102" rx="27" ry="21.7689"/>
<text text-anchor="middle" x="171" y="-99.4744" font-family="Avenir Next" font-size="14.00">C</text>
</g>
<!-- B&#45;&gt;C -->
<g id="edge5" class="edge"><title>B&#45;&gt;C</title>
<path fill="none" stroke="black" d="M144.084,-161.317C148.177,-152.449 153.093,-141.798 157.597,-132.039"/>
<polygon fill="black" stroke="black" points="160.906,-133.223 161.919,-122.676 154.55,-130.289 160.906,-133.223"/>
</g>
<!-- D -->
<g id="node6" class="node"><title>D</title>
<ellipse fill="none" stroke="black" cx="243" cy="-102" rx="27" ry="21.7689"/>
<text text-anchor="middle" x="243" y="-99.4744" font-family="Avenir Next" font-size="14.00">D</text>
</g>
<!-- B&#45;&gt;D -->
<g id="edge6" class="edge"><title>B&#45;&gt;D</title>
<path fill="none" stroke="black" d="M154.558,-166.875C171.426,-154.692 195.99,-136.952 214.952,-123.257"/>
<polygon fill="black" stroke="black" points="217.165,-125.976 223.223,-117.284 213.067,-120.301 217.165,-125.976"/>
</g>
<!-- C_ -->
<g id="node7" class="node"><title>C_</title>
<ellipse fill="none" stroke="black" cx="99" cy="-22" rx="27" ry="21.7689"/>
<text text-anchor="middle" x="99" y="-19.4744" font-family="Avenir Next" font-size="14.00">C’</text>
</g>
<!-- C&#45;&gt;C_ -->
<g id="edge7" class="edge"><title>C&#45;&gt;C_</title>
<path fill="none" stroke="#f94179" d="M148.478,-76.6012C137.468,-64.674 124.493,-50.6173 114.592,-39.8918"/>
<polygon fill="#f94179" stroke="#f94179" points="146.022,-79.1011 155.377,-84.0752 151.166,-74.3531 146.022,-79.1011"/>
</g>
<!-- C__ -->
<g id="node8" class="node"><title>C__</title>
<ellipse fill="none" stroke="black" cx="171" cy="-22" rx="27" ry="21.7689"/>
<text text-anchor="middle" x="171" y="-19.4744" font-family="Avenir Next" font-size="14.00">C”</text>
</g>
<!-- C&#45;&gt;C__ -->
<g id="edge8" class="edge"><title>C&#45;&gt;C__</title>
<path fill="none" stroke="#f94179" d="M171,-69.8753C171,-61.1721 171,-51.9228 171,-43.9603"/>
<polygon fill="#f94179" stroke="#f94179" points="167.5,-70.0974 171,-80.0974 174.5,-70.0975 167.5,-70.0974"/>
</g>
<!-- D_ -->
<g id="node9" class="node"><title>D_</title>
<ellipse fill="none" stroke="black" cx="243" cy="-22" rx="27" ry="21.7689"/>
<text text-anchor="middle" x="243" y="-19.4744" font-family="Avenir Next" font-size="14.00">D’</text>
</g>
<!-- D&#45;&gt;D_ -->
<g id="edge9" class="edge"><title>D&#45;&gt;D_</title>
<path fill="none" stroke="#f94179" d="M243,-69.8753C243,-61.1721 243,-51.9228 243,-43.9603"/>
<polygon fill="#f94179" stroke="#f94179" points="239.5,-70.0974 243,-80.0974 246.5,-70.0975 239.5,-70.0974"/>
</g>
<!-- D__ -->
<g id="node10" class="node"><title>D__</title>
<ellipse fill="none" stroke="black" cx="315" cy="-22" rx="27" ry="21.7689"/>
<text text-anchor="middle" x="315" y="-19.4744" font-family="Avenir Next" font-size="14.00">D”</text>
</g>
<!-- D&#45;&gt;D__ -->
<g id="edge10" class="edge"><title>D&#45;&gt;D__</title>
<path fill="none" stroke="#f94179" d="M265.522,-76.6012C276.532,-64.674 289.507,-50.6173 299.408,-39.8918"/>
<polygon fill="#f94179" stroke="#f94179" points="262.834,-74.3531 258.623,-84.0752 267.978,-79.1011 262.834,-74.3531"/>
</g>
</g>
</svg>
